<svg width="140" height="140" viewBox="0 0 140 140" fill="none" xmlns="http://www.w3.org/2000/svg">
<rect width="139.919" height="140" fill="#F4F4F4"/>
<path d="M97.4365 20.9147C104.7 20.9147 110.589 14.3452 110.589 6.24121C110.589 14.3452 116.477 20.9147 123.741 20.9147C116.477 20.9147 110.589 27.4843 110.589 35.5882C110.589 27.4843 104.7 20.9147 97.4365 20.9147Z" fill="#2A2F45"/>
<path fill-rule="evenodd" clip-rule="evenodd" d="M46.1153 1.08594H74.8788L56.2485 22.9826H91.1487L29.2933 77.7142L48.1558 40.8087H13.459L46.1153 1.08594Z" fill="#387CD3"/>
<path d="M111.1 119.563L132.556 108.577L128.758 102.742L106.831 113.969C105.988 113.037 105.101 112.138 104.172 111.275L122.26 95.2329L116.888 90.4688L98.4922 106.784C97.4664 106.096 96.4078 105.445 95.3187 104.832L108.421 84.7066L101.842 81.3379L88.5881 101.696C87.4448 101.265 86.2782 100.873 85.0904 100.522L91.9809 77.7156L84.6429 75.9718L77.7095 98.92C76.5079 98.7498 75.2912 98.6201 74.061 98.5326V74.7363H66.4641V98.5326C65.2339 98.6201 64.0172 98.7498 62.8157 98.92L55.8823 75.9718L48.5442 77.7156L55.4347 100.522C54.247 100.873 53.0804 101.265 51.9371 101.696L38.6835 81.3379L32.1044 84.7066L45.2064 104.832C44.1173 105.445 43.0587 106.096 42.033 106.784L23.6368 90.4688L18.265 95.2329L36.3535 111.275C35.4246 112.138 34.5372 113.037 33.6942 113.969L11.7676 102.742L7.96916 108.577L29.4255 119.563C28.7296 120.657 28.0879 121.782 27.5038 122.935L3.88473 117.322L1.91851 123.83L24.9594 129.305C24.578 130.585 24.2637 131.889 24.0201 133.215H0.525391V139.952H140V133.215H116.505C116.261 131.889 115.947 130.585 115.566 129.305L138.607 123.83L136.64 117.322L113.021 122.935C112.437 121.782 111.796 120.657 111.1 119.563Z" fill="#387CD3"/>
</svg>
