<svg width="40" height="40" viewBox="0 0 40 40" fill="none" xmlns="http://www.w3.org/2000/svg">
<path d="M18.7362 22.6735H15.7151V20.6904H18.7362H18.7862V20.6404V17.8742C18.7862 16.178 19.1926 15.0708 19.856 14.3796C20.5191 13.6889 21.5021 13.3361 22.883 13.3361C23.896 13.3361 24.3421 13.3923 24.7247 13.4404C24.7456 13.4431 24.7663 13.4457 24.7869 13.4482V15.0591H23.3908C22.5508 15.0591 21.8618 15.5286 21.5043 16.1535C21.1487 16.7751 21.0395 17.5143 21.0395 18.2614V20.6392V20.6892H21.0895H24.6493L24.3428 22.6723H21.0895H21.0395V22.7223V33V33.0573L21.0962 33.0495L21.7668 32.9582C28.1351 32.0931 33.05 26.6316 33.05 20.0208C33.05 12.8091 27.2004 6.95 20 6.95C12.7996 6.95 6.95 12.8091 6.95 20.0208C6.95 26.5677 11.7711 31.9856 18.0502 32.9304L18.7287 33.0333L18.7862 33.042V32.9838V22.7235V22.6735H18.7362ZM22.3213 19.4055V18.2614C22.3213 17.6515 22.433 17.1113 22.6159 16.7916C22.7089 16.6291 22.7966 16.5191 22.9112 16.4484C23.0254 16.3779 23.1724 16.3428 23.3908 16.3428H26.0187H26.0687V16.2928V12.3325V12.2888L26.0254 12.2829L25.513 12.2136L25.4977 12.2115C25.1343 12.1622 24.3251 12.0524 22.883 12.0524C21.2772 12.0524 19.891 12.4907 18.9321 13.4897C17.9736 14.4883 17.5044 15.971 17.5044 17.8742V19.4067H14.4833H14.4333V19.4567V23.9072V23.9572H14.4833H17.5044V31.4827C12.2124 30.3311 8.23182 25.6712 8.23182 20.0208C8.23182 13.5039 13.4937 8.23371 20 8.23371C26.5063 8.23371 31.7682 13.5039 31.7682 20.0208C31.7682 25.7337 27.7008 30.4361 22.3213 31.5207V23.956H25.399H25.4418L25.4484 23.9136L26.1351 19.4632L26.144 19.4055H26.0857H22.3213Z" fill="#2A2F45" stroke="black" stroke-width="0.1"/>
</svg>
