<svg width="40" height="40" viewBox="0 0 40 40" fill="none" xmlns="http://www.w3.org/2000/svg">
<path d="M19.95 27.3786V22.2857C19.95 21.6094 20.1139 20.9019 20.5401 20.3241C20.9679 19.7443 21.6963 19.3383 22.5824 19.354M19.95 27.3786L22.5815 19.404M19.95 27.3786H17.7643V17.7643H19.95V18.606C19.95 18.7363 19.991 18.8633 20.0672 18.9691C20.1433 19.0748 20.2508 19.1539 20.3744 19.1953C20.498 19.2366 20.6314 19.238 20.7558 19.1994C20.8803 19.1607 20.9894 19.0839 21.0678 18.9799L21.0683 18.9792L19.95 27.3786ZM22.5824 19.354L22.5815 19.404M22.5824 19.354C22.5824 19.354 22.5823 19.354 22.5823 19.354L22.5815 19.404M22.5824 19.354C23.4626 19.3692 24.1791 19.7664 24.606 20.3396C25.0314 20.9109 25.1929 21.6116 25.1929 22.2857V27.3786M22.5815 19.404C23.4468 19.4189 24.1486 19.8091 24.5658 20.3694C24.9831 20.9298 25.1429 21.619 25.1429 22.2857V27.3786H25.1929M25.1929 27.3786V27.4286H27.3786V27.3786M25.1929 27.3786H27.3786M27.3786 27.3786H27.4286L21.0684 18.9792L21.0684 18.9791L21.0688 18.9786L21.0705 18.9763L21.0779 18.9666C21.0846 18.9581 21.0948 18.9453 21.1086 18.9289C21.1362 18.896 21.178 18.8488 21.2344 18.7919C21.3472 18.6782 21.5182 18.5261 21.75 18.3738C22.2133 18.0695 22.9202 17.7643 23.8929 17.7643C24.8832 17.7643 25.7284 18.093 26.3454 18.7442C26.9624 19.3955 27.3786 20.403 27.3786 21.8638V27.3786ZM13.7136 16.0433H13.7143L16.0421 13.9482C16.0421 13.9481 16.0421 13.948 16.0421 13.9479C15.9822 12.8315 14.9881 11.9567 13.7143 11.9567C13.0787 11.9567 12.5035 12.1467 12.0761 12.5064C11.6482 12.8664 11.3853 13.4045 11.3853 13.981C11.3853 15.0781 12.3337 15.9246 13.5266 16.0114C13.5869 16.0316 13.65 16.0424 13.7136 16.0433ZM22.5605 20.5969H22.5605C22.8366 20.6016 23.0442 20.6512 23.209 20.7343C23.3737 20.8174 23.499 20.9355 23.6083 21.0823C23.8258 21.3743 23.95 21.817 23.95 22.2857V28C23.95 28.1648 24.0155 28.3229 24.132 28.4394C24.2486 28.5559 24.4066 28.6214 24.5714 28.6214H28C28.1648 28.6214 28.3229 28.5559 28.4394 28.4394C28.5559 28.3229 28.6214 28.1648 28.6214 28V21.8638C28.6214 20.1618 28.1171 18.8079 27.2472 17.8897C26.3773 16.9714 25.1684 16.5214 23.8929 16.5214C22.7277 16.5214 21.8298 16.8969 21.1929 17.294V17.1429C21.1928 16.978 21.1274 16.82 21.0108 16.7035C20.8943 16.5869 20.7362 16.5214 20.5714 16.5214H17.1429C16.978 16.5214 16.82 16.5869 16.7035 16.7035C16.5869 16.82 16.5214 16.978 16.5214 17.1429V28C16.5214 28.1648 16.5869 28.3229 16.7035 28.4394C16.82 28.5559 16.978 28.6214 17.1429 28.6214H20.5714C20.7362 28.6214 20.8943 28.5559 21.0108 28.4394C21.1274 28.3229 21.1928 28.1648 21.1929 28V22.2857C21.1929 21.8191 21.3205 21.3588 21.5402 21.0609C21.6509 20.9109 21.774 20.7936 21.9335 20.7144C22.0932 20.6351 22.2932 20.5921 22.5605 20.5969ZM10.8571 7.95C9.25838 7.95 7.95 9.25838 7.95 10.8571V29.1429C7.95 30.7416 9.25838 32.05 10.8571 32.05H29.1429C30.7416 32.05 32.05 30.7416 32.05 29.1429V10.8571C32.05 9.25838 30.7416 7.95 29.1429 7.95H10.8571ZM10.8571 9.19286H29.1429C30.0687 9.19286 30.8071 9.93134 30.8071 10.8571V29.1429C30.8071 30.0687 30.0687 30.8071 29.1429 30.8071H10.8571C9.93134 30.8071 9.19286 30.0687 9.19286 29.1429V10.8571C9.19286 9.93134 9.93134 9.19286 10.8571 9.19286ZM13.7143 13.1862C14.1054 13.1862 14.3697 13.2736 14.5398 13.4152C14.7084 13.5557 14.7914 13.7555 14.8082 13.9969C14.8045 14.2303 14.7308 14.4314 14.5639 14.5753C14.3955 14.7205 14.1247 14.8138 13.7143 14.8138C13.3266 14.8138 13.052 14.7146 12.8751 14.5634C12.6989 14.4128 12.6147 14.2066 12.6147 13.981C12.6147 13.7576 12.6949 13.5916 12.867 13.4467C13.0395 13.3016 13.3212 13.1862 13.7143 13.1862ZM12 16.5214C11.8352 16.5214 11.6771 16.5869 11.5606 16.7035C11.4441 16.82 11.3786 16.978 11.3786 17.1429V28C11.3786 28.1648 11.4441 28.3229 11.5606 28.4394C11.6771 28.5559 11.8352 28.6214 12 28.6214H15.4286C15.5934 28.6214 15.7514 28.5559 15.868 28.4394C15.9845 28.3229 16.05 28.1648 16.05 28V24.6484V17.1429C16.05 16.978 15.9845 16.82 15.868 16.7035C15.7514 16.5869 15.5934 16.5214 15.4286 16.5214H12ZM14.8071 17.7643V24.6484V27.3786H12.6214V17.7643H14.8071Z" fill="#2A2F45" stroke="black" stroke-width="0.1"/>
</svg>
