<svg width="40" height="40" viewBox="0 0 40 40" fill="none" xmlns="http://www.w3.org/2000/svg">
<path d="M12.4368 18.9889C14.8762 18.9889 16.8721 16.9459 16.8721 14.449C16.8721 14.3128 16.8721 14.1766 16.8721 14.0404L23.9687 12.2698C24.013 12.2698 24.1017 12.2244 24.1461 12.179C24.5453 13.541 25.5654 14.5852 26.8517 14.9938L25.2106 21.9853C22.505 21.7129 20.0656 23.7105 19.7995 26.4799C19.5333 29.2492 21.4849 31.7462 24.1904 32.0186C26.896 32.291 29.3354 30.2934 29.6016 27.5241C29.8233 25.2541 28.5814 23.1203 26.4968 22.3031L28.1823 15.1754C30.3999 15.0846 32.0854 13.1324 31.9967 10.9078C31.9079 8.63781 30.0007 6.91263 27.8274 7.00343C25.7428 7.09422 24.1017 8.86481 24.013 10.9986C23.88 10.9532 23.7469 10.9532 23.6138 10.9532L16.5173 12.7238C15.5859 10.4084 13.0134 9.31881 10.7513 10.2268C8.48932 11.1348 7.42483 13.8134 8.3119 16.1288C9.02156 17.8539 10.6626 18.9889 12.4368 18.9889ZM28.271 26.9793C28.271 29.0223 26.6742 30.6566 24.6783 30.6566C22.6824 30.6566 21.0857 29.0223 21.0857 26.9793C21.0857 24.9363 22.6824 23.3019 24.6783 23.3019C26.6742 23.3473 28.271 24.9817 28.271 26.9793ZM27.9605 8.36541C29.4242 8.36541 30.6217 9.5912 30.6217 11.0894C30.6217 12.5876 29.4242 13.8134 27.9605 13.8134C26.4968 13.8134 25.2993 12.5876 25.2993 11.0894C25.2993 9.5912 26.4968 8.36541 27.9605 8.36541ZM12.4368 11.271C14.1666 11.271 15.5415 12.6784 15.5415 14.449C15.5415 16.2196 14.1666 17.6269 12.4368 17.6269C10.707 17.6269 9.33203 16.2196 9.33203 14.449C9.33203 12.6784 10.7513 11.271 12.4368 11.271Z" fill="black"/>
</svg>
