<svg width="40" height="40" viewBox="0 0 40 40" fill="none" xmlns="http://www.w3.org/2000/svg">
<path d="M28.928 11.7317L28.9274 11.7311C28.0654 10.7752 26.8347 10.1711 25.4732 10.1711C22.8587 10.1711 20.75 12.3584 20.75 15.0784C20.75 15.4638 20.8021 15.8454 20.8836 16.206L20.8837 16.2062C20.9249 16.3919 20.8791 16.587 20.7599 16.7346L20.7597 16.7349C20.6401 16.8806 20.4603 16.9597 20.2757 16.9502L20.2757 16.9502C16.0228 16.7276 12.2549 14.7038 9.55212 11.6533C9.35694 12.1871 9.21326 12.7427 9.21326 13.3442C9.21326 15.0529 10.0482 16.5548 11.3164 17.4368C11.5441 17.5854 11.644 17.8758 11.5618 18.1391C11.4795 18.4027 11.2362 18.5782 10.9656 18.5618C10.9654 18.5617 10.9651 18.5617 10.9649 18.5617L10.968 18.5118C10.3849 18.4927 9.8452 18.3488 9.31837 18.1631L28.928 11.7317ZM28.928 11.7317C29.0706 11.8846 29.2803 11.9495 29.4811 11.9042C30.1287 11.7712 30.746 11.5812 31.3476 11.3391C30.9962 11.7975 30.5739 12.1907 30.0868 12.4949C29.8184 12.632 29.6942 12.953 29.792 13.2439C29.8881 13.5338 30.1814 13.7045 30.4743 13.6388C30.7482 13.6041 31.0061 13.5292 31.2582 13.4459C31.335 13.4206 31.4109 13.3946 31.4866 13.3686C31.6058 13.3278 31.7244 13.2872 31.8442 13.2498C31.4171 13.7143 30.9532 14.1364 30.4525 14.513L30.4523 14.5131C30.289 14.6373 30.1999 14.8374 30.2133 15.046C30.2133 15.0462 30.2134 15.0465 30.2134 15.0467L30.2135 15.0514C30.2219 15.2772 30.2301 15.4998 30.2301 15.7266C30.2301 19.2186 28.9396 23.0104 26.4808 25.9067C24.0228 28.8021 20.4142 30.8289 15.6906 30.8289C13.6114 30.8289 11.6448 30.3656 9.85926 29.5461C12.0743 29.3338 14.1159 28.502 15.7728 27.1515L15.7731 27.1512C15.9664 26.9911 16.0415 26.7244 15.9638 26.4821C15.886 26.2397 15.6701 26.0715 15.4222 26.0643L15.4217 26.0643C13.6917 26.0323 12.2359 25.0036 11.4392 23.5367H11.4394H11.4395H11.4397H11.4399H11.4401H11.4402C11.9779 23.5367 12.5097 23.466 13.0057 23.3245L13.0057 23.3246L13.0066 23.3243C13.2648 23.2452 13.4411 22.9969 13.432 22.7187C13.4228 22.4411 13.2331 22.2017 12.9693 22.1416L12.9685 22.1415C11.0968 21.7488 9.68394 20.1813 9.3283 18.2196L28.928 11.7317ZM9.30091 9.96394L9.30086 9.96394C9.10382 9.97838 8.92901 10.0962 8.83278 10.2721C8.32492 11.1792 8.03381 12.2232 8.03381 13.3442C8.03381 14.6427 8.46135 15.8355 9.12968 16.8281C9.12275 16.8256 9.11585 16.8231 9.10899 16.8206C9.09505 16.8156 9.08126 16.8106 9.06768 16.8057C8.99639 16.7795 8.92934 16.7529 8.86809 16.717L8.8681 16.7169L8.86697 16.7163C8.68467 16.6157 8.46505 16.6204 8.28725 16.7307C8.10973 16.8409 8.00236 17.0388 8.00007 17.25V17.2506V17.3206C8.00007 19.3421 8.97814 21.1053 10.4355 22.2202C10.2737 22.2254 10.1197 22.2988 10.0106 22.4274C9.87491 22.5875 9.83178 22.8087 9.89115 23.0103L9.89136 23.011C10.4878 24.9366 11.9929 26.4162 13.8648 26.9886C12.3761 27.8856 10.6588 28.4115 8.80907 28.4115C8.39989 28.4115 8.00781 28.3898 7.61804 28.3419C7.34044 28.3036 7.07605 28.472 6.98439 28.7433L7.03164 28.7593L6.98451 28.743C6.89078 29.0136 6.99309 29.316 7.23007 29.4669C9.67281 31.0944 12.5727 32.05 15.6906 32.05C20.7431 32.05 24.7077 29.8575 27.3666 26.7247C30.0247 23.5929 31.4096 19.5261 31.4096 15.7266C31.4096 15.6299 31.4049 15.5326 31.4003 15.4369C31.3977 15.383 31.3951 15.3296 31.3934 15.2771C32.3778 14.4917 33.258 13.5711 33.9483 12.4957C34.0972 12.2694 34.0812 11.9675 33.9093 11.758C33.739 11.5477 33.4507 11.4826 33.2103 11.5999C33.0769 11.6618 32.9312 11.6964 32.7792 11.7286C32.7596 11.7328 32.7399 11.7369 32.7202 11.741C32.6353 11.7587 32.5488 11.7768 32.4635 11.7996C32.8127 11.2983 33.111 10.7576 33.2964 10.1533L33.2965 10.1532C33.3698 9.91282 33.2898 9.64878 33.0992 9.49134L33.0989 9.4911C32.9076 9.33557 32.6398 9.31609 32.4295 9.44805C31.5208 10.0073 30.5148 10.4019 29.4521 10.6444C28.4013 9.63154 27.0201 8.95 25.4732 8.95C22.216 8.95 19.5705 11.7003 19.5705 15.0784C19.5705 15.1829 19.5831 15.2855 19.5976 15.3851C19.6014 15.4105 19.6052 15.4357 19.609 15.4606C19.6171 15.5137 19.625 15.5659 19.6315 15.618C15.6796 15.2088 12.1866 13.2238 9.81001 10.1956C9.68821 10.0359 9.49924 9.94956 9.30091 9.96394Z" fill="#2A2F45" stroke="black" stroke-width="0.1"/>
</svg>
