<svg width="234" height="63" viewBox="0 0 234 63" fill="none" xmlns="http://www.w3.org/2000/svg">
<path d="M234 0.00449753L234 19.2184C233.773 19.2135 233.546 19.2111 233.317 19.2111C217.063 19.2111 204.555 31.5916 204.555 46.0669L185.055 46.0669C185.055 31.5916 172.547 19.2111 156.293 19.2111C140.038 19.2111 127.53 31.5916 127.53 46.0669L108.03 46.0669C108.03 31.5916 95.522 19.2111 79.2675 19.2111C63.013 19.2111 50.505 31.5916 50.505 46.0669L31.005 46.0669C31.005 31.5916 18.497 19.2111 2.24251 19.2111C1.48662 19.2111 0.738833 19.2379 1.76521e-05 19.2904L1.93719e-05 0.0492316C0.743717 0.016471 1.49137 -8.09072e-05 2.24251 -8.0843e-05C17.8181 -7.95117e-05 31.8811 7.11663 40.755 18.2837C49.6289 7.11663 63.6919 -7.5591e-05 79.2675 -7.42598e-05C94.8431 -7.29286e-05 108.906 7.11664 117.78 18.2837C126.654 7.11664 140.717 -6.90079e-05 156.293 -6.76766e-05C171.868 -6.63454e-05 185.931 7.11664 194.805 18.2837C203.679 7.11664 217.742 -6.24247e-05 233.318 -6.10935e-05C233.545 -6.1074e-05 233.773 0.00146101 234 0.00449753Z" fill="white"/>
<path d="M39.9721 35.839L40.755 36.8242L41.5379 35.839C50.2225 24.9102 63.9974 17.933 79.2675 17.933C94.5376 17.933 108.312 24.9102 116.997 35.839L117.78 36.8242L118.563 35.839C127.247 24.9102 141.022 17.933 156.293 17.933C171.563 17.933 185.337 24.9102 194.022 35.839L194.805 36.8242L195.588 35.839C204.212 24.986 217.857 18.03 233 17.9341L233 35.1457C216.766 35.3024 204.13 47.4592 203.574 62L186.036 62C185.476 47.3645 172.679 35.1442 156.293 35.1442C139.906 35.1442 127.109 47.3645 126.549 62L109.011 62C108.451 47.3645 95.6542 35.1442 79.2675 35.1442C62.8808 35.1442 50.084 47.3645 49.5241 62L31.9859 62C31.4261 47.3645 18.6292 35.1442 2.24251 35.1442C1.82599 35.1442 1.41178 35.1521 1.00002 35.1677L1.00002 17.9484C1.41303 17.9382 1.82721 17.933 2.24251 17.933C17.5126 17.933 31.2875 24.9101 39.9721 35.839Z" stroke="white" stroke-width="2"/>
</svg>
