<svg width="304" height="322" viewBox="0 0 304 322" fill="none" xmlns="http://www.w3.org/2000/svg">
<path d="M57.1432 52.1905L89.0663 86.4558L134.703 75.945L102.78 41.6797L57.1432 52.1905Z" fill="#F4F4F4"/>
<path d="M57.1428 52.1905L56.8188 52.2651C56.6935 52.1308 56.7372 51.9884 56.9162 51.9471L57.1428 52.1905ZM89.066 86.4558L89.2926 86.6991C89.1138 86.7403 88.867 86.6647 88.7419 86.5304L89.066 86.4558ZM134.703 75.945L135.027 75.8703C135.152 76.0047 135.108 76.1471 134.929 76.1883L134.703 75.945ZM102.78 41.6797L102.553 41.4364C102.732 41.3952 102.979 41.4707 103.104 41.6051L102.78 41.6797ZM57.4669 52.1158L89.39 86.3811L88.7419 86.5304L56.8188 52.2651L57.4669 52.1158ZM88.8393 86.2124L134.476 75.7016L134.929 76.1883L89.2926 86.6991L88.8393 86.2124ZM134.379 76.0196L102.456 41.7544L103.104 41.6051L135.027 75.8703L134.379 76.0196ZM103.006 41.923L57.3695 52.4338L56.9162 51.9471L102.553 41.4364L103.006 41.923Z" fill="#2A2F45"/>
<path d="M134.703 75.945L89.0661 86.4557L44.9427 230.521L90.5472 220.116L134.703 75.945Z" fill="#387CD3"/>
<path d="M89.0659 86.4559L88.9912 86.1318C88.8752 86.1585 88.7827 86.2449 88.7479 86.3585L89.0659 86.4559ZM134.703 75.9452L135.021 76.0426C135.055 75.929 135.027 75.8055 134.946 75.7185C134.865 75.6315 134.744 75.5945 134.628 75.6211L134.703 75.9452ZM90.547 220.116L90.6208 220.441C90.7367 220.414 90.8301 220.328 90.865 220.214L90.547 220.116ZM44.9425 230.522L44.6245 230.424C44.5898 230.537 44.6181 230.661 44.6994 230.748C44.7798 230.835 44.9006 230.872 45.0165 230.845L44.9425 230.522ZM89.1405 86.78L134.777 76.2693L134.628 75.6211L88.9912 86.1318L89.1405 86.78ZM134.385 75.8478L90.229 220.019L90.865 220.214L135.021 76.0426L134.385 75.8478ZM90.473 219.792L44.8687 230.197L45.0165 230.845L90.6208 220.441L90.473 219.792ZM88.7479 86.3585L44.6245 230.424L45.2605 230.619L89.3838 86.5533L88.7479 86.3585Z" fill="#2A2F45"/>
<path d="M89.0664 86.456L57.1432 52.1907L12.9876 196.362L44.943 230.522L89.0664 86.456Z" fill="#2A2F45"/>
<path d="M57.1427 52.1906L57.386 51.9639C57.305 51.877 57.1838 51.8399 57.0681 51.8666C56.9523 51.8932 56.8595 51.9796 56.8247 52.0932L57.1427 52.1906ZM89.0659 86.4559L89.3838 86.5533C89.4186 86.4396 89.3903 86.3162 89.3092 86.2292L89.0659 86.4559ZM44.9425 230.522L44.6998 230.748C44.781 230.835 44.9019 230.872 45.0171 230.846C45.1332 230.819 45.2258 230.732 45.2605 230.619L44.9425 230.522ZM12.987 196.362L12.6691 196.264C12.6342 196.378 12.6627 196.502 12.7441 196.589L12.987 196.362ZM56.8994 52.4173L88.8225 86.6826L89.3092 86.2292L57.386 51.9639L56.8994 52.4173ZM45.1854 230.294L13.2298 196.135L12.7441 196.589L44.6998 230.748L45.1854 230.294ZM13.305 196.459L57.4607 52.288L56.8247 52.0932L12.6691 196.264L13.305 196.459ZM88.7479 86.3585L44.6245 230.424L45.2605 230.619L89.3838 86.5533L88.7479 86.3585Z" fill="#2A2F45"/>
<path d="M148.327 32.0187L180.25 66.284L225.887 55.7732L193.963 21.508L148.327 32.0187Z" fill="#F4F4F4"/>
<path d="M148.326 32.0187L148.002 32.0934C147.877 31.959 147.921 31.8166 148.1 31.7754L148.326 32.0187ZM180.249 66.284L180.476 66.5273C180.297 66.5685 180.05 66.493 179.925 66.3587L180.249 66.284ZM225.886 55.7732L226.21 55.6986C226.335 55.8329 226.292 55.9753 226.113 56.0165L225.886 55.7732ZM193.963 21.508L193.736 21.2647C193.915 21.2234 194.162 21.299 194.287 21.4333L193.963 21.508ZM148.65 31.9441L180.573 66.2094L179.925 66.3587L148.002 32.0934L148.65 31.9441ZM180.023 66.0407L225.659 55.5299L226.113 56.0165L180.476 66.5273L180.023 66.0407ZM225.562 55.8479L193.639 21.5826L194.287 21.4333L226.21 55.6986L225.562 55.8479ZM194.19 21.7513L148.553 32.262L148.1 31.7754L193.736 21.2647L194.19 21.7513Z" fill="#2A2F45"/>
<path d="M225.886 55.7732L180.249 66.284L136.126 210.35L181.731 199.944L225.886 55.7732Z" fill="#387CD3"/>
<path d="M180.249 66.2842L180.175 65.96C180.059 65.9867 179.966 66.0731 179.931 66.1868L180.249 66.2842ZM225.886 55.7734L226.204 55.8708C226.239 55.7572 226.211 55.6337 226.129 55.5467C226.048 55.4598 225.927 55.4228 225.811 55.4494L225.886 55.7734ZM181.73 199.945L181.804 200.269C181.92 200.243 182.014 200.156 182.048 200.042L181.73 199.945ZM136.126 210.35L135.808 210.252C135.773 210.366 135.802 210.489 135.883 210.576C135.963 210.663 136.084 210.7 136.2 210.674L136.126 210.35ZM180.324 66.6082L225.961 56.0975L225.811 55.4494L180.175 65.96L180.324 66.6082ZM225.568 55.676L181.412 199.847L182.048 200.042L226.204 55.8708L225.568 55.676ZM181.656 199.621L136.052 210.025L136.2 210.674L181.804 200.269L181.656 199.621ZM179.931 66.1868L135.808 210.252L136.444 210.447L180.567 66.3815L179.931 66.1868Z" fill="#2A2F45"/>
<path d="M180.25 66.2841L148.327 32.0188L104.171 176.19L136.126 210.35L180.25 66.2841Z" fill="#2A2F45"/>
<path d="M148.326 32.019L148.569 31.7923C148.488 31.7054 148.367 31.6683 148.251 31.6949C148.136 31.7216 148.043 31.808 148.008 31.9216L148.326 32.019ZM180.249 66.2843L180.567 66.3817C180.602 66.268 180.574 66.1446 180.493 66.0576L180.249 66.2843ZM136.126 210.35L135.883 210.577C135.964 210.664 136.085 210.701 136.201 210.674C136.317 210.647 136.409 210.561 136.444 210.447L136.126 210.35ZM104.17 176.19L103.852 176.093C103.818 176.207 103.846 176.331 103.928 176.418L104.17 176.19ZM148.083 32.2457L180.006 66.5109L180.493 66.0576L148.569 31.7923L148.083 32.2457ZM136.369 210.122L104.413 175.963L103.928 176.418L135.883 210.577L136.369 210.122ZM104.488 176.288L148.644 32.1164L148.008 31.9216L103.852 176.093L104.488 176.288ZM179.931 66.1869L135.808 210.253L136.444 210.447L180.567 66.3817L179.931 66.1869Z" fill="#2A2F45"/>
<path d="M134.924 76.7178L166.847 110.983L212.484 100.472L180.561 66.2071L134.924 76.7178Z" fill="#F4F4F4"/>
<path d="M134.924 76.7179L134.6 76.7926C134.475 76.6582 134.518 76.5158 134.697 76.4746L134.924 76.7179ZM166.847 110.983L167.074 111.227C166.895 111.268 166.648 111.192 166.523 111.058L166.847 110.983ZM212.484 100.472L212.808 100.398C212.933 100.532 212.889 100.675 212.71 100.716L212.484 100.472ZM180.561 66.2072L180.334 65.9639C180.513 65.9226 180.76 65.9982 180.885 66.1325L180.561 66.2072ZM135.248 76.6433L167.171 110.909L166.523 111.058L134.6 76.7926L135.248 76.6433ZM166.62 110.74L212.257 100.229L212.71 100.716L167.074 111.227L166.62 110.74ZM212.16 100.547L180.237 66.2818L180.885 66.1325L212.808 100.398L212.16 100.547ZM180.787 66.4505L135.151 76.9613L134.697 76.4746L180.334 65.9639L180.787 66.4505Z" fill="#2A2F45"/>
<path d="M212.484 100.472L166.847 110.983L122.724 255.049L168.328 244.644L212.484 100.472Z" fill="#387CD3"/>
<path d="M166.847 110.983L166.772 110.659C166.656 110.686 166.564 110.772 166.529 110.886L166.847 110.983ZM212.484 100.473L212.802 100.57C212.836 100.456 212.808 100.333 212.727 100.246C212.646 100.159 212.525 100.122 212.409 100.148L212.484 100.473ZM168.328 244.644L168.402 244.968C168.518 244.942 168.611 244.855 168.646 244.741L168.328 244.644ZM122.723 255.049L122.406 254.952C122.371 255.065 122.399 255.188 122.48 255.275C122.561 255.362 122.682 255.399 122.797 255.373L122.723 255.049ZM166.922 111.307L212.558 100.797L212.409 100.148L166.772 110.659L166.922 111.307ZM212.166 100.375L168.01 244.546L168.646 244.741L212.802 100.57L212.166 100.375ZM168.254 244.32L122.65 254.724L122.797 255.373L168.402 244.968L168.254 244.32ZM166.529 110.886L122.406 254.952L123.041 255.146L167.165 111.081L166.529 110.886Z" fill="#2A2F45"/>
<path d="M166.847 110.983L134.924 76.718L90.7686 220.889L122.724 255.049L166.847 110.983Z" fill="#2A2F45"/>
<path d="M134.924 76.7179L135.167 76.4913C135.086 76.4044 134.965 76.3672 134.849 76.3939C134.733 76.4206 134.641 76.507 134.606 76.6206L134.924 76.7179ZM166.847 110.983L167.165 111.081C167.2 110.967 167.171 110.844 167.09 110.757L166.847 110.983ZM122.724 255.049L122.481 255.276C122.562 255.363 122.683 255.4 122.798 255.373C122.914 255.346 123.007 255.259 123.041 255.146L122.724 255.049ZM90.768 220.889L90.4501 220.792C90.4152 220.906 90.4437 221.03 90.5251 221.117L90.768 220.889ZM134.68 76.9447L166.604 111.21L167.09 110.757L135.167 76.4913L134.68 76.9447ZM122.966 254.821L91.0108 220.662L90.5251 221.117L122.481 255.276L122.966 254.821ZM91.086 220.987L135.242 76.8153L134.606 76.6206L90.4501 220.792L91.086 220.987ZM166.529 110.886L122.406 254.952L123.041 255.146L167.165 111.081L166.529 110.886Z" fill="#2A2F45"/>
<path d="M121.522 121.417L153.445 155.682L199.082 145.171L167.159 110.906L121.522 121.417Z" fill="#F4F4F4"/>
<path d="M121.521 121.417L121.197 121.491C121.072 121.357 121.116 121.215 121.295 121.173L121.521 121.417ZM153.445 155.682L153.671 155.925C153.492 155.967 153.246 155.891 153.121 155.757L153.445 155.682ZM199.081 145.171L199.405 145.097C199.531 145.231 199.487 145.373 199.308 145.415L199.081 145.171ZM167.158 110.906L166.932 110.663C167.11 110.621 167.357 110.697 167.482 110.831L167.158 110.906ZM121.845 121.342L153.769 155.607L153.121 155.757L121.197 121.491L121.845 121.342ZM153.218 155.439L198.855 144.928L199.308 145.415L153.671 155.925L153.218 155.439ZM198.757 145.246L166.834 110.981L167.482 110.831L199.405 145.097L198.757 145.246ZM167.385 111.149L121.748 121.66L121.295 121.173L166.932 110.663L167.385 111.149Z" fill="#2A2F45"/>
<path d="M199.082 145.171L153.445 155.682L109.321 299.748L154.926 289.342L199.082 145.171Z" fill="#387CD3"/>
<path d="M153.445 155.682L153.37 155.358C153.254 155.385 153.161 155.471 153.127 155.585L153.445 155.682ZM199.081 145.171L199.399 145.269C199.434 145.155 199.406 145.032 199.325 144.945C199.243 144.858 199.123 144.821 199.007 144.847L199.081 145.171ZM154.926 289.343L154.999 289.667C155.115 289.641 155.209 289.554 155.244 289.44L154.926 289.343ZM109.321 299.748L109.003 299.65C108.969 299.764 108.997 299.887 109.078 299.974C109.158 300.061 109.279 300.098 109.395 300.072L109.321 299.748ZM153.519 156.006L199.156 145.495L199.007 144.847L153.37 155.358L153.519 156.006ZM198.763 145.074L154.608 289.245L155.244 289.44L199.399 145.269L198.763 145.074ZM154.852 289.019L109.247 299.423L109.395 300.072L154.999 289.667L154.852 289.019ZM153.127 155.585L109.003 299.65L109.639 299.845L153.762 155.779L153.127 155.585Z" fill="#2A2F45"/>
<path d="M153.445 155.682L121.522 121.417L77.3662 265.588L109.322 299.748L153.445 155.682Z" fill="#2A2F45"/>
<path d="M121.521 121.417L121.765 121.19C121.684 121.103 121.562 121.066 121.447 121.093C121.331 121.12 121.238 121.206 121.203 121.32L121.521 121.417ZM153.445 155.682L153.762 155.78C153.797 155.666 153.769 155.543 153.688 155.456L153.445 155.682ZM109.321 299.748L109.078 299.975C109.16 300.062 109.281 300.099 109.396 300.072C109.512 300.045 109.604 299.958 109.639 299.845L109.321 299.748ZM77.3657 265.588L77.0477 265.491C77.0129 265.605 77.0414 265.729 77.1228 265.816L77.3657 265.588ZM121.278 121.644L153.201 155.909L153.688 155.456L121.765 121.19L121.278 121.644ZM109.564 299.52L77.6084 265.361L77.1228 265.816L109.078 299.975L109.564 299.52ZM77.6837 265.685L121.839 121.514L121.203 121.32L77.0477 265.491L77.6837 265.685ZM153.127 155.585L109.003 299.65L109.639 299.845L153.762 155.78L153.127 155.585Z" fill="#2A2F45"/>
<path d="M212.705 101.245L244.628 135.51L290.265 125L258.342 90.7344L212.705 101.245Z" fill="#F4F4F4"/>
<path d="M212.705 101.245L212.381 101.32C212.255 101.185 212.299 101.043 212.478 101.002L212.705 101.245ZM244.628 135.51L244.854 135.754C244.676 135.795 244.429 135.719 244.304 135.585L244.628 135.51ZM290.265 125L290.589 124.925C290.714 125.059 290.67 125.202 290.491 125.243L290.265 125ZM258.341 90.7344L258.115 90.4911C258.294 90.4498 258.54 90.5254 258.666 90.6598L258.341 90.7344ZM213.029 101.171L244.952 135.436L244.304 135.585L212.381 101.32L213.029 101.171ZM244.401 135.267L290.038 124.756L290.491 125.243L244.854 135.754L244.401 135.267ZM289.941 125.074L258.017 90.8091L258.666 90.6598L290.589 124.925L289.941 125.074ZM258.568 90.9777L212.931 101.488L212.478 101.002L258.115 90.4911L258.568 90.9777Z" fill="#2A2F45"/>
<path d="M290.265 125L244.628 135.51L200.505 279.576L246.109 269.171L290.265 125Z" fill="#387CD3"/>
<path d="M244.628 135.511L244.553 135.186C244.437 135.213 244.344 135.3 244.31 135.413L244.628 135.511ZM290.264 125L290.582 125.097C290.617 124.984 290.589 124.86 290.508 124.773C290.427 124.686 290.306 124.649 290.19 124.676L290.264 125ZM246.109 269.171L246.183 269.496C246.298 269.469 246.392 269.382 246.427 269.268L246.109 269.171ZM200.504 279.576L200.186 279.479C200.152 279.592 200.18 279.716 200.261 279.802C200.342 279.89 200.462 279.927 200.578 279.9L200.504 279.576ZM244.702 135.835L290.339 125.324L290.19 124.676L244.553 135.186L244.702 135.835ZM289.946 124.902L245.791 269.074L246.427 269.268L290.582 125.097L289.946 124.902ZM246.035 268.847L200.43 279.252L200.578 279.9L246.183 269.496L246.035 268.847ZM244.31 135.413L200.186 279.479L200.822 279.674L244.946 135.608L244.31 135.413Z" fill="#2A2F45"/>
<path d="M244.628 135.511L212.705 101.245L168.549 245.416L200.505 279.576L244.628 135.511Z" fill="#2A2F45"/>
<path d="M212.705 101.245L212.948 101.019C212.867 100.932 212.746 100.894 212.63 100.921C212.514 100.948 212.421 101.034 212.387 101.148L212.705 101.245ZM244.628 135.51L244.946 135.608C244.98 135.494 244.952 135.371 244.871 135.284L244.628 135.51ZM200.504 279.576L200.262 279.803C200.343 279.89 200.464 279.927 200.579 279.9C200.695 279.873 200.788 279.787 200.822 279.674L200.504 279.576ZM168.549 245.416L168.231 245.319C168.196 245.433 168.225 245.557 168.306 245.644L168.549 245.416ZM212.461 101.472L244.384 135.737L244.871 135.284L212.948 101.019L212.461 101.472ZM200.747 279.349L168.792 245.19L168.306 245.644L200.262 279.803L200.747 279.349ZM168.867 245.514L213.023 101.343L212.387 101.148L168.231 245.319L168.867 245.514ZM244.31 135.413L200.186 279.479L200.822 279.674L244.946 135.608L244.31 135.413Z" fill="#2A2F45"/>
</svg>
