<svg width="426" height="426" viewBox="0 0 426 426" fill="none" xmlns="http://www.w3.org/2000/svg">
<path d="M370.34 105.5C378.673 120.942 383.762 130.34 388.69 139.739C393.618 149.138 398.547 158.537 406.88 173.98C428.35 213.765 365.514 289.318 266.531 342.732C167.549 396.147 69.9039 407.198 48.4345 367.414C40.1041 351.977 35.1765 342.579 30.25 333.183H30.2495C25.6056 324.326 20.9625 315.471 13.4706 301.56C37.7906 338.194 133.252 326.456 229.99 274.253C328.973 220.837 391.809 145.284 370.34 105.5Z" fill="#F4F4F4" stroke="#2A2F45" stroke-width="0.666667" stroke-linejoin="round"/>
<path fill-rule="evenodd" clip-rule="evenodd" d="M229.99 274.252C328.973 220.836 391.809 145.284 370.34 105.5C348.87 65.7152 251.225 76.7652 152.242 130.18C53.2609 183.595 -9.57555 259.148 11.8938 298.932C33.363 338.716 131.008 327.667 229.99 274.252ZM215.028 237.712C272.576 205.211 307.774 161.97 293.643 141.132C279.513 120.293 221.406 129.746 163.858 162.247C106.31 194.747 71.1132 237.987 85.2433 258.827C99.3736 279.665 157.481 270.213 215.028 237.712Z" fill="#F4F4F4" stroke="#2A2F45" stroke-width="0.666667" stroke-linejoin="round"/>
<path d="M296.162 157.457C296.035 158.079 295.887 158.709 295.719 159.346C270.872 154.286 226.865 165.677 183.181 190.348C139.313 215.122 108.433 246.137 102.489 268.714C127.337 273.772 171.343 262.382 215.028 237.711C260.133 212.238 291.506 180.169 296.162 157.457Z" fill="#F4F4F4" stroke="#2A2F45" stroke-width="0.666667" stroke-linejoin="round"/>
<path d="M295.721 159.347C297.574 152.307 297.003 146.087 293.643 141.133C279.513 120.294 221.406 129.747 163.858 162.248C106.31 194.748 71.113 237.988 85.2432 258.828C88.6472 263.848 94.6034 267.111 102.489 268.715C108.433 246.139 139.314 215.125 183.181 190.35C226.865 165.679 270.872 154.289 295.721 159.347Z" fill="#F4F4F4" stroke="#2A2F45" stroke-width="0.666667" stroke-linejoin="round"/>
</svg>
