<svg width="86" height="85" viewBox="0 0 86 85" fill="none" xmlns="http://www.w3.org/2000/svg">
<g clip-path="url(#clip0_610_1229)">
<path d="M42.8955 1.07227L59.4795 82.3506L59.4952 82.429L59.6053 82.4071C69.7871 80.4076 76.6505 76.6377 76.6505 72.3162C76.6505 71.4521 76.3555 70.5735 75.8352 69.7632L42.8955 1.07227Z" fill="#2A2F45"/>
<path d="M59.4794 82.35L59.6199 82.3228V82.3225L59.4794 82.35ZM42.8955 1.07166L43.0253 1.01228C42.9944 0.948165 42.9195 0.916561 42.8507 0.938656C42.7816 0.960753 42.7407 1.02959 42.7547 1.09903L42.8955 1.07166ZM59.6053 82.4065L59.5769 82.2693H59.5766L59.6053 82.4065ZM75.8352 69.7626L75.7053 69.8219C75.7079 69.8272 75.7108 69.8323 75.7136 69.837L75.8352 69.7626ZM59.4952 82.4284L59.3544 82.4552C59.3619 82.4919 59.384 82.5241 59.4158 82.5448C59.4473 82.5653 59.4863 82.5728 59.5236 82.5656L59.4952 82.4284ZM59.6199 82.3225L43.0359 1.0443L42.7547 1.09903L59.3387 82.3774L59.6199 82.3225ZM76.5071 72.3156C76.5071 74.3988 74.8502 76.3854 71.8729 78.1113C68.9033 79.833 64.6589 81.2714 59.5769 82.2693L59.6333 82.5437C64.7331 81.5424 69.0117 80.0957 72.0191 78.3521C75.019 76.613 76.7938 74.5536 76.7938 72.3156H76.5071ZM75.7136 69.837C76.2228 70.6294 76.5071 71.4826 76.5071 72.3156H76.7938C76.7938 71.4204 76.4885 70.5163 75.9567 69.6881L75.7136 69.837ZM59.5766 82.2693L59.4668 82.2909L59.5236 82.5656L59.6336 82.5437L59.5766 82.2693ZM59.6359 82.4012L59.6199 82.3228L59.3387 82.3771L59.3544 82.4552L59.6359 82.4012ZM42.7656 1.13105L75.7053 69.8219L75.965 69.7032L43.0253 1.01228L42.7656 1.13105Z" fill="#2A2F45"/>
<path d="M42.8955 1.07227L26.3116 82.3506L26.2958 82.429L26.1858 82.4071C16.004 80.4076 9.14062 76.6377 9.14062 72.3162C9.14062 71.4521 9.4354 70.5735 9.95582 69.7632L42.8955 1.07227Z" fill="#1288FF"/>
<path d="M26.3114 82.35L26.1708 82.3225L26.1708 82.3228L26.3114 82.35ZM42.8953 1.07166L43.0361 1.09903C43.0501 1.02959 43.0091 0.960753 42.94 0.938656C42.8712 0.916561 42.7964 0.948165 42.7655 1.01228L42.8953 1.07166ZM26.1856 82.4065L26.2141 82.2693H26.2138L26.1856 82.4065ZM9.9556 69.7626L10.077 69.837C10.0801 69.8323 10.0829 69.8272 10.0854 69.8219L9.9556 69.7626ZM26.2956 82.4284L26.2671 82.5656C26.3045 82.5728 26.3434 82.5653 26.3751 82.5448C26.4068 82.5241 26.4288 82.4919 26.4362 82.4552L26.2956 82.4284ZM26.452 82.3774L43.0361 1.09903L42.7549 1.0443L26.1708 82.3225L26.452 82.3774ZM8.99707 72.3156C8.99707 74.5536 10.7718 76.613 13.7716 78.3521C16.7792 80.0957 21.0576 81.5424 26.1573 82.5437L26.2138 82.2693C21.1318 81.2714 16.8876 79.833 13.918 78.1113C10.9407 76.3854 9.28374 74.3988 9.28374 72.3156H8.99707ZM9.83419 69.6881C9.30231 70.5163 8.99707 71.4204 8.99707 72.3156H9.28374C9.28374 71.4826 9.56805 70.6294 10.077 69.837L9.83419 69.6881ZM26.1571 82.5437L26.2671 82.5656L26.3241 82.2909L26.2141 82.2693L26.1571 82.5437ZM26.4362 82.4552L26.452 82.3771L26.1708 82.3228L26.155 82.4012L26.4362 82.4552ZM42.7655 1.01228L9.82579 69.7032L10.0854 69.8219L43.0252 1.13105L42.7655 1.01228Z" fill="#2A2F45"/>
<path d="M42.8952 1.07227L26.2866 82.427C31.1903 83.382 36.8577 83.9275 42.8952 83.9275C48.9304 83.9275 54.5958 83.3826 59.4983 82.4281L42.8952 1.07227Z" fill="#F4F4F4" stroke="#2A2F45" stroke-width="0.666667" stroke-linejoin="round"/>
</g>
<defs>
<clipPath id="clip0_610_1229">
<rect width="86" height="84" fill="white" transform="translate(0 0.5)"/>
</clipPath>
</defs>
</svg>
