<svg width="40" height="40" viewBox="0 0 40 40" fill="#000" xmlns="http://www.w3.org/2000/svg">
<path d="M13.4425 17.4703C13.3556 18.4248 13.4619 19.3871 13.7552 20.2995C14.0485 21.212 14.5228 22.056 15.1496 22.7811C16.451 24.2673 17.1766 26.1708 17.1947 28.1462V31.5346C17.1951 31.9876 17.3752 32.4219 17.6955 32.7422C18.0158 33.0625 18.4501 33.2426 18.9031 33.2431H22.2971C22.7501 33.2426 23.1844 33.0625 23.5047 32.7422C23.825 32.4219 24.0051 31.9876 24.0056 31.5346V28.1479C24.0408 26.1537 24.7796 24.2361 26.0915 22.7338C26.8188 21.8707 27.3324 20.8484 27.5909 19.7497C27.8493 18.6511 27.8452 17.507 27.579 16.4102C27.3128 15.3135 26.7919 14.2948 26.0585 13.437C25.3251 12.5791 24.3999 11.906 23.3579 11.4724C22.3159 11.0388 21.1864 10.8569 20.0609 10.9413C18.9354 11.0257 17.8457 11.374 16.88 11.9582C15.9143 12.5424 15.0998 13.3458 14.5026 14.3035C13.9053 15.2612 13.5422 16.3461 13.4425 17.4703ZM22.6833 31.5346C22.6832 31.637 22.6425 31.7352 22.5701 31.8076C22.4977 31.88 22.3995 31.9207 22.2971 31.9207H18.9031C18.8007 31.9207 18.7025 31.88 18.6301 31.8076C18.5577 31.7352 18.517 31.637 18.517 31.5346V29.0962H22.6833V31.5346ZM20.3184 12.2499C21.458 12.1941 22.589 12.4724 23.5727 13.0505C24.5564 13.6285 25.3498 14.4812 25.8557 15.5039C26.3616 16.5266 26.5578 17.6747 26.4203 18.8074C26.2828 19.94 25.8175 21.0078 25.0817 21.8798C23.6551 23.5261 22.8145 25.5989 22.6914 27.7738H21.4277L23.2773 19.5954C23.316 19.4244 23.2851 19.245 23.1916 19.0967C23.098 18.9484 22.9494 18.8434 22.7784 18.8047C22.6937 18.7855 22.6061 18.7832 22.5205 18.7979C22.4349 18.8126 22.3531 18.844 22.2797 18.8903C22.1314 18.9839 22.0264 19.1325 21.9877 19.3036L20.6003 25.4382L19.2126 19.3036C19.1934 19.2189 19.1578 19.1388 19.1077 19.0679C19.0576 18.997 18.994 18.9367 18.9206 18.8904C18.8471 18.844 18.7653 18.8126 18.6797 18.7979C18.5942 18.7832 18.5066 18.7855 18.4219 18.8047C18.3372 18.8238 18.2571 18.8595 18.1862 18.9096C18.1153 18.9597 18.055 19.0233 18.0087 19.0967C17.9151 19.245 17.8843 19.4244 17.923 19.5954L19.773 27.7738H18.5092C18.4046 25.6124 17.5739 23.5494 16.1517 21.9185C15.6403 21.3266 15.2534 20.6377 15.0143 19.893C14.7751 19.1482 14.6885 18.3629 14.7596 17.5839C14.9015 16.1794 15.5388 14.8713 16.5573 13.8939C17.5759 12.9165 18.9092 12.3337 20.3184 12.2499Z" fill="black"/>
<path d="M21.251 8.93993V6.66116C21.251 6.48581 21.1814 6.31764 21.0574 6.19365C20.9334 6.06966 20.7652 6 20.5899 6C20.4145 6 20.2464 6.06966 20.1224 6.19365C19.9984 6.31764 19.9287 6.48581 19.9287 6.66116V8.93993C19.9287 9.11528 19.9984 9.28345 20.1224 9.40744C20.2464 9.53144 20.4145 9.60109 20.5899 9.60109C20.7652 9.60109 20.9334 9.53144 21.0574 9.40744C21.1814 9.28345 21.251 9.11528 21.251 8.93993Z" fill="black"/>
<path d="M32.3394 18.5284C32.5147 18.5284 32.6829 18.4587 32.8069 18.3347C32.9309 18.2107 33.0005 18.0426 33.0005 17.8672C33.0005 17.6919 32.9309 17.5237 32.8069 17.3997C32.6829 17.2757 32.5147 17.2061 32.3394 17.2061H30.0606C29.8852 17.2061 29.7171 17.2757 29.5931 17.3997C29.4691 17.5237 29.3994 17.6919 29.3994 17.8672C29.3994 18.0426 29.4691 18.2107 29.5931 18.3347C29.7171 18.4587 29.8852 18.5284 30.0606 18.5284H32.3394Z" fill="black"/>
<path d="M11.5224 17.8672C11.5224 17.6919 11.4527 17.5237 11.3287 17.3998C11.2047 17.2758 11.0366 17.2061 10.8613 17.2061H8.58206C8.40671 17.2061 8.23854 17.2757 8.11455 17.3997C7.99056 17.5237 7.9209 17.6919 7.9209 17.8672C7.9209 18.0426 7.99056 18.2107 8.11455 18.3347C8.23854 18.4587 8.40671 18.5284 8.58206 18.5284H10.8613C11.0366 18.5283 11.2047 18.4587 11.3287 18.3347C11.4527 18.2107 11.5224 18.0426 11.5224 17.8672Z" fill="black"/>
<path d="M29.4569 9.00058C29.3956 8.93918 29.3227 8.89046 29.2425 8.85723C29.1623 8.82399 29.0763 8.80688 28.9895 8.80688C28.9027 8.80688 28.8167 8.82399 28.7365 8.85723C28.6563 8.89046 28.5834 8.93918 28.522 9.00058L26.9104 10.6117C26.849 10.6731 26.8003 10.746 26.7671 10.8262C26.7339 10.9064 26.7168 10.9924 26.7168 11.0792C26.7168 11.166 26.7339 11.252 26.7671 11.3322C26.8003 11.4124 26.849 11.4853 26.9104 11.5467C26.9718 11.6081 27.0447 11.6567 27.1249 11.69C27.2051 11.7232 27.2911 11.7403 27.3779 11.7403C27.4647 11.7403 27.5507 11.7232 27.6309 11.69C27.7111 11.6567 27.784 11.6081 27.8454 11.5467L29.4569 9.93551C29.5183 9.87413 29.5671 9.80126 29.6003 9.72105C29.6335 9.64084 29.6506 9.55487 29.6506 9.46805C29.6506 9.38122 29.6335 9.29525 29.6003 9.21504C29.5671 9.13484 29.5183 9.06196 29.4569 9.00058Z" fill="black"/>
<path d="M11.723 26.7341C11.7844 26.7955 11.8573 26.8442 11.9375 26.8775C12.0177 26.9107 12.1037 26.9278 12.1905 26.9278C12.2773 26.9278 12.3633 26.9107 12.4435 26.8775C12.5237 26.8442 12.5966 26.7955 12.6579 26.7341L14.2695 25.123C14.3935 24.999 14.4632 24.8308 14.4632 24.6555C14.4632 24.4802 14.3935 24.312 14.2695 24.188C14.1455 24.064 13.9774 23.9944 13.802 23.9944C13.6267 23.9944 13.4586 24.064 13.3346 24.188L11.723 25.7992C11.6616 25.8606 11.6129 25.9334 11.5796 26.0136C11.5464 26.0938 11.5293 26.1798 11.5293 26.2666C11.5293 26.3535 11.5464 26.4394 11.5796 26.5196C11.6129 26.5999 11.6616 26.6727 11.723 26.7341Z" fill="black"/>
<path d="M26.9095 24.1881C26.8481 24.2495 26.7994 24.3223 26.7662 24.4025C26.7329 24.4828 26.7158 24.5687 26.7158 24.6555C26.7158 24.7424 26.7329 24.8283 26.7662 24.9085C26.7994 24.9888 26.8481 25.0616 26.9095 25.123L28.5211 26.7342C28.6451 26.8581 28.8132 26.9278 28.9886 26.9278C29.1639 26.9278 29.332 26.8581 29.456 26.7342C29.58 26.6102 29.6497 26.442 29.6497 26.2667C29.6497 26.0914 29.58 25.9232 29.456 25.7992L27.8444 24.1881C27.7831 24.1267 27.7102 24.078 27.63 24.0447C27.5498 24.0115 27.4638 23.9944 27.377 23.9944C27.2902 23.9944 27.2042 24.0115 27.124 24.0447C27.0438 24.078 26.9709 24.1267 26.9095 24.1881Z" fill="black"/>
<path d="M13.3336 11.5469C13.4576 11.6709 13.6257 11.7405 13.801 11.7405C13.9764 11.7405 14.1445 11.6709 14.2685 11.5469C14.3925 11.4229 14.4621 11.2548 14.4621 11.0794C14.4621 10.9041 14.3925 10.7359 14.2685 10.612L12.6569 9.00082C12.5329 8.87724 12.3648 8.80793 12.1897 8.80811C12.0146 8.80828 11.8467 8.87791 11.7229 9.00173C11.5991 9.12555 11.5295 9.29344 11.5293 9.46855C11.5291 9.64366 11.5984 9.81168 11.722 9.93574L13.3336 11.5469Z" fill="black"/>
</svg>
