<svg width="122" height="114" viewBox="0 0 122 114" fill="none" xmlns="http://www.w3.org/2000/svg">
<path d="M58.7255 28.3744C65.6767 27.4455 71.039 21.4758 71.039 14.25C71.039 6.37994 64.6779 0 56.8312 0C48.9844 0 42.6234 6.37994 42.6234 14.25C42.6234 21.4758 47.9857 27.4455 54.9368 28.3744V52.413L37.9893 35.4152C42.2496 29.8286 41.8326 21.8044 36.7383 16.6949C31.1898 11.1299 22.194 11.1299 16.6455 16.6949C11.097 22.2599 11.097 31.2825 16.6455 36.8474C21.7398 41.9569 29.7402 42.3751 35.3102 38.1022L52.2577 55.1H28.2904C27.3642 48.1282 21.4122 42.75 14.2078 42.75C6.36105 42.75 0 49.1299 0 57C-9.64034e-07 64.8701 6.36104 71.25 14.2078 71.25C21.4122 71.25 27.3642 65.8718 28.2904 58.9H52.2577L35.3103 75.8978C29.7402 71.6249 21.7398 72.0431 16.6455 77.1525C11.0971 82.7175 11.0971 91.7401 16.6455 97.3051C22.194 102.87 31.1899 102.87 36.7384 97.3051C41.8327 92.1956 42.2497 84.1714 37.9893 78.5847L54.9368 61.5869V85.6256C47.9857 86.5545 42.6234 92.5242 42.6234 99.75C42.6234 107.62 48.9844 114 56.8312 114C64.6779 114 71.039 107.62 71.039 99.75C71.039 92.5242 65.6767 86.5545 58.7255 85.6256V61.587L75.673 78.5849C71.4127 84.1715 71.8298 92.1957 76.9241 97.3051C82.4725 102.87 91.4684 102.87 97.0169 97.3051C102.565 91.7401 102.565 82.7175 97.0169 77.1526C91.9226 72.0431 83.9221 71.6249 78.3521 75.8979L61.4045 58.9H85.3719C86.2981 65.8718 92.2501 71.25 99.4545 71.25C107.301 71.25 113.662 64.8701 113.662 57C113.662 49.1299 107.301 42.75 99.4545 42.75C92.2501 42.75 86.2981 48.1282 85.3719 55.1H61.4045L78.352 38.1022C83.9221 42.3751 91.9225 41.9569 97.0168 36.8475C102.565 31.2825 102.565 22.2599 97.0168 16.6949C91.4683 11.1299 82.4724 11.1299 76.9239 16.6949C71.8296 21.8044 71.4126 29.8285 75.6729 35.4152L58.7255 52.4129V28.3744Z" fill="#387CD3"/>
<path d="M66.056 27.3832L65.1884 27.4992V28.3744V52.4129V54.8322L66.8966 53.119L83.844 36.1212L84.4604 35.503L83.931 34.8088C79.9698 29.6143 80.3587 22.1513 85.095 17.401C90.2527 12.2279 98.6138 12.2279 103.772 17.401C108.931 22.5757 108.931 30.9667 103.772 36.1414C99.0364 40.8906 91.6001 41.2798 86.4235 37.3087L85.7268 36.7742L85.1067 37.3961L68.1592 54.3939L66.4582 56.1H68.8674H92.8348H93.7108L93.8261 55.2317C94.6874 48.7481 100.223 43.75 106.917 43.75C114.209 43.75 120.125 49.6794 120.125 57C120.125 64.3206 114.209 70.25 106.917 70.25C100.223 70.25 94.6874 65.252 93.8261 58.7683L93.7108 57.9H92.8348H68.8674H66.4583L68.1593 59.6061L85.1068 76.6039L85.7269 77.2258L86.4236 76.6913C91.6002 72.7202 99.0365 73.1094 103.772 77.8586C108.931 83.0333 108.931 91.4244 103.772 96.599C98.6139 101.772 90.2528 101.772 85.0951 96.599C80.3588 91.8487 79.9699 84.3857 83.9311 79.1913L84.4605 78.4971L83.8441 77.8788L66.8966 60.881L65.1884 59.1678V61.587V85.6256V86.5008L66.056 86.6168C72.5148 87.4799 77.5019 93.0296 77.5019 99.75C77.5019 107.071 71.5857 113 64.2941 113C57.0024 113 51.0863 107.071 51.0863 99.75C51.0863 93.0296 56.0733 87.4799 62.5321 86.6168L63.3997 86.5008V85.6256V61.5869V59.1676L61.6915 60.8809L44.7441 77.8787L44.1276 78.4969L44.6571 79.1911C48.6184 84.3856 48.2295 91.8486 43.4931 96.599C38.3354 101.772 29.9743 101.772 24.8166 96.599C19.6572 91.4243 19.6572 83.0333 24.8166 77.8586C29.5517 73.1094 36.9879 72.7201 42.1645 76.6912L42.8613 77.2257L43.4813 76.6038L60.4287 59.6061L62.1297 57.9H59.7206H35.7533H34.8773L34.762 58.7683C33.9007 65.2519 28.3648 70.25 21.6707 70.25C14.379 70.25 8.46289 64.3206 8.46289 57C8.46289 49.6794 14.379 43.75 21.6707 43.75C28.3648 43.75 33.9007 48.7481 34.762 55.2317L34.8773 56.1H35.7533H59.7206H62.1298L60.4287 54.3939L43.4813 37.3961L42.8612 36.7742L42.1645 37.3087C36.9879 41.2798 29.5516 40.8906 24.8165 36.1414C19.6571 30.9667 19.6571 22.5756 24.8165 17.401C29.9742 12.2279 38.3353 12.2279 43.4931 17.401C48.2294 22.1513 48.6183 29.6143 44.657 34.8088L44.1276 35.503L44.744 36.1212L61.6915 53.1191L63.3997 54.8323V52.413V28.3744V27.4992L62.5321 27.3832C56.0733 26.5201 51.0863 20.9704 51.0863 14.25C51.0863 6.92943 57.0024 1 64.2941 1C71.5857 1 77.5019 6.92943 77.5019 14.25C77.5019 20.9704 72.5148 26.5201 66.056 27.3832Z" stroke="black" stroke-width="2"/>
</svg>
