<svg width="445" height="484" viewBox="0 0 445 484" fill="none" xmlns="http://www.w3.org/2000/svg">
    <path d="M150.235 174.586L222.184 241.777L199.976 337.683L128.027 270.492L150.235 174.586Z" fill="#F4F4F4" stroke="#2A2F45" stroke-width="0.666667" stroke-linejoin="round"/>
    <path d="M222.188 241.776L316.349 213.056L294.134 308.961L199.973 337.681L222.188 241.776Z" fill="#F4F4F4" stroke="#2A2F45" stroke-width="0.666667" stroke-linejoin="round"/>
    <path d="M150.232 174.599L244.396 145.884L316.349 213.07L222.186 241.784L150.232 174.599Z" fill="#F4F4F4" stroke="#2A2F45" stroke-width="0.666667" stroke-linejoin="round"/>
    <path d="M150.235 174.586L222.184 241.777L199.976 337.683L128.027 270.492L150.235 174.586Z" fill="#F4F4F4" stroke="#2A2F45" stroke-width="0.666667" stroke-linejoin="round"/>
    <path d="M222.188 241.776L316.349 213.056L294.134 308.961L199.973 337.681L222.188 241.776Z" fill="#F4F4F4" stroke="#2A2F45" stroke-width="0.666667" stroke-linejoin="round"/>
    <path d="M150.232 174.599L244.396 145.884L316.349 213.07L222.186 241.784L150.232 174.599Z" fill="#F4F4F4" stroke="#2A2F45" stroke-width="0.666667" stroke-linejoin="round"/>
    <path d="M174.602 69.375L246.551 136.566L224.343 232.472L152.394 165.281L174.602 69.375Z" fill="#F4F4F4" stroke="#2A2F45" stroke-width="0.666667" stroke-linejoin="round"/>
    <path d="M246.555 136.565L340.716 107.845L318.502 203.75L224.34 232.47L246.555 136.565Z" fill="#F4F4F4" stroke="#2A2F45" stroke-width="0.666667" stroke-linejoin="round"/>
    <path d="M174.6 69.3876L268.763 40.6733L340.716 107.859L246.553 136.574L174.6 69.3876Z" fill="#F4F4F4" stroke="#2A2F45" stroke-width="0.666667" stroke-linejoin="round"/>
    <path d="M174.602 69.375L246.551 136.566L224.343 232.472L152.394 165.281L174.602 69.375Z" fill="#F4F4F4" stroke="#2A2F45" stroke-width="0.666667" stroke-linejoin="round"/>
    <path d="M246.555 136.565L340.716 107.845L318.502 203.75L224.34 232.47L246.555 136.565Z" fill="#F4F4F4" stroke="#2A2F45" stroke-width="0.666667" stroke-linejoin="round"/>
    <path d="M174.6 69.3876L268.763 40.6733L340.716 107.859L246.553 136.574L174.6 69.3876Z" fill="#F4F4F4" stroke="#2A2F45" stroke-width="0.666667" stroke-linejoin="round"/>
    <path d="M45.5009 205.758L117.45 272.948L95.2415 368.855L23.2926 301.664L45.5009 205.758Z" fill="#F4F4F4" stroke="#2A2F45" stroke-width="0.666667" stroke-linejoin="round"/>
    <path d="M117.454 272.948L211.615 244.228L189.4 340.133L95.2391 368.853L117.454 272.948Z" fill="#F4F4F4" stroke="#2A2F45" stroke-width="0.666667" stroke-linejoin="round"/>
    <path d="M45.4984 205.77L139.662 177.056L211.615 244.242L117.452 272.956L45.4984 205.77Z" fill="#F4F4F4" stroke="#2A2F45" stroke-width="0.666667" stroke-linejoin="round"/>
    <path d="M45.5009 205.758L117.45 272.948L95.2415 368.855L23.2926 301.664L45.5009 205.758Z" fill="#F4F4F4" stroke="#2A2F45" stroke-width="0.666667" stroke-linejoin="round"/>
    <path d="M117.454 272.948L211.615 244.228L189.4 340.133L95.2391 368.853L117.454 272.948Z" fill="#F4F4F4" stroke="#2A2F45" stroke-width="0.666667" stroke-linejoin="round"/>
    <path d="M45.4984 205.77L139.662 177.056L211.615 244.242L117.452 272.956L45.4984 205.77Z" fill="#F4F4F4" stroke="#2A2F45" stroke-width="0.666667" stroke-linejoin="round"/>
    <path d="M69.8682 100.547L141.817 167.737L119.609 263.644L47.66 196.453L69.8682 100.547Z" fill="#F4F4F4" stroke="#2A2F45" stroke-width="0.666667" stroke-linejoin="round"/>
    <path d="M141.821 167.737L235.982 139.017L213.768 234.922L119.606 263.642L141.821 167.737Z" fill="#F4F4F4" stroke="#2A2F45" stroke-width="0.666667" stroke-linejoin="round"/>
    <path d="M69.8657 100.559L164.029 71.8452L235.982 139.031L141.819 167.745L69.8657 100.559Z" fill="#F4F4F4" stroke="#2A2F45" stroke-width="0.666667" stroke-linejoin="round"/>
    <path d="M69.8682 100.547L141.817 167.737L119.609 263.644L47.66 196.453L69.8682 100.547Z" fill="#F4F4F4" stroke="#2A2F45" stroke-width="0.666667" stroke-linejoin="round"/>
    <path d="M141.821 167.737L235.982 139.017L213.768 234.922L119.606 263.642L141.821 167.737Z" fill="#F4F4F4" stroke="#2A2F45" stroke-width="0.666667" stroke-linejoin="round"/>
    <path d="M69.8657 100.559L164.029 71.8452L235.982 139.031L141.819 167.745L69.8657 100.559Z" fill="#F4F4F4" stroke="#2A2F45" stroke-width="0.666667" stroke-linejoin="round"/>
    <path d="M230.602 248.625L302.55 315.816L280.342 411.722L208.393 344.531L230.602 248.625Z" fill="#F4F4F4" stroke="#2A2F45" stroke-width="0.666667" stroke-linejoin="round"/>
    <path d="M302.554 315.815L396.716 287.095L374.501 383L280.34 411.72L302.554 315.815Z" fill="#F4F4F4" stroke="#2A2F45" stroke-width="0.666667" stroke-linejoin="round"/>
    <path d="M230.599 248.638L324.762 219.923L396.716 287.109L302.552 315.824L230.599 248.638Z" fill="#F4F4F4" stroke="#2A2F45" stroke-width="0.666667" stroke-linejoin="round"/>
    <path d="M230.602 248.625L302.55 315.816L280.342 411.722L208.393 344.531L230.602 248.625Z" fill="#F4F4F4" stroke="#2A2F45" stroke-width="0.666667" stroke-linejoin="round"/>
    <path d="M302.554 315.815L396.716 287.095L374.501 383L280.34 411.72L302.554 315.815Z" fill="#F4F4F4" stroke="#2A2F45" stroke-width="0.666667" stroke-linejoin="round"/>
    <path d="M230.599 248.638L324.762 219.923L396.716 287.109L302.552 315.824L230.599 248.638Z" fill="#F4F4F4" stroke="#2A2F45" stroke-width="0.666667" stroke-linejoin="round"/>
    <path d="M254.969 143.414L326.918 210.605L304.71 306.511L232.761 239.32L254.969 143.414Z" fill="#F4F4F4" stroke="#2A2F45" stroke-width="0.666667" stroke-linejoin="round"/>
    <path d="M326.922 210.604L421.083 181.884L398.868 277.789L304.707 306.509L326.922 210.604Z" fill="#F4F4F4" stroke="#2A2F45" stroke-width="0.666667" stroke-linejoin="round"/>
    <path d="M254.966 143.427L349.13 114.712L421.083 181.898L326.92 210.613L254.966 143.427Z" fill="#F4F4F4" stroke="#2A2F45" stroke-width="0.666667" stroke-linejoin="round"/>
    <path d="M254.969 143.414L326.918 210.605L304.71 306.511L232.761 239.32L254.969 143.414Z" fill="#F4F4F4" stroke="#2A2F45" stroke-width="0.666667" stroke-linejoin="round"/>
    <path d="M326.922 210.604L421.083 181.884L398.868 277.789L304.707 306.509L326.922 210.604Z" fill="#F4F4F4" stroke="#2A2F45" stroke-width="0.666667" stroke-linejoin="round"/>
    <path d="M254.966 143.427L349.13 114.712L421.083 181.898L326.92 210.613L254.966 143.427Z" fill="#F4F4F4" stroke="#2A2F45" stroke-width="0.666667" stroke-linejoin="round"/>
    <path d="M125.868 279.805L197.816 346.995L175.608 442.902L103.659 375.711L125.868 279.805Z" fill="#F4F4F4" stroke="#2A2F45" stroke-width="0.666667" stroke-linejoin="round"/>
    <path d="M197.82 346.995L291.982 318.275L269.767 414.18L175.606 442.9L197.82 346.995Z" fill="#F4F4F4" stroke="#2A2F45" stroke-width="0.666667" stroke-linejoin="round"/>
    <path d="M125.865 279.817L220.028 251.103L291.982 318.289L197.818 347.003L125.865 279.817Z" fill="#F4F4F4" stroke="#2A2F45" stroke-width="0.666667" stroke-linejoin="round"/>
    <path d="M125.868 279.805L197.816 346.995L175.608 442.902L103.659 375.711L125.868 279.805Z" fill="#F4F4F4" stroke="#2A2F45" stroke-width="0.666667" stroke-linejoin="round"/>
    <path d="M197.82 346.995L291.982 318.275L269.767 414.18L175.606 442.9L197.82 346.995Z" fill="#F4F4F4" stroke="#2A2F45" stroke-width="0.666667" stroke-linejoin="round"/>
    <path d="M125.865 279.817L220.028 251.103L291.982 318.289L197.818 347.003L125.865 279.817Z" fill="#F4F4F4" stroke="#2A2F45" stroke-width="0.666667" stroke-linejoin="round"/>
    <path d="M150.235 174.586L222.184 241.777L199.976 337.683L128.027 270.492L150.235 174.586Z" fill="#F4F4F4" stroke="#2A2F45" stroke-width="0.666667" stroke-linejoin="round"/>
    <path d="M222.188 241.776L316.349 213.056L294.134 308.961L199.973 337.681L222.188 241.776Z" fill="#F4F4F4" stroke="#2A2F45" stroke-width="0.666667" stroke-linejoin="round"/>
    <path d="M150.232 174.599L244.396 145.884L316.349 213.07L222.186 241.784L150.232 174.599Z" fill="#F4F4F4" stroke="#2A2F45" stroke-width="0.666667" stroke-linejoin="round"/>
    <path d="M150.235 174.586L222.184 241.777L199.976 337.683L128.027 270.492L150.235 174.586Z" fill="#F4F4F4" stroke="#2A2F45" stroke-width="0.666667" stroke-linejoin="round"/>
    <path d="M222.188 241.776L316.349 213.056L294.134 308.961L199.973 337.681L222.188 241.776Z" fill="#F4F4F4" stroke="#2A2F45" stroke-width="0.666667" stroke-linejoin="round"/>
    <path d="M150.232 174.599L244.396 145.884L316.349 213.07L222.186 241.784L150.232 174.599Z" fill="#F4F4F4" stroke="#2A2F45" stroke-width="0.666667" stroke-linejoin="round"/>
    </svg>
    