<svg width="40" height="40" viewBox="0 0 40 40" fill="none" xmlns="http://www.w3.org/2000/svg">
<path d="M10.6407 17.1308C10.3465 16.9206 9.96813 17.0047 9.75794 17.2569C9.67387 17.383 9.63184 17.5091 9.63184 17.6352V29.4474C9.63184 31.1709 11.019 32.5581 12.7846 32.6001H26.7406C28.4641 32.6001 29.8512 31.2129 29.8933 29.4474V17.6352C29.8933 17.2989 29.599 17.0047 29.2627 17.0047C29.1366 17.0047 29.0105 17.0467 28.8844 17.1308L24.2184 20.4937L20.267 15.1551C20.0568 14.8608 19.6365 14.8188 19.3422 15.071C19.3002 15.113 19.2581 15.113 19.2581 15.1551L15.3067 20.4516L10.6407 17.1308ZM15.9373 21.7127L19.7626 16.5843L23.5879 21.7127C23.798 22.007 24.1764 22.049 24.4706 21.8388L28.6322 18.8543V29.4474C28.6322 30.4983 27.7915 31.339 26.7406 31.339H12.7846C11.7336 31.339 10.8929 30.4983 10.8929 29.4474V18.8543L15.0545 21.8388C15.3488 22.049 15.7271 22.007 15.9373 21.7127Z" fill="black"/>
<path d="M19.7624 11.2457C20.0987 11.2457 20.3929 10.9514 20.3929 10.6151L20.435 7.63054C20.435 7.29425 20.1827 7 19.8044 7C19.4681 7 19.1739 7.29425 19.1739 7.63054L19.1318 10.6151C19.1318 10.9514 19.3841 11.2457 19.7624 11.2457Z" fill="black"/>
<path d="M30.3553 10.6152C30.1031 10.363 29.7248 10.363 29.4726 10.6152L27.4128 12.759C27.1606 13.0113 27.1606 13.3896 27.4128 13.6418C27.665 13.894 28.0433 13.894 28.2956 13.6418L30.3553 11.4979C30.6075 11.2457 30.6075 10.8674 30.3553 10.6152Z" fill="black"/>
<path d="M9.16945 11.4979L11.2292 13.6418C11.4814 13.894 11.8598 13.894 12.112 13.6418C12.3642 13.3896 12.3642 13.0113 12.112 12.759L10.0942 10.6152C9.84203 10.363 9.46371 10.363 9.21149 10.6152C8.95927 10.8674 8.91724 11.2457 9.16945 11.4979Z" fill="black"/>
</svg>
