<svg width="30" height="18" viewBox="0 0 30 18" fill="none" xmlns="http://www.w3.org/2000/svg">
<path d="M1.88095 12.6917V16.8519C1.88094 16.9433 1.89892 17.0337 1.93388 17.1182C1.96884 17.2026 2.02009 17.2793 2.0847 17.3439C2.14931 17.4085 2.22602 17.4597 2.31043 17.4947C2.39485 17.5297 2.48533 17.5477 2.57671 17.5476H4.87098C4.96235 17.5476 5.05283 17.5297 5.13725 17.4947C5.22167 17.4597 5.29837 17.4085 5.36298 17.3439C5.42759 17.2793 5.47884 17.2026 5.5138 17.1182C5.54876 17.0337 5.56675 16.9433 5.56673 16.8519V12.8847L6.85768 13.1774C11.118 14.1442 15.2682 15.5443 19.2436 17.3558C19.5652 17.5024 19.9186 17.566 20.2711 17.5406C20.6237 17.5152 20.9643 17.4017 21.2616 17.2105C21.559 17.0193 21.8035 16.7565 21.9729 16.4462C22.1423 16.1359 22.2311 15.7881 22.2311 15.4346V2.11169C22.2311 1.75963 22.1432 1.41315 21.9751 1.10376C21.8071 0.794383 21.5644 0.531925 21.2691 0.340272C20.9738 0.148619 20.6352 0.0338549 20.2842 0.00642075C19.9332 -0.0210134 19.5809 0.0397543 19.2594 0.183194L18.6282 0.464711C14.7192 2.20742 10.6453 3.55395 6.46767 4.4841L4.79421 4.85644H2.05443C1.50974 4.85704 0.987538 5.07368 0.602388 5.45883C0.217238 5.84398 0.000597906 6.36618 0 6.91086V10.6551C0.00161277 11.1684 0.195743 11.6624 0.54402 12.0396C0.892296 12.4167 1.36937 12.6494 1.88095 12.6917ZM3.27246 16.1561V12.7093H4.17522V16.1561L3.27246 16.1561ZM6.76979 5.84255C11.0383 4.8921 15.2008 3.51628 19.1949 1.73573L19.8261 1.45421C19.9357 1.40523 20.0558 1.38446 20.1756 1.39377C20.2953 1.40309 20.4107 1.4422 20.5115 1.50755C20.6122 1.5729 20.695 1.66241 20.7523 1.76792C20.8096 1.87344 20.8396 1.99162 20.8396 2.11169V15.4346C20.8396 15.5551 20.8093 15.6737 20.7515 15.7795C20.6938 15.8853 20.6104 15.9749 20.509 16.0401C20.4076 16.1053 20.2915 16.144 20.1713 16.1527C20.051 16.1614 19.9306 16.1397 19.8209 16.0898C15.759 14.2387 11.5184 12.8081 7.16524 11.8203L5.56672 11.458V6.11025L6.76979 5.84255ZM1.39151 6.91086C1.3917 6.73511 1.46161 6.56661 1.58589 6.44233C1.71016 6.31805 1.87867 6.24814 2.05442 6.24795H4.17521V11.3178H2.05443C1.8787 11.3176 1.71023 11.2477 1.58595 11.1235C1.46168 10.9993 1.39175 10.8308 1.39151 10.6551L1.39151 6.91086Z" fill="black"/>
<path d="M29.3042 8.07739H26.061C25.8765 8.07739 25.6995 8.15069 25.569 8.28117C25.4385 8.41165 25.3652 8.58862 25.3652 8.77315C25.3652 8.95767 25.4385 9.13464 25.569 9.26512C25.6995 9.3956 25.8765 9.4689 26.061 9.4689H29.3042C29.4887 9.4689 29.6657 9.3956 29.7962 9.26512C29.9267 9.13464 30 8.95767 30 8.77315C30 8.58862 29.9267 8.41165 29.7962 8.28117C29.6657 8.15069 29.4887 8.07739 29.3042 8.07739Z" fill="black"/>
<path d="M29.3041 15.0297C29.4683 15.0297 29.6271 14.9716 29.7526 14.8657C29.8781 14.7598 29.9621 14.613 29.9897 14.4512C30.0174 14.2894 29.987 14.123 29.9038 13.9814C29.8207 13.8399 29.6902 13.7323 29.5354 13.6776L26.2922 12.5346C26.206 12.5042 26.1147 12.4911 26.0235 12.496C25.9322 12.5009 25.8429 12.5238 25.7605 12.5632C25.6781 12.6027 25.6043 12.658 25.5432 12.7259C25.4822 12.7939 25.4352 12.8733 25.4048 12.9594C25.3744 13.0456 25.3613 13.1369 25.3662 13.2281C25.3712 13.3194 25.394 13.4087 25.4335 13.4911C25.4729 13.5735 25.5282 13.6473 25.5962 13.7084C25.6642 13.7694 25.7435 13.8164 25.8297 13.8468L29.0729 14.9899C29.1472 15.0162 29.2253 15.0296 29.3041 15.0297Z" fill="black"/>
<path d="M29.0728 2.5562L25.8295 3.69926C25.7431 3.72944 25.6635 3.77638 25.5953 3.83737C25.5271 3.89837 25.4716 3.97223 25.4319 4.05472C25.3923 4.13721 25.3693 4.22671 25.3643 4.31809C25.3593 4.40947 25.3724 4.50094 25.4028 4.58726C25.4333 4.67357 25.4804 4.75304 25.5416 4.8211C25.6028 4.88916 25.6768 4.94448 25.7594 4.98389C25.842 5.0233 25.9315 5.04603 26.0229 5.05077C26.1143 5.0555 26.2058 5.04216 26.292 5.01151L29.5352 3.86845C29.6215 3.83813 29.7009 3.79111 29.7689 3.73009C29.837 3.66907 29.8923 3.59524 29.9318 3.51282C29.9713 3.4304 29.9942 3.341 29.9991 3.24973C30.0041 3.15846 29.991 3.06712 29.9606 2.98092C29.9302 2.89471 29.8831 2.81534 29.8221 2.74734C29.761 2.67934 29.6871 2.62403 29.6047 2.58459C29.5222 2.54515 29.4328 2.52234 29.3415 2.51747C29.2503 2.5126 29.1589 2.52576 29.0728 2.5562Z" fill="black"/>
</svg>
