<svg width="311" height="311" viewBox="0 0 311 311" fill="none" xmlns="http://www.w3.org/2000/svg">
<g clip-path="url(#clip0_1420_5499)">
<path d="M256.002 112.168C251.018 120.802 244.919 127.533 238.315 132.776L201.6 142.614C208.204 137.371 214.303 130.639 219.287 122.006C233.694 97.0523 225.145 65.1453 200.192 50.7387C193.746 47.0176 186.837 44.8278 179.885 44.057C196.065 32.1589 218.399 30.2155 236.906 40.901C261.86 55.3076 270.409 87.2146 256.002 112.168Z" fill="#F4F4F4" stroke="#2A2F45" stroke-width="0.666667" stroke-linejoin="round"/>
<path d="M283.032 213.045C272.348 231.553 252.034 241.037 232.072 238.823C237.708 234.68 242.596 229.329 246.317 222.883C260.724 197.931 252.175 166.023 227.222 151.617C218.588 146.632 209.94 143.851 201.6 142.613L238.315 132.776C246.655 134.014 255.303 136.794 263.937 141.779C288.89 156.186 297.439 188.093 283.032 213.045Z" fill="#F4F4F4" stroke="#2A2F45" stroke-width="0.666667" stroke-linejoin="round"/>
<path d="M78.2828 71.2811C85.2347 72.052 92.1443 74.2415 98.5895 77.9629C107.603 83.1663 114.536 89.651 119.862 96.6823C120.958 87.93 123.721 78.8474 128.924 69.8347C129.679 68.5273 130.482 67.2652 131.329 66.0488C113.672 57.7639 93.3206 60.2233 78.2828 71.2811Z" fill="#F4F4F4" stroke="#2A2F45" stroke-width="0.666667" stroke-linejoin="round"/>
<path d="M130.47 266.047C149.022 268.105 167.877 260.059 179.026 244.056C177.684 243.426 176.358 242.734 175.05 241.979C166.038 236.776 159.104 230.292 153.778 223.26C152.681 232.013 149.919 241.095 144.715 250.107C140.995 256.553 136.105 261.904 130.47 266.047Z" fill="#F4F4F4" stroke="#2A2F45" stroke-width="0.666667" stroke-linejoin="round"/>
<path fill-rule="evenodd" clip-rule="evenodd" d="M27.3227 97.0589C41.7294 72.1058 73.6366 63.5563 98.5894 77.963C107.603 83.1665 114.536 89.6511 119.862 96.6824C120.959 87.9299 123.721 78.8475 128.924 69.8349C143.331 44.8818 175.238 36.3322 200.191 50.7388C225.145 65.1454 233.694 97.0524 219.287 122.006C214.303 130.639 208.204 137.371 201.6 142.614C209.94 143.852 218.588 146.632 227.222 151.617C252.175 166.024 260.725 197.931 246.318 222.884C231.911 247.837 200.003 256.386 175.05 241.981C166.038 236.777 159.105 230.292 153.778 223.26C152.681 232.013 149.92 241.095 144.716 250.109C130.309 275.061 98.4019 283.61 73.449 269.204C48.4959 254.798 39.9463 222.89 54.3529 197.937C59.3375 189.303 65.4369 182.571 72.0406 177.329C63.7004 176.091 55.0522 173.31 46.4186 168.326C21.4655 153.919 12.916 122.012 27.3227 97.0589ZM128.623 129.377C128.623 129.377 134.932 142.277 142.224 147.023C150.614 152.483 167.414 151.774 167.414 151.774C167.414 151.774 151.965 156.668 146.954 164.676C141.575 173.27 145.018 190.565 145.018 190.565C145.018 190.565 139.352 173.866 130.397 169.112C122.052 164.683 106.226 168.169 106.226 168.169C106.226 168.169 121.13 160.384 125.666 151.459C129.609 143.703 128.623 129.377 128.623 129.377Z" fill="#F4F4F4" stroke="#2A2F45" stroke-width="0.666667" stroke-linejoin="round"/>
</g>
<defs>
<clipPath id="clip0_1420_5499">
<rect width="253.243" height="253.243" fill="white" transform="translate(0 65.543) rotate(-15)"/>
</clipPath>
</defs>
</svg>
