<svg width="345" height="369" viewBox="0 0 345 369" fill="none" xmlns="http://www.w3.org/2000/svg">
<path d="M123.494 131.339L172.499 184.495L150.896 253.447L101.891 200.29L123.494 131.339Z" fill="#387CD3" stroke="#2A2F45" stroke-width="0.666667" stroke-linejoin="round"/>
<path d="M172.502 184.496L243.113 168.699L221.506 237.648L150.895 253.445L172.502 184.496Z" fill="#2A2F45" stroke="#2A2F45" stroke-width="0.666667" stroke-linejoin="round"/>
<path d="M123.491 131.346L194.104 115.553L243.113 168.707L172.5 184.5L123.491 131.346Z" fill="#F4F4F4" stroke="#2A2F45" stroke-width="0.666667" stroke-linejoin="round"/>
<path d="M123.494 131.339L172.499 184.495L150.896 253.447L101.891 200.29L123.494 131.339Z" fill="#387CD3" stroke="#2A2F45" stroke-width="0.666667" stroke-linejoin="round"/>
<path d="M172.502 184.496L243.113 168.699L221.506 237.648L150.895 253.445L172.502 184.496Z" fill="#2A2F45" stroke="#2A2F45" stroke-width="0.666667" stroke-linejoin="round"/>
<path d="M123.491 131.346L194.104 115.553L243.113 168.707L172.5 184.5L123.491 131.346Z" fill="#F4F4F4" stroke="#2A2F45" stroke-width="0.666667" stroke-linejoin="round"/>
<path d="M147.196 55.6952L196.201 108.852L174.598 177.803L125.593 124.646L147.196 55.6952Z" fill="#387CD3" stroke="#2A2F45" stroke-width="0.666667" stroke-linejoin="round"/>
<path d="M196.204 108.853L266.815 93.0554L245.208 162.005L174.597 177.802L196.204 108.853Z" fill="#2A2F45" stroke="#2A2F45" stroke-width="0.666667" stroke-linejoin="round"/>
<path d="M147.193 55.7028L217.806 39.9101L266.815 93.0639L196.202 108.857L147.193 55.7028Z" fill="#F4F4F4" stroke="#2A2F45" stroke-width="0.666667" stroke-linejoin="round"/>
<path d="M147.196 55.6952L196.201 108.852L174.598 177.803L125.593 124.646L147.196 55.6952Z" fill="#387CD3" stroke="#2A2F45" stroke-width="0.666667" stroke-linejoin="round"/>
<path d="M196.204 108.853L266.815 93.0554L245.208 162.005L174.597 177.802L196.204 108.853Z" fill="#2A2F45" stroke="#2A2F45" stroke-width="0.666667" stroke-linejoin="round"/>
<path d="M147.193 55.7028L217.806 39.9101L266.815 93.0639L196.202 108.857L147.193 55.7028Z" fill="#F4F4F4" stroke="#2A2F45" stroke-width="0.666667" stroke-linejoin="round"/>
<path d="M44.9967 148.345L94.0018 201.502L72.3992 270.453L23.3939 217.296L44.9967 148.345Z" fill="#387CD3" stroke="#2A2F45" stroke-width="0.666667" stroke-linejoin="round"/>
<path d="M94.0048 201.502L164.616 185.705L143.009 254.655L72.3975 270.452L94.0048 201.502Z" fill="#2A2F45" stroke="#2A2F45" stroke-width="0.666667" stroke-linejoin="round"/>
<path d="M44.9943 148.352L115.607 132.56L164.615 185.714L94.0029 201.506L44.9943 148.352Z" fill="#F4F4F4" stroke="#2A2F45" stroke-width="0.666667" stroke-linejoin="round"/>
<path d="M44.9967 148.345L94.0018 201.502L72.3992 270.453L23.3939 217.296L44.9967 148.345Z" fill="#387CD3" stroke="#2A2F45" stroke-width="0.666667" stroke-linejoin="round"/>
<path d="M94.0048 201.502L164.616 185.705L143.009 254.655L72.3975 270.452L94.0048 201.502Z" fill="#2A2F45" stroke="#2A2F45" stroke-width="0.666667" stroke-linejoin="round"/>
<path d="M44.9943 148.352L115.607 132.56L164.615 185.714L94.0029 201.506L44.9943 148.352Z" fill="#F4F4F4" stroke="#2A2F45" stroke-width="0.666667" stroke-linejoin="round"/>
<path d="M68.6989 72.7014L117.704 125.858L96.1013 194.809L47.0961 141.653L68.6989 72.7014Z" fill="#387CD3" stroke="#2A2F45" stroke-width="0.666667" stroke-linejoin="round"/>
<path d="M117.707 125.859L188.318 110.062L166.711 179.011L96.0996 194.808L117.707 125.859Z" fill="#2A2F45" stroke="#2A2F45" stroke-width="0.666667" stroke-linejoin="round"/>
<path d="M68.6964 72.7091L139.309 56.9164L188.318 110.07L117.705 125.863L68.6964 72.7091Z" fill="#F4F4F4" stroke="#2A2F45" stroke-width="0.666667" stroke-linejoin="round"/>
<path d="M68.6989 72.7014L117.704 125.858L96.1013 194.809L47.0961 141.653L68.6989 72.7014Z" fill="#387CD3" stroke="#2A2F45" stroke-width="0.666667" stroke-linejoin="round"/>
<path d="M117.707 125.859L188.318 110.062L166.711 179.011L96.0996 194.808L117.707 125.859Z" fill="#2A2F45" stroke="#2A2F45" stroke-width="0.666667" stroke-linejoin="round"/>
<path d="M68.6964 72.7091L139.309 56.9164L188.318 110.07L117.705 125.863L68.6964 72.7091Z" fill="#F4F4F4" stroke="#2A2F45" stroke-width="0.666667" stroke-linejoin="round"/>
<path d="M178.289 189.976L227.294 243.133L205.691 312.084L156.686 258.927L178.289 189.976Z" fill="#387CD3" stroke="#2A2F45" stroke-width="0.666667" stroke-linejoin="round"/>
<path d="M227.297 243.133L297.908 227.336L276.301 296.285L205.689 312.083L227.297 243.133Z" fill="#2A2F45" stroke="#2A2F45" stroke-width="0.666667" stroke-linejoin="round"/>
<path d="M178.286 189.983L248.899 174.191L297.907 227.344L227.295 243.137L178.286 189.983Z" fill="#F4F4F4" stroke="#2A2F45" stroke-width="0.666667" stroke-linejoin="round"/>
<path d="M178.289 189.976L227.294 243.133L205.691 312.084L156.686 258.927L178.289 189.976Z" fill="#387CD3" stroke="#2A2F45" stroke-width="0.666667" stroke-linejoin="round"/>
<path d="M227.297 243.133L297.908 227.336L276.301 296.285L205.689 312.083L227.297 243.133Z" fill="#2A2F45" stroke="#2A2F45" stroke-width="0.666667" stroke-linejoin="round"/>
<path d="M178.286 189.983L248.899 174.191L297.907 227.344L227.295 243.137L178.286 189.983Z" fill="#F4F4F4" stroke="#2A2F45" stroke-width="0.666667" stroke-linejoin="round"/>
<path d="M201.991 114.332L250.996 167.489L229.393 236.44L180.388 183.283L201.991 114.332Z" fill="#387CD3" stroke="#2A2F45" stroke-width="0.666667" stroke-linejoin="round"/>
<path d="M250.999 167.49L321.61 151.693L300.003 220.642L229.392 236.439L250.999 167.49Z" fill="#2A2F45" stroke="#2A2F45" stroke-width="0.666667" stroke-linejoin="round"/>
<path d="M201.988 114.34L272.601 98.5472L321.61 151.701L250.997 167.494L201.988 114.34Z" fill="#F4F4F4" stroke="#2A2F45" stroke-width="0.666667" stroke-linejoin="round"/>
<path d="M201.991 114.332L250.996 167.489L229.393 236.44L180.388 183.283L201.991 114.332Z" fill="#387CD3" stroke="#2A2F45" stroke-width="0.666667" stroke-linejoin="round"/>
<path d="M250.999 167.49L321.61 151.693L300.003 220.642L229.392 236.439L250.999 167.49Z" fill="#2A2F45" stroke="#2A2F45" stroke-width="0.666667" stroke-linejoin="round"/>
<path d="M201.988 114.34L272.601 98.5472L321.61 151.701L250.997 167.494L201.988 114.34Z" fill="#F4F4F4" stroke="#2A2F45" stroke-width="0.666667" stroke-linejoin="round"/>
<path d="M99.7915 206.982L148.797 260.139L127.194 329.09L78.1887 275.933L99.7915 206.982Z" fill="#387CD3" stroke="#2A2F45" stroke-width="0.666667" stroke-linejoin="round"/>
<path d="M148.8 260.139L219.411 244.342L197.804 313.292L127.192 329.089L148.8 260.139Z" fill="#2A2F45" stroke="#2A2F45" stroke-width="0.666667" stroke-linejoin="round"/>
<path d="M99.7891 206.99L170.402 191.197L219.41 244.351L148.798 260.143L99.7891 206.99Z" fill="#F4F4F4" stroke="#2A2F45" stroke-width="0.666667" stroke-linejoin="round"/>
<path d="M99.7915 206.982L148.797 260.139L127.194 329.09L78.1887 275.933L99.7915 206.982Z" fill="#387CD3" stroke="#2A2F45" stroke-width="0.666667" stroke-linejoin="round"/>
<path d="M148.8 260.139L219.411 244.342L197.804 313.292L127.192 329.089L148.8 260.139Z" fill="#2A2F45" stroke="#2A2F45" stroke-width="0.666667" stroke-linejoin="round"/>
<path d="M99.7891 206.99L170.402 191.197L219.41 244.351L148.798 260.143L99.7891 206.99Z" fill="#F4F4F4" stroke="#2A2F45" stroke-width="0.666667" stroke-linejoin="round"/>
<path d="M123.494 131.339L172.499 184.495L150.896 253.447L101.891 200.29L123.494 131.339Z" fill="#387CD3" stroke="#2A2F45" stroke-width="0.666667" stroke-linejoin="round"/>
<path d="M172.502 184.496L243.113 168.699L221.506 237.648L150.895 253.445L172.502 184.496Z" fill="#2A2F45" stroke="#2A2F45" stroke-width="0.666667" stroke-linejoin="round"/>
<path d="M123.491 131.346L194.104 115.553L243.113 168.707L172.5 184.5L123.491 131.346Z" fill="#F4F4F4" stroke="#2A2F45" stroke-width="0.666667" stroke-linejoin="round"/>
<path d="M123.494 131.339L172.499 184.495L150.896 253.447L101.891 200.29L123.494 131.339Z" fill="#387CD3" stroke="#2A2F45" stroke-width="0.666667" stroke-linejoin="round"/>
<path d="M172.502 184.496L243.113 168.699L221.506 237.648L150.895 253.445L172.502 184.496Z" fill="#2A2F45" stroke="#2A2F45" stroke-width="0.666667" stroke-linejoin="round"/>
<path d="M123.491 131.346L194.104 115.553L243.113 168.707L172.5 184.5L123.491 131.346Z" fill="#F4F4F4" stroke="#2A2F45" stroke-width="0.666667" stroke-linejoin="round"/>
</svg>
