<svg width="650" height="188" viewBox="0 0 650 188" fill="none" xmlns="http://www.w3.org/2000/svg">
<path d="M0 144H33.2502L33.2502 109.187H65.5088V91.901L656.5 91.9009L697.549 91.0488M697.549  100" stroke="white" stroke-width="2"/>
<path d="M163.485 177.105C159.441 133.324 131.319 98.5301 95.8709 94C131.319 89.4699 159.441 54.6762 163.485 10.8949C167.529 54.6762 195.65 89.4699 231.099 94C195.65 98.5301 167.529 133.324 163.485 177.105Z" stroke="#F4F4F4"/>
<path d="M106.516 94C148.205 94 182 51.9148 182 0C182 51.9148 215.796 94 257.485 94C215.796 94 182 136.085 182 188C182 136.085 148.205 94 106.516 94Z" fill="#387CD3"/>
</svg>
