<svg
    width="272"
    height="67"
    viewBox="0 0 272 67"
    fill="none"
    xmlns="http://www.w3.org/2000/svg"
>
    <g clip-path="url(#clip0_187_1167)">
    <path
        d="M21.066 66.9999C27.9963 66.9999 32.1974 64.5636 35.0493 61.0917V64.9899L35.7853 65.7208H52.4058L53.1417 64.9899V61.0004L52.4058 60.2695H51.3018C49.4619 60.2695 47.6527 58.4422 47.6527 56.6454V9.68445L48.5726 1.15718L47.8367 0.42627H44.9235L30.8482 5.78627L30.1122 6.51718V8.95354L30.8482 9.68445H31.9521C33.792 9.68445 35.6013 11.5117 35.6013 13.3085V23.9981C32.8721 21.7445 28.9469 19.6431 22.9979 19.6431C11.4065 19.6431 0.152344 28.4445 0.152344 43.3063C0.152344 59.9345 11.4065 66.9999 21.066 66.9999ZM24.1632 61.0004C16.0369 61.0004 12.7557 53.0213 12.7557 43.3063C12.7557 33.5913 16.0369 25.6122 24.1632 25.6122C32.2894 25.6122 35.5706 33.5913 35.5706 43.3063C35.5706 53.0213 32.3201 61.0004 24.1632 61.0004Z"
        fill="white"
    />
    <path
        d="M80.6492 67.0002C94.7245 67.0002 105.396 57.1025 105.396 43.337C105.396 29.5411 94.7245 19.6738 80.6492 19.6738C66.5739 19.6738 55.9024 29.5716 55.9024 43.337C55.8717 57.1025 66.5739 67.0002 80.6492 67.0002ZM80.6492 61.1834C72.2469 61.1834 68.5058 53.2956 68.5058 43.3066C68.5058 33.3175 72.2469 25.4297 80.6492 25.4297C89.0515 25.4297 92.7926 33.3175 92.7926 43.3066C92.7926 53.2956 89.0515 61.1834 80.6492 61.1834Z"
        fill="white"
    />
    <path
        fill-rule="evenodd"
        clip-rule="evenodd"
        d="M163.382 17.9682C160.592 19.4605 158.353 21.3791 156.759 23.7545V0H144.217V48.1791C144.125 55.4882 139.647 59.8432 133.974 59.8432C129.037 59.8432 125.388 57.1327 125.388 51.1332V29.6323L126.308 21.105L125.572 20.3741H122.659L108.4 25.3686L107.848 26.0995V28.5359L108.584 29.2668H109.688C111.527 29.2668 113.337 31.0941 113.337 32.8909V51.4682C113.337 61.8836 119.899 66.9695 129.405 66.9695C135.354 66.9695 141.027 64.2591 144.217 60.1782V65.7818H156.759V58.7773C158.445 61.0918 160.653 62.98 163.382 64.4723C166.173 65.9036 169.454 66.6041 173.134 66.6041C177.366 66.6041 181.199 65.5382 184.603 63.4064C188.068 61.2745 190.766 58.29 192.759 54.4223C194.783 50.5241 195.795 46.0473 195.795 40.9918C195.795 35.9364 194.783 31.5509 192.759 27.7441C190.797 23.8764 188.068 20.9223 184.603 18.8514C181.199 16.7805 177.366 15.745 173.134 15.745C169.485 15.745 166.234 16.4759 163.382 17.9682ZM181.107 33.3477C182.364 35.4795 182.977 38.0377 182.977 40.9918C182.977 44.0068 182.364 46.6259 181.107 48.8186C179.911 51.0114 178.316 52.6864 176.262 53.8741C174.299 55.0618 172.152 55.6405 169.822 55.6405C167.553 55.6405 165.406 55.0923 163.382 53.9655C161.42 52.7777 159.794 51.1027 158.537 48.91C157.341 46.7173 156.759 44.1286 156.759 41.1745C156.759 38.2205 157.341 35.6318 158.537 33.4391C159.794 31.2464 161.389 29.5714 163.382 28.4445C165.406 27.2568 167.553 26.6782 169.822 26.6782C172.152 26.6782 174.299 27.2264 176.262 28.3532C178.286 29.48 179.911 31.155 181.107 33.3477Z"
        fill="white"
    />
    <path
        d="M215.362 1.1875V66.9998H202.82V1.1875H215.362Z"
        fill="white"
    />
    <path
        d="M271.755 40.5047C271.755 42.2711 271.632 43.8852 271.387 45.3166H235.141C235.447 48.8798 236.705 51.6511 238.912 53.6611C241.12 55.6711 243.85 56.6761 247.069 56.6761C251.731 56.6761 255.042 54.6966 257.005 50.707H270.528C269.087 55.4579 266.358 59.3561 262.279 62.432C258.201 65.4775 253.233 67.0002 247.315 67.0002C242.531 67.0002 238.238 65.9648 234.435 63.8938C230.664 61.762 227.72 58.7775 225.573 54.9098C223.488 51.042 222.445 46.6261 222.445 41.5707C222.445 36.4848 223.488 32.0079 225.573 28.1402C227.658 24.2725 230.572 21.3184 234.343 19.2475C238.115 17.1766 242.408 16.1411 247.315 16.1411C252.037 16.1411 256.238 17.1461 259.949 19.1561C263.721 21.1661 266.603 24.0593 268.627 27.7747C270.712 31.4597 271.755 35.6929 271.755 40.5047ZM258.784 36.9416C258.722 33.7438 257.557 31.1857 255.288 29.2975C253.018 27.3484 250.259 26.3738 246.947 26.3738C243.85 26.3738 241.212 27.3179 239.066 29.2061C236.981 31.0334 235.693 33.622 235.202 36.9416H258.784Z"
        fill="white"
    />
    </g>
    <defs>
    <clipPath id="clip0_187_1167">
        <rect width="272" height="67" fill="white" />
    </clipPath>
    </defs>
</svg>