<svg width="18" height="24" viewBox="0 0 18 24" fill="none" xmlns="http://www.w3.org/2000/svg">
<path d="M16.7143 8.57143C16.7143 12.84 9 23.1429 9 23.1429C9 23.1429 1.28571 12.84 1.28571 8.57143C1.28571 6.52548 2.09847 4.56332 3.54518 3.11661C4.99188 1.6699 6.95404 0.857147 9 0.857147C11.046 0.857147 13.0081 1.6699 14.4548 3.11661C15.9015 4.56332 16.7143 6.52548 16.7143 8.57143V8.57143Z" stroke="#1C2328" stroke-width="1.71429" stroke-linecap="round" stroke-linejoin="round"/>
<path d="M9 11.1429C10.4202 11.1429 11.5714 9.99159 11.5714 8.57143C11.5714 7.15127 10.4202 6 9 6C7.57984 6 6.42857 7.15127 6.42857 8.57143C6.42857 9.99159 7.57984 11.1429 9 11.1429Z" stroke="#1C2328" stroke-width="1.71429" stroke-linecap="round" stroke-linejoin="round"/>
</svg>
