<svg width="532" height="568" viewBox="0 0 532 568" fill="none" xmlns="http://www.w3.org/2000/svg">
<path d="M95.9696 294.023L227.965 443.168L218.856 481.327L86.8614 332.182L95.9696 294.023Z" fill="#1288FF" stroke="#2A2F45" stroke-width="0.666667" stroke-linecap="round" stroke-linejoin="round"/>
<path d="M227.965 443.164L413.092 369.715L403.983 407.873L218.856 481.324L227.965 443.164Z" fill="#2A2F45" stroke="#2A2F45" stroke-width="0.666667" stroke-linecap="round" stroke-linejoin="round"/>
<path d="M281.097 220.574L413.091 369.719L227.965 443.169L95.9697 294.024L281.097 220.574Z" fill="#F4F4F4" stroke="#2A2F45" stroke-width="0.666667" stroke-linecap="round" stroke-linejoin="round"/>
<path d="M95.9696 294.023L227.965 443.168L218.856 481.327L86.8614 332.182L95.9696 294.023Z" fill="#1288FF" stroke="#2A2F45" stroke-width="0.666667" stroke-linecap="round" stroke-linejoin="round"/>
<path d="M227.965 443.164L413.092 369.715L403.983 407.873L218.856 481.324L227.965 443.164Z" fill="#2A2F45" stroke="#2A2F45" stroke-width="0.666667" stroke-linecap="round" stroke-linejoin="round"/>
<path d="M281.097 220.574L413.091 369.719L227.965 443.169L95.9697 294.024L281.097 220.574Z" fill="#F4F4F4" stroke="#2A2F45" stroke-width="0.666667" stroke-linecap="round" stroke-linejoin="round"/>
<path d="M111.015 230.992L243.01 380.136L233.902 418.296L101.907 269.151L111.015 230.992Z" stroke="#2A2F45" stroke-width="0.666667" stroke-linecap="round" stroke-linejoin="round"/>
<path d="M243.01 380.133L428.138 306.683L419.029 344.842L233.902 418.292L243.01 380.133Z" stroke="#2A2F45" stroke-width="0.666667" stroke-linecap="round" stroke-linejoin="round"/>
<path d="M296.142 157.535L428.136 306.68L243.01 380.13L111.015 230.985L296.142 157.535Z" fill="#F4F4F4" stroke="#2A2F45" stroke-width="0.666667" stroke-linecap="round" stroke-linejoin="round"/>
<path d="M111.015 230.992L243.01 380.136L233.902 418.296L101.907 269.151L111.015 230.992Z" stroke="#2A2F45" stroke-width="0.666667" stroke-linecap="round" stroke-linejoin="round"/>
<path d="M243.01 380.133L428.138 306.683L419.029 344.842L233.902 418.292L243.01 380.133Z" stroke="#2A2F45" stroke-width="0.666667" stroke-linecap="round" stroke-linejoin="round"/>
<path d="M296.142 157.535L428.136 306.68L243.01 380.13L111.015 230.985L296.142 157.535Z" fill="#F4F4F4" stroke="#2A2F45" stroke-width="0.666667" stroke-linecap="round" stroke-linejoin="round"/>
<path d="M127.961 159.695L259.956 308.84L250.847 346.999L118.852 197.854L127.961 159.695Z" stroke="#2A2F45" stroke-width="0.666667" stroke-linecap="round" stroke-linejoin="round"/>
<path d="M259.955 308.836L445.083 235.387L435.974 273.545L250.847 346.995L259.955 308.836Z" stroke="#2A2F45" stroke-width="0.666667" stroke-linecap="round" stroke-linejoin="round"/>
<path d="M313.087 86.2459L445.081 235.391L259.955 308.841L127.96 159.696L313.087 86.2459Z" stroke="#2A2F45" stroke-width="0.666667" stroke-linecap="round" stroke-linejoin="round"/>
<path d="M259.955 308.836L445.083 235.387L435.974 273.545L250.847 346.995L259.955 308.836Z" stroke="#2A2F45" stroke-width="0.666667" stroke-linecap="round" stroke-linejoin="round"/>
</svg>
