<svg width="40" height="40" viewBox="0 0 40 40" fill="none" xmlns="http://www.w3.org/2000/svg">
<path d="M28.3968 10.2481C28.2453 10.1187 28.0603 10.0358 27.8637 10.0093C27.6672 9.9827 27.4672 10.0136 27.2874 10.0982C27.1076 10.1828 26.9554 10.3177 26.8487 10.4869C26.7421 10.6562 26.6855 10.8528 26.6855 11.0535V13.4166H17.6531C17.4718 13.4166 17.298 13.4895 17.1698 13.6192C17.0416 13.749 16.9696 13.925 16.9696 14.1085C16.9696 14.292 17.0416 14.468 17.1698 14.5977C17.298 14.7275 17.4718 14.8004 17.6531 14.8004H27.369C27.5502 14.8003 27.724 14.7274 27.8522 14.5977C27.9804 14.4679 28.0524 14.292 28.0524 14.1085V11.7634L34.2557 17.0544L28.0524 22.3451V20C28.0524 19.8165 27.9804 19.6405 27.8522 19.5108C27.724 19.3811 27.5502 19.3081 27.369 19.3081H14.3141V16.945C14.3141 16.7443 14.2574 16.5477 14.1508 16.3785C14.0442 16.2093 13.892 16.0744 13.7122 15.9897C13.5324 15.905 13.3325 15.8741 13.1359 15.9006C12.9394 15.9271 12.7544 16.0099 12.6027 16.1392L5.24295 22.4162C5.16684 22.4812 5.10567 22.5623 5.0637 22.6537C5.02174 22.7451 5 22.8447 5 22.9455C5 23.0463 5.02174 23.1459 5.0637 23.2373C5.10567 23.3288 5.16684 23.4098 5.24295 23.4748L12.6027 29.7519C12.7543 29.8813 12.9393 29.9642 13.1358 29.9907C13.3324 30.0173 13.5324 29.9865 13.7122 29.9018C13.892 29.8172 14.0442 29.6823 14.1508 29.5131C14.2575 29.3438 14.3141 29.1472 14.3141 28.9465V26.5834H23.3465C23.5277 26.5834 23.7016 26.5105 23.8298 26.3807C23.9579 26.251 24.0299 26.075 24.0299 25.8915C24.0299 25.708 23.9579 25.532 23.8298 25.4022C23.7016 25.2725 23.5277 25.1996 23.3465 25.1996H13.6306C13.4493 25.1996 13.2755 25.2726 13.1474 25.4023C13.0192 25.532 12.9472 25.708 12.9471 25.8915V28.2361L6.74428 22.9455L12.9471 17.6549V20C12.9472 20.1835 13.0192 20.3595 13.1474 20.4892C13.2755 20.6189 13.4493 20.6919 13.6306 20.6919H26.6855V23.055C26.6855 23.2557 26.7422 23.4523 26.8488 23.6215C26.9554 23.7908 27.1076 23.9257 27.2874 24.0103C27.4671 24.095 27.6671 24.1259 27.8636 24.0994C28.0602 24.0729 28.2452 23.9902 28.3968 23.8609L35.757 17.5838C35.8332 17.5188 35.8943 17.4377 35.9363 17.3463C35.9783 17.2549 36 17.1553 36 17.0545C36 16.9537 35.9783 16.8541 35.9363 16.7627C35.8943 16.6712 35.8332 16.5902 35.757 16.5252L28.3968 10.2481Z" fill="black"/>
</svg>
