<svg width="88" height="85" viewBox="0 0 88 85" fill="none" xmlns="http://www.w3.org/2000/svg">
<path d="M43.5534 6.99503L43.6267 6.87379C43.6121 6.86575 43.5962 6.86015 43.5795 6.85729L43.5534 6.99503ZM28.1799 4.33141L28.2061 4.19365C28.1781 4.18881 28.1493 4.19183 28.1231 4.20233L28.1799 4.33141ZM12.9549 10.4344L12.8981 10.3053C12.8703 10.3164 12.8467 10.3355 12.8307 10.3599L12.9549 10.4344ZM4.50215 23.2776L4.37795 23.2031C4.35756 23.2341 4.35067 23.2714 4.3588 23.3072L4.50215 23.2776ZM17.5034 80.6685L17.36 80.6982C17.3688 80.7368 17.3942 80.7701 17.4301 80.7897C17.4659 80.8096 17.5088 80.8138 17.5482 80.8018L17.5034 80.6685ZM71.3195 22.2973L71.4312 22.2068C71.4204 22.1945 71.4075 22.1841 71.3928 22.176L71.3195 22.2973ZM81.4227 33.6741L81.5682 33.6565C81.5647 33.6296 81.553 33.6041 81.5345 33.5837L81.4227 33.6741ZM83.4984 49.3116L83.628 49.3768C83.6421 49.3513 83.6477 49.3225 83.6439 49.2939L83.4984 49.3116ZM76.0723 62.7208L76.1172 62.854C76.1539 62.8428 76.1841 62.8185 76.202 62.786L76.0723 62.7208ZM12.986 10.3232C12.9124 10.2909 12.8253 10.3217 12.7915 10.3919C12.7576 10.4622 12.7898 10.5453 12.8634 10.5776L12.986 10.3232ZM23.613 15.3893L23.7505 15.4378C23.7757 15.3728 23.7473 15.2999 23.6835 15.2665L23.613 15.3893ZM4.52535 23.2878L4.46701 23.1593C4.42644 23.1761 4.39599 23.2095 4.38408 23.2501C4.3722 23.2907 4.38012 23.3343 4.40567 23.3688L4.52535 23.2878ZM28.7452 29.5758L28.8907 29.5928C28.8976 29.5396 28.872 29.4873 28.8249 29.4582C28.7778 29.429 28.7174 29.4282 28.6693 29.4559L28.7452 29.5758ZM16.6788 77.7055C16.6822 77.7828 16.7505 77.8427 16.8314 77.8394C16.9124 77.8363 16.9752 77.771 16.9718 77.6938L16.6788 77.7055ZM83.3737 49.4362C83.4397 49.481 83.5312 49.4661 83.5782 49.4028C83.6248 49.3398 83.6093 49.2525 83.5433 49.2077L83.3737 49.4362ZM73.6333 42.9558L73.7095 42.8363C73.6617 42.8086 73.6013 42.8091 73.5544 42.838C73.5071 42.8668 73.4813 42.9189 73.4878 42.9718L73.6333 42.9558ZM76.011 62.6841L75.9976 62.8235C76.0415 62.8274 76.0853 62.8123 76.1161 62.7821C76.1469 62.7519 76.1618 62.7101 76.1568 62.6681L76.011 62.6841ZM57.9587 61.0867L57.9262 61.2233C57.9326 61.2244 57.9388 61.2256 57.9452 61.2261L57.9587 61.0867ZM58.3509 45.8135C58.3524 45.7362 58.2881 45.6724 58.2072 45.6707C58.1262 45.6693 58.059 45.7306 58.0576 45.8079L58.3509 45.8135ZM57.8863 61.101L57.9543 61.2253C58.0018 61.2015 58.0321 61.155 58.0329 61.1038L57.8863 61.101ZM20.4351 79.6022C20.3633 79.6381 20.3355 79.7227 20.373 79.7913C20.4105 79.8599 20.4991 79.8862 20.5709 79.8506L20.4351 79.6022ZM23.6409 15.4049L23.5817 15.2768C23.5118 15.3062 23.4772 15.382 23.5023 15.4509L23.6409 15.4049ZM43.5839 7.02011L43.6572 6.89887C43.6168 6.87656 43.5675 6.87401 43.5247 6.89201L43.5839 7.02011ZM71.2488 22.2665L71.3946 22.2513C71.3896 22.207 71.3626 22.1676 71.3221 22.1453L71.2488 22.2665ZM73.613 42.9449L73.7263 43.034C73.7515 43.0048 73.7632 42.9673 73.7588 42.9298L73.613 42.9449ZM28.8075 29.5847L28.669 29.6306C28.6792 29.6586 28.6985 29.683 28.724 29.6998L28.8075 29.5847ZM43.5795 6.85729L28.2061 4.19365L28.1537 4.46917L43.5273 7.13279L43.5795 6.85729ZM28.1231 4.20233L12.8981 10.3053L13.0117 10.5634L28.2367 4.46049L28.1231 4.20233ZM12.8307 10.3599L4.37795 23.2031L4.62632 23.3521L13.0791 10.5088L12.8307 10.3599ZM4.3588 23.3072L17.36 80.6982L17.6467 80.6391L4.6455 23.248L4.3588 23.3072ZM71.2077 22.3878L81.311 33.7646L81.5345 33.5837L71.4312 22.2068L71.2077 22.3878ZM81.2773 33.6918L83.3529 49.3292L83.6439 49.2939L81.5682 33.6565L81.2773 33.6918ZM83.3687 49.246L75.9427 62.6553L76.202 62.786L83.628 49.3768L83.3687 49.246ZM76.0278 62.5875L17.4585 80.5352L17.5482 80.8018L76.1172 62.854L76.0278 62.5875ZM71.3928 22.176L43.6267 6.87379L43.4801 7.11627L71.2461 22.4185L71.3928 22.176ZM12.9247 10.4504C12.8634 10.5776 12.8635 10.5776 12.8635 10.5776C12.8636 10.5777 12.8637 10.5777 12.8638 10.5777C12.864 10.5779 12.8644 10.578 12.8648 10.5782C12.8658 10.5786 12.8672 10.5792 12.869 10.5801C12.8728 10.5817 12.8784 10.5842 12.8858 10.5874C12.9005 10.5939 12.9225 10.6035 12.9513 10.6162C13.0088 10.6415 13.0936 10.6788 13.2026 10.7269C13.4205 10.823 13.7352 10.9621 14.122 11.1338C14.8954 11.4771 15.9572 11.9508 17.1101 12.4723C19.4177 13.516 22.0857 14.749 23.5424 15.512L23.6835 15.2665C22.2179 14.4988 19.5418 13.2624 17.2357 12.2193C16.082 11.6974 15.0196 11.2234 14.2456 10.8799C13.8587 10.7081 13.5438 10.569 13.3256 10.4727C13.2166 10.4246 13.1317 10.3873 13.074 10.3619C13.0452 10.3492 13.0232 10.3395 13.0084 10.333C13.001 10.3298 12.9954 10.3273 12.9917 10.3257C12.9898 10.3249 12.9883 10.3242 12.9874 10.3238C12.9869 10.3236 12.9866 10.3235 12.9863 10.3234C12.9862 10.3233 12.9861 10.3233 12.9861 10.3232C12.986 10.3232 12.986 10.3232 12.9247 10.4504ZM23.5546 15.2608L4.46701 23.1593L4.58367 23.4162L23.6713 15.5177L23.5546 15.2608ZM28.6693 29.4559L14.9804 37.3497L15.1321 37.5894L28.821 29.6956L28.6693 29.4559ZM83.4585 49.3219C83.5433 49.2077 83.5433 49.2077 83.543 49.2077C83.5427 49.2074 83.5424 49.2071 83.5418 49.2068C83.5409 49.2063 83.5397 49.2054 83.538 49.2043C83.5347 49.2021 83.5298 49.1987 83.523 49.1942C83.5098 49.1853 83.4899 49.1719 83.4641 49.1545C83.4121 49.1195 83.3359 49.068 83.2376 49.0019C83.0414 48.8694 82.7577 48.6788 82.4083 48.4447C81.7096 47.9768 80.7484 47.3356 79.6979 46.6426C77.5986 45.258 75.139 43.664 73.7095 42.8363L73.5573 43.0757C74.9779 43.8983 77.4305 45.4873 79.5313 46.873C80.5809 47.5655 81.5415 48.2061 82.2397 48.674C82.589 48.9078 82.8724 49.0985 83.0686 49.2306C83.1666 49.2967 83.2429 49.348 83.2948 49.383C83.3206 49.4003 83.3403 49.4138 83.3535 49.4227C83.3602 49.4272 83.3652 49.4306 83.3687 49.4328C83.3702 49.4339 83.3717 49.4348 83.3725 49.4353C83.3728 49.4356 83.3731 49.4359 83.3734 49.4362C83.3734 49.4362 83.3734 49.4362 83.3737 49.4362C83.3737 49.4362 83.3737 49.4362 83.4585 49.3219ZM73.4878 42.9718L75.8655 62.7001L76.1568 62.6681L73.7791 42.9399L73.4878 42.9718ZM76.0248 62.5446L57.9722 60.9472L57.9452 61.2261L75.9976 62.8235L76.0248 62.5446ZM57.8185 60.9769L20.4351 79.6022L20.5709 79.8506L57.9543 61.2253L57.8185 60.9769ZM23.7 15.533L43.6429 7.14824L43.5247 6.89201L23.5817 15.2768L23.7 15.533ZM43.5106 7.14135L71.1754 22.3877L71.3221 22.1453L43.6572 6.89887L43.5106 7.14135ZM71.103 22.2817L73.4673 42.96L73.7588 42.9298L71.3946 22.2513L71.103 22.2817ZM73.5855 42.8074L58.1374 45.6262L58.1925 45.9012L73.6406 43.0824L73.5855 42.8074ZM58.2274 45.6371L42.9673 38.7796L42.8424 39.033L58.1025 45.8905L58.2274 45.6371ZM42.9884 38.7914L28.8911 29.4696L28.724 29.6998L42.8215 39.0216L42.9884 38.7914ZM28.9461 29.5388L23.7794 15.3589L23.5023 15.4509L28.669 29.6306L28.9461 29.5388ZM14.9097 37.4754L16.6788 77.7055L16.9718 77.6938L15.2028 37.4636L14.9097 37.4754ZM41.9803 57.4884L26.3034 48.872L26.157 49.1147L41.8339 57.7309L41.9803 57.4884ZM57.9913 60.9501L41.9395 57.473L41.8747 57.7463L57.9262 61.2233L57.9913 60.9501ZM58.0576 45.8079L57.7396 61.0982L58.0329 61.1038L58.3509 45.8135L58.0576 45.8079ZM42.7585 38.8992L41.7606 57.6024L42.0536 57.6166L43.0515 38.9135L42.7585 38.8992ZM4.40567 23.3688L14.9366 37.5504L15.1759 37.3883L4.645 23.2068L4.40567 23.3688ZM14.9486 37.5644L26.1225 49.0884L26.3378 48.8983L15.1639 37.3743L14.9486 37.5644ZM26.3758 49.0106L28.8907 29.5928L28.5996 29.5587L26.0846 48.9761L26.3758 49.0106ZM17.6452 80.704L26.372 49.029L26.0883 48.9579L17.3615 80.6329L17.6452 80.704ZM17.6066 80.7682L42.0102 57.709L41.804 57.5103L17.4002 80.5691L17.6066 80.7682ZM26.3087 49.1117L42.9835 39.0246L42.8265 38.788L26.1517 48.875L26.3087 49.1117ZM41.9961 57.7208L58.2538 45.8751L58.0758 45.6525L41.8181 57.4982L41.9961 57.7208ZM15.1938 37.518L23.7505 15.4378L23.4754 15.3407L14.9187 37.4208L15.1938 37.518ZM58.0719 61.1757L73.7263 43.034L73.4998 42.8559L57.8455 60.9977L58.0719 61.1757Z" fill="#2A2F45"/>
<path d="M28.1796 4.33203L43.553 6.99564L23.6405 15.4055C20.7182 13.8748 12.9546 10.435 12.9546 10.435L28.1796 4.33203Z" fill="#2A2F45" stroke="#2A2F45" stroke-width="0.666667" stroke-linecap="round" stroke-linejoin="round"/>
<path d="M20.5029 79.7266L76.0723 62.7208L57.8862 61.1016L20.5029 79.7266Z" fill="#1288FF" stroke="#2A2F45" stroke-width="0.666667" stroke-linecap="round" stroke-linejoin="round"/>
<path d="M20.5026 79.726L57.9583 61.0864L41.9068 57.6094L17.5029 80.6682L20.5026 79.726Z" fill="#2A2F45" stroke="#2A2F45" stroke-width="0.666667" stroke-linecap="round" stroke-linejoin="round"/>
<path d="M26.2297 48.9941L41.9068 57.6106L17.5029 80.6694L26.2297 48.9941Z" fill="#1288FF" stroke="#2A2F45" stroke-width="0.666667" stroke-linecap="round" stroke-linejoin="round"/>
<path d="M16.8252 77.6989L15.0562 37.4688L26.2301 48.9927L17.5033 80.668L16.8252 77.6989Z" fill="#2A2F45" stroke="#2A2F45" stroke-width="0.666667" stroke-linecap="round" stroke-linejoin="round"/>
<path d="M16.8251 77.6994L4.50195 23.2773L15.0561 37.4692L16.8251 77.6994Z" fill="#1288FF" stroke="#2A2F45" stroke-width="0.666667" stroke-linecap="round" stroke-linejoin="round"/>
<path d="M76.0724 62.7217L83.4585 49.3231C83.4585 49.3231 76.4833 44.6074 73.6333 42.957L76.0724 62.7217Z" fill="#F4F4F4" stroke="#2A2F45" stroke-width="0.666667" stroke-linecap="round" stroke-linejoin="round"/>
<path d="M76.0108 62.6845L73.6128 42.9453L57.9585 61.0871L76.0108 62.6845Z" fill="#2A2F45" stroke="#2A2F45" stroke-width="0.666667" stroke-linecap="round" stroke-linejoin="round"/>
<path d="M58.1649 45.7641L73.613 42.9453L57.8862 61.1014L58.1649 45.7641Z" fill="#F4F4F4" stroke="#2A2F45" stroke-width="0.666667" stroke-linecap="round" stroke-linejoin="round"/>
<path d="M41.9072 57.6096L57.8869 61.071L58.1649 45.7637L41.9072 57.6096Z" fill="#1288FF"/>
<path d="M57.9587 61.0867L41.9072 57.6096L58.1649 45.7637L57.8863 61.101" stroke="#2A2F45" stroke-width="0.666667" stroke-linecap="round" stroke-linejoin="round"/>
<path d="M42.9049 38.9062L58.1649 45.7635L41.9072 57.6094L42.9049 38.9062Z" fill="#F4F4F4" stroke="#2A2F45" stroke-width="0.666667" stroke-linecap="round" stroke-linejoin="round"/>
<path d="M26.23 48.9932L41.9071 57.6094L42.9047 38.9062L26.23 48.9932Z" fill="#2A2F45" stroke="#2A2F45" stroke-width="0.666667" stroke-linecap="round" stroke-linejoin="round"/>
<path d="M28.7449 29.5762L42.9047 38.9069L26.23 48.9939L28.7449 29.5762Z" fill="#F4F4F4" stroke="#2A2F45" stroke-width="0.666667" stroke-linecap="round" stroke-linejoin="round"/>
<path d="M15.0562 37.4697L28.745 29.5762L26.2301 48.9939L15.0562 37.4697Z" fill="#1288FF" stroke="#2A2F45" stroke-width="0.666667" stroke-linecap="round" stroke-linejoin="round"/>
<path d="M15.0562 37.4687L28.8074 29.5842L23.6129 15.3887L15.0562 37.4687Z" fill="#F4F4F4" stroke="#2A2F45" stroke-width="0.666667" stroke-linecap="round" stroke-linejoin="round"/>
<path d="M4.52539 23.2872L23.613 15.3887L15.0563 37.4687L4.52539 23.2872Z" fill="#2A2F45" stroke="#2A2F45" stroke-width="0.666667" stroke-linecap="round" stroke-linejoin="round"/>
<path d="M4.52539 23.287L12.9549 10.4336C12.9549 10.4336 20.6906 13.8578 23.613 15.3885L4.52539 23.287Z" fill="#F4F4F4" stroke="#2A2F45" stroke-width="0.666667" stroke-linecap="round" stroke-linejoin="round"/>
<path d="M81.4226 33.6736L71.3193 22.2969L73.6129 42.9444C76.4629 44.595 83.4584 49.3217 83.4584 49.3217L81.4226 33.6736Z" fill="#2A2F45" stroke="#2A2F45" stroke-width="0.666667" stroke-linecap="round" stroke-linejoin="round"/>
<path d="M23.6406 15.4043L43.5837 7.01953L71.2485 22.2659L73.6128 42.9444L58.1647 45.7632L42.9046 38.906L28.8073 29.5842L23.6406 15.4043Z" fill="#1288FF"/>
<path d="M43.6267 6.87426C43.5566 6.83559 43.4669 6.85852 43.4264 6.9255C43.3859 6.99244 43.41 7.07807 43.4801 7.11674L43.6267 6.87426ZM71.2461 22.419C71.3162 22.4576 71.406 22.4347 71.4465 22.3677C71.487 22.3008 71.4629 22.2151 71.3928 22.1765L71.2461 22.419ZM23.6408 15.4054L23.5817 15.2773C23.5118 15.3067 23.4772 15.3824 23.5023 15.4514L23.6408 15.4054ZM43.5839 7.02058L43.6572 6.89934C43.6168 6.87703 43.5675 6.87448 43.5247 6.89246L43.5839 7.02058ZM71.2488 22.267L71.3946 22.2518C71.3896 22.2074 71.3626 22.168 71.3221 22.1457L71.2488 22.267ZM73.613 42.9454L73.6406 43.0829C73.7157 43.0692 73.767 43.0028 73.7588 42.9303L73.613 42.9454ZM58.1649 45.7642L58.1024 45.8908C58.1303 45.9034 58.162 45.9073 58.1925 45.9017L58.1649 45.7642ZM42.9048 38.907L42.8215 39.0221C42.828 39.0263 42.835 39.0302 42.8424 39.0336L42.9048 38.907ZM28.8075 29.5853L28.669 29.6312C28.6792 29.6592 28.6985 29.6835 28.724 29.7003L28.8075 29.5853ZM71.3928 22.1765L43.6267 6.87426L43.4801 7.11674L71.2461 22.419L71.3928 22.1765ZM23.7 15.5335L43.6429 7.14871L43.5247 6.89246L23.5817 15.2773L23.7 15.5335ZM43.5106 7.14182L71.1754 22.3882L71.3221 22.1457L43.6572 6.89934L43.5106 7.14182ZM71.103 22.2822L73.4672 42.9606L73.7588 42.9303L71.3946 22.2518L71.103 22.2822ZM73.5855 42.808L58.1374 45.6267L58.1925 45.9017L73.6406 43.0829L73.5855 42.808ZM58.2274 45.6377L42.9673 38.7802L42.8424 39.0336L58.1024 45.8908L58.2274 45.6377ZM42.9884 38.7917L28.891 29.4702L28.724 29.7003L42.8215 39.0221L42.9884 38.7917ZM28.946 29.5393L23.7794 15.3594L23.5023 15.4514L28.669 29.6312L28.946 29.5393Z" fill="#2A2F45"/>
</svg>
