<svg width="128" height="32" viewBox="0 0 128 32" fill="none" xmlns="http://www.w3.org/2000/svg">
<g clip-path="url(#clip0_20_50)">
<path d="M9.91386 32C13.1752 32 15.1522 30.8364 16.4942 29.1782V31.04L16.8406 31.3891H24.662L25.0083 31.04V29.1346L24.662 28.7855H24.1425C23.2767 28.7855 22.4252 27.9127 22.4252 27.0546V4.62546L22.8582 0.552735L22.5118 0.203644H21.1409L14.5172 2.76364L14.1709 3.11273V4.27637L14.5172 4.62546H15.0367C15.9026 4.62546 16.754 5.49819 16.754 6.35637V11.4618C15.4697 10.3855 13.6225 9.38183 10.823 9.38183C5.3682 9.38183 0.0721436 13.5855 0.0721436 20.6836C0.0721436 28.6255 5.3682 32 9.91386 32ZM11.3714 29.1346C7.54723 29.1346 6.00315 25.3236 6.00315 20.6836C6.00315 16.0436 7.54723 12.2327 11.3714 12.2327C15.1955 12.2327 16.7396 16.0436 16.7396 20.6836C16.7396 25.3236 15.2099 29.1346 11.3714 29.1346Z" fill="white"/>
<path d="M37.9526 32C44.5763 32 49.5982 27.2727 49.5982 20.6982C49.5982 14.1091 44.5763 9.39636 37.9526 9.39636C31.329 9.39636 26.3071 14.1236 26.3071 20.6982C26.2927 27.2727 31.329 32 37.9526 32ZM37.9526 29.2218C33.9986 29.2218 32.2381 25.4545 32.2381 20.6836C32.2381 15.9127 33.9986 12.1455 37.9526 12.1455C41.9066 12.1455 43.6672 15.9127 43.6672 20.6836C43.6672 25.4545 41.9066 29.2218 37.9526 29.2218Z" fill="white"/>
<path fill-rule="evenodd" clip-rule="evenodd" d="M76.8866 8.58182C75.5734 9.29455 74.52 10.2109 73.7696 11.3455V0H67.8674V23.0109C67.8241 26.5018 65.7173 28.5818 63.0476 28.5818C60.7242 28.5818 59.007 27.2873 59.007 24.4218V14.1527L59.4399 10.08L59.0936 9.73091H57.7227L51.0124 12.1164L50.7527 12.4655V13.6291L51.099 13.9782H51.6185C52.4843 13.9782 53.3357 14.8509 53.3357 15.7091V24.5818C53.3357 29.5564 56.4239 31.9855 60.8974 31.9855C63.697 31.9855 66.3666 30.6909 67.8674 28.7418V31.4182H73.7696V28.0727C74.5633 29.1782 75.6023 30.08 76.8866 30.7927C78.1998 31.4764 79.7439 31.8109 81.4755 31.8109C83.467 31.8109 85.2708 31.3018 86.8726 30.2836C88.5033 29.2655 89.7732 27.84 90.7112 25.9927C91.6636 24.1309 92.1398 21.9927 92.1398 19.5782C92.1398 17.1636 91.6636 15.0691 90.7112 13.2509C89.7876 11.4036 88.5033 9.99273 86.8726 9.00364C85.2708 8.01455 83.467 7.52 81.4755 7.52C79.7583 7.52 78.2286 7.86909 76.8866 8.58182ZM85.2275 15.9273C85.8192 16.9455 86.1078 18.1673 86.1078 19.5782C86.1078 21.0182 85.8192 22.2691 85.2275 23.3164C84.6647 24.3636 83.9143 25.1636 82.9475 25.7309C82.0239 26.2982 81.0138 26.5745 79.917 26.5745C78.8492 26.5745 77.839 26.3127 76.8866 25.7745C75.963 25.2073 75.1982 24.4073 74.6065 23.36C74.0437 22.3127 73.7696 21.0764 73.7696 19.6655C73.7696 18.2545 74.0437 17.0182 74.6065 15.9709C75.1982 14.9236 75.9486 14.1236 76.8866 13.5855C77.839 13.0182 78.8492 12.7418 79.917 12.7418C81.0138 12.7418 82.0239 13.0036 82.9475 13.5418C83.8999 14.08 84.6647 14.88 85.2275 15.9273Z" fill="white"/>
<path d="M101.347 0.567261V32H95.4444V0.567261H101.347Z" fill="white"/>
<path d="M127.885 19.3455C127.885 20.1891 127.827 20.96 127.711 21.6437H110.654C110.799 23.3455 111.39 24.6691 112.429 25.6291C113.468 26.5891 114.753 27.0691 116.268 27.0691C118.461 27.0691 120.02 26.1237 120.943 24.2182H127.307C126.629 26.4873 125.345 28.3491 123.425 29.8182C121.506 31.2727 119.168 32 116.383 32C114.132 32 112.112 31.5055 110.322 30.5164C108.547 29.4982 107.162 28.0727 106.152 26.2255C105.171 24.3782 104.68 22.2691 104.68 19.8546C104.68 17.4255 105.171 15.2873 106.152 13.44C107.133 11.5927 108.504 10.1818 110.279 9.19274C112.054 8.20365 114.074 7.70911 116.383 7.70911C118.606 7.70911 120.583 8.18911 122.329 9.14911C124.104 10.1091 125.46 11.4909 126.413 13.2655C127.394 15.0255 127.885 17.0473 127.885 19.3455ZM121.78 17.6437C121.752 16.1164 121.203 14.8946 120.135 13.9927C119.067 13.0618 117.769 12.5964 116.21 12.5964C114.753 12.5964 113.512 13.0473 112.501 13.9491C111.52 14.8218 110.914 16.0582 110.683 17.6437H121.78V17.6437Z" fill="white"/>
</g>
<defs>
<clipPath id="clip0_20_50">
<rect width="128" height="32" fill="white"/>
</clipPath>
</defs>
</svg>
