<svg width="1072" height="760" viewBox="0 0 1072 760" fill="none" xmlns="http://www.w3.org/2000/svg">
<path d="M182 40L502 40C519.673 40 534 54.3269 534 72L534 680C534 697.673 548.327 712 566 712L886 712" stroke="#387CD3" stroke-width="3" stroke-linecap="round" stroke-dasharray="6 8"/>
<path d="M884.5 704C884.5 704 886.5 708.667 892.5 712C886.5 715.333 884.5 720 884.5 720" stroke="#1C2328" stroke-width="3" stroke-linecap="round" stroke-linejoin="round"/>
<path d="M892.5 713.5C893.328 713.5 894 712.828 894 712C894 711.172 893.328 710.5 892.5 710.5L892.5 713.5ZM881.5 710.5C880.672 710.5 880 711.172 880 712C880 712.828 880.672 713.5 881.5 713.5L881.5 710.5ZM892.5 710.5L881.5 710.5L881.5 713.5L892.5 713.5L892.5 710.5Z" fill="#1C2328"/>
<g filter="url(#filter0_d_147_518)">
<rect x="433" width="194" height="80" fill="white"/>
<path d="M460.407 32.988L460.419 30.756L467.943 24.012C468.551 23.476 468.963 22.964 469.179 22.476C469.403 21.988 469.515 21.5 469.515 21.012C469.515 20.396 469.379 19.844 469.107 19.356C468.835 18.86 468.459 18.468 467.979 18.18C467.499 17.892 466.947 17.748 466.323 17.748C465.683 17.748 465.111 17.9 464.607 18.204C464.111 18.5 463.723 18.896 463.443 19.392C463.163 19.888 463.027 20.424 463.035 21H460.467C460.467 19.88 460.719 18.9 461.223 18.06C461.735 17.212 462.435 16.552 463.323 16.08C464.211 15.6 465.227 15.36 466.371 15.36C467.459 15.36 468.435 15.608 469.299 16.104C470.163 16.592 470.843 17.264 471.339 18.12C471.843 18.976 472.095 19.952 472.095 21.048C472.095 21.84 471.991 22.512 471.783 23.064C471.575 23.616 471.263 24.128 470.847 24.6C470.431 25.072 469.911 25.584 469.287 26.136L463.479 31.32L463.203 30.6H472.095V32.988H460.407ZM480.997 33.36C479.821 33.36 478.781 33.104 477.877 32.592C476.973 32.072 476.261 31.36 475.741 30.456C475.229 29.552 474.973 28.512 474.973 27.336V21.384C474.973 20.208 475.229 19.168 475.741 18.264C476.261 17.36 476.973 16.652 477.877 16.14C478.781 15.62 479.821 15.36 480.997 15.36C482.173 15.36 483.213 15.62 484.117 16.14C485.021 16.652 485.729 17.36 486.241 18.264C486.761 19.168 487.021 20.208 487.021 21.384V27.336C487.021 28.512 486.761 29.552 486.241 30.456C485.729 31.36 485.021 32.072 484.117 32.592C483.213 33.104 482.173 33.36 480.997 33.36ZM480.997 30.96C481.637 30.96 482.217 30.808 482.737 30.504C483.265 30.192 483.685 29.776 483.997 29.256C484.309 28.728 484.465 28.14 484.465 27.492V21.204C484.465 20.564 484.309 19.984 483.997 19.464C483.685 18.936 483.265 18.52 482.737 18.216C482.217 17.904 481.637 17.748 480.997 17.748C480.357 17.748 479.773 17.904 479.245 18.216C478.725 18.52 478.309 18.936 477.997 19.464C477.685 19.984 477.529 20.564 477.529 21.204V27.492C477.529 28.14 477.685 28.728 477.997 29.256C478.309 29.776 478.725 30.192 479.245 30.504C479.773 30.808 480.357 30.96 480.997 30.96ZM490.131 26.436V24.42H497.331V26.436H490.131ZM515.978 33L515.99 24.924C515.99 23.988 515.75 23.26 515.27 22.74C514.79 22.212 514.158 21.948 513.374 21.948C512.894 21.948 512.454 22.06 512.054 22.284C511.662 22.5 511.342 22.828 511.094 23.268C510.854 23.7 510.734 24.244 510.734 24.9L509.522 24.288C509.506 23.376 509.698 22.576 510.098 21.888C510.506 21.2 511.058 20.668 511.754 20.292C512.45 19.908 513.23 19.716 514.094 19.716C515.494 19.716 516.578 20.136 517.346 20.976C518.114 21.816 518.498 22.932 518.498 24.324L518.486 33H515.978ZM500.438 33V20.04H502.67V23.784H502.958V33H500.438ZM508.214 33L508.226 24.972C508.226 24.028 507.986 23.288 507.506 22.752C507.034 22.216 506.398 21.948 505.598 21.948C504.806 21.948 504.166 22.22 503.678 22.764C503.198 23.308 502.958 24.02 502.958 24.9L501.758 24.132C501.758 23.284 501.962 22.528 502.37 21.864C502.778 21.2 503.33 20.676 504.026 20.292C504.722 19.908 505.51 19.716 506.39 19.716C507.31 19.716 508.094 19.912 508.742 20.304C509.39 20.688 509.882 21.228 510.218 21.924C510.562 22.62 510.734 23.428 510.734 24.348L510.722 33H508.214ZM521.854 17.916V15.48H524.362V17.916H521.854ZM521.854 33V20.04H524.362V33H521.854ZM537.061 33V26.628C537.061 26.124 537.017 25.608 536.929 25.08C536.849 24.544 536.689 24.048 536.449 23.592C536.217 23.136 535.885 22.768 535.453 22.488C535.029 22.208 534.473 22.068 533.785 22.068C533.337 22.068 532.913 22.144 532.513 22.296C532.113 22.44 531.761 22.676 531.457 23.004C531.161 23.332 530.925 23.764 530.749 24.3C530.581 24.836 530.497 25.488 530.497 26.256L528.937 25.668C528.937 24.492 529.157 23.456 529.597 22.56C530.037 21.656 530.669 20.952 531.493 20.448C532.317 19.944 533.313 19.692 534.481 19.692C535.377 19.692 536.129 19.836 536.737 20.124C537.345 20.412 537.837 20.792 538.213 21.264C538.597 21.728 538.889 22.236 539.089 22.788C539.289 23.34 539.425 23.88 539.497 24.408C539.569 24.936 539.605 25.4 539.605 25.8V33H537.061ZM527.953 33V20.04H530.197V23.784H530.497V33H527.953ZM547.775 17.916V15.48H550.283V17.916H547.775ZM547.775 33V20.04H550.283V33H547.775ZM562.983 33V26.628C562.983 26.124 562.939 25.608 562.851 25.08C562.771 24.544 562.611 24.048 562.371 23.592C562.139 23.136 561.807 22.768 561.375 22.488C560.951 22.208 560.395 22.068 559.707 22.068C559.259 22.068 558.835 22.144 558.435 22.296C558.035 22.44 557.683 22.676 557.379 23.004C557.083 23.332 556.847 23.764 556.671 24.3C556.503 24.836 556.419 25.488 556.419 26.256L554.859 25.668C554.859 24.492 555.079 23.456 555.519 22.56C555.959 21.656 556.591 20.952 557.415 20.448C558.239 19.944 559.235 19.692 560.403 19.692C561.299 19.692 562.051 19.836 562.659 20.124C563.267 20.412 563.759 20.792 564.135 21.264C564.519 21.728 564.811 22.236 565.011 22.788C565.211 23.34 565.347 23.88 565.419 24.408C565.491 24.936 565.527 25.4 565.527 25.8V33H562.983ZM553.875 33V20.04H556.119V23.784H556.419V33H553.875ZM576.069 33C575.253 33.16 574.453 33.228 573.669 33.204C572.885 33.18 572.185 33.028 571.569 32.748C570.953 32.468 570.489 32.028 570.177 31.428C569.897 30.892 569.745 30.348 569.721 29.796C569.705 29.236 569.697 28.604 569.697 27.9V16.44H572.217V27.78C572.217 28.3 572.221 28.752 572.229 29.136C572.245 29.52 572.329 29.844 572.481 30.108C572.769 30.604 573.225 30.888 573.849 30.96C574.481 31.024 575.221 30.996 576.069 30.876V33ZM567.213 22.056V20.04H576.069V22.056H567.213ZM578.801 33V20.04H581.033V23.184L580.721 22.776C580.881 22.36 581.089 21.98 581.345 21.636C581.601 21.284 581.897 20.996 582.233 20.772C582.561 20.532 582.925 20.348 583.325 20.22C583.733 20.084 584.149 20.004 584.573 19.98C584.997 19.948 585.405 19.968 585.797 20.04V22.392C585.373 22.28 584.901 22.248 584.381 22.296C583.869 22.344 583.397 22.508 582.965 22.788C582.557 23.052 582.233 23.372 581.993 23.748C581.761 24.124 581.593 24.544 581.489 25.008C581.385 25.464 581.333 25.948 581.333 26.46V33H578.801ZM593.476 33.36C592.18 33.36 591.056 33.068 590.104 32.484C589.152 31.9 588.416 31.096 587.896 30.072C587.384 29.04 587.128 27.852 587.128 26.508C587.128 25.156 587.392 23.968 587.92 22.944C588.448 21.912 589.188 21.112 590.14 20.544C591.092 19.968 592.204 19.68 593.476 19.68C594.772 19.68 595.896 19.972 596.848 20.556C597.8 21.14 598.536 21.944 599.056 22.968C599.576 23.992 599.836 25.172 599.836 26.508C599.836 27.86 599.572 29.052 599.044 30.084C598.524 31.108 597.788 31.912 596.836 32.496C595.884 33.072 594.764 33.36 593.476 33.36ZM593.476 30.996C594.716 30.996 595.64 30.58 596.248 29.748C596.864 28.908 597.172 27.828 597.172 26.508C597.172 25.156 596.86 24.076 596.236 23.268C595.62 22.452 594.7 22.044 593.476 22.044C592.636 22.044 591.944 22.236 591.4 22.62C590.856 22.996 590.452 23.52 590.188 24.192C589.924 24.856 589.792 25.628 589.792 26.508C589.792 27.868 590.104 28.956 590.728 29.772C591.352 30.588 592.268 30.996 593.476 30.996ZM517.302 65.36C515.974 65.36 514.846 65.064 513.918 64.472C512.99 63.88 512.278 63.068 511.782 62.036C511.294 61.004 511.046 59.832 511.038 58.52C511.046 57.184 511.302 56.004 511.806 54.98C512.31 53.948 513.03 53.14 513.966 52.556C514.902 51.972 516.026 51.68 517.338 51.68C518.754 51.68 519.962 52.032 520.962 52.736C521.97 53.44 522.634 54.404 522.954 55.628L520.458 56.348C520.21 55.62 519.802 55.056 519.234 54.656C518.674 54.248 518.03 54.044 517.302 54.044C516.478 54.044 515.802 54.24 515.274 54.632C514.746 55.016 514.354 55.544 514.098 56.216C513.842 56.888 513.71 57.656 513.702 58.52C513.71 59.856 514.014 60.936 514.614 61.76C515.222 62.584 516.118 62.996 517.302 62.996C518.11 62.996 518.762 62.812 519.258 62.444C519.762 62.068 520.146 61.532 520.41 60.836L522.954 61.436C522.53 62.7 521.83 63.672 520.854 64.352C519.878 65.024 518.694 65.36 517.302 65.36ZM528.895 65.36C527.935 65.36 527.131 65.184 526.483 64.832C525.835 64.472 525.343 64 525.007 63.416C524.679 62.824 524.515 62.176 524.515 61.472C524.515 60.816 524.631 60.24 524.863 59.744C525.095 59.248 525.439 58.828 525.895 58.484C526.351 58.132 526.911 57.848 527.575 57.632C528.151 57.464 528.803 57.316 529.531 57.188C530.259 57.06 531.023 56.94 531.823 56.828C532.631 56.716 533.431 56.604 534.223 56.492L533.311 56.996C533.327 55.98 533.111 55.228 532.663 54.74C532.223 54.244 531.463 53.996 530.383 53.996C529.703 53.996 529.079 54.156 528.511 54.476C527.943 54.788 527.547 55.308 527.323 56.036L524.983 55.316C525.303 54.204 525.911 53.32 526.807 52.664C527.711 52.008 528.911 51.68 530.407 51.68C531.567 51.68 532.575 51.88 533.431 52.28C534.295 52.672 534.927 53.296 535.327 54.152C535.535 54.576 535.663 55.024 535.711 55.496C535.759 55.968 535.783 56.476 535.783 57.02V65H533.563V62.036L533.995 62.42C533.459 63.412 532.775 64.152 531.943 64.64C531.119 65.12 530.103 65.36 528.895 65.36ZM529.339 63.308C530.051 63.308 530.663 63.184 531.175 62.936C531.687 62.68 532.099 62.356 532.411 61.964C532.723 61.572 532.927 61.164 533.023 60.74C533.159 60.356 533.235 59.924 533.251 59.444C533.275 58.964 533.287 58.58 533.287 58.292L534.103 58.592C533.311 58.712 532.591 58.82 531.943 58.916C531.295 59.012 530.707 59.108 530.179 59.204C529.659 59.292 529.195 59.4 528.787 59.528C528.443 59.648 528.135 59.792 527.863 59.96C527.599 60.128 527.387 60.332 527.227 60.572C527.075 60.812 526.999 61.104 526.999 61.448C526.999 61.784 527.083 62.096 527.251 62.384C527.419 62.664 527.675 62.888 528.019 63.056C528.363 63.224 528.803 63.308 529.339 63.308ZM539.139 65V47.36H541.647V65H539.139ZM545.49 65V47.36H547.998V65H545.49Z" fill="#1C2328"/>
<rect x="434" y="1" width="192" height="78" stroke="#1C2328" stroke-width="2"/>
</g>
<g filter="url(#filter1_d_147_518)">
<rect x="433" y="160" width="194" height="144" fill="white"/>
<path d="M471.632 193.36C470.512 193.36 469.504 193.096 468.608 192.568C467.712 192.032 467 191.3 466.472 190.372C465.952 189.444 465.692 188.388 465.692 187.204V181.696C465.692 180.44 465.952 179.336 466.472 178.384C467 177.432 467.728 176.692 468.656 176.164C469.592 175.636 470.668 175.372 471.884 175.372C472.796 175.372 473.652 175.544 474.452 175.888C475.252 176.232 475.944 176.744 476.528 177.424L474.692 179.14C474.364 178.716 473.952 178.38 473.456 178.132C472.968 177.876 472.444 177.748 471.884 177.748C471.164 177.748 470.532 177.92 469.988 178.264C469.444 178.6 469.016 179.044 468.704 179.596C468.4 180.148 468.248 180.74 468.248 181.372V184.54L467.756 183.988C468.252 183.34 468.868 182.828 469.604 182.452C470.34 182.076 471.128 181.888 471.968 181.888C473.04 181.888 473.996 182.14 474.836 182.644C475.684 183.14 476.348 183.816 476.828 184.672C477.316 185.528 477.56 186.492 477.56 187.564C477.56 188.644 477.288 189.624 476.744 190.504C476.208 191.376 475.488 192.072 474.584 192.592C473.688 193.104 472.704 193.36 471.632 193.36ZM471.632 190.948C472.256 190.948 472.824 190.796 473.336 190.492C473.848 190.188 474.256 189.78 474.56 189.268C474.864 188.756 475.016 188.188 475.016 187.564C475.016 186.94 474.864 186.372 474.56 185.86C474.264 185.348 473.86 184.94 473.348 184.636C472.836 184.332 472.268 184.18 471.644 184.18C471.02 184.18 470.448 184.332 469.928 184.636C469.416 184.94 469.008 185.348 468.704 185.86C468.4 186.372 468.248 186.94 468.248 187.564C468.248 188.18 468.4 188.744 468.704 189.256C469.008 189.768 469.416 190.18 469.928 190.492C470.44 190.796 471.008 190.948 471.632 190.948ZM486.622 193.36C485.446 193.36 484.406 193.104 483.502 192.592C482.598 192.072 481.886 191.36 481.366 190.456C480.854 189.552 480.598 188.512 480.598 187.336V181.384C480.598 180.208 480.854 179.168 481.366 178.264C481.886 177.36 482.598 176.652 483.502 176.14C484.406 175.62 485.446 175.36 486.622 175.36C487.798 175.36 488.838 175.62 489.742 176.14C490.646 176.652 491.354 177.36 491.866 178.264C492.386 179.168 492.646 180.208 492.646 181.384V187.336C492.646 188.512 492.386 189.552 491.866 190.456C491.354 191.36 490.646 192.072 489.742 192.592C488.838 193.104 487.798 193.36 486.622 193.36ZM486.622 190.96C487.262 190.96 487.842 190.808 488.362 190.504C488.89 190.192 489.31 189.776 489.622 189.256C489.934 188.728 490.09 188.14 490.09 187.492V181.204C490.09 180.564 489.934 179.984 489.622 179.464C489.31 178.936 488.89 178.52 488.362 178.216C487.842 177.904 487.262 177.748 486.622 177.748C485.982 177.748 485.398 177.904 484.87 178.216C484.35 178.52 483.934 178.936 483.622 179.464C483.31 179.984 483.154 180.564 483.154 181.204V187.492C483.154 188.14 483.31 188.728 483.622 189.256C483.934 189.776 484.35 190.192 484.87 190.504C485.398 190.808 485.982 190.96 486.622 190.96ZM495.756 186.436V184.42H502.956V186.436H495.756ZM521.603 193L521.615 184.924C521.615 183.988 521.375 183.26 520.895 182.74C520.415 182.212 519.783 181.948 518.999 181.948C518.519 181.948 518.079 182.06 517.679 182.284C517.287 182.5 516.967 182.828 516.719 183.268C516.479 183.7 516.359 184.244 516.359 184.9L515.147 184.288C515.131 183.376 515.323 182.576 515.723 181.888C516.131 181.2 516.683 180.668 517.379 180.292C518.075 179.908 518.855 179.716 519.719 179.716C521.119 179.716 522.203 180.136 522.971 180.976C523.739 181.816 524.123 182.932 524.123 184.324L524.111 193H521.603ZM506.063 193V180.04H508.295V183.784H508.583V193H506.063ZM513.839 193L513.851 184.972C513.851 184.028 513.611 183.288 513.131 182.752C512.659 182.216 512.023 181.948 511.223 181.948C510.431 181.948 509.791 182.22 509.303 182.764C508.823 183.308 508.583 184.02 508.583 184.9L507.383 184.132C507.383 183.284 507.587 182.528 507.995 181.864C508.403 181.2 508.955 180.676 509.651 180.292C510.347 179.908 511.135 179.716 512.015 179.716C512.935 179.716 513.719 179.912 514.367 180.304C515.015 180.688 515.507 181.228 515.843 181.924C516.187 182.62 516.359 183.428 516.359 184.348L516.347 193H513.839ZM527.479 177.916V175.48H529.987V177.916H527.479ZM527.479 193V180.04H529.987V193H527.479ZM542.686 193V186.628C542.686 186.124 542.642 185.608 542.554 185.08C542.474 184.544 542.314 184.048 542.074 183.592C541.842 183.136 541.51 182.768 541.078 182.488C540.654 182.208 540.098 182.068 539.41 182.068C538.962 182.068 538.538 182.144 538.138 182.296C537.738 182.44 537.386 182.676 537.082 183.004C536.786 183.332 536.55 183.764 536.374 184.3C536.206 184.836 536.122 185.488 536.122 186.256L534.562 185.668C534.562 184.492 534.782 183.456 535.222 182.56C535.662 181.656 536.294 180.952 537.118 180.448C537.942 179.944 538.938 179.692 540.106 179.692C541.002 179.692 541.754 179.836 542.362 180.124C542.97 180.412 543.462 180.792 543.838 181.264C544.222 181.728 544.514 182.236 544.714 182.788C544.914 183.34 545.05 183.88 545.122 184.408C545.194 184.936 545.23 185.4 545.23 185.8V193H542.686ZM533.578 193V180.04H535.822V183.784H536.122V193H533.578ZM558.116 193.348C556.54 193.348 555.256 193 554.264 192.304C553.272 191.608 552.664 190.628 552.44 189.364L555.008 188.968C555.168 189.64 555.536 190.172 556.112 190.564C556.696 190.948 557.42 191.14 558.284 191.14C559.068 191.14 559.68 190.98 560.12 190.66C560.568 190.34 560.792 189.9 560.792 189.34C560.792 189.012 560.712 188.748 560.552 188.548C560.4 188.34 560.076 188.144 559.58 187.96C559.084 187.776 558.328 187.548 557.312 187.276C556.2 186.988 555.316 186.68 554.66 186.352C554.012 186.016 553.548 185.628 553.268 185.188C552.996 184.74 552.86 184.2 552.86 183.568C552.86 182.784 553.068 182.1 553.484 181.516C553.9 180.932 554.484 180.48 555.236 180.16C555.996 179.84 556.884 179.68 557.9 179.68C558.892 179.68 559.776 179.836 560.552 180.148C561.328 180.46 561.956 180.904 562.436 181.48C562.916 182.048 563.204 182.716 563.3 183.484L560.732 183.952C560.644 183.328 560.352 182.836 559.856 182.476C559.36 182.116 558.716 181.92 557.924 181.888C557.164 181.856 556.548 181.984 556.076 182.272C555.604 182.552 555.368 182.94 555.368 183.436C555.368 183.724 555.456 183.968 555.632 184.168C555.816 184.368 556.168 184.56 556.688 184.744C557.208 184.928 557.976 185.148 558.992 185.404C560.08 185.684 560.944 185.996 561.584 186.34C562.224 186.676 562.68 187.08 562.952 187.552C563.232 188.016 563.372 188.58 563.372 189.244C563.372 190.524 562.904 191.528 561.968 192.256C561.04 192.984 559.756 193.348 558.116 193.348ZM566.016 193L566.028 175.72H568.572V186.28L573.66 180.04H576.852L571.476 186.52L577.404 193H573.996L568.572 186.76V193H566.016ZM578.854 177.916V175.48H581.362V177.916H578.854ZM578.854 193V180.04H581.362V193H578.854ZM585.205 193V175.36H587.713V193H585.205ZM591.557 193V175.36H594.065V193H591.557ZM480.423 225.36C479.095 225.36 477.967 225.064 477.039 224.472C476.111 223.88 475.399 223.068 474.903 222.036C474.415 221.004 474.167 219.832 474.159 218.52C474.167 217.184 474.423 216.004 474.927 214.98C475.431 213.948 476.151 213.14 477.087 212.556C478.023 211.972 479.147 211.68 480.459 211.68C481.875 211.68 483.083 212.032 484.083 212.736C485.091 213.44 485.755 214.404 486.075 215.628L483.579 216.348C483.331 215.62 482.923 215.056 482.355 214.656C481.795 214.248 481.151 214.044 480.423 214.044C479.599 214.044 478.923 214.24 478.395 214.632C477.867 215.016 477.475 215.544 477.219 216.216C476.963 216.888 476.831 217.656 476.823 218.52C476.831 219.856 477.135 220.936 477.735 221.76C478.343 222.584 479.239 222.996 480.423 222.996C481.231 222.996 481.883 222.812 482.379 222.444C482.883 222.068 483.267 221.532 483.531 220.836L486.075 221.436C485.651 222.7 484.951 223.672 483.975 224.352C482.999 225.024 481.815 225.36 480.423 225.36ZM497.616 225V218.628C497.616 218.124 497.572 217.608 497.484 217.08C497.404 216.544 497.244 216.048 497.004 215.592C496.772 215.136 496.44 214.768 496.008 214.488C495.584 214.208 495.028 214.068 494.34 214.068C493.892 214.068 493.468 214.144 493.068 214.296C492.668 214.44 492.316 214.676 492.012 215.004C491.716 215.332 491.48 215.764 491.304 216.3C491.136 216.836 491.052 217.488 491.052 218.256L489.492 217.668C489.492 216.492 489.712 215.456 490.152 214.56C490.592 213.656 491.224 212.952 492.048 212.448C492.872 211.944 493.868 211.692 495.036 211.692C495.932 211.692 496.684 211.836 497.292 212.124C497.9 212.412 498.392 212.792 498.768 213.264C499.152 213.728 499.444 214.236 499.644 214.788C499.844 215.34 499.98 215.88 500.052 216.408C500.124 216.936 500.16 217.4 500.16 217.8V225H497.616ZM488.508 225V207.72H490.752V217.044H491.052V225H488.508ZM509.033 225.36C507.745 225.36 506.613 225.08 505.637 224.52C504.669 223.952 503.913 223.164 503.369 222.156C502.833 221.14 502.565 219.964 502.565 218.628C502.565 217.212 502.829 215.984 503.357 214.944C503.893 213.904 504.637 213.1 505.589 212.532C506.541 211.964 507.649 211.68 508.913 211.68C510.233 211.68 511.357 211.988 512.285 212.604C513.213 213.212 513.905 214.08 514.361 215.208C514.825 216.336 515.009 217.676 514.913 219.228H512.405V218.316C512.389 216.812 512.101 215.7 511.541 214.98C510.989 214.26 510.145 213.9 509.009 213.9C507.753 213.9 506.809 214.296 506.177 215.088C505.545 215.88 505.229 217.024 505.229 218.52C505.229 219.944 505.545 221.048 506.177 221.832C506.809 222.608 507.721 222.996 508.913 222.996C509.697 222.996 510.373 222.82 510.941 222.468C511.517 222.108 511.965 221.596 512.285 220.932L514.745 221.712C514.241 222.872 513.477 223.772 512.453 224.412C511.429 225.044 510.289 225.36 509.033 225.36ZM504.413 219.228V217.272H513.665V219.228H504.413ZM523.15 225.36C521.822 225.36 520.694 225.064 519.766 224.472C518.838 223.88 518.126 223.068 517.63 222.036C517.142 221.004 516.894 219.832 516.886 218.52C516.894 217.184 517.15 216.004 517.654 214.98C518.158 213.948 518.878 213.14 519.814 212.556C520.75 211.972 521.874 211.68 523.186 211.68C524.602 211.68 525.81 212.032 526.81 212.736C527.818 213.44 528.482 214.404 528.802 215.628L526.306 216.348C526.058 215.62 525.65 215.056 525.082 214.656C524.522 214.248 523.878 214.044 523.15 214.044C522.326 214.044 521.65 214.24 521.122 214.632C520.594 215.016 520.202 215.544 519.946 216.216C519.69 216.888 519.558 217.656 519.55 218.52C519.558 219.856 519.862 220.936 520.462 221.76C521.07 222.584 521.966 222.996 523.15 222.996C523.958 222.996 524.61 222.812 525.106 222.444C525.61 222.068 525.994 221.532 526.258 220.836L528.802 221.436C528.378 222.7 527.678 223.672 526.702 224.352C525.726 225.024 524.542 225.36 523.15 225.36ZM531.234 225L531.246 207.72H533.79V218.28L538.878 212.04H542.07L536.694 218.52L542.622 225H539.214L533.79 218.76V225H531.234ZM554.181 225.36C552.853 225.36 551.725 225.064 550.797 224.472C549.869 223.88 549.157 223.068 548.661 222.036C548.173 221.004 547.925 219.832 547.917 218.52C547.925 217.184 548.181 216.004 548.685 214.98C549.189 213.948 549.909 213.14 550.845 212.556C551.781 211.972 552.905 211.68 554.217 211.68C555.633 211.68 556.841 212.032 557.841 212.736C558.849 213.44 559.513 214.404 559.833 215.628L557.337 216.348C557.089 215.62 556.681 215.056 556.113 214.656C555.553 214.248 554.909 214.044 554.181 214.044C553.357 214.044 552.681 214.24 552.153 214.632C551.625 215.016 551.233 215.544 550.977 216.216C550.721 216.888 550.589 217.656 550.581 218.52C550.589 219.856 550.893 220.936 551.493 221.76C552.101 222.584 552.997 222.996 554.181 222.996C554.989 222.996 555.641 222.812 556.137 222.444C556.641 222.068 557.025 221.532 557.289 220.836L559.833 221.436C559.409 222.7 558.709 223.672 557.733 224.352C556.757 225.024 555.573 225.36 554.181 225.36ZM565.774 225.36C564.814 225.36 564.01 225.184 563.362 224.832C562.714 224.472 562.222 224 561.886 223.416C561.558 222.824 561.394 222.176 561.394 221.472C561.394 220.816 561.51 220.24 561.742 219.744C561.974 219.248 562.318 218.828 562.774 218.484C563.23 218.132 563.79 217.848 564.454 217.632C565.03 217.464 565.682 217.316 566.41 217.188C567.138 217.06 567.902 216.94 568.702 216.828C569.51 216.716 570.31 216.604 571.102 216.492L570.19 216.996C570.206 215.98 569.99 215.228 569.542 214.74C569.102 214.244 568.342 213.996 567.262 213.996C566.582 213.996 565.958 214.156 565.39 214.476C564.822 214.788 564.426 215.308 564.202 216.036L561.862 215.316C562.182 214.204 562.79 213.32 563.686 212.664C564.59 212.008 565.79 211.68 567.286 211.68C568.446 211.68 569.454 211.88 570.31 212.28C571.174 212.672 571.806 213.296 572.206 214.152C572.414 214.576 572.542 215.024 572.59 215.496C572.638 215.968 572.662 216.476 572.662 217.02V225H570.442V222.036L570.874 222.42C570.338 223.412 569.654 224.152 568.822 224.64C567.998 225.12 566.982 225.36 565.774 225.36ZM566.218 223.308C566.93 223.308 567.542 223.184 568.054 222.936C568.566 222.68 568.978 222.356 569.29 221.964C569.602 221.572 569.806 221.164 569.902 220.74C570.038 220.356 570.114 219.924 570.13 219.444C570.154 218.964 570.166 218.58 570.166 218.292L570.982 218.592C570.19 218.712 569.47 218.82 568.822 218.916C568.174 219.012 567.586 219.108 567.058 219.204C566.538 219.292 566.074 219.4 565.666 219.528C565.322 219.648 565.014 219.792 564.742 219.96C564.478 220.128 564.266 220.332 564.106 220.572C563.954 220.812 563.878 221.104 563.878 221.448C563.878 221.784 563.962 222.096 564.13 222.384C564.298 222.664 564.554 222.888 564.898 223.056C565.242 223.224 565.682 223.308 566.218 223.308ZM576.018 225V207.36H578.526V225H576.018ZM582.369 225V207.36H584.877V225H582.369ZM463.619 257.36C462.379 257.36 461.339 257.06 460.499 256.46C459.659 255.852 459.023 255.032 458.591 254C458.159 252.968 457.943 251.804 457.943 250.508C457.943 249.212 458.155 248.048 458.579 247.016C459.011 245.984 459.643 245.172 460.475 244.58C461.315 243.98 462.347 243.68 463.571 243.68C464.787 243.68 465.835 243.98 466.715 244.58C467.603 245.172 468.287 245.984 468.767 247.016C469.247 248.04 469.487 249.204 469.487 250.508C469.487 251.804 469.247 252.972 468.767 254.012C468.295 255.044 467.619 255.86 466.739 256.46C465.867 257.06 464.827 257.36 463.619 257.36ZM457.523 257V239.72H460.043V247.676H459.755V257H457.523ZM463.271 255.092C464.071 255.092 464.731 254.888 465.251 254.48C465.779 254.072 466.171 253.524 466.427 252.836C466.691 252.14 466.823 251.364 466.823 250.508C466.823 249.66 466.691 248.892 466.427 248.204C466.171 247.516 465.775 246.968 465.239 246.56C464.703 246.152 464.019 245.948 463.187 245.948C462.403 245.948 461.755 246.14 461.243 246.524C460.739 246.908 460.363 247.444 460.115 248.132C459.875 248.82 459.755 249.612 459.755 250.508C459.755 251.404 459.875 252.196 460.115 252.884C460.355 253.572 460.735 254.112 461.255 254.504C461.775 254.896 462.447 255.092 463.271 255.092ZM475.797 257.36C474.837 257.36 474.033 257.184 473.385 256.832C472.737 256.472 472.245 256 471.909 255.416C471.581 254.824 471.417 254.176 471.417 253.472C471.417 252.816 471.533 252.24 471.765 251.744C471.997 251.248 472.341 250.828 472.797 250.484C473.253 250.132 473.813 249.848 474.477 249.632C475.053 249.464 475.705 249.316 476.433 249.188C477.161 249.06 477.925 248.94 478.725 248.828C479.533 248.716 480.333 248.604 481.125 248.492L480.213 248.996C480.229 247.98 480.013 247.228 479.565 246.74C479.125 246.244 478.365 245.996 477.285 245.996C476.605 245.996 475.981 246.156 475.413 246.476C474.845 246.788 474.449 247.308 474.225 248.036L471.885 247.316C472.205 246.204 472.813 245.32 473.709 244.664C474.613 244.008 475.813 243.68 477.309 243.68C478.469 243.68 479.477 243.88 480.333 244.28C481.197 244.672 481.829 245.296 482.229 246.152C482.437 246.576 482.565 247.024 482.613 247.496C482.661 247.968 482.685 248.476 482.685 249.02V257H480.465V254.036L480.897 254.42C480.361 255.412 479.677 256.152 478.845 256.64C478.021 257.12 477.005 257.36 475.797 257.36ZM476.241 255.308C476.953 255.308 477.565 255.184 478.077 254.936C478.589 254.68 479.001 254.356 479.313 253.964C479.625 253.572 479.829 253.164 479.925 252.74C480.061 252.356 480.137 251.924 480.153 251.444C480.177 250.964 480.189 250.58 480.189 250.292L481.005 250.592C480.213 250.712 479.493 250.82 478.845 250.916C478.197 251.012 477.609 251.108 477.081 251.204C476.561 251.292 476.097 251.4 475.689 251.528C475.345 251.648 475.037 251.792 474.765 251.96C474.501 252.128 474.289 252.332 474.129 252.572C473.977 252.812 473.901 253.104 473.901 253.448C473.901 253.784 473.985 254.096 474.153 254.384C474.321 254.664 474.577 254.888 474.921 255.056C475.265 255.224 475.705 255.308 476.241 255.308ZM490.757 257.348C489.181 257.348 487.897 257 486.905 256.304C485.913 255.608 485.305 254.628 485.081 253.364L487.649 252.968C487.809 253.64 488.177 254.172 488.753 254.564C489.337 254.948 490.061 255.14 490.925 255.14C491.709 255.14 492.321 254.98 492.761 254.66C493.209 254.34 493.433 253.9 493.433 253.34C493.433 253.012 493.353 252.748 493.193 252.548C493.041 252.34 492.717 252.144 492.221 251.96C491.725 251.776 490.969 251.548 489.953 251.276C488.841 250.988 487.957 250.68 487.301 250.352C486.653 250.016 486.189 249.628 485.909 249.188C485.637 248.74 485.501 248.2 485.501 247.568C485.501 246.784 485.709 246.1 486.125 245.516C486.541 244.932 487.125 244.48 487.877 244.16C488.637 243.84 489.525 243.68 490.541 243.68C491.533 243.68 492.417 243.836 493.193 244.148C493.969 244.46 494.597 244.904 495.077 245.48C495.557 246.048 495.845 246.716 495.941 247.484L493.373 247.952C493.285 247.328 492.993 246.836 492.497 246.476C492.001 246.116 491.357 245.92 490.565 245.888C489.805 245.856 489.189 245.984 488.717 246.272C488.245 246.552 488.009 246.94 488.009 247.436C488.009 247.724 488.097 247.968 488.273 248.168C488.457 248.368 488.809 248.56 489.329 248.744C489.849 248.928 490.617 249.148 491.633 249.404C492.721 249.684 493.585 249.996 494.225 250.34C494.865 250.676 495.321 251.08 495.593 251.552C495.873 252.016 496.013 252.58 496.013 253.244C496.013 254.524 495.545 255.528 494.609 256.256C493.681 256.984 492.397 257.348 490.757 257.348ZM504.416 257.36C503.128 257.36 501.996 257.08 501.02 256.52C500.052 255.952 499.296 255.164 498.752 254.156C498.216 253.14 497.948 251.964 497.948 250.628C497.948 249.212 498.212 247.984 498.74 246.944C499.276 245.904 500.02 245.1 500.972 244.532C501.924 243.964 503.032 243.68 504.296 243.68C505.616 243.68 506.74 243.988 507.668 244.604C508.596 245.212 509.288 246.08 509.744 247.208C510.208 248.336 510.392 249.676 510.296 251.228H507.788V250.316C507.772 248.812 507.484 247.7 506.924 246.98C506.372 246.26 505.528 245.9 504.392 245.9C503.136 245.9 502.192 246.296 501.56 247.088C500.928 247.88 500.612 249.024 500.612 250.52C500.612 251.944 500.928 253.048 501.56 253.832C502.192 254.608 503.104 254.996 504.296 254.996C505.08 254.996 505.756 254.82 506.324 254.468C506.9 254.108 507.348 253.596 507.668 252.932L510.128 253.712C509.624 254.872 508.86 255.772 507.836 256.412C506.812 257.044 505.672 257.36 504.416 257.36ZM499.796 251.228V249.272H509.048V251.228H499.796ZM518.137 257.36C516.929 257.36 515.885 257.06 515.005 256.46C514.133 255.86 513.457 255.044 512.977 254.012C512.505 252.972 512.269 251.804 512.269 250.508C512.269 249.204 512.509 248.04 512.989 247.016C513.469 245.984 514.149 245.172 515.029 244.58C515.917 243.98 516.969 243.68 518.185 243.68C519.409 243.68 520.437 243.98 521.269 244.58C522.109 245.172 522.741 245.984 523.165 247.016C523.597 248.048 523.813 249.212 523.813 250.508C523.813 251.804 523.597 252.968 523.165 254C522.733 255.032 522.097 255.852 521.257 256.46C520.417 257.06 519.377 257.36 518.137 257.36ZM518.485 255.092C519.309 255.092 519.981 254.896 520.501 254.504C521.021 254.112 521.401 253.572 521.641 252.884C521.881 252.196 522.001 251.404 522.001 250.508C522.001 249.612 521.877 248.82 521.629 248.132C521.389 247.444 521.013 246.908 520.501 246.524C519.997 246.14 519.353 245.948 518.569 245.948C517.737 245.948 517.053 246.152 516.517 246.56C515.981 246.968 515.581 247.516 515.317 248.204C515.061 248.892 514.933 249.66 514.933 250.508C514.933 251.364 515.061 252.14 515.317 252.836C515.581 253.524 515.973 254.072 516.493 254.48C517.021 254.888 517.685 255.092 518.485 255.092ZM522.001 257V247.676H521.713V239.72H524.233V257H522.001ZM538.023 257.36C536.727 257.36 535.603 257.068 534.651 256.484C533.699 255.9 532.963 255.096 532.443 254.072C531.931 253.04 531.675 251.852 531.675 250.508C531.675 249.156 531.939 247.968 532.467 246.944C532.995 245.912 533.735 245.112 534.687 244.544C535.639 243.968 536.751 243.68 538.023 243.68C539.319 243.68 540.443 243.972 541.395 244.556C542.347 245.14 543.083 245.944 543.603 246.968C544.123 247.992 544.383 249.172 544.383 250.508C544.383 251.86 544.119 253.052 543.591 254.084C543.071 255.108 542.335 255.912 541.383 256.496C540.431 257.072 539.311 257.36 538.023 257.36ZM538.023 254.996C539.263 254.996 540.187 254.58 540.795 253.748C541.411 252.908 541.719 251.828 541.719 250.508C541.719 249.156 541.407 248.076 540.783 247.268C540.167 246.452 539.247 246.044 538.023 246.044C537.183 246.044 536.491 246.236 535.947 246.62C535.403 246.996 534.999 247.52 534.735 248.192C534.471 248.856 534.339 249.628 534.339 250.508C534.339 251.868 534.651 252.956 535.275 253.772C535.899 254.588 536.815 254.996 538.023 254.996ZM556.116 257V250.628C556.116 250.124 556.072 249.608 555.984 249.08C555.904 248.544 555.744 248.048 555.504 247.592C555.272 247.136 554.94 246.768 554.508 246.488C554.084 246.208 553.528 246.068 552.84 246.068C552.392 246.068 551.968 246.144 551.568 246.296C551.168 246.44 550.816 246.676 550.512 247.004C550.216 247.332 549.98 247.764 549.804 248.3C549.636 248.836 549.552 249.488 549.552 250.256L547.992 249.668C547.992 248.492 548.212 247.456 548.652 246.56C549.092 245.656 549.724 244.952 550.548 244.448C551.372 243.944 552.368 243.692 553.536 243.692C554.432 243.692 555.184 243.836 555.792 244.124C556.4 244.412 556.892 244.792 557.268 245.264C557.652 245.728 557.944 246.236 558.144 246.788C558.344 247.34 558.48 247.88 558.552 248.408C558.624 248.936 558.66 249.4 558.66 249.8V257H556.116ZM547.008 257V244.04H549.252V247.784H549.552V257H547.008ZM574.006 257C573.19 257.16 572.39 257.228 571.606 257.204C570.822 257.18 570.122 257.028 569.506 256.748C568.89 256.468 568.426 256.028 568.114 255.428C567.834 254.892 567.682 254.348 567.658 253.796C567.642 253.236 567.634 252.604 567.634 251.9V240.44H570.154V251.78C570.154 252.3 570.158 252.752 570.166 253.136C570.182 253.52 570.266 253.844 570.418 254.108C570.706 254.604 571.162 254.888 571.786 254.96C572.418 255.024 573.158 254.996 574.006 254.876V257ZM565.15 246.056V244.04H574.006V246.056H565.15ZM585.835 257V250.628C585.835 250.124 585.791 249.608 585.703 249.08C585.623 248.544 585.463 248.048 585.223 247.592C584.991 247.136 584.659 246.768 584.227 246.488C583.803 246.208 583.247 246.068 582.559 246.068C582.111 246.068 581.687 246.144 581.287 246.296C580.887 246.44 580.535 246.676 580.231 247.004C579.935 247.332 579.699 247.764 579.523 248.3C579.355 248.836 579.271 249.488 579.271 250.256L577.711 249.668C577.711 248.492 577.931 247.456 578.371 246.56C578.811 245.656 579.443 244.952 580.267 244.448C581.091 243.944 582.087 243.692 583.255 243.692C584.151 243.692 584.903 243.836 585.511 244.124C586.119 244.412 586.611 244.792 586.987 245.264C587.371 245.728 587.663 246.236 587.863 246.788C588.063 247.34 588.199 247.88 588.271 248.408C588.343 248.936 588.379 249.4 588.379 249.8V257H585.835ZM576.727 257V239.72H578.971V249.044H579.271V257H576.727ZM597.252 257.36C595.964 257.36 594.832 257.08 593.856 256.52C592.888 255.952 592.132 255.164 591.588 254.156C591.052 253.14 590.784 251.964 590.784 250.628C590.784 249.212 591.048 247.984 591.576 246.944C592.112 245.904 592.856 245.1 593.808 244.532C594.76 243.964 595.868 243.68 597.132 243.68C598.452 243.68 599.576 243.988 600.504 244.604C601.432 245.212 602.124 246.08 602.58 247.208C603.044 248.336 603.228 249.676 603.132 251.228H600.624V250.316C600.608 248.812 600.32 247.7 599.76 246.98C599.208 246.26 598.364 245.9 597.228 245.9C595.972 245.9 595.028 246.296 594.396 247.088C593.764 247.88 593.448 249.024 593.448 250.52C593.448 251.944 593.764 253.048 594.396 253.832C595.028 254.608 595.94 254.996 597.132 254.996C597.916 254.996 598.592 254.82 599.16 254.468C599.736 254.108 600.184 253.596 600.504 252.932L602.964 253.712C602.46 254.872 601.696 255.772 600.672 256.412C599.648 257.044 598.508 257.36 597.252 257.36ZM592.632 251.228V249.272H601.884V251.228H592.632ZM465.672 289.36C464.712 289.36 463.908 289.184 463.26 288.832C462.612 288.472 462.12 288 461.784 287.416C461.456 286.824 461.292 286.176 461.292 285.472C461.292 284.816 461.408 284.24 461.64 283.744C461.872 283.248 462.216 282.828 462.672 282.484C463.128 282.132 463.688 281.848 464.352 281.632C464.928 281.464 465.58 281.316 466.308 281.188C467.036 281.06 467.8 280.94 468.6 280.828C469.408 280.716 470.208 280.604 471 280.492L470.088 280.996C470.104 279.98 469.888 279.228 469.44 278.74C469 278.244 468.24 277.996 467.16 277.996C466.48 277.996 465.856 278.156 465.288 278.476C464.72 278.788 464.324 279.308 464.1 280.036L461.76 279.316C462.08 278.204 462.688 277.32 463.584 276.664C464.488 276.008 465.688 275.68 467.184 275.68C468.344 275.68 469.352 275.88 470.208 276.28C471.072 276.672 471.704 277.296 472.104 278.152C472.312 278.576 472.44 279.024 472.488 279.496C472.536 279.968 472.56 280.476 472.56 281.02V289H470.34V286.036L470.772 286.42C470.236 287.412 469.552 288.152 468.72 288.64C467.896 289.12 466.88 289.36 465.672 289.36ZM466.116 287.308C466.828 287.308 467.44 287.184 467.952 286.936C468.464 286.68 468.876 286.356 469.188 285.964C469.5 285.572 469.704 285.164 469.8 284.74C469.936 284.356 470.012 283.924 470.028 283.444C470.052 282.964 470.064 282.58 470.064 282.292L470.88 282.592C470.088 282.712 469.368 282.82 468.72 282.916C468.072 283.012 467.484 283.108 466.956 283.204C466.436 283.292 465.972 283.4 465.564 283.528C465.22 283.648 464.912 283.792 464.64 283.96C464.376 284.128 464.164 284.332 464.004 284.572C463.852 284.812 463.776 285.104 463.776 285.448C463.776 285.784 463.86 286.096 464.028 286.384C464.196 286.664 464.452 286.888 464.796 287.056C465.14 287.224 465.58 287.308 466.116 287.308ZM480.632 289.348C479.056 289.348 477.772 289 476.78 288.304C475.788 287.608 475.18 286.628 474.956 285.364L477.524 284.968C477.684 285.64 478.052 286.172 478.628 286.564C479.212 286.948 479.936 287.14 480.8 287.14C481.584 287.14 482.196 286.98 482.636 286.66C483.084 286.34 483.308 285.9 483.308 285.34C483.308 285.012 483.228 284.748 483.068 284.548C482.916 284.34 482.592 284.144 482.096 283.96C481.6 283.776 480.844 283.548 479.828 283.276C478.716 282.988 477.832 282.68 477.176 282.352C476.528 282.016 476.064 281.628 475.784 281.188C475.512 280.74 475.376 280.2 475.376 279.568C475.376 278.784 475.584 278.1 476 277.516C476.416 276.932 477 276.48 477.752 276.16C478.512 275.84 479.4 275.68 480.416 275.68C481.408 275.68 482.292 275.836 483.068 276.148C483.844 276.46 484.472 276.904 484.952 277.48C485.432 278.048 485.72 278.716 485.816 279.484L483.248 279.952C483.16 279.328 482.868 278.836 482.372 278.476C481.876 278.116 481.232 277.92 480.44 277.888C479.68 277.856 479.064 277.984 478.592 278.272C478.12 278.552 477.884 278.94 477.884 279.436C477.884 279.724 477.972 279.968 478.148 280.168C478.332 280.368 478.684 280.56 479.204 280.744C479.724 280.928 480.492 281.148 481.508 281.404C482.596 281.684 483.46 281.996 484.1 282.34C484.74 282.676 485.196 283.08 485.468 283.552C485.748 284.016 485.888 284.58 485.888 285.244C485.888 286.524 485.42 287.528 484.484 288.256C483.556 288.984 482.272 289.348 480.632 289.348ZM493.499 289.348C491.923 289.348 490.639 289 489.647 288.304C488.655 287.608 488.047 286.628 487.823 285.364L490.391 284.968C490.551 285.64 490.919 286.172 491.495 286.564C492.079 286.948 492.803 287.14 493.667 287.14C494.451 287.14 495.063 286.98 495.503 286.66C495.951 286.34 496.175 285.9 496.175 285.34C496.175 285.012 496.095 284.748 495.935 284.548C495.783 284.34 495.459 284.144 494.963 283.96C494.467 283.776 493.711 283.548 492.695 283.276C491.583 282.988 490.699 282.68 490.043 282.352C489.395 282.016 488.931 281.628 488.651 281.188C488.379 280.74 488.243 280.2 488.243 279.568C488.243 278.784 488.451 278.1 488.867 277.516C489.283 276.932 489.867 276.48 490.619 276.16C491.379 275.84 492.267 275.68 493.283 275.68C494.275 275.68 495.159 275.836 495.935 276.148C496.711 276.46 497.339 276.904 497.819 277.48C498.299 278.048 498.587 278.716 498.683 279.484L496.115 279.952C496.027 279.328 495.735 278.836 495.239 278.476C494.743 278.116 494.099 277.92 493.307 277.888C492.547 277.856 491.931 277.984 491.459 278.272C490.987 278.552 490.751 278.94 490.751 279.436C490.751 279.724 490.839 279.968 491.015 280.168C491.199 280.368 491.551 280.56 492.071 280.744C492.591 280.928 493.359 281.148 494.375 281.404C495.463 281.684 496.327 281.996 496.967 282.34C497.607 282.676 498.063 283.08 498.335 283.552C498.615 284.016 498.755 284.58 498.755 285.244C498.755 286.524 498.287 287.528 497.351 288.256C496.423 288.984 495.139 289.348 493.499 289.348ZM507.158 289.36C505.87 289.36 504.738 289.08 503.762 288.52C502.794 287.952 502.038 287.164 501.494 286.156C500.958 285.14 500.69 283.964 500.69 282.628C500.69 281.212 500.954 279.984 501.482 278.944C502.018 277.904 502.762 277.1 503.714 276.532C504.666 275.964 505.774 275.68 507.038 275.68C508.358 275.68 509.482 275.988 510.41 276.604C511.338 277.212 512.03 278.08 512.486 279.208C512.95 280.336 513.134 281.676 513.038 283.228H510.53V282.316C510.514 280.812 510.226 279.7 509.666 278.98C509.114 278.26 508.27 277.9 507.134 277.9C505.878 277.9 504.934 278.296 504.302 279.088C503.67 279.88 503.354 281.024 503.354 282.52C503.354 283.944 503.67 285.048 504.302 285.832C504.934 286.608 505.846 286.996 507.038 286.996C507.822 286.996 508.498 286.82 509.066 286.468C509.642 286.108 510.09 285.596 510.41 284.932L512.87 285.712C512.366 286.872 511.602 287.772 510.578 288.412C509.554 289.044 508.414 289.36 507.158 289.36ZM502.538 283.228V281.272H511.79V283.228H502.538ZM520.687 289.348C519.111 289.348 517.827 289 516.835 288.304C515.843 287.608 515.235 286.628 515.011 285.364L517.579 284.968C517.739 285.64 518.107 286.172 518.683 286.564C519.267 286.948 519.991 287.14 520.855 287.14C521.639 287.14 522.251 286.98 522.691 286.66C523.139 286.34 523.363 285.9 523.363 285.34C523.363 285.012 523.283 284.748 523.123 284.548C522.971 284.34 522.647 284.144 522.151 283.96C521.655 283.776 520.899 283.548 519.883 283.276C518.771 282.988 517.887 282.68 517.231 282.352C516.583 282.016 516.119 281.628 515.839 281.188C515.567 280.74 515.431 280.2 515.431 279.568C515.431 278.784 515.639 278.1 516.055 277.516C516.471 276.932 517.055 276.48 517.807 276.16C518.567 275.84 519.455 275.68 520.471 275.68C521.463 275.68 522.347 275.836 523.123 276.148C523.899 276.46 524.527 276.904 525.007 277.48C525.487 278.048 525.775 278.716 525.871 279.484L523.303 279.952C523.215 279.328 522.923 278.836 522.427 278.476C521.931 278.116 521.287 277.92 520.495 277.888C519.735 277.856 519.119 277.984 518.647 278.272C518.175 278.552 517.939 278.94 517.939 279.436C517.939 279.724 518.027 279.968 518.203 280.168C518.387 280.368 518.739 280.56 519.259 280.744C519.779 280.928 520.547 281.148 521.563 281.404C522.651 281.684 523.515 281.996 524.155 282.34C524.795 282.676 525.251 283.08 525.523 283.552C525.803 284.016 525.943 284.58 525.943 285.244C525.943 286.524 525.475 287.528 524.539 288.256C523.611 288.984 522.327 289.348 520.687 289.348ZM533.554 289.348C531.978 289.348 530.694 289 529.702 288.304C528.71 287.608 528.102 286.628 527.878 285.364L530.446 284.968C530.606 285.64 530.974 286.172 531.55 286.564C532.134 286.948 532.858 287.14 533.722 287.14C534.506 287.14 535.118 286.98 535.558 286.66C536.006 286.34 536.23 285.9 536.23 285.34C536.23 285.012 536.15 284.748 535.99 284.548C535.838 284.34 535.514 284.144 535.018 283.96C534.522 283.776 533.766 283.548 532.75 283.276C531.638 282.988 530.754 282.68 530.098 282.352C529.45 282.016 528.986 281.628 528.706 281.188C528.434 280.74 528.298 280.2 528.298 279.568C528.298 278.784 528.506 278.1 528.922 277.516C529.338 276.932 529.922 276.48 530.674 276.16C531.434 275.84 532.322 275.68 533.338 275.68C534.33 275.68 535.214 275.836 535.99 276.148C536.766 276.46 537.394 276.904 537.874 277.48C538.354 278.048 538.642 278.716 538.738 279.484L536.17 279.952C536.082 279.328 535.79 278.836 535.294 278.476C534.798 278.116 534.154 277.92 533.362 277.888C532.602 277.856 531.986 277.984 531.514 278.272C531.042 278.552 530.806 278.94 530.806 279.436C530.806 279.724 530.894 279.968 531.07 280.168C531.254 280.368 531.606 280.56 532.126 280.744C532.646 280.928 533.414 281.148 534.43 281.404C535.518 281.684 536.382 281.996 537.022 282.34C537.662 282.676 538.118 283.08 538.39 283.552C538.67 284.016 538.81 284.58 538.81 285.244C538.81 286.524 538.342 287.528 537.406 288.256C536.478 288.984 535.194 289.348 533.554 289.348ZM556.993 289L557.005 280.924C557.005 279.988 556.765 279.26 556.285 278.74C555.805 278.212 555.173 277.948 554.389 277.948C553.909 277.948 553.469 278.06 553.069 278.284C552.677 278.5 552.357 278.828 552.109 279.268C551.869 279.7 551.749 280.244 551.749 280.9L550.537 280.288C550.521 279.376 550.713 278.576 551.113 277.888C551.521 277.2 552.073 276.668 552.769 276.292C553.465 275.908 554.245 275.716 555.109 275.716C556.509 275.716 557.593 276.136 558.361 276.976C559.129 277.816 559.513 278.932 559.513 280.324L559.501 289H556.993ZM541.453 289V276.04H543.685V279.784H543.973V289H541.453ZM549.229 289L549.241 280.972C549.241 280.028 549.001 279.288 548.521 278.752C548.049 278.216 547.413 277.948 546.613 277.948C545.821 277.948 545.181 278.22 544.693 278.764C544.213 279.308 543.973 280.02 543.973 280.9L542.773 280.132C542.773 279.284 542.977 278.528 543.385 277.864C543.793 277.2 544.345 276.676 545.041 276.292C545.737 275.908 546.525 275.716 547.405 275.716C548.325 275.716 549.109 275.912 549.757 276.304C550.405 276.688 550.897 277.228 551.233 277.924C551.577 278.62 551.749 279.428 551.749 280.348L551.737 289H549.229ZM568.213 289.36C566.925 289.36 565.793 289.08 564.817 288.52C563.849 287.952 563.093 287.164 562.549 286.156C562.013 285.14 561.745 283.964 561.745 282.628C561.745 281.212 562.009 279.984 562.537 278.944C563.073 277.904 563.817 277.1 564.769 276.532C565.721 275.964 566.829 275.68 568.093 275.68C569.413 275.68 570.537 275.988 571.465 276.604C572.393 277.212 573.085 278.08 573.541 279.208C574.005 280.336 574.189 281.676 574.093 283.228H571.585V282.316C571.569 280.812 571.281 279.7 570.721 278.98C570.169 278.26 569.325 277.9 568.189 277.9C566.933 277.9 565.989 278.296 565.357 279.088C564.725 279.88 564.409 281.024 564.409 282.52C564.409 283.944 564.725 285.048 565.357 285.832C565.989 286.608 566.901 286.996 568.093 286.996C568.877 286.996 569.553 286.82 570.121 286.468C570.697 286.108 571.145 285.596 571.465 284.932L573.925 285.712C573.421 286.872 572.657 287.772 571.633 288.412C570.609 289.044 569.469 289.36 568.213 289.36ZM563.593 283.228V281.272H572.845V283.228H563.593ZM585.53 289V282.628C585.53 282.124 585.486 281.608 585.398 281.08C585.318 280.544 585.158 280.048 584.918 279.592C584.686 279.136 584.354 278.768 583.922 278.488C583.498 278.208 582.942 278.068 582.254 278.068C581.806 278.068 581.382 278.144 580.982 278.296C580.582 278.44 580.23 278.676 579.926 279.004C579.63 279.332 579.394 279.764 579.218 280.3C579.05 280.836 578.966 281.488 578.966 282.256L577.406 281.668C577.406 280.492 577.626 279.456 578.066 278.56C578.506 277.656 579.138 276.952 579.962 276.448C580.786 275.944 581.782 275.692 582.95 275.692C583.846 275.692 584.598 275.836 585.206 276.124C585.814 276.412 586.306 276.792 586.682 277.264C587.066 277.728 587.358 278.236 587.558 278.788C587.758 279.34 587.894 279.88 587.966 280.408C588.038 280.936 588.074 281.4 588.074 281.8V289H585.53ZM576.422 289V276.04H578.666V279.784H578.966V289H576.422ZM598.616 289C597.8 289.16 597 289.228 596.216 289.204C595.432 289.18 594.732 289.028 594.116 288.748C593.5 288.468 593.036 288.028 592.724 287.428C592.444 286.892 592.292 286.348 592.268 285.796C592.252 285.236 592.244 284.604 592.244 283.9V272.44H594.764V283.78C594.764 284.3 594.768 284.752 594.776 285.136C594.792 285.52 594.876 285.844 595.028 286.108C595.316 286.604 595.772 286.888 596.396 286.96C597.028 287.024 597.768 286.996 598.616 286.876V289ZM589.76 278.056V276.04H598.616V278.056H589.76Z" fill="#1C2328"/>
<rect x="434" y="161" width="192" height="142" stroke="#1C2328" stroke-width="2"/>
</g>
<g filter="url(#filter2_d_147_518)">
<rect x="433" y="384" width="194" height="80" fill="white"/>
<path d="M457.822 417.36C456.094 417.36 454.622 416.984 453.406 416.232C452.19 415.472 451.258 414.416 450.61 413.064C449.97 411.712 449.65 410.144 449.65 408.36C449.65 406.576 449.97 405.008 450.61 403.656C451.258 402.304 452.19 401.252 453.406 400.5C454.622 399.74 456.094 399.36 457.822 399.36C459.814 399.36 461.462 399.864 462.766 400.872C464.078 401.88 464.99 403.236 465.502 404.94L462.958 405.624C462.622 404.416 462.022 403.468 461.158 402.78C460.302 402.092 459.19 401.748 457.822 401.748C456.598 401.748 455.578 402.024 454.762 402.576C453.946 403.128 453.33 403.9 452.914 404.892C452.506 405.884 452.302 407.04 452.302 408.36C452.294 409.68 452.494 410.836 452.902 411.828C453.318 412.82 453.934 413.592 454.75 414.144C455.574 414.696 456.598 414.972 457.822 414.972C459.19 414.972 460.302 414.628 461.158 413.94C462.022 413.244 462.622 412.296 462.958 411.096L465.502 411.78C464.99 413.484 464.078 414.84 462.766 415.848C461.462 416.856 459.814 417.36 457.822 417.36ZM473.025 417.348C472.129 417.348 471.377 417.204 470.769 416.916C470.161 416.628 469.665 416.252 469.281 415.788C468.905 415.316 468.617 414.804 468.417 414.252C468.217 413.7 468.081 413.16 468.009 412.632C467.937 412.104 467.901 411.64 467.901 411.24V404.04H470.445V410.412C470.445 410.916 470.485 411.436 470.565 411.972C470.653 412.5 470.813 412.992 471.045 413.448C471.285 413.904 471.617 414.272 472.041 414.552C472.473 414.832 473.033 414.972 473.721 414.972C474.169 414.972 474.593 414.9 474.993 414.756C475.393 414.604 475.741 414.364 476.037 414.036C476.341 413.708 476.577 413.276 476.745 412.74C476.921 412.204 477.009 411.552 477.009 410.784L478.569 411.372C478.569 412.548 478.349 413.588 477.909 414.492C477.469 415.388 476.837 416.088 476.013 416.592C475.189 417.096 474.193 417.348 473.025 417.348ZM477.309 417V413.256H477.009V404.04H479.541V417H477.309ZM483.147 417V399.36H485.655V417H483.147ZM496.674 417C495.858 417.16 495.058 417.228 494.274 417.204C493.49 417.18 492.79 417.028 492.174 416.748C491.558 416.468 491.094 416.028 490.782 415.428C490.502 414.892 490.35 414.348 490.326 413.796C490.31 413.236 490.302 412.604 490.302 411.9V400.44H492.822V411.78C492.822 412.3 492.826 412.752 492.834 413.136C492.85 413.52 492.934 413.844 493.086 414.108C493.374 414.604 493.83 414.888 494.454 414.96C495.086 415.024 495.826 414.996 496.674 414.876V417ZM487.818 406.056V404.04H496.674V406.056H487.818ZM504.291 417.348C503.395 417.348 502.643 417.204 502.035 416.916C501.427 416.628 500.931 416.252 500.547 415.788C500.171 415.316 499.883 414.804 499.683 414.252C499.483 413.7 499.347 413.16 499.275 412.632C499.203 412.104 499.167 411.64 499.167 411.24V404.04H501.711V410.412C501.711 410.916 501.751 411.436 501.831 411.972C501.919 412.5 502.079 412.992 502.311 413.448C502.551 413.904 502.883 414.272 503.307 414.552C503.739 414.832 504.299 414.972 504.987 414.972C505.435 414.972 505.859 414.9 506.259 414.756C506.659 414.604 507.007 414.364 507.303 414.036C507.607 413.708 507.843 413.276 508.011 412.74C508.187 412.204 508.275 411.552 508.275 410.784L509.835 411.372C509.835 412.548 509.615 413.588 509.175 414.492C508.735 415.388 508.103 416.088 507.279 416.592C506.455 417.096 505.459 417.348 504.291 417.348ZM508.575 417V413.256H508.275V404.04H510.807V417H508.575ZM514.172 417V404.04H516.404V407.184L516.092 406.776C516.252 406.36 516.46 405.98 516.716 405.636C516.972 405.284 517.268 404.996 517.604 404.772C517.932 404.532 518.296 404.348 518.696 404.22C519.104 404.084 519.52 404.004 519.944 403.98C520.368 403.948 520.776 403.968 521.168 404.04V406.392C520.744 406.28 520.272 406.248 519.752 406.296C519.24 406.344 518.768 406.508 518.336 406.788C517.928 407.052 517.604 407.372 517.364 407.748C517.132 408.124 516.964 408.544 516.86 409.008C516.756 409.464 516.704 409.948 516.704 410.46V417H514.172ZM528.967 417.36C527.679 417.36 526.547 417.08 525.571 416.52C524.603 415.952 523.847 415.164 523.303 414.156C522.767 413.14 522.499 411.964 522.499 410.628C522.499 409.212 522.763 407.984 523.291 406.944C523.827 405.904 524.571 405.1 525.523 404.532C526.475 403.964 527.583 403.68 528.847 403.68C530.167 403.68 531.291 403.988 532.219 404.604C533.147 405.212 533.839 406.08 534.295 407.208C534.759 408.336 534.943 409.676 534.847 411.228H532.339V410.316C532.323 408.812 532.035 407.7 531.475 406.98C530.923 406.26 530.079 405.9 528.943 405.9C527.687 405.9 526.743 406.296 526.111 407.088C525.479 407.88 525.163 409.024 525.163 410.52C525.163 411.944 525.479 413.048 526.111 413.832C526.743 414.608 527.655 414.996 528.847 414.996C529.631 414.996 530.307 414.82 530.875 414.468C531.451 414.108 531.899 413.596 532.219 412.932L534.679 413.712C534.175 414.872 533.411 415.772 532.387 416.412C531.363 417.044 530.223 417.36 528.967 417.36ZM524.347 411.228V409.272H533.599V411.228H524.347ZM543.532 417V403.584C543.532 403.256 543.544 402.908 543.568 402.54C543.592 402.164 543.66 401.796 543.772 401.436C543.892 401.068 544.088 400.732 544.36 400.428C544.688 400.068 545.048 399.812 545.44 399.66C545.832 399.508 546.22 399.42 546.604 399.396C546.996 399.372 547.356 399.36 547.684 399.36H549.316V401.424H547.804C547.212 401.424 546.768 401.572 546.472 401.868C546.184 402.156 546.04 402.568 546.04 403.104V417H543.532ZM541.384 406.056V404.04H549.316V406.056H541.384ZM551.836 401.916V399.48H554.344V401.916H551.836ZM551.836 417V404.04H554.344V417H551.836ZM565.369 417C564.553 417.16 563.753 417.228 562.969 417.204C562.185 417.18 561.485 417.028 560.869 416.748C560.253 416.468 559.789 416.028 559.477 415.428C559.197 414.892 559.045 414.348 559.021 413.796C559.005 413.236 558.997 412.604 558.997 411.9V400.44H561.517V411.78C561.517 412.3 561.521 412.752 561.529 413.136C561.545 413.52 561.629 413.844 561.781 414.108C562.069 414.604 562.525 414.888 563.149 414.96C563.781 415.024 564.521 414.996 565.369 414.876V417ZM556.513 406.056V404.04H565.369V406.056H556.513ZM578.451 417.36C577.123 417.36 575.995 417.064 575.067 416.472C574.139 415.88 573.427 415.068 572.931 414.036C572.443 413.004 572.195 411.832 572.187 410.52C572.195 409.184 572.451 408.004 572.955 406.98C573.459 405.948 574.179 405.14 575.115 404.556C576.051 403.972 577.175 403.68 578.487 403.68C579.903 403.68 581.111 404.032 582.111 404.736C583.119 405.44 583.783 406.404 584.103 407.628L581.607 408.348C581.359 407.62 580.951 407.056 580.383 406.656C579.823 406.248 579.179 406.044 578.451 406.044C577.627 406.044 576.951 406.24 576.423 406.632C575.895 407.016 575.503 407.544 575.247 408.216C574.991 408.888 574.859 409.656 574.851 410.52C574.859 411.856 575.163 412.936 575.763 413.76C576.371 414.584 577.267 414.996 578.451 414.996C579.259 414.996 579.911 414.812 580.407 414.444C580.911 414.068 581.295 413.532 581.559 412.836L584.103 413.436C583.679 414.7 582.979 415.672 582.003 416.352C581.027 417.024 579.843 417.36 578.451 417.36ZM590.043 417.36C589.083 417.36 588.279 417.184 587.631 416.832C586.983 416.472 586.491 416 586.155 415.416C585.827 414.824 585.663 414.176 585.663 413.472C585.663 412.816 585.779 412.24 586.011 411.744C586.243 411.248 586.587 410.828 587.043 410.484C587.499 410.132 588.059 409.848 588.723 409.632C589.299 409.464 589.951 409.316 590.679 409.188C591.407 409.06 592.171 408.94 592.971 408.828C593.779 408.716 594.579 408.604 595.371 408.492L594.459 408.996C594.475 407.98 594.259 407.228 593.811 406.74C593.371 406.244 592.611 405.996 591.531 405.996C590.851 405.996 590.227 406.156 589.659 406.476C589.091 406.788 588.695 407.308 588.471 408.036L586.131 407.316C586.451 406.204 587.059 405.32 587.955 404.664C588.859 404.008 590.059 403.68 591.555 403.68C592.715 403.68 593.723 403.88 594.579 404.28C595.443 404.672 596.075 405.296 596.475 406.152C596.683 406.576 596.811 407.024 596.859 407.496C596.907 407.968 596.931 408.476 596.931 409.02V417H594.711V414.036L595.143 414.42C594.607 415.412 593.923 416.152 593.091 416.64C592.267 417.12 591.251 417.36 590.043 417.36ZM590.487 415.308C591.199 415.308 591.811 415.184 592.323 414.936C592.835 414.68 593.247 414.356 593.559 413.964C593.871 413.572 594.075 413.164 594.171 412.74C594.307 412.356 594.383 411.924 594.399 411.444C594.423 410.964 594.435 410.58 594.435 410.292L595.251 410.592C594.459 410.712 593.739 410.82 593.091 410.916C592.443 411.012 591.855 411.108 591.327 411.204C590.807 411.292 590.343 411.4 589.935 411.528C589.591 411.648 589.283 411.792 589.011 411.96C588.747 412.128 588.535 412.332 588.375 412.572C588.223 412.812 588.147 413.104 588.147 413.448C588.147 413.784 588.231 414.096 588.399 414.384C588.567 414.664 588.823 414.888 589.167 415.056C589.511 415.224 589.951 415.308 590.487 415.308ZM600.287 417V399.36H602.795V417H600.287ZM606.639 417V399.36H609.147V417H606.639ZM460.659 449L456.699 436.028L459.183 436.04L461.895 444.932L464.631 436.04H466.791L469.527 444.932L472.239 436.04H474.711L470.751 449H468.735L465.711 439.616L462.675 449H460.659ZM477.1 433.916V431.48H479.608V433.916H477.1ZM477.1 449V436.04H479.608V449H477.1ZM490.627 449C489.811 449.16 489.011 449.228 488.227 449.204C487.443 449.18 486.743 449.028 486.127 448.748C485.511 448.468 485.047 448.028 484.735 447.428C484.455 446.892 484.303 446.348 484.279 445.796C484.263 445.236 484.255 444.604 484.255 443.9V432.44H486.775V443.78C486.775 444.3 486.779 444.752 486.787 445.136C486.803 445.52 486.887 445.844 487.039 446.108C487.327 446.604 487.783 446.888 488.407 446.96C489.039 447.024 489.779 446.996 490.627 446.876V449ZM481.771 438.056V436.04H490.627V438.056H481.771ZM502.456 449V442.628C502.456 442.124 502.412 441.608 502.324 441.08C502.244 440.544 502.084 440.048 501.844 439.592C501.612 439.136 501.28 438.768 500.848 438.488C500.424 438.208 499.868 438.068 499.18 438.068C498.732 438.068 498.308 438.144 497.908 438.296C497.508 438.44 497.156 438.676 496.852 439.004C496.556 439.332 496.32 439.764 496.144 440.3C495.976 440.836 495.892 441.488 495.892 442.256L494.332 441.668C494.332 440.492 494.552 439.456 494.992 438.56C495.432 437.656 496.064 436.952 496.888 436.448C497.712 435.944 498.708 435.692 499.876 435.692C500.772 435.692 501.524 435.836 502.132 436.124C502.74 436.412 503.232 436.792 503.608 437.264C503.992 437.728 504.284 438.236 504.484 438.788C504.684 439.34 504.82 439.88 504.892 440.408C504.964 440.936 505 441.4 505 441.8V449H502.456ZM493.348 449V431.72H495.592V441.044H495.892V449H493.348ZM520.346 449C519.53 449.16 518.73 449.228 517.946 449.204C517.162 449.18 516.462 449.028 515.846 448.748C515.23 448.468 514.766 448.028 514.454 447.428C514.174 446.892 514.022 446.348 513.998 445.796C513.982 445.236 513.974 444.604 513.974 443.9V432.44H516.494V443.78C516.494 444.3 516.498 444.752 516.506 445.136C516.522 445.52 516.606 445.844 516.758 446.108C517.046 446.604 517.502 446.888 518.126 446.96C518.758 447.024 519.498 446.996 520.346 446.876V449ZM511.49 438.056V436.04H520.346V438.056H511.49ZM532.174 449V442.628C532.174 442.124 532.13 441.608 532.042 441.08C531.962 440.544 531.802 440.048 531.562 439.592C531.33 439.136 530.998 438.768 530.566 438.488C530.142 438.208 529.586 438.068 528.898 438.068C528.45 438.068 528.026 438.144 527.626 438.296C527.226 438.44 526.874 438.676 526.57 439.004C526.274 439.332 526.038 439.764 525.862 440.3C525.694 440.836 525.61 441.488 525.61 442.256L524.05 441.668C524.05 440.492 524.27 439.456 524.71 438.56C525.15 437.656 525.782 436.952 526.606 436.448C527.43 435.944 528.426 435.692 529.594 435.692C530.49 435.692 531.242 435.836 531.85 436.124C532.458 436.412 532.95 436.792 533.326 437.264C533.71 437.728 534.002 438.236 534.202 438.788C534.402 439.34 534.538 439.88 534.61 440.408C534.682 440.936 534.718 441.4 534.718 441.8V449H532.174ZM523.066 449V431.72H525.31V441.044H525.61V449H523.066ZM543.592 449.36C542.304 449.36 541.172 449.08 540.196 448.52C539.228 447.952 538.472 447.164 537.928 446.156C537.392 445.14 537.124 443.964 537.124 442.628C537.124 441.212 537.388 439.984 537.916 438.944C538.452 437.904 539.196 437.1 540.148 436.532C541.1 435.964 542.208 435.68 543.472 435.68C544.792 435.68 545.916 435.988 546.844 436.604C547.772 437.212 548.464 438.08 548.92 439.208C549.384 440.336 549.568 441.676 549.472 443.228H546.964V442.316C546.948 440.812 546.66 439.7 546.1 438.98C545.548 438.26 544.704 437.9 543.568 437.9C542.312 437.9 541.368 438.296 540.736 439.088C540.104 439.88 539.788 441.024 539.788 442.52C539.788 443.944 540.104 445.048 540.736 445.832C541.368 446.608 542.28 446.996 543.472 446.996C544.256 446.996 544.932 446.82 545.5 446.468C546.076 446.108 546.524 445.596 546.844 444.932L549.304 445.712C548.8 446.872 548.036 447.772 547.012 448.412C545.988 449.044 544.848 449.36 543.592 449.36ZM538.972 443.228V441.272H548.224V443.228H538.972ZM564.181 449.36C562.453 449.36 560.981 448.984 559.765 448.232C558.549 447.472 557.617 446.416 556.969 445.064C556.329 443.712 556.009 442.144 556.009 440.36C556.009 438.576 556.329 437.008 556.969 435.656C557.617 434.304 558.549 433.252 559.765 432.5C560.981 431.74 562.453 431.36 564.181 431.36C566.173 431.36 567.821 431.864 569.125 432.872C570.437 433.88 571.349 435.236 571.861 436.94L569.317 437.624C568.981 436.416 568.381 435.468 567.517 434.78C566.661 434.092 565.549 433.748 564.181 433.748C562.957 433.748 561.937 434.024 561.121 434.576C560.305 435.128 559.689 435.9 559.273 436.892C558.865 437.884 558.661 439.04 558.661 440.36C558.653 441.68 558.853 442.836 559.261 443.828C559.677 444.82 560.293 445.592 561.109 446.144C561.933 446.696 562.957 446.972 564.181 446.972C565.549 446.972 566.661 446.628 567.517 445.94C568.381 445.244 568.981 444.296 569.317 443.096L571.861 443.78C571.349 445.484 570.437 446.84 569.125 447.848C567.821 448.856 566.173 449.36 564.181 449.36ZM574.5 449V431.72H585.54V434.084H577.008V438.932H584.1V441.296H577.008V446.636H585.54V449H574.5ZM594.908 449.36C593.18 449.36 591.708 448.984 590.492 448.232C589.276 447.472 588.344 446.416 587.696 445.064C587.056 443.712 586.736 442.144 586.736 440.36C586.736 438.576 587.056 437.008 587.696 435.656C588.344 434.304 589.276 433.252 590.492 432.5C591.708 431.74 593.18 431.36 594.908 431.36C596.628 431.36 598.096 431.74 599.312 432.5C600.536 433.252 601.468 434.304 602.108 435.656C602.748 437.008 603.068 438.576 603.068 440.36C603.068 442.144 602.748 443.712 602.108 445.064C601.468 446.416 600.536 447.472 599.312 448.232C598.096 448.984 596.628 449.36 594.908 449.36ZM594.908 446.972C596.132 446.988 597.148 446.72 597.956 446.168C598.772 445.608 599.384 444.832 599.792 443.84C600.2 442.84 600.404 441.68 600.404 440.36C600.404 439.04 600.2 437.888 599.792 436.904C599.384 435.912 598.772 435.14 597.956 434.588C597.148 434.036 596.132 433.756 594.908 433.748C593.684 433.732 592.664 434 591.848 434.552C591.04 435.104 590.432 435.88 590.024 436.88C589.616 437.88 589.408 439.04 589.4 440.36C589.392 441.68 589.592 442.836 590 443.828C590.408 444.812 591.02 445.58 591.836 446.132C592.66 446.684 593.684 446.964 594.908 446.972Z" fill="#1C2328"/>
<rect x="434" y="385" width="192" height="78" stroke="#1C2328" stroke-width="2"/>
</g>
<g filter="url(#filter3_d_147_518)">
<rect x="433" y="544" width="194" height="112" fill="white"/>
<path d="M468.858 581.476C467.93 580.396 467.13 579.176 466.458 577.816C465.786 576.464 465.274 575.044 464.922 573.556C464.57 572.06 464.406 570.568 464.43 569.08C464.406 567.592 464.57 566.104 464.922 564.616C465.274 563.12 465.786 561.696 466.458 560.344C467.13 558.984 467.93 557.764 468.858 556.684L470.73 558.076C469.77 559.212 468.998 560.38 468.414 561.58C467.83 562.772 467.402 563.996 467.13 565.252C466.858 566.5 466.722 567.776 466.722 569.08C466.722 570.376 466.858 571.652 467.13 572.908C467.402 574.164 467.83 575.392 468.414 576.592C469.006 577.792 469.778 578.956 470.73 580.084L468.858 581.476ZM479.361 577.36C477.633 577.36 476.161 576.984 474.945 576.232C473.729 575.472 472.797 574.416 472.149 573.064C471.509 571.712 471.189 570.144 471.189 568.36C471.189 566.576 471.509 565.008 472.149 563.656C472.797 562.304 473.729 561.252 474.945 560.5C476.161 559.74 477.633 559.36 479.361 559.36C481.081 559.36 482.549 559.74 483.765 560.5C484.989 561.252 485.921 562.304 486.561 563.656C487.201 565.008 487.521 566.576 487.521 568.36C487.521 570.144 487.201 571.712 486.561 573.064C485.921 574.416 484.989 575.472 483.765 576.232C482.549 576.984 481.081 577.36 479.361 577.36ZM479.361 574.972C480.585 574.988 481.601 574.72 482.409 574.168C483.225 573.608 483.837 572.832 484.245 571.84C484.653 570.84 484.857 569.68 484.857 568.36C484.857 567.04 484.653 565.888 484.245 564.904C483.837 563.912 483.225 563.14 482.409 562.588C481.601 562.036 480.585 561.756 479.361 561.748C478.137 561.732 477.117 562 476.301 562.552C475.493 563.104 474.885 563.88 474.477 564.88C474.069 565.88 473.861 567.04 473.853 568.36C473.845 569.68 474.045 570.836 474.453 571.828C474.861 572.812 475.473 573.58 476.289 574.132C477.113 574.684 478.137 574.964 479.361 574.972ZM495.998 577.36C494.758 577.36 493.718 577.06 492.878 576.46C492.038 575.852 491.402 575.032 490.97 574C490.538 572.968 490.322 571.804 490.322 570.508C490.322 569.212 490.534 568.048 490.958 567.016C491.39 565.984 492.022 565.172 492.854 564.58C493.694 563.98 494.726 563.68 495.95 563.68C497.166 563.68 498.214 563.98 499.094 564.58C499.982 565.172 500.666 565.984 501.146 567.016C501.626 568.04 501.866 569.204 501.866 570.508C501.866 571.804 501.626 572.972 501.146 574.012C500.674 575.044 499.998 575.86 499.118 576.46C498.246 577.06 497.206 577.36 495.998 577.36ZM489.902 582.76V564.04H492.134V573.364H492.422V582.76H489.902ZM495.65 575.092C496.45 575.092 497.11 574.888 497.63 574.48C498.158 574.072 498.55 573.524 498.806 572.836C499.07 572.14 499.202 571.364 499.202 570.508C499.202 569.66 499.07 568.892 498.806 568.204C498.55 567.516 498.154 566.968 497.618 566.56C497.082 566.152 496.398 565.948 495.566 565.948C494.782 565.948 494.134 566.14 493.622 566.524C493.118 566.908 492.742 567.444 492.494 568.132C492.254 568.82 492.134 569.612 492.134 570.508C492.134 571.404 492.254 572.196 492.494 572.884C492.734 573.572 493.114 574.112 493.634 574.504C494.154 574.896 494.826 575.092 495.65 575.092ZM511.932 577C511.116 577.16 510.316 577.228 509.532 577.204C508.748 577.18 508.048 577.028 507.432 576.748C506.816 576.468 506.352 576.028 506.04 575.428C505.76 574.892 505.608 574.348 505.584 573.796C505.568 573.236 505.56 572.604 505.56 571.9V560.44H508.08V571.78C508.08 572.3 508.084 572.752 508.092 573.136C508.108 573.52 508.192 573.844 508.344 574.108C508.632 574.604 509.088 574.888 509.712 574.96C510.344 575.024 511.084 574.996 511.932 574.876V577ZM503.076 566.056V564.04H511.932V566.056H503.076ZM514.904 561.916V559.48H517.412V561.916H514.904ZM514.904 577V564.04H517.412V577H514.904ZM526.644 577.36C525.348 577.36 524.224 577.068 523.272 576.484C522.32 575.9 521.584 575.096 521.064 574.072C520.552 573.04 520.296 571.852 520.296 570.508C520.296 569.156 520.56 567.968 521.088 566.944C521.616 565.912 522.356 565.112 523.308 564.544C524.26 563.968 525.372 563.68 526.644 563.68C527.94 563.68 529.064 563.972 530.016 564.556C530.968 565.14 531.704 565.944 532.224 566.968C532.744 567.992 533.004 569.172 533.004 570.508C533.004 571.86 532.74 573.052 532.212 574.084C531.692 575.108 530.956 575.912 530.004 576.496C529.052 577.072 527.932 577.36 526.644 577.36ZM526.644 574.996C527.884 574.996 528.808 574.58 529.416 573.748C530.032 572.908 530.34 571.828 530.34 570.508C530.34 569.156 530.028 568.076 529.404 567.268C528.788 566.452 527.868 566.044 526.644 566.044C525.804 566.044 525.112 566.236 524.568 566.62C524.024 566.996 523.62 567.52 523.356 568.192C523.092 568.856 522.96 569.628 522.96 570.508C522.96 571.868 523.272 572.956 523.896 573.772C524.52 574.588 525.436 574.996 526.644 574.996ZM544.737 577V570.628C544.737 570.124 544.693 569.608 544.605 569.08C544.525 568.544 544.365 568.048 544.125 567.592C543.893 567.136 543.561 566.768 543.129 566.488C542.705 566.208 542.149 566.068 541.461 566.068C541.013 566.068 540.589 566.144 540.189 566.296C539.789 566.44 539.437 566.676 539.133 567.004C538.837 567.332 538.601 567.764 538.425 568.3C538.257 568.836 538.173 569.488 538.173 570.256L536.613 569.668C536.613 568.492 536.833 567.456 537.273 566.56C537.713 565.656 538.345 564.952 539.169 564.448C539.993 563.944 540.989 563.692 542.157 563.692C543.053 563.692 543.805 563.836 544.413 564.124C545.021 564.412 545.513 564.792 545.889 565.264C546.273 565.728 546.565 566.236 546.765 566.788C546.965 567.34 547.101 567.88 547.173 568.408C547.245 568.936 547.281 569.4 547.281 569.8V577H544.737ZM535.629 577V564.04H537.873V567.784H538.173V577H535.629ZM554.067 577.36C553.107 577.36 552.303 577.184 551.655 576.832C551.007 576.472 550.515 576 550.179 575.416C549.851 574.824 549.687 574.176 549.687 573.472C549.687 572.816 549.803 572.24 550.035 571.744C550.267 571.248 550.611 570.828 551.067 570.484C551.523 570.132 552.083 569.848 552.747 569.632C553.323 569.464 553.975 569.316 554.703 569.188C555.431 569.06 556.195 568.94 556.995 568.828C557.803 568.716 558.603 568.604 559.395 568.492L558.483 568.996C558.499 567.98 558.283 567.228 557.835 566.74C557.395 566.244 556.635 565.996 555.555 565.996C554.875 565.996 554.251 566.156 553.683 566.476C553.115 566.788 552.719 567.308 552.495 568.036L550.155 567.316C550.475 566.204 551.083 565.32 551.979 564.664C552.883 564.008 554.083 563.68 555.579 563.68C556.739 563.68 557.747 563.88 558.603 564.28C559.467 564.672 560.099 565.296 560.499 566.152C560.707 566.576 560.835 567.024 560.883 567.496C560.931 567.968 560.955 568.476 560.955 569.02V577H558.735V574.036L559.167 574.42C558.631 575.412 557.947 576.152 557.115 576.64C556.291 577.12 555.275 577.36 554.067 577.36ZM554.511 575.308C555.223 575.308 555.835 575.184 556.347 574.936C556.859 574.68 557.271 574.356 557.583 573.964C557.895 573.572 558.099 573.164 558.195 572.74C558.331 572.356 558.407 571.924 558.423 571.444C558.447 570.964 558.459 570.58 558.459 570.292L559.275 570.592C558.483 570.712 557.763 570.82 557.115 570.916C556.467 571.012 555.879 571.108 555.351 571.204C554.831 571.292 554.367 571.4 553.959 571.528C553.615 571.648 553.307 571.792 553.035 571.96C552.771 572.128 552.559 572.332 552.399 572.572C552.247 572.812 552.171 573.104 552.171 573.448C552.171 573.784 552.255 574.096 552.423 574.384C552.591 574.664 552.847 574.888 553.191 575.056C553.535 575.224 553.975 575.308 554.511 575.308ZM564.311 577V559.36H566.819V577H564.311ZM570.662 577V559.36H573.17V577H570.662ZM578.526 582.76L581.034 575.932L581.07 577.948L575.418 564.04H578.034L582.258 574.78H581.49L585.522 564.04H588.066L580.914 582.76H578.526ZM591.134 581.476L589.262 580.084C590.214 578.956 590.982 577.792 591.566 576.592C592.158 575.392 592.59 574.164 592.862 572.908C593.134 571.652 593.27 570.376 593.27 569.08C593.27 567.776 593.134 566.5 592.862 565.252C592.59 563.996 592.162 562.772 591.578 561.58C590.994 560.38 590.222 559.212 589.262 558.076L591.134 556.684C592.062 557.764 592.862 558.984 593.534 560.344C594.206 561.696 594.718 563.12 595.07 564.616C595.422 566.104 595.586 567.592 595.562 569.08C595.586 570.568 595.422 572.06 595.07 573.556C594.718 575.044 594.206 576.464 593.534 577.816C592.862 579.176 592.062 580.396 591.134 581.476ZM487.658 609V591.72H490.166V606.636H497.99V609H487.658ZM500.268 593.916V591.48H502.776V593.916H500.268ZM500.268 609V596.04H502.776V609H500.268ZM509.883 609L505.179 596.04H507.711L511.155 605.856L514.599 596.04H517.131L512.427 609H509.883ZM524.573 609.36C523.285 609.36 522.153 609.08 521.177 608.52C520.209 607.952 519.453 607.164 518.909 606.156C518.373 605.14 518.105 603.964 518.105 602.628C518.105 601.212 518.369 599.984 518.897 598.944C519.433 597.904 520.177 597.1 521.129 596.532C522.081 595.964 523.189 595.68 524.453 595.68C525.773 595.68 526.897 595.988 527.825 596.604C528.753 597.212 529.445 598.08 529.901 599.208C530.365 600.336 530.549 601.676 530.453 603.228H527.945V602.316C527.929 600.812 527.641 599.7 527.081 598.98C526.529 598.26 525.685 597.9 524.549 597.9C523.293 597.9 522.349 598.296 521.717 599.088C521.085 599.88 520.769 601.024 520.769 602.52C520.769 603.944 521.085 605.048 521.717 605.832C522.349 606.608 523.261 606.996 524.453 606.996C525.237 606.996 525.913 606.82 526.481 606.468C527.057 606.108 527.505 605.596 527.825 604.932L530.285 605.712C529.781 606.872 529.017 607.772 527.993 608.412C526.969 609.044 525.829 609.36 524.573 609.36ZM519.953 603.228V601.272H529.205V603.228H519.953ZM543.494 609.36C542.166 609.36 541.038 609.064 540.11 608.472C539.182 607.88 538.47 607.068 537.974 606.036C537.486 605.004 537.238 603.832 537.23 602.52C537.238 601.184 537.494 600.004 537.998 598.98C538.502 597.948 539.222 597.14 540.158 596.556C541.094 595.972 542.218 595.68 543.53 595.68C544.946 595.68 546.154 596.032 547.154 596.736C548.162 597.44 548.826 598.404 549.146 599.628L546.65 600.348C546.402 599.62 545.994 599.056 545.426 598.656C544.866 598.248 544.222 598.044 543.494 598.044C542.67 598.044 541.994 598.24 541.466 598.632C540.938 599.016 540.546 599.544 540.29 600.216C540.034 600.888 539.902 601.656 539.894 602.52C539.902 603.856 540.206 604.936 540.806 605.76C541.414 606.584 542.31 606.996 543.494 606.996C544.302 606.996 544.954 606.812 545.45 606.444C545.954 606.068 546.338 605.532 546.602 604.836L549.146 605.436C548.722 606.7 548.022 607.672 547.046 608.352C546.07 609.024 544.886 609.36 543.494 609.36ZM556.867 609.36C555.571 609.36 554.447 609.068 553.495 608.484C552.543 607.9 551.807 607.096 551.287 606.072C550.775 605.04 550.519 603.852 550.519 602.508C550.519 601.156 550.783 599.968 551.311 598.944C551.839 597.912 552.579 597.112 553.531 596.544C554.483 595.968 555.595 595.68 556.867 595.68C558.163 595.68 559.287 595.972 560.239 596.556C561.191 597.14 561.927 597.944 562.447 598.968C562.967 599.992 563.227 601.172 563.227 602.508C563.227 603.86 562.963 605.052 562.435 606.084C561.915 607.108 561.179 607.912 560.227 608.496C559.275 609.072 558.155 609.36 556.867 609.36ZM556.867 606.996C558.107 606.996 559.031 606.58 559.639 605.748C560.255 604.908 560.563 603.828 560.563 602.508C560.563 601.156 560.251 600.076 559.627 599.268C559.011 598.452 558.091 598.044 556.867 598.044C556.027 598.044 555.335 598.236 554.791 598.62C554.247 598.996 553.843 599.52 553.579 600.192C553.315 600.856 553.183 601.628 553.183 602.508C553.183 603.868 553.495 604.956 554.119 605.772C554.743 606.588 555.659 606.996 556.867 606.996ZM565.624 602.436V600.42H572.824V602.436H565.624ZM462.053 641L458.093 628.028L460.577 628.04L463.289 636.932L466.025 628.04H468.185L470.921 636.932L473.633 628.04H476.105L472.145 641H470.129L467.105 631.616L464.069 641H462.053ZM483.413 641.36C482.117 641.36 480.993 641.068 480.041 640.484C479.089 639.9 478.353 639.096 477.833 638.072C477.321 637.04 477.065 635.852 477.065 634.508C477.065 633.156 477.329 631.968 477.857 630.944C478.385 629.912 479.125 629.112 480.077 628.544C481.029 627.968 482.141 627.68 483.413 627.68C484.709 627.68 485.833 627.972 486.785 628.556C487.737 629.14 488.473 629.944 488.993 630.968C489.513 631.992 489.773 633.172 489.773 634.508C489.773 635.86 489.509 637.052 488.981 638.084C488.461 639.108 487.725 639.912 486.773 640.496C485.821 641.072 484.701 641.36 483.413 641.36ZM483.413 638.996C484.653 638.996 485.577 638.58 486.185 637.748C486.801 636.908 487.109 635.828 487.109 634.508C487.109 633.156 486.797 632.076 486.173 631.268C485.557 630.452 484.637 630.044 483.413 630.044C482.573 630.044 481.881 630.236 481.337 630.62C480.793 630.996 480.389 631.52 480.125 632.192C479.861 632.856 479.729 633.628 479.729 634.508C479.729 635.868 480.041 636.956 480.665 637.772C481.289 638.588 482.205 638.996 483.413 638.996ZM492.41 641V628.04H494.642V631.184L494.33 630.776C494.49 630.36 494.698 629.98 494.954 629.636C495.21 629.284 495.506 628.996 495.842 628.772C496.17 628.532 496.534 628.348 496.934 628.22C497.342 628.084 497.758 628.004 498.182 627.98C498.606 627.948 499.014 627.968 499.406 628.04V630.392C498.982 630.28 498.51 630.248 497.99 630.296C497.478 630.344 497.006 630.508 496.574 630.788C496.166 631.052 495.842 631.372 495.602 631.748C495.37 632.124 495.202 632.544 495.098 633.008C494.994 633.464 494.942 633.948 494.942 634.46V641H492.41ZM501.68 641L501.692 623.72H504.236V634.28L509.324 628.04H512.516L507.14 634.52L513.068 641H509.66L504.236 634.76V641H501.68ZM514.518 625.916V623.48H517.026V625.916H514.518ZM514.518 641V628.04H517.026V641H514.518ZM529.725 641V634.628C529.725 634.124 529.681 633.608 529.593 633.08C529.513 632.544 529.353 632.048 529.113 631.592C528.881 631.136 528.549 630.768 528.117 630.488C527.693 630.208 527.137 630.068 526.449 630.068C526.001 630.068 525.577 630.144 525.177 630.296C524.777 630.44 524.425 630.676 524.121 631.004C523.825 631.332 523.589 631.764 523.413 632.3C523.245 632.836 523.161 633.488 523.161 634.256L521.601 633.668C521.601 632.492 521.821 631.456 522.261 630.56C522.701 629.656 523.333 628.952 524.157 628.448C524.981 627.944 525.977 627.692 527.145 627.692C528.041 627.692 528.793 627.836 529.401 628.124C530.009 628.412 530.501 628.792 530.877 629.264C531.261 629.728 531.553 630.236 531.753 630.788C531.953 631.34 532.089 631.88 532.161 632.408C532.233 632.936 532.269 633.4 532.269 633.8V641H529.725ZM520.617 641V628.04H522.861V631.784H523.161V641H520.617ZM540.735 647.12C540.039 647.12 539.363 647.012 538.707 646.796C538.059 646.58 537.467 646.26 536.931 645.836C536.395 645.42 535.951 644.904 535.599 644.288L537.915 643.112C538.195 643.664 538.595 644.068 539.115 644.324C539.635 644.58 540.183 644.708 540.759 644.708C541.471 644.708 542.079 644.58 542.583 644.324C543.087 644.076 543.467 643.7 543.723 643.196C543.987 642.692 544.115 642.068 544.107 641.324V637.7H544.407V628.04H546.627V641.348C546.627 641.692 546.615 642.02 546.591 642.332C546.567 642.644 546.523 642.956 546.459 643.268C546.275 644.14 545.923 644.86 545.403 645.428C544.891 645.996 544.235 646.42 543.435 646.7C542.643 646.98 541.743 647.12 540.735 647.12ZM540.543 641.36C539.335 641.36 538.291 641.06 537.411 640.46C536.539 639.86 535.863 639.044 535.383 638.012C534.911 636.972 534.675 635.804 534.675 634.508C534.675 633.204 534.915 632.04 535.395 631.016C535.875 629.984 536.555 629.172 537.435 628.58C538.323 627.98 539.375 627.68 540.591 627.68C541.815 627.68 542.843 627.98 543.675 628.58C544.515 629.172 545.147 629.984 545.571 631.016C546.003 632.048 546.219 633.212 546.219 634.508C546.219 635.804 546.003 636.968 545.571 638C545.139 639.032 544.503 639.852 543.663 640.46C542.823 641.06 541.783 641.36 540.543 641.36ZM540.891 639.092C541.715 639.092 542.387 638.896 542.907 638.504C543.427 638.112 543.807 637.572 544.047 636.884C544.287 636.196 544.407 635.404 544.407 634.508C544.407 633.612 544.283 632.82 544.035 632.132C543.795 631.444 543.419 630.908 542.907 630.524C542.403 630.14 541.759 629.948 540.975 629.948C540.143 629.948 539.459 630.152 538.923 630.56C538.387 630.968 537.987 631.516 537.723 632.204C537.467 632.892 537.339 633.66 537.339 634.508C537.339 635.364 537.467 636.14 537.723 636.836C537.987 637.524 538.379 638.072 538.899 638.48C539.427 638.888 540.091 639.092 540.891 639.092ZM562.217 641C561.401 641.16 560.601 641.228 559.817 641.204C559.033 641.18 558.333 641.028 557.717 640.748C557.101 640.468 556.637 640.028 556.325 639.428C556.045 638.892 555.893 638.348 555.869 637.796C555.853 637.236 555.845 636.604 555.845 635.9V624.44H558.365V635.78C558.365 636.3 558.369 636.752 558.377 637.136C558.393 637.52 558.477 637.844 558.629 638.108C558.917 638.604 559.373 638.888 559.997 638.96C560.629 639.024 561.369 638.996 562.217 638.876V641ZM553.361 630.056V628.04H562.217V630.056H553.361ZM568.61 641.36C567.65 641.36 566.846 641.184 566.198 640.832C565.55 640.472 565.058 640 564.722 639.416C564.394 638.824 564.23 638.176 564.23 637.472C564.23 636.816 564.346 636.24 564.578 635.744C564.81 635.248 565.154 634.828 565.61 634.484C566.066 634.132 566.626 633.848 567.29 633.632C567.866 633.464 568.518 633.316 569.246 633.188C569.974 633.06 570.738 632.94 571.538 632.828C572.346 632.716 573.146 632.604 573.938 632.492L573.026 632.996C573.042 631.98 572.826 631.228 572.378 630.74C571.938 630.244 571.178 629.996 570.098 629.996C569.418 629.996 568.794 630.156 568.226 630.476C567.658 630.788 567.262 631.308 567.038 632.036L564.698 631.316C565.018 630.204 565.626 629.32 566.522 628.664C567.426 628.008 568.626 627.68 570.122 627.68C571.282 627.68 572.29 627.88 573.146 628.28C574.01 628.672 574.642 629.296 575.042 630.152C575.25 630.576 575.378 631.024 575.426 631.496C575.474 631.968 575.498 632.476 575.498 633.02V641H573.278V638.036L573.71 638.42C573.174 639.412 572.49 640.152 571.658 640.64C570.834 641.12 569.818 641.36 568.61 641.36ZM569.054 639.308C569.766 639.308 570.378 639.184 570.89 638.936C571.402 638.68 571.814 638.356 572.126 637.964C572.438 637.572 572.642 637.164 572.738 636.74C572.874 636.356 572.95 635.924 572.966 635.444C572.99 634.964 573.002 634.58 573.002 634.292L573.818 634.592C573.026 634.712 572.306 634.82 571.658 634.916C571.01 635.012 570.422 635.108 569.894 635.204C569.374 635.292 568.91 635.4 568.502 635.528C568.158 635.648 567.85 635.792 567.578 635.96C567.314 636.128 567.102 636.332 566.942 636.572C566.79 636.812 566.714 637.104 566.714 637.448C566.714 637.784 566.798 638.096 566.966 638.384C567.134 638.664 567.39 638.888 567.734 639.056C568.078 639.224 568.518 639.308 569.054 639.308ZM583.57 641.348C581.994 641.348 580.71 641 579.718 640.304C578.726 639.608 578.118 638.628 577.894 637.364L580.462 636.968C580.622 637.64 580.99 638.172 581.566 638.564C582.15 638.948 582.874 639.14 583.738 639.14C584.522 639.14 585.134 638.98 585.574 638.66C586.022 638.34 586.246 637.9 586.246 637.34C586.246 637.012 586.166 636.748 586.006 636.548C585.854 636.34 585.53 636.144 585.034 635.96C584.538 635.776 583.782 635.548 582.766 635.276C581.654 634.988 580.77 634.68 580.114 634.352C579.466 634.016 579.002 633.628 578.722 633.188C578.45 632.74 578.314 632.2 578.314 631.568C578.314 630.784 578.522 630.1 578.938 629.516C579.354 628.932 579.938 628.48 580.69 628.16C581.45 627.84 582.338 627.68 583.354 627.68C584.346 627.68 585.23 627.836 586.006 628.148C586.782 628.46 587.41 628.904 587.89 629.48C588.37 630.048 588.658 630.716 588.754 631.484L586.186 631.952C586.098 631.328 585.806 630.836 585.31 630.476C584.814 630.116 584.17 629.92 583.378 629.888C582.618 629.856 582.002 629.984 581.53 630.272C581.058 630.552 580.822 630.94 580.822 631.436C580.822 631.724 580.91 631.968 581.086 632.168C581.27 632.368 581.622 632.56 582.142 632.744C582.662 632.928 583.43 633.148 584.446 633.404C585.534 633.684 586.398 633.996 587.038 634.34C587.678 634.676 588.134 635.08 588.406 635.552C588.686 636.016 588.826 636.58 588.826 637.244C588.826 638.524 588.358 639.528 587.422 640.256C586.494 640.984 585.21 641.348 583.57 641.348ZM591.469 641L591.481 623.72H594.025V634.28L599.113 628.04H602.305L596.929 634.52L602.857 641H599.449L594.025 634.76V641H591.469Z" fill="#1C2328"/>
<rect x="434" y="545" width="192" height="110" stroke="#1C2328" stroke-width="2"/>
</g>
<circle cx="182" cy="40" r="6.5" fill="#1C2328" stroke="#1C2328" stroke-width="3"/>
<g filter="url(#filter4_d_147_518)">
<rect y="15" width="154" height="48" fill="white"/>
<path d="M12.1128 48L17.7288 30.72H21.3408L26.9568 48H24.3528L19.1808 32.232H19.8288L14.7168 48H12.1128ZM15.0288 44.1V41.748H24.0528V44.1H15.0288ZM35.1937 48.36C33.9537 48.36 32.9137 48.06 32.0737 47.46C31.2337 46.852 30.5977 46.032 30.1657 45C29.7337 43.968 29.5177 42.804 29.5177 41.508C29.5177 40.212 29.7297 39.048 30.1537 38.016C30.5857 36.984 31.2177 36.172 32.0497 35.58C32.8897 34.98 33.9217 34.68 35.1457 34.68C36.3617 34.68 37.4097 34.98 38.2897 35.58C39.1777 36.172 39.8617 36.984 40.3417 38.016C40.8217 39.04 41.0617 40.204 41.0617 41.508C41.0617 42.804 40.8217 43.972 40.3417 45.012C39.8697 46.044 39.1937 46.86 38.3137 47.46C37.4417 48.06 36.4017 48.36 35.1937 48.36ZM29.0977 53.76V35.04H31.3297V44.364H31.6177V53.76H29.0977ZM34.8457 46.092C35.6457 46.092 36.3057 45.888 36.8257 45.48C37.3537 45.072 37.7457 44.524 38.0017 43.836C38.2657 43.14 38.3977 42.364 38.3977 41.508C38.3977 40.66 38.2657 39.892 38.0017 39.204C37.7457 38.516 37.3497 37.968 36.8137 37.56C36.2777 37.152 35.5937 36.948 34.7617 36.948C33.9777 36.948 33.3297 37.14 32.8177 37.524C32.3137 37.908 31.9377 38.444 31.6897 39.132C31.4497 39.82 31.3297 40.612 31.3297 41.508C31.3297 42.404 31.4497 43.196 31.6897 43.884C31.9297 44.572 32.3097 45.112 32.8297 45.504C33.3497 45.896 34.0217 46.092 34.8457 46.092ZM49.7953 48.36C48.5553 48.36 47.5153 48.06 46.6753 47.46C45.8353 46.852 45.1993 46.032 44.7673 45C44.3353 43.968 44.1193 42.804 44.1193 41.508C44.1193 40.212 44.3313 39.048 44.7553 38.016C45.1873 36.984 45.8193 36.172 46.6513 35.58C47.4913 34.98 48.5233 34.68 49.7473 34.68C50.9633 34.68 52.0113 34.98 52.8913 35.58C53.7793 36.172 54.4633 36.984 54.9433 38.016C55.4233 39.04 55.6633 40.204 55.6633 41.508C55.6633 42.804 55.4233 43.972 54.9433 45.012C54.4713 46.044 53.7953 46.86 52.9153 47.46C52.0433 48.06 51.0033 48.36 49.7953 48.36ZM43.6993 53.76V35.04H45.9313V44.364H46.2193V53.76H43.6993ZM49.4473 46.092C50.2473 46.092 50.9073 45.888 51.4273 45.48C51.9553 45.072 52.3473 44.524 52.6033 43.836C52.8673 43.14 52.9993 42.364 52.9993 41.508C52.9993 40.66 52.8673 39.892 52.6033 39.204C52.3473 38.516 51.9513 37.968 51.4153 37.56C50.8793 37.152 50.1953 36.948 49.3633 36.948C48.5793 36.948 47.9313 37.14 47.4193 37.524C46.9153 37.908 46.5393 38.444 46.2913 39.132C46.0513 39.82 45.9313 40.612 45.9313 41.508C45.9313 42.404 46.0513 43.196 46.2913 43.884C46.5313 44.572 46.9113 45.112 47.4313 45.504C47.9513 45.896 48.6233 46.092 49.4473 46.092ZM58.5528 48V30.36H61.0608V48H58.5528ZM64.9044 32.916V30.48H67.4124V32.916H64.9044ZM64.9044 48V35.04H67.4124V48H64.9044ZM76.5599 48.36C75.2319 48.36 74.1039 48.064 73.1759 47.472C72.2479 46.88 71.5359 46.068 71.0399 45.036C70.5519 44.004 70.3039 42.832 70.2959 41.52C70.3039 40.184 70.5599 39.004 71.0639 37.98C71.5679 36.948 72.2879 36.14 73.2239 35.556C74.1599 34.972 75.2839 34.68 76.5959 34.68C78.0119 34.68 79.2199 35.032 80.2199 35.736C81.2279 36.44 81.8919 37.404 82.2119 38.628L79.7159 39.348C79.4679 38.62 79.0599 38.056 78.4919 37.656C77.9319 37.248 77.2879 37.044 76.5599 37.044C75.7359 37.044 75.0599 37.24 74.5319 37.632C74.0039 38.016 73.6119 38.544 73.3559 39.216C73.0999 39.888 72.9679 40.656 72.9599 41.52C72.9679 42.856 73.2719 43.936 73.8719 44.76C74.4799 45.584 75.3759 45.996 76.5599 45.996C77.3679 45.996 78.0199 45.812 78.5159 45.444C79.0199 45.068 79.4039 44.532 79.6679 43.836L82.2119 44.436C81.7879 45.7 81.0879 46.672 80.1119 47.352C79.1359 48.024 77.9519 48.36 76.5599 48.36ZM88.1525 48.36C87.1925 48.36 86.3885 48.184 85.7405 47.832C85.0925 47.472 84.6005 47 84.2645 46.416C83.9365 45.824 83.7725 45.176 83.7725 44.472C83.7725 43.816 83.8885 43.24 84.1205 42.744C84.3525 42.248 84.6965 41.828 85.1525 41.484C85.6085 41.132 86.1685 40.848 86.8325 40.632C87.4085 40.464 88.0605 40.316 88.7885 40.188C89.5165 40.06 90.2805 39.94 91.0805 39.828C91.8885 39.716 92.6885 39.604 93.4805 39.492L92.5685 39.996C92.5845 38.98 92.3685 38.228 91.9205 37.74C91.4805 37.244 90.7205 36.996 89.6405 36.996C88.9605 36.996 88.3365 37.156 87.7685 37.476C87.2005 37.788 86.8045 38.308 86.5805 39.036L84.2405 38.316C84.5605 37.204 85.1685 36.32 86.0645 35.664C86.9685 35.008 88.1685 34.68 89.6645 34.68C90.8245 34.68 91.8325 34.88 92.6885 35.28C93.5525 35.672 94.1845 36.296 94.5845 37.152C94.7925 37.576 94.9205 38.024 94.9685 38.496C95.0165 38.968 95.0405 39.476 95.0405 40.02V48H92.8205V45.036L93.2525 45.42C92.7165 46.412 92.0325 47.152 91.2005 47.64C90.3765 48.12 89.3605 48.36 88.1525 48.36ZM88.5965 46.308C89.3085 46.308 89.9205 46.184 90.4325 45.936C90.9445 45.68 91.3565 45.356 91.6685 44.964C91.9805 44.572 92.1845 44.164 92.2805 43.74C92.4165 43.356 92.4925 42.924 92.5085 42.444C92.5325 41.964 92.5445 41.58 92.5445 41.292L93.3605 41.592C92.5685 41.712 91.8485 41.82 91.2005 41.916C90.5525 42.012 89.9645 42.108 89.4365 42.204C88.9165 42.292 88.4525 42.4 88.0445 42.528C87.7005 42.648 87.3925 42.792 87.1205 42.96C86.8565 43.128 86.6445 43.332 86.4845 43.572C86.3325 43.812 86.2565 44.104 86.2565 44.448C86.2565 44.784 86.3405 45.096 86.5085 45.384C86.6765 45.664 86.9325 45.888 87.2765 46.056C87.6205 46.224 88.0605 46.308 88.5965 46.308ZM105.573 48C104.757 48.16 103.957 48.228 103.173 48.204C102.389 48.18 101.689 48.028 101.073 47.748C100.457 47.468 99.9926 47.028 99.6806 46.428C99.4006 45.892 99.2486 45.348 99.2246 44.796C99.2086 44.236 99.2006 43.604 99.2006 42.9V31.44H101.721V42.78C101.721 43.3 101.725 43.752 101.733 44.136C101.749 44.52 101.833 44.844 101.985 45.108C102.273 45.604 102.729 45.888 103.353 45.96C103.985 46.024 104.725 45.996 105.573 45.876V48ZM96.7166 37.056V35.04H105.573V37.056H96.7166ZM108.545 32.916V30.48H111.053V32.916H108.545ZM108.545 48V35.04H111.053V48H108.545ZM120.285 48.36C118.989 48.36 117.865 48.068 116.913 47.484C115.961 46.9 115.225 46.096 114.705 45.072C114.193 44.04 113.937 42.852 113.937 41.508C113.937 40.156 114.201 38.968 114.729 37.944C115.257 36.912 115.997 36.112 116.949 35.544C117.901 34.968 119.013 34.68 120.285 34.68C121.581 34.68 122.705 34.972 123.657 35.556C124.609 36.14 125.345 36.944 125.865 37.968C126.385 38.992 126.645 40.172 126.645 41.508C126.645 42.86 126.381 44.052 125.853 45.084C125.333 46.108 124.597 46.912 123.645 47.496C122.693 48.072 121.573 48.36 120.285 48.36ZM120.285 45.996C121.525 45.996 122.449 45.58 123.057 44.748C123.673 43.908 123.981 42.828 123.981 41.508C123.981 40.156 123.669 39.076 123.045 38.268C122.429 37.452 121.509 37.044 120.285 37.044C119.445 37.044 118.753 37.236 118.209 37.62C117.665 37.996 117.261 38.52 116.997 39.192C116.733 39.856 116.601 40.628 116.601 41.508C116.601 42.868 116.913 43.956 117.537 44.772C118.161 45.588 119.077 45.996 120.285 45.996ZM138.378 48V41.628C138.378 41.124 138.334 40.608 138.246 40.08C138.166 39.544 138.006 39.048 137.766 38.592C137.534 38.136 137.202 37.768 136.77 37.488C136.346 37.208 135.79 37.068 135.102 37.068C134.654 37.068 134.23 37.144 133.83 37.296C133.43 37.44 133.078 37.676 132.774 38.004C132.478 38.332 132.242 38.764 132.066 39.3C131.898 39.836 131.814 40.488 131.814 41.256L130.254 40.668C130.254 39.492 130.474 38.456 130.914 37.56C131.354 36.656 131.986 35.952 132.81 35.448C133.634 34.944 134.63 34.692 135.798 34.692C136.694 34.692 137.446 34.836 138.054 35.124C138.662 35.412 139.154 35.792 139.53 36.264C139.914 36.728 140.206 37.236 140.406 37.788C140.606 38.34 140.742 38.88 140.814 39.408C140.886 39.936 140.922 40.4 140.922 40.8V48H138.378ZM129.27 48V35.04H131.514V38.784H131.814V48H129.27Z" fill="#1C2328"/>
<rect x="1" y="16" width="152" height="46" stroke="black" stroke-width="2"/>
</g>
<g filter="url(#filter5_d_147_518)">
<rect x="910" y="668" width="113" height="58" fill="white"/>
<path d="M939.359 709.48C937.055 709.48 935.082 708.979 933.439 707.976C931.796 706.963 930.532 705.555 929.647 703.752C928.772 701.949 928.335 699.859 928.335 697.48C928.335 695.101 928.772 693.011 929.647 691.208C930.532 689.405 931.796 688.003 933.439 687C935.082 685.987 937.055 685.48 939.359 685.48C941.663 685.48 943.636 685.987 945.279 687C946.932 688.003 948.196 689.405 949.071 691.208C949.956 693.011 950.399 695.101 950.399 697.48C950.399 699.859 949.956 701.949 949.071 703.752C948.196 705.555 946.932 706.963 945.279 707.976C943.636 708.979 941.663 709.48 939.359 709.48ZM939.359 705.848C940.906 705.859 942.191 705.517 943.215 704.824C944.25 704.131 945.023 703.155 945.535 701.896C946.058 700.637 946.319 699.165 946.319 697.48C946.319 695.795 946.058 694.333 945.535 693.096C945.023 691.848 944.25 690.877 943.215 690.184C942.191 689.491 940.906 689.133 939.359 689.112C937.812 689.101 936.527 689.443 935.503 690.136C934.479 690.829 933.706 691.805 933.183 693.064C932.671 694.323 932.415 695.795 932.415 697.48C932.415 699.165 932.671 700.632 933.183 701.88C933.695 703.117 934.463 704.083 935.487 704.776C936.522 705.469 937.812 705.827 939.359 705.848ZM955.088 709V691.448C955.088 691.011 955.104 690.531 955.136 690.008C955.168 689.475 955.258 688.947 955.408 688.424C955.557 687.901 955.829 687.427 956.224 687C956.714 686.456 957.242 686.083 957.808 685.88C958.384 685.667 958.949 685.549 959.504 685.528C960.058 685.496 960.544 685.48 960.96 685.48H963.12V688.616H961.12C960.384 688.616 959.834 688.803 959.472 689.176C959.12 689.539 958.944 690.019 958.944 690.616V709H955.088ZM952.304 694.744V691.72H963.12V694.744H952.304ZM965.856 709V691.448C965.856 691.011 965.872 690.531 965.904 690.008C965.936 689.475 966.026 688.947 966.176 688.424C966.325 687.901 966.597 687.427 966.992 687C967.482 686.456 968.01 686.083 968.576 685.88C969.152 685.667 969.717 685.549 970.272 685.528C970.826 685.496 971.312 685.48 971.728 685.48H973.888V688.616H971.888C971.152 688.616 970.602 688.803 970.24 689.176C969.888 689.539 969.712 690.019 969.712 690.616V709H965.856ZM963.072 694.744V691.72H973.888V694.744H963.072ZM983.69 709.48C981.94 709.48 980.404 709.101 979.082 708.344C977.759 707.587 976.724 706.536 975.978 705.192C975.242 703.848 974.874 702.301 974.874 700.552C974.874 698.664 975.236 697.027 975.962 695.64C976.687 694.243 977.695 693.16 978.986 692.392C980.276 691.624 981.77 691.24 983.466 691.24C985.258 691.24 986.778 691.661 988.026 692.504C989.284 693.336 990.218 694.515 990.826 696.04C991.434 697.565 991.663 699.363 991.514 701.432H987.69V700.024C987.679 698.147 987.348 696.776 986.698 695.912C986.047 695.048 985.023 694.616 983.626 694.616C982.047 694.616 980.874 695.107 980.106 696.088C979.338 697.059 978.954 698.483 978.954 700.36C978.954 702.109 979.338 703.464 980.106 704.424C980.874 705.384 981.994 705.864 983.466 705.864C984.415 705.864 985.231 705.656 985.914 705.24C986.607 704.813 987.14 704.2 987.514 703.4L991.322 704.552C990.66 706.109 989.636 707.32 988.25 708.184C986.874 709.048 985.354 709.48 983.69 709.48ZM977.738 701.432V698.52H989.626V701.432H977.738ZM995.084 709V691.72H998.492V695.928L998.076 695.384C998.289 694.808 998.572 694.285 998.924 693.816C999.286 693.336 999.718 692.941 1000.22 692.632C1000.65 692.344 1001.12 692.12 1001.63 691.96C1002.15 691.789 1002.68 691.688 1003.23 691.656C1003.77 691.613 1004.3 691.635 1004.81 691.72V695.32C1004.3 695.171 1003.71 695.123 1003.04 695.176C1002.37 695.229 1001.78 695.416 1001.24 695.736C1000.71 696.024 1000.27 696.392 999.932 696.84C999.601 697.288 999.356 697.8 999.196 698.376C999.036 698.941 998.956 699.555 998.956 700.216V709H995.084Z" fill="#1C2328"/>
<rect x="911" y="669" width="111" height="56" stroke="black" stroke-width="2"/>
</g>
<path d="M860 509C918.542 509 966 449.902 966 377C966 449.902 1013.46 509 1072 509C1013.46 509 966 568.098 966 641C966 568.098 918.542 509 860 509Z" fill="#387CD3"/>
<path d="M953 628.083C948.08 564.854 907.419 514.507 856.322 509C907.419 503.493 948.08 453.146 953 389.917C957.92 453.146 998.581 503.493 1049.68 509C998.581 514.507 957.92 564.854 953 628.083Z" stroke="#1C2328"/>
<defs>
<filter id="filter0_d_147_518" x="433" y="0" width="197" height="83" filterUnits="userSpaceOnUse" color-interpolation-filters="sRGB">
<feFlood flood-opacity="0" result="BackgroundImageFix"/>
<feColorMatrix in="SourceAlpha" type="matrix" values="0 0 0 0 0 0 0 0 0 0 0 0 0 0 0 0 0 0 127 0" result="hardAlpha"/>
<feOffset dx="3" dy="3"/>
<feColorMatrix type="matrix" values="0 0 0 0 0 0 0 0 0 0 0 0 0 0 0 0 0 0 1 0"/>
<feBlend mode="normal" in2="BackgroundImageFix" result="effect1_dropShadow_147_518"/>
<feBlend mode="normal" in="SourceGraphic" in2="effect1_dropShadow_147_518" result="shape"/>
</filter>
<filter id="filter1_d_147_518" x="433" y="160" width="197" height="147" filterUnits="userSpaceOnUse" color-interpolation-filters="sRGB">
<feFlood flood-opacity="0" result="BackgroundImageFix"/>
<feColorMatrix in="SourceAlpha" type="matrix" values="0 0 0 0 0 0 0 0 0 0 0 0 0 0 0 0 0 0 127 0" result="hardAlpha"/>
<feOffset dx="3" dy="3"/>
<feColorMatrix type="matrix" values="0 0 0 0 0 0 0 0 0 0 0 0 0 0 0 0 0 0 1 0"/>
<feBlend mode="normal" in2="BackgroundImageFix" result="effect1_dropShadow_147_518"/>
<feBlend mode="normal" in="SourceGraphic" in2="effect1_dropShadow_147_518" result="shape"/>
</filter>
<filter id="filter2_d_147_518" x="433" y="384" width="197" height="83" filterUnits="userSpaceOnUse" color-interpolation-filters="sRGB">
<feFlood flood-opacity="0" result="BackgroundImageFix"/>
<feColorMatrix in="SourceAlpha" type="matrix" values="0 0 0 0 0 0 0 0 0 0 0 0 0 0 0 0 0 0 127 0" result="hardAlpha"/>
<feOffset dx="3" dy="3"/>
<feColorMatrix type="matrix" values="0 0 0 0 0 0 0 0 0 0 0 0 0 0 0 0 0 0 1 0"/>
<feBlend mode="normal" in2="BackgroundImageFix" result="effect1_dropShadow_147_518"/>
<feBlend mode="normal" in="SourceGraphic" in2="effect1_dropShadow_147_518" result="shape"/>
</filter>
<filter id="filter3_d_147_518" x="433" y="544" width="197" height="115" filterUnits="userSpaceOnUse" color-interpolation-filters="sRGB">
<feFlood flood-opacity="0" result="BackgroundImageFix"/>
<feColorMatrix in="SourceAlpha" type="matrix" values="0 0 0 0 0 0 0 0 0 0 0 0 0 0 0 0 0 0 127 0" result="hardAlpha"/>
<feOffset dx="3" dy="3"/>
<feColorMatrix type="matrix" values="0 0 0 0 0 0 0 0 0 0 0 0 0 0 0 0 0 0 1 0"/>
<feBlend mode="normal" in2="BackgroundImageFix" result="effect1_dropShadow_147_518"/>
<feBlend mode="normal" in="SourceGraphic" in2="effect1_dropShadow_147_518" result="shape"/>
</filter>
<filter id="filter4_d_147_518" x="0" y="15" width="157" height="51" filterUnits="userSpaceOnUse" color-interpolation-filters="sRGB">
<feFlood flood-opacity="0" result="BackgroundImageFix"/>
<feColorMatrix in="SourceAlpha" type="matrix" values="0 0 0 0 0 0 0 0 0 0 0 0 0 0 0 0 0 0 127 0" result="hardAlpha"/>
<feOffset dx="3" dy="3"/>
<feColorMatrix type="matrix" values="0 0 0 0 0 0 0 0 0 0 0 0 0 0 0 0 0 0 1 0"/>
<feBlend mode="normal" in2="BackgroundImageFix" result="effect1_dropShadow_147_518"/>
<feBlend mode="normal" in="SourceGraphic" in2="effect1_dropShadow_147_518" result="shape"/>
</filter>
<filter id="filter5_d_147_518" x="910" y="668" width="116" height="61" filterUnits="userSpaceOnUse" color-interpolation-filters="sRGB">
<feFlood flood-opacity="0" result="BackgroundImageFix"/>
<feColorMatrix in="SourceAlpha" type="matrix" values="0 0 0 0 0 0 0 0 0 0 0 0 0 0 0 0 0 0 127 0" result="hardAlpha"/>
<feOffset dx="3" dy="3"/>
<feColorMatrix type="matrix" values="0 0 0 0 0 0 0 0 0 0 0 0 0 0 0 0 0 0 1 0"/>
<feBlend mode="normal" in2="BackgroundImageFix" result="effect1_dropShadow_147_518"/>
<feBlend mode="normal" in="SourceGraphic" in2="effect1_dropShadow_147_518" result="shape"/>
</filter>
</defs>
</svg>
