<svg width="259" height="789" viewBox="0 0 259 789" fill="none" xmlns="http://www.w3.org/2000/svg">
<g filter="url(#filter0_d_147_518)">
<rect x="9" y="101.255" width="194" height="36" fill="white"/>
<path d="M44.7219 125.247L44.7299 123.759L49.7459 119.263C50.1512 118.906 50.4259 118.564 50.5699 118.239C50.7192 117.914 50.7939 117.588 50.7939 117.263C50.7939 116.852 50.7032 116.484 50.5219 116.159C50.3405 115.828 50.0899 115.567 49.7699 115.375C49.4499 115.183 49.0819 115.087 48.6659 115.087C48.2392 115.087 47.8579 115.188 47.5219 115.391C47.1912 115.588 46.9325 115.852 46.7459 116.183C46.5592 116.514 46.4685 116.871 46.4739 117.255H44.7619C44.7619 116.508 44.9299 115.855 45.2659 115.295C45.6072 114.73 46.0739 114.29 46.6659 113.975C47.2579 113.655 47.9352 113.495 48.6979 113.495C49.4232 113.495 50.0739 113.66 50.6499 113.991C51.2259 114.316 51.6792 114.764 52.0099 115.335C52.3459 115.906 52.5139 116.556 52.5139 117.287C52.5139 117.815 52.4445 118.263 52.3059 118.631C52.1672 118.999 51.9592 119.34 51.6819 119.655C51.4045 119.97 51.0579 120.311 50.6419 120.679L46.7699 124.135L46.5859 123.655H52.5139V125.247H44.7219ZM58.4485 125.495C57.6645 125.495 56.9712 125.324 56.3685 124.983C55.7658 124.636 55.2912 124.162 54.9445 123.559C54.6032 122.956 54.4325 122.263 54.4325 121.479V117.511C54.4325 116.727 54.6032 116.034 54.9445 115.431C55.2912 114.828 55.7658 114.356 56.3685 114.015C56.9712 113.668 57.6645 113.495 58.4485 113.495C59.2325 113.495 59.9258 113.668 60.5285 114.015C61.1312 114.356 61.6032 114.828 61.9445 115.431C62.2912 116.034 62.4645 116.727 62.4645 117.511V121.479C62.4645 122.263 62.2912 122.956 61.9445 123.559C61.6032 124.162 61.1312 124.636 60.5285 124.983C59.9258 125.324 59.2325 125.495 58.4485 125.495ZM58.4485 123.895C58.8752 123.895 59.2618 123.794 59.6085 123.591C59.9605 123.383 60.2405 123.106 60.4485 122.759C60.6565 122.407 60.7605 122.015 60.7605 121.583V117.391C60.7605 116.964 60.6565 116.578 60.4485 116.231C60.2405 115.879 59.9605 115.602 59.6085 115.399C59.2618 115.191 58.8752 115.087 58.4485 115.087C58.0218 115.087 57.6325 115.191 57.2805 115.399C56.9338 115.602 56.6565 115.879 56.4485 116.231C56.2405 116.578 56.1365 116.964 56.1365 117.391V121.583C56.1365 122.015 56.2405 122.407 56.4485 122.759C56.6565 123.106 56.9338 123.383 57.2805 123.591C57.6325 123.794 58.0218 123.895 58.4485 123.895ZM64.5381 120.879V119.535H69.3381V120.879H64.5381ZM81.7689 125.255L81.7769 119.871C81.7769 119.247 81.6169 118.762 81.2969 118.415C80.9769 118.063 80.5555 117.887 80.0329 117.887C79.7129 117.887 79.4195 117.962 79.1529 118.111C78.8915 118.255 78.6782 118.474 78.5129 118.767C78.3529 119.055 78.2729 119.418 78.2729 119.855L77.4649 119.447C77.4542 118.839 77.5822 118.306 77.8489 117.847C78.1209 117.388 78.4889 117.034 78.9529 116.783C79.4169 116.527 79.9369 116.399 80.5129 116.399C81.4462 116.399 82.1689 116.679 82.6809 117.239C83.1929 117.799 83.4489 118.543 83.4489 119.471L83.4409 125.255H81.7689ZM71.4089 125.255V116.615H72.8969V119.111H73.0889V125.255H71.4089ZM76.5929 125.255L76.6009 119.903C76.6009 119.274 76.4409 118.78 76.1209 118.423C75.8062 118.066 75.3822 117.887 74.8489 117.887C74.3209 117.887 73.8942 118.068 73.5689 118.431C73.2489 118.794 73.0889 119.268 73.0889 119.855L72.2889 119.343C72.2889 118.778 72.4249 118.274 72.6969 117.831C72.9689 117.388 73.3369 117.039 73.8009 116.783C74.2649 116.527 74.7902 116.399 75.3769 116.399C75.9902 116.399 76.5129 116.53 76.9449 116.791C77.3769 117.047 77.7049 117.407 77.9289 117.871C78.1582 118.335 78.2729 118.874 78.2729 119.487L78.2649 125.255H76.5929ZM85.6863 115.199V113.575H87.3583V115.199H85.6863ZM85.6863 125.255V116.615H87.3583V125.255H85.6863ZM95.8246 125.255V121.007C95.8246 120.671 95.7953 120.327 95.7366 119.975C95.6833 119.618 95.5766 119.287 95.4166 118.983C95.262 118.679 95.0406 118.434 94.7526 118.247C94.47 118.06 94.0993 117.967 93.6406 117.967C93.342 117.967 93.0593 118.018 92.7926 118.119C92.526 118.215 92.2913 118.372 92.0886 118.591C91.8913 118.81 91.734 119.098 91.6166 119.455C91.5046 119.812 91.4486 120.247 91.4486 120.759L90.4086 120.367C90.4086 119.583 90.5553 118.892 90.8486 118.295C91.142 117.692 91.5633 117.223 92.1126 116.887C92.662 116.551 93.326 116.383 94.1046 116.383C94.702 116.383 95.2033 116.479 95.6086 116.671C96.014 116.863 96.342 117.116 96.5926 117.431C96.8486 117.74 97.0433 118.079 97.1766 118.447C97.31 118.815 97.4006 119.175 97.4486 119.527C97.4966 119.879 97.5206 120.188 97.5206 120.455V125.255H95.8246ZM89.7526 125.255V116.615H91.2486V119.111H91.4486V125.255H89.7526ZM102.968 115.199V113.575H104.64V115.199H102.968ZM102.968 125.255V116.615H104.64V125.255H102.968ZM113.106 125.255V121.007C113.106 120.671 113.077 120.327 113.018 119.975C112.965 119.618 112.858 119.287 112.698 118.983C112.543 118.679 112.322 118.434 112.034 118.247C111.751 118.06 111.381 117.967 110.922 117.967C110.623 117.967 110.341 118.018 110.074 118.119C109.807 118.215 109.573 118.372 109.37 118.591C109.173 118.81 109.015 119.098 108.898 119.455C108.786 119.812 108.73 120.247 108.73 120.759L107.69 120.367C107.69 119.583 107.837 118.892 108.13 118.295C108.423 117.692 108.845 117.223 109.394 116.887C109.943 116.551 110.607 116.383 111.386 116.383C111.983 116.383 112.485 116.479 112.89 116.671C113.295 116.863 113.623 117.116 113.874 117.431C114.13 117.74 114.325 118.079 114.458 118.447C114.591 118.815 114.682 119.175 114.73 119.527C114.778 119.879 114.802 120.188 114.802 120.455V125.255H113.106ZM107.034 125.255V116.615H108.53V119.111H108.73V125.255H107.034ZM121.83 125.255C121.286 125.362 120.752 125.407 120.23 125.391C119.707 125.375 119.24 125.274 118.83 125.087C118.419 124.9 118.11 124.607 117.902 124.207C117.715 123.85 117.614 123.487 117.598 123.119C117.587 122.746 117.582 122.324 117.582 121.855V114.215H119.262V121.775C119.262 122.122 119.264 122.423 119.27 122.679C119.28 122.935 119.336 123.151 119.438 123.327C119.63 123.658 119.934 123.847 120.35 123.895C120.771 123.938 121.264 123.919 121.83 123.839V125.255ZM115.926 117.959V116.615H121.83V117.959H115.926ZM123.651 125.255V116.615H125.139V118.711L124.931 118.439C125.038 118.162 125.177 117.908 125.347 117.679C125.518 117.444 125.715 117.252 125.939 117.103C126.158 116.943 126.401 116.82 126.667 116.735C126.939 116.644 127.217 116.591 127.499 116.575C127.782 116.554 128.054 116.567 128.315 116.615V118.183C128.033 118.108 127.718 118.087 127.371 118.119C127.03 118.151 126.715 118.26 126.427 118.447C126.155 118.623 125.939 118.836 125.779 119.087C125.625 119.338 125.513 119.618 125.443 119.927C125.374 120.231 125.339 120.554 125.339 120.895V125.255H123.651ZM133.435 125.495C132.571 125.495 131.821 125.3 131.187 124.911C130.552 124.522 130.061 123.986 129.715 123.303C129.373 122.615 129.203 121.823 129.203 120.927C129.203 120.026 129.379 119.234 129.731 118.551C130.083 117.863 130.576 117.33 131.211 116.951C131.845 116.567 132.587 116.375 133.435 116.375C134.299 116.375 135.048 116.57 135.683 116.959C136.317 117.348 136.808 117.884 137.155 118.567C137.501 119.25 137.675 120.036 137.675 120.927C137.675 121.828 137.499 122.623 137.147 123.311C136.8 123.994 136.309 124.53 135.675 124.919C135.04 125.303 134.293 125.495 133.435 125.495ZM133.435 123.919C134.261 123.919 134.877 123.642 135.283 123.087C135.693 122.527 135.899 121.807 135.899 120.927C135.899 120.026 135.691 119.306 135.275 118.767C134.864 118.223 134.251 117.951 133.435 117.951C132.875 117.951 132.413 118.079 132.051 118.335C131.688 118.586 131.419 118.935 131.243 119.383C131.067 119.826 130.979 120.34 130.979 120.927C130.979 121.834 131.187 122.559 131.603 123.103C132.019 123.647 132.629 123.919 133.435 123.919ZM146.332 125.495C145.446 125.495 144.694 125.298 144.076 124.903C143.457 124.508 142.982 123.967 142.652 123.279C142.326 122.591 142.161 121.81 142.156 120.935C142.161 120.044 142.332 119.258 142.668 118.575C143.004 117.887 143.484 117.348 144.108 116.959C144.732 116.57 145.481 116.375 146.356 116.375C147.3 116.375 148.105 116.61 148.772 117.079C149.444 117.548 149.886 118.191 150.1 119.007L148.436 119.487C148.27 119.002 147.998 118.626 147.62 118.359C147.246 118.087 146.817 117.951 146.332 117.951C145.782 117.951 145.332 118.082 144.98 118.343C144.628 118.599 144.366 118.951 144.196 119.399C144.025 119.847 143.937 120.359 143.932 120.935C143.937 121.826 144.14 122.546 144.54 123.095C144.945 123.644 145.542 123.919 146.332 123.919C146.87 123.919 147.305 123.796 147.636 123.551C147.972 123.3 148.228 122.943 148.404 122.479L150.1 122.879C149.817 123.722 149.35 124.37 148.7 124.823C148.049 125.271 147.26 125.495 146.332 125.495ZM154.06 125.495C153.42 125.495 152.884 125.378 152.452 125.143C152.02 124.903 151.692 124.588 151.468 124.199C151.249 123.804 151.14 123.372 151.14 122.903C151.14 122.466 151.217 122.082 151.372 121.751C151.527 121.42 151.756 121.14 152.06 120.911C152.364 120.676 152.737 120.487 153.18 120.343C153.564 120.231 153.999 120.132 154.484 120.047C154.969 119.962 155.479 119.882 156.012 119.807C156.551 119.732 157.084 119.658 157.612 119.583L157.004 119.919C157.015 119.242 156.871 118.74 156.572 118.415C156.279 118.084 155.772 117.919 155.052 117.919C154.599 117.919 154.183 118.026 153.804 118.239C153.425 118.447 153.161 118.794 153.012 119.279L151.452 118.799C151.665 118.058 152.071 117.468 152.668 117.031C153.271 116.594 154.071 116.375 155.068 116.375C155.841 116.375 156.513 116.508 157.084 116.775C157.66 117.036 158.081 117.452 158.348 118.023C158.487 118.306 158.572 118.604 158.604 118.919C158.636 119.234 158.652 119.572 158.652 119.935V125.255H157.172V123.279L157.46 123.535C157.103 124.196 156.647 124.69 156.092 125.015C155.543 125.335 154.865 125.495 154.06 125.495ZM154.356 124.127C154.831 124.127 155.239 124.044 155.58 123.879C155.921 123.708 156.196 123.492 156.404 123.231C156.612 122.97 156.748 122.698 156.812 122.415C156.903 122.159 156.953 121.871 156.964 121.551C156.98 121.231 156.988 120.975 156.988 120.783L157.532 120.983C157.004 121.063 156.524 121.135 156.092 121.199C155.66 121.263 155.268 121.327 154.916 121.391C154.569 121.45 154.26 121.522 153.988 121.607C153.759 121.687 153.553 121.783 153.372 121.895C153.196 122.007 153.055 122.143 152.948 122.303C152.847 122.463 152.796 122.658 152.796 122.887C152.796 123.111 152.852 123.319 152.964 123.511C153.076 123.698 153.247 123.847 153.476 123.959C153.705 124.071 153.999 124.127 154.356 124.127ZM160.889 125.255V113.495H162.561V125.255H160.889ZM165.124 125.255V113.495H166.796V125.255H165.124Z" fill="#2A2F45"/>
<rect x="10" y="102.255" width="192" height="34" stroke="#2A2F45" stroke-width="2"/>
</g>
<g filter="url(#filter1_d_147_518)">
<rect x="9" y="217.255" width="194" height="76" fill="white"/>
<path d="M27.6191 241.495C26.8724 241.495 26.2004 241.319 25.6031 240.967C25.0057 240.61 24.5311 240.122 24.1791 239.503C23.8324 238.884 23.6591 238.18 23.6591 237.391V233.719C23.6591 232.882 23.8324 232.146 24.1791 231.511C24.5311 230.876 25.0164 230.383 25.6351 230.031C26.2591 229.679 26.9764 229.503 27.7871 229.503C28.3951 229.503 28.9657 229.618 29.4991 229.847C30.0324 230.076 30.4937 230.418 30.8831 230.871L29.6591 232.015C29.4404 231.732 29.1657 231.508 28.8351 231.343C28.5097 231.172 28.1604 231.087 27.7871 231.087C27.3071 231.087 26.8857 231.202 26.5231 231.431C26.1604 231.655 25.8751 231.951 25.6671 232.319C25.4644 232.687 25.3631 233.082 25.3631 233.503V235.615L25.0351 235.247C25.3657 234.815 25.7764 234.474 26.2671 234.223C26.7577 233.972 27.2831 233.847 27.8431 233.847C28.5577 233.847 29.1951 234.015 29.7551 234.351C30.3204 234.682 30.7631 235.132 31.0831 235.703C31.4084 236.274 31.5711 236.916 31.5711 237.631C31.5711 238.351 31.3897 239.004 31.0271 239.591C30.6697 240.172 30.1897 240.636 29.5871 240.983C28.9897 241.324 28.3337 241.495 27.6191 241.495ZM27.6191 239.887C28.0351 239.887 28.4137 239.786 28.7551 239.583C29.0964 239.38 29.3684 239.108 29.5711 238.767C29.7737 238.426 29.8751 238.047 29.8751 237.631C29.8751 237.215 29.7737 236.836 29.5711 236.495C29.3737 236.154 29.1044 235.882 28.7631 235.679C28.4217 235.476 28.0431 235.375 27.6271 235.375C27.2111 235.375 26.8297 235.476 26.4831 235.679C26.1417 235.882 25.8697 236.154 25.6671 236.495C25.4644 236.836 25.3631 237.215 25.3631 237.631C25.3631 238.042 25.4644 238.418 25.6671 238.759C25.8697 239.1 26.1417 239.375 26.4831 239.583C26.8244 239.786 27.2031 239.887 27.6191 239.887ZM37.6126 241.495C36.8286 241.495 36.1352 241.324 35.5326 240.983C34.9299 240.636 34.4552 240.162 34.1086 239.559C33.7672 238.956 33.5966 238.263 33.5966 237.479V233.511C33.5966 232.727 33.7672 232.034 34.1086 231.431C34.4552 230.828 34.9299 230.356 35.5326 230.015C36.1352 229.668 36.8286 229.495 37.6126 229.495C38.3966 229.495 39.0899 229.668 39.6926 230.015C40.2952 230.356 40.7672 230.828 41.1086 231.431C41.4552 232.034 41.6286 232.727 41.6286 233.511V237.479C41.6286 238.263 41.4552 238.956 41.1086 239.559C40.7672 240.162 40.2952 240.636 39.6926 240.983C39.0899 241.324 38.3966 241.495 37.6126 241.495ZM37.6126 239.895C38.0392 239.895 38.4259 239.794 38.7726 239.591C39.1246 239.383 39.4046 239.106 39.6126 238.759C39.8206 238.407 39.9246 238.015 39.9246 237.583V233.391C39.9246 232.964 39.8206 232.578 39.6126 232.231C39.4046 231.879 39.1246 231.602 38.7726 231.399C38.4259 231.191 38.0392 231.087 37.6126 231.087C37.1859 231.087 36.7966 231.191 36.4446 231.399C36.0979 231.602 35.8206 231.879 35.6126 232.231C35.4046 232.578 35.3006 232.964 35.3006 233.391V237.583C35.3006 238.015 35.4046 238.407 35.6126 238.759C35.8206 239.106 36.0979 239.383 36.4446 239.591C36.7966 239.794 37.1859 239.895 37.6126 239.895ZM43.7022 236.879V235.535H48.5022V236.879H43.7022ZM60.9329 241.255L60.9409 235.871C60.9409 235.247 60.7809 234.762 60.4609 234.415C60.1409 234.063 59.7196 233.887 59.1969 233.887C58.8769 233.887 58.5836 233.962 58.3169 234.111C58.0556 234.255 57.8423 234.474 57.6769 234.767C57.5169 235.055 57.4369 235.418 57.4369 235.855L56.6289 235.447C56.6183 234.839 56.7463 234.306 57.0129 233.847C57.2849 233.388 57.6529 233.034 58.1169 232.783C58.5809 232.527 59.1009 232.399 59.6769 232.399C60.6103 232.399 61.3329 232.679 61.8449 233.239C62.3569 233.799 62.6129 234.543 62.6129 235.471L62.6049 241.255H60.9329ZM50.5729 241.255V232.615H52.0609V235.111H52.2529V241.255H50.5729ZM55.7569 241.255L55.7649 235.903C55.7649 235.274 55.6049 234.78 55.2849 234.423C54.9703 234.066 54.5463 233.887 54.0129 233.887C53.4849 233.887 53.0583 234.068 52.7329 234.431C52.4129 234.794 52.2529 235.268 52.2529 235.855L51.4529 235.343C51.4529 234.778 51.5889 234.274 51.8609 233.831C52.1329 233.388 52.5009 233.039 52.9649 232.783C53.4289 232.527 53.9543 232.399 54.5409 232.399C55.1543 232.399 55.6769 232.53 56.1089 232.791C56.5409 233.047 56.8689 233.407 57.0929 233.871C57.3223 234.335 57.4369 234.874 57.4369 235.487L57.4289 241.255H55.7569ZM64.8503 231.199V229.575H66.5223V231.199H64.8503ZM64.8503 241.255V232.615H66.5223V241.255H64.8503ZM74.9887 241.255V237.007C74.9887 236.671 74.9594 236.327 74.9007 235.975C74.8474 235.618 74.7407 235.287 74.5807 234.983C74.426 234.679 74.2047 234.434 73.9167 234.247C73.634 234.06 73.2634 233.967 72.8047 233.967C72.506 233.967 72.2234 234.018 71.9567 234.119C71.69 234.215 71.4554 234.372 71.2527 234.591C71.0554 234.81 70.898 235.098 70.7807 235.455C70.6687 235.812 70.6127 236.247 70.6127 236.759L69.5727 236.367C69.5727 235.583 69.7194 234.892 70.0127 234.295C70.306 233.692 70.7274 233.223 71.2767 232.887C71.826 232.551 72.49 232.383 73.2687 232.383C73.866 232.383 74.3674 232.479 74.7727 232.671C75.178 232.863 75.506 233.116 75.7567 233.431C76.0127 233.74 76.2074 234.079 76.3407 234.447C76.474 234.815 76.5647 235.175 76.6127 235.527C76.6607 235.879 76.6847 236.188 76.6847 236.455V241.255H74.9887ZM68.9167 241.255V232.615H70.4127V235.111H70.6127V241.255H68.9167ZM85.2756 241.487C84.2249 241.487 83.3689 241.255 82.7076 240.791C82.0462 240.327 81.6409 239.674 81.4916 238.831L83.2036 238.567C83.3102 239.015 83.5556 239.37 83.9396 239.631C84.3289 239.887 84.8116 240.015 85.3876 240.015C85.9102 240.015 86.3182 239.908 86.6116 239.695C86.9102 239.482 87.0596 239.188 87.0596 238.815C87.0596 238.596 87.0062 238.42 86.8996 238.287C86.7982 238.148 86.5822 238.018 86.2516 237.895C85.9209 237.772 85.4169 237.62 84.7396 237.439C83.9982 237.247 83.4089 237.042 82.9716 236.823C82.5396 236.599 82.2302 236.34 82.0436 236.047C81.8622 235.748 81.7716 235.388 81.7716 234.967C81.7716 234.444 81.9102 233.988 82.1876 233.599C82.4649 233.21 82.8542 232.908 83.3556 232.695C83.8622 232.482 84.4542 232.375 85.1316 232.375C85.7929 232.375 86.3822 232.479 86.8996 232.687C87.4169 232.895 87.8356 233.191 88.1556 233.575C88.4756 233.954 88.6676 234.399 88.7316 234.911L87.0196 235.223C86.9609 234.807 86.7662 234.479 86.4356 234.239C86.1049 233.999 85.6756 233.868 85.1476 233.847C84.6409 233.826 84.2302 233.911 83.9156 234.103C83.6009 234.29 83.4436 234.548 83.4436 234.879C83.4436 235.071 83.5022 235.234 83.6196 235.367C83.7422 235.5 83.9769 235.628 84.3236 235.751C84.6702 235.874 85.1822 236.02 85.8596 236.191C86.5849 236.378 87.1609 236.586 87.5876 236.815C88.0142 237.039 88.3182 237.308 88.4996 237.623C88.6862 237.932 88.7796 238.308 88.7796 238.751C88.7796 239.604 88.4676 240.274 87.8436 240.759C87.2249 241.244 86.3689 241.487 85.2756 241.487ZM90.5417 241.255L90.5497 229.735H92.2457V236.775L95.6377 232.615H97.7657L94.1817 236.935L98.1337 241.255H95.8617L92.2457 237.095V241.255H90.5417ZM99.1003 231.199V229.575H100.772V231.199H99.1003ZM99.1003 241.255V232.615H100.772V241.255H99.1003ZM103.335 241.255V229.495H105.007V241.255H103.335ZM107.569 241.255V229.495H109.241V241.255H107.569ZM118.543 241.495C117.657 241.495 116.905 241.298 116.287 240.903C115.668 240.508 115.193 239.967 114.863 239.279C114.537 238.591 114.372 237.81 114.367 236.935C114.372 236.044 114.543 235.258 114.879 234.575C115.215 233.887 115.695 233.348 116.319 232.959C116.943 232.57 117.692 232.375 118.567 232.375C119.511 232.375 120.316 232.61 120.983 233.079C121.655 233.548 122.097 234.191 122.311 235.007L120.647 235.487C120.481 235.002 120.209 234.626 119.831 234.359C119.457 234.087 119.028 233.951 118.543 233.951C117.993 233.951 117.543 234.082 117.191 234.343C116.839 234.599 116.577 234.951 116.407 235.399C116.236 235.847 116.148 236.359 116.143 236.935C116.148 237.826 116.351 238.546 116.751 239.095C117.156 239.644 117.753 239.919 118.543 239.919C119.081 239.919 119.516 239.796 119.847 239.551C120.183 239.3 120.439 238.943 120.615 238.479L122.311 238.879C122.028 239.722 121.561 240.37 120.911 240.823C120.26 241.271 119.471 241.495 118.543 241.495ZM130.004 241.255V237.007C130.004 236.671 129.975 236.327 129.916 235.975C129.863 235.618 129.756 235.287 129.596 234.983C129.442 234.679 129.22 234.434 128.932 234.247C128.65 234.06 128.279 233.967 127.82 233.967C127.522 233.967 127.239 234.018 126.972 234.119C126.706 234.215 126.471 234.372 126.268 234.591C126.071 234.81 125.914 235.098 125.796 235.455C125.684 235.812 125.628 236.247 125.628 236.759L124.588 236.367C124.588 235.583 124.735 234.892 125.028 234.295C125.322 233.692 125.743 233.223 126.292 232.887C126.842 232.551 127.506 232.383 128.284 232.383C128.882 232.383 129.383 232.479 129.788 232.671C130.194 232.863 130.522 233.116 130.772 233.431C131.028 233.74 131.223 234.079 131.356 234.447C131.49 234.815 131.58 235.175 131.628 235.527C131.676 235.879 131.7 236.188 131.7 236.455V241.255H130.004ZM123.932 241.255V229.735H125.428V235.951H125.628V241.255H123.932ZM137.616 241.495C136.757 241.495 136.003 241.308 135.352 240.935C134.707 240.556 134.203 240.031 133.84 239.359C133.483 238.682 133.304 237.898 133.304 237.007C133.304 236.063 133.48 235.244 133.832 234.551C134.189 233.858 134.685 233.322 135.32 232.943C135.955 232.564 136.693 232.375 137.536 232.375C138.416 232.375 139.165 232.58 139.784 232.991C140.403 233.396 140.864 233.975 141.168 234.727C141.477 235.479 141.6 236.372 141.536 237.407H139.864V236.799C139.853 235.796 139.661 235.055 139.288 234.575C138.92 234.095 138.357 233.855 137.6 233.855C136.763 233.855 136.133 234.119 135.712 234.647C135.291 235.175 135.08 235.938 135.08 236.935C135.08 237.884 135.291 238.62 135.712 239.143C136.133 239.66 136.741 239.919 137.536 239.919C138.059 239.919 138.509 239.802 138.888 239.567C139.272 239.327 139.571 238.986 139.784 238.543L141.424 239.063C141.088 239.836 140.579 240.436 139.896 240.863C139.213 241.284 138.453 241.495 137.616 241.495ZM134.536 237.407V236.103H140.704V237.407H134.536ZM147.027 241.495C146.142 241.495 145.39 241.298 144.771 240.903C144.152 240.508 143.678 239.967 143.347 239.279C143.022 238.591 142.856 237.81 142.851 236.935C142.856 236.044 143.027 235.258 143.363 234.575C143.699 233.887 144.179 233.348 144.803 232.959C145.427 232.57 146.176 232.375 147.051 232.375C147.995 232.375 148.8 232.61 149.467 233.079C150.139 233.548 150.582 234.191 150.795 235.007L149.131 235.487C148.966 235.002 148.694 234.626 148.315 234.359C147.942 234.087 147.512 233.951 147.027 233.951C146.478 233.951 146.027 234.082 145.675 234.343C145.323 234.599 145.062 234.951 144.891 235.399C144.72 235.847 144.632 236.359 144.627 236.935C144.632 237.826 144.835 238.546 145.235 239.095C145.64 239.644 146.238 239.919 147.027 239.919C147.566 239.919 148 239.796 148.331 239.551C148.667 239.3 148.923 238.943 149.099 238.479L150.795 238.879C150.512 239.722 150.046 240.37 149.395 240.823C148.744 241.271 147.955 241.495 147.027 241.495ZM152.417 241.255L152.425 229.735H154.121V236.775L157.513 232.615H159.641L156.057 236.935L160.009 241.255H157.737L154.121 237.095V241.255H152.417ZM167.714 241.495C166.829 241.495 166.077 241.298 165.458 240.903C164.84 240.508 164.365 239.967 164.034 239.279C163.709 238.591 163.544 237.81 163.538 236.935C163.544 236.044 163.714 235.258 164.05 234.575C164.386 233.887 164.866 233.348 165.49 232.959C166.114 232.57 166.864 232.375 167.738 232.375C168.682 232.375 169.488 232.61 170.154 233.079C170.826 233.548 171.269 234.191 171.482 235.007L169.818 235.487C169.653 235.002 169.381 234.626 169.002 234.359C168.629 234.087 168.2 233.951 167.714 233.951C167.165 233.951 166.714 234.082 166.362 234.343C166.01 234.599 165.749 234.951 165.578 235.399C165.408 235.847 165.32 236.359 165.314 236.935C165.32 237.826 165.522 238.546 165.922 239.095C166.328 239.644 166.925 239.919 167.714 239.919C168.253 239.919 168.688 239.796 169.018 239.551C169.354 239.3 169.61 238.943 169.786 238.479L171.482 238.879C171.2 239.722 170.733 240.37 170.082 240.823C169.432 241.271 168.642 241.495 167.714 241.495ZM175.443 241.495C174.803 241.495 174.267 241.378 173.835 241.143C173.403 240.903 173.075 240.588 172.851 240.199C172.632 239.804 172.523 239.372 172.523 238.903C172.523 238.466 172.6 238.082 172.755 237.751C172.909 237.42 173.139 237.14 173.443 236.911C173.747 236.676 174.12 236.487 174.563 236.343C174.947 236.231 175.381 236.132 175.867 236.047C176.352 235.962 176.861 235.882 177.395 235.807C177.933 235.732 178.467 235.658 178.995 235.583L178.387 235.919C178.397 235.242 178.253 234.74 177.955 234.415C177.661 234.084 177.155 233.919 176.435 233.919C175.981 233.919 175.565 234.026 175.187 234.239C174.808 234.447 174.544 234.794 174.395 235.279L172.835 234.799C173.048 234.058 173.453 233.468 174.051 233.031C174.653 232.594 175.453 232.375 176.451 232.375C177.224 232.375 177.896 232.508 178.467 232.775C179.043 233.036 179.464 233.452 179.731 234.023C179.869 234.306 179.955 234.604 179.987 234.919C180.019 235.234 180.035 235.572 180.035 235.935V241.255H178.555V239.279L178.843 239.535C178.485 240.196 178.029 240.69 177.475 241.015C176.925 241.335 176.248 241.495 175.443 241.495ZM175.739 240.127C176.213 240.127 176.621 240.044 176.963 239.879C177.304 239.708 177.579 239.492 177.787 239.231C177.995 238.97 178.131 238.698 178.195 238.415C178.285 238.159 178.336 237.871 178.347 237.551C178.363 237.231 178.371 236.975 178.371 236.783L178.915 236.983C178.387 237.063 177.907 237.135 177.475 237.199C177.043 237.263 176.651 237.327 176.299 237.391C175.952 237.45 175.643 237.522 175.371 237.607C175.141 237.687 174.936 237.783 174.755 237.895C174.579 238.007 174.437 238.143 174.331 238.303C174.229 238.463 174.179 238.658 174.179 238.887C174.179 239.111 174.235 239.319 174.347 239.511C174.459 239.698 174.629 239.847 174.859 239.959C175.088 240.071 175.381 240.127 175.739 240.127ZM182.272 241.255V229.495H183.944V241.255H182.272ZM186.507 241.255V229.495H188.179V241.255H186.507ZM61.7463 261.495C60.9196 261.495 60.2263 261.295 59.6663 260.895C59.1063 260.49 58.6823 259.943 58.3943 259.255C58.1063 258.567 57.9623 257.791 57.9623 256.927C57.9623 256.063 58.1036 255.287 58.3863 254.599C58.6743 253.911 59.0956 253.37 59.6503 252.975C60.2103 252.575 60.8983 252.375 61.7143 252.375C62.525 252.375 63.2236 252.575 63.8103 252.975C64.4023 253.37 64.8583 253.911 65.1783 254.599C65.4983 255.282 65.6583 256.058 65.6583 256.927C65.6583 257.791 65.4983 258.57 65.1783 259.263C64.8636 259.951 64.413 260.495 63.8263 260.895C63.245 261.295 62.5516 261.495 61.7463 261.495ZM57.6823 261.255V249.735H59.3623V255.039H59.1703V261.255H57.6823ZM61.5143 259.983C62.0476 259.983 62.4876 259.847 62.8343 259.575C63.1863 259.303 63.4476 258.938 63.6183 258.479C63.7943 258.015 63.8823 257.498 63.8823 256.927C63.8823 256.362 63.7943 255.85 63.6183 255.391C63.4476 254.932 63.1836 254.567 62.8263 254.295C62.469 254.023 62.013 253.887 61.4583 253.887C60.9356 253.887 60.5036 254.015 60.1623 254.271C59.8263 254.527 59.5756 254.884 59.4103 255.343C59.2503 255.802 59.1703 256.33 59.1703 256.927C59.1703 257.524 59.2503 258.052 59.4103 258.511C59.5703 258.97 59.8236 259.33 60.1703 259.591C60.517 259.852 60.965 259.983 61.5143 259.983ZM69.8647 261.495C69.2247 261.495 68.6887 261.378 68.2567 261.143C67.8247 260.903 67.4967 260.588 67.2727 260.199C67.054 259.804 66.9447 259.372 66.9447 258.903C66.9447 258.466 67.022 258.082 67.1767 257.751C67.3314 257.42 67.5607 257.14 67.8647 256.911C68.1687 256.676 68.542 256.487 68.9847 256.343C69.3687 256.231 69.8034 256.132 70.2887 256.047C70.774 255.962 71.2834 255.882 71.8167 255.807C72.3554 255.732 72.8887 255.658 73.4167 255.583L72.8087 255.919C72.8194 255.242 72.6754 254.74 72.3767 254.415C72.0834 254.084 71.5767 253.919 70.8567 253.919C70.4034 253.919 69.9874 254.026 69.6087 254.239C69.23 254.447 68.966 254.794 68.8167 255.279L67.2567 254.799C67.47 254.058 67.8754 253.468 68.4727 253.031C69.0754 252.594 69.8754 252.375 70.8727 252.375C71.646 252.375 72.318 252.508 72.8887 252.775C73.4647 253.036 73.886 253.452 74.1527 254.023C74.2914 254.306 74.3767 254.604 74.4087 254.919C74.4407 255.234 74.4567 255.572 74.4567 255.935V261.255H72.9767V259.279L73.2647 259.535C72.9074 260.196 72.4514 260.69 71.8967 261.015C71.3474 261.335 70.67 261.495 69.8647 261.495ZM70.1607 260.127C70.6354 260.127 71.0434 260.044 71.3847 259.879C71.726 259.708 72.0007 259.492 72.2087 259.231C72.4167 258.97 72.5527 258.698 72.6167 258.415C72.7074 258.159 72.758 257.871 72.7687 257.551C72.7847 257.231 72.7927 256.975 72.7927 256.783L73.3367 256.983C72.8087 257.063 72.3287 257.135 71.8967 257.199C71.4647 257.263 71.0727 257.327 70.7207 257.391C70.374 257.45 70.0647 257.522 69.7927 257.607C69.5634 257.687 69.358 257.783 69.1767 257.895C69.0007 258.007 68.8594 258.143 68.7527 258.303C68.6514 258.463 68.6007 258.658 68.6007 258.887C68.6007 259.111 68.6567 259.319 68.7687 259.511C68.8807 259.698 69.0514 259.847 69.2807 259.959C69.51 260.071 69.8034 260.127 70.1607 260.127ZM79.8381 261.487C78.7874 261.487 77.9314 261.255 77.2701 260.791C76.6087 260.327 76.2034 259.674 76.0541 258.831L77.7661 258.567C77.8727 259.015 78.1181 259.37 78.5021 259.631C78.8914 259.887 79.3741 260.015 79.9501 260.015C80.4727 260.015 80.8807 259.908 81.1741 259.695C81.4727 259.482 81.6221 259.188 81.6221 258.815C81.6221 258.596 81.5687 258.42 81.4621 258.287C81.3607 258.148 81.1447 258.018 80.8141 257.895C80.4834 257.772 79.9794 257.62 79.3021 257.439C78.5607 257.247 77.9714 257.042 77.5341 256.823C77.1021 256.599 76.7927 256.34 76.6061 256.047C76.4247 255.748 76.3341 255.388 76.3341 254.967C76.3341 254.444 76.4727 253.988 76.7501 253.599C77.0274 253.21 77.4167 252.908 77.9181 252.695C78.4247 252.482 79.0167 252.375 79.6941 252.375C80.3554 252.375 80.9447 252.479 81.4621 252.687C81.9794 252.895 82.3981 253.191 82.7181 253.575C83.0381 253.954 83.2301 254.399 83.2941 254.911L81.5821 255.223C81.5234 254.807 81.3287 254.479 80.9981 254.239C80.6674 253.999 80.2381 253.868 79.7101 253.847C79.2034 253.826 78.7927 253.911 78.4781 254.103C78.1634 254.29 78.0061 254.548 78.0061 254.879C78.0061 255.071 78.0647 255.234 78.1821 255.367C78.3047 255.5 78.5394 255.628 78.8861 255.751C79.2327 255.874 79.7447 256.02 80.4221 256.191C81.1474 256.378 81.7234 256.586 82.1501 256.815C82.5767 257.039 82.8807 257.308 83.0621 257.623C83.2487 257.932 83.3421 258.308 83.3421 258.751C83.3421 259.604 83.0301 260.274 82.4061 260.759C81.7874 261.244 80.9314 261.487 79.8381 261.487ZM88.9442 261.495C88.0855 261.495 87.3309 261.308 86.6802 260.935C86.0349 260.556 85.5309 260.031 85.1682 259.359C84.8109 258.682 84.6322 257.898 84.6322 257.007C84.6322 256.063 84.8082 255.244 85.1602 254.551C85.5175 253.858 86.0135 253.322 86.6482 252.943C87.2829 252.564 88.0215 252.375 88.8642 252.375C89.7442 252.375 90.4935 252.58 91.1122 252.991C91.7309 253.396 92.1922 253.975 92.4962 254.727C92.8055 255.479 92.9282 256.372 92.8642 257.407H91.1922V256.799C91.1815 255.796 90.9895 255.055 90.6162 254.575C90.2482 254.095 89.6855 253.855 88.9282 253.855C88.0909 253.855 87.4615 254.119 87.0402 254.647C86.6189 255.175 86.4082 255.938 86.4082 256.935C86.4082 257.884 86.6189 258.62 87.0402 259.143C87.4615 259.66 88.0695 259.919 88.8642 259.919C89.3869 259.919 89.8375 259.802 90.2162 259.567C90.6002 259.327 90.8989 258.986 91.1122 258.543L92.7522 259.063C92.4162 259.836 91.9069 260.436 91.2242 260.863C90.5415 261.284 89.7815 261.495 88.9442 261.495ZM85.8642 257.407V256.103H92.0322V257.407H85.8642ZM98.0911 261.495C97.2857 261.495 96.5897 261.295 96.0031 260.895C95.4217 260.495 94.9711 259.951 94.6511 259.263C94.3364 258.57 94.1791 257.791 94.1791 256.927C94.1791 256.058 94.3391 255.282 94.6591 254.599C94.9791 253.911 95.4324 253.37 96.0191 252.975C96.6111 252.575 97.3124 252.375 98.1231 252.375C98.9391 252.375 99.6244 252.575 100.179 252.975C100.739 253.37 101.16 253.911 101.443 254.599C101.731 255.287 101.875 256.063 101.875 256.927C101.875 257.791 101.731 258.567 101.443 259.255C101.155 259.943 100.731 260.49 100.171 260.895C99.6111 261.295 98.9177 261.495 98.0911 261.495ZM98.3231 259.983C98.8724 259.983 99.3204 259.852 99.6671 259.591C100.014 259.33 100.267 258.97 100.427 258.511C100.587 258.052 100.667 257.524 100.667 256.927C100.667 256.33 100.584 255.802 100.419 255.343C100.259 254.884 100.008 254.527 99.6671 254.271C99.3311 254.015 98.9017 253.887 98.3791 253.887C97.8244 253.887 97.3684 254.023 97.0111 254.295C96.6537 254.567 96.3871 254.932 96.2111 255.391C96.0404 255.85 95.9551 256.362 95.9551 256.927C95.9551 257.498 96.0404 258.015 96.2111 258.479C96.3871 258.938 96.6484 259.303 96.9951 259.575C97.3471 259.847 97.7897 259.983 98.3231 259.983ZM100.667 261.255V255.039H100.475V249.735H102.155V261.255H100.667ZM111.349 261.495C110.485 261.495 109.735 261.3 109.101 260.911C108.466 260.522 107.975 259.986 107.629 259.303C107.287 258.615 107.117 257.823 107.117 256.927C107.117 256.026 107.293 255.234 107.645 254.551C107.997 253.863 108.49 253.33 109.125 252.951C109.759 252.567 110.501 252.375 111.349 252.375C112.213 252.375 112.962 252.57 113.597 252.959C114.231 253.348 114.722 253.884 115.069 254.567C115.415 255.25 115.589 256.036 115.589 256.927C115.589 257.828 115.413 258.623 115.061 259.311C114.714 259.994 114.223 260.53 113.589 260.919C112.954 261.303 112.207 261.495 111.349 261.495ZM111.349 259.919C112.175 259.919 112.791 259.642 113.197 259.087C113.607 258.527 113.813 257.807 113.813 256.927C113.813 256.026 113.605 255.306 113.189 254.767C112.778 254.223 112.165 253.951 111.349 253.951C110.789 253.951 110.327 254.079 109.965 254.335C109.602 254.586 109.333 254.935 109.157 255.383C108.981 255.826 108.893 256.34 108.893 256.927C108.893 257.834 109.101 258.559 109.517 259.103C109.933 259.647 110.543 259.919 111.349 259.919ZM123.411 261.255V257.007C123.411 256.671 123.381 256.327 123.323 255.975C123.269 255.618 123.163 255.287 123.003 254.983C122.848 254.679 122.627 254.434 122.339 254.247C122.056 254.06 121.685 253.967 121.227 253.967C120.928 253.967 120.645 254.018 120.379 254.119C120.112 254.215 119.877 254.372 119.675 254.591C119.477 254.81 119.32 255.098 119.203 255.455C119.091 255.812 119.035 256.247 119.035 256.759L117.995 256.367C117.995 255.583 118.141 254.892 118.435 254.295C118.728 253.692 119.149 253.223 119.699 252.887C120.248 252.551 120.912 252.383 121.691 252.383C122.288 252.383 122.789 252.479 123.195 252.671C123.6 252.863 123.928 253.116 124.179 253.431C124.435 253.74 124.629 254.079 124.763 254.447C124.896 254.815 124.987 255.175 125.035 255.527C125.083 255.879 125.107 256.188 125.107 256.455V261.255H123.411ZM117.339 261.255V252.615H118.835V255.111H119.035V261.255H117.339ZM135.337 261.255C134.793 261.362 134.26 261.407 133.737 261.391C133.215 261.375 132.748 261.274 132.337 261.087C131.927 260.9 131.617 260.607 131.409 260.207C131.223 259.85 131.121 259.487 131.105 259.119C131.095 258.746 131.089 258.324 131.089 257.855V250.215H132.769V257.775C132.769 258.122 132.772 258.423 132.777 258.679C132.788 258.935 132.844 259.151 132.945 259.327C133.137 259.658 133.441 259.847 133.857 259.895C134.279 259.938 134.772 259.919 135.337 259.839V261.255ZM129.433 253.959V252.615H135.337V253.959H129.433ZM143.223 261.255V257.007C143.223 256.671 143.194 256.327 143.135 255.975C143.082 255.618 142.975 255.287 142.815 254.983C142.66 254.679 142.439 254.434 142.151 254.247C141.868 254.06 141.498 253.967 141.039 253.967C140.74 253.967 140.458 254.018 140.191 254.119C139.924 254.215 139.69 254.372 139.487 254.591C139.29 254.81 139.132 255.098 139.015 255.455C138.903 255.812 138.847 256.247 138.847 256.759L137.807 256.367C137.807 255.583 137.954 254.892 138.247 254.295C138.54 253.692 138.962 253.223 139.511 252.887C140.06 252.551 140.724 252.383 141.503 252.383C142.1 252.383 142.602 252.479 143.007 252.671C143.412 252.863 143.74 253.116 143.991 253.431C144.247 253.74 144.442 254.079 144.575 254.447C144.708 254.815 144.799 255.175 144.847 255.527C144.895 255.879 144.919 256.188 144.919 256.455V261.255H143.223ZM137.151 261.255V249.735H138.647V255.951H138.847V261.255H137.151ZM150.835 261.495C149.976 261.495 149.221 261.308 148.571 260.935C147.925 260.556 147.421 260.031 147.059 259.359C146.701 258.682 146.523 257.898 146.523 257.007C146.523 256.063 146.699 255.244 147.051 254.551C147.408 253.858 147.904 253.322 148.539 252.943C149.173 252.564 149.912 252.375 150.755 252.375C151.635 252.375 152.384 252.58 153.003 252.991C153.621 253.396 154.083 253.975 154.387 254.727C154.696 255.479 154.819 256.372 154.755 257.407H153.083V256.799C153.072 255.796 152.88 255.055 152.507 254.575C152.139 254.095 151.576 253.855 150.819 253.855C149.981 253.855 149.352 254.119 148.931 254.647C148.509 255.175 148.299 255.938 148.299 256.935C148.299 257.884 148.509 258.62 148.931 259.143C149.352 259.66 149.96 259.919 150.755 259.919C151.277 259.919 151.728 259.802 152.107 259.567C152.491 259.327 152.789 258.986 153.003 258.543L154.643 259.063C154.307 259.836 153.797 260.436 153.115 260.863C152.432 261.284 151.672 261.495 150.835 261.495ZM147.755 257.407V256.103H153.923V257.407H147.755ZM63.1147 281.495C62.4747 281.495 61.9387 281.378 61.5067 281.143C61.0747 280.903 60.7467 280.588 60.5227 280.199C60.304 279.804 60.1947 279.372 60.1947 278.903C60.1947 278.466 60.272 278.082 60.4267 277.751C60.5814 277.42 60.8107 277.14 61.1147 276.911C61.4187 276.676 61.792 276.487 62.2347 276.343C62.6187 276.231 63.0534 276.132 63.5387 276.047C64.024 275.962 64.5334 275.882 65.0667 275.807C65.6054 275.732 66.1387 275.658 66.6667 275.583L66.0587 275.919C66.0694 275.242 65.9254 274.74 65.6267 274.415C65.3334 274.084 64.8267 273.919 64.1067 273.919C63.6534 273.919 63.2374 274.026 62.8587 274.239C62.48 274.447 62.216 274.794 62.0667 275.279L60.5067 274.799C60.72 274.058 61.1254 273.468 61.7227 273.031C62.3254 272.594 63.1254 272.375 64.1227 272.375C64.896 272.375 65.568 272.508 66.1387 272.775C66.7147 273.036 67.136 273.452 67.4027 274.023C67.5414 274.306 67.6267 274.604 67.6587 274.919C67.6907 275.234 67.7067 275.572 67.7067 275.935V281.255H66.2267V279.279L66.5147 279.535C66.1574 280.196 65.7014 280.69 65.1467 281.015C64.5974 281.335 63.92 281.495 63.1147 281.495ZM63.4107 280.127C63.8854 280.127 64.2934 280.044 64.6347 279.879C64.976 279.708 65.2507 279.492 65.4587 279.231C65.6667 278.97 65.8027 278.698 65.8667 278.415C65.9574 278.159 66.008 277.871 66.0187 277.551C66.0347 277.231 66.0427 276.975 66.0427 276.783L66.5867 276.983C66.0587 277.063 65.5787 277.135 65.1467 277.199C64.7147 277.263 64.3227 277.327 63.9707 277.391C63.624 277.45 63.3147 277.522 63.0427 277.607C62.8134 277.687 62.608 277.783 62.4267 277.895C62.2507 278.007 62.1094 278.143 62.0027 278.303C61.9014 278.463 61.8507 278.658 61.8507 278.887C61.8507 279.111 61.9067 279.319 62.0187 279.511C62.1307 279.698 62.3014 279.847 62.5307 279.959C62.76 280.071 63.0534 280.127 63.4107 280.127ZM73.0881 281.487C72.0374 281.487 71.1814 281.255 70.5201 280.791C69.8587 280.327 69.4534 279.674 69.3041 278.831L71.0161 278.567C71.1227 279.015 71.3681 279.37 71.7521 279.631C72.1414 279.887 72.6241 280.015 73.2001 280.015C73.7227 280.015 74.1307 279.908 74.4241 279.695C74.7227 279.482 74.8721 279.188 74.8721 278.815C74.8721 278.596 74.8187 278.42 74.7121 278.287C74.6107 278.148 74.3947 278.018 74.0641 277.895C73.7334 277.772 73.2294 277.62 72.5521 277.439C71.8107 277.247 71.2214 277.042 70.7841 276.823C70.3521 276.599 70.0427 276.34 69.8561 276.047C69.6747 275.748 69.5841 275.388 69.5841 274.967C69.5841 274.444 69.7227 273.988 70.0001 273.599C70.2774 273.21 70.6667 272.908 71.1681 272.695C71.6747 272.482 72.2667 272.375 72.9441 272.375C73.6054 272.375 74.1947 272.479 74.7121 272.687C75.2294 272.895 75.6481 273.191 75.9681 273.575C76.2881 273.954 76.4801 274.399 76.5441 274.911L74.8321 275.223C74.7734 274.807 74.5787 274.479 74.2481 274.239C73.9174 273.999 73.4881 273.868 72.9601 273.847C72.4534 273.826 72.0427 273.911 71.7281 274.103C71.4134 274.29 71.2561 274.548 71.2561 274.879C71.2561 275.071 71.3147 275.234 71.4321 275.367C71.5547 275.5 71.7894 275.628 72.1361 275.751C72.4827 275.874 72.9947 276.02 73.6721 276.191C74.3974 276.378 74.9734 276.586 75.4001 276.815C75.8267 277.039 76.1307 277.308 76.3121 277.623C76.4987 277.932 76.5921 278.308 76.5921 278.751C76.5921 279.604 76.2801 280.274 75.6561 280.759C75.0374 281.244 74.1814 281.487 73.0881 281.487ZM81.6662 281.487C80.6155 281.487 79.7595 281.255 79.0982 280.791C78.4369 280.327 78.0315 279.674 77.8822 278.831L79.5942 278.567C79.7009 279.015 79.9462 279.37 80.3302 279.631C80.7195 279.887 81.2022 280.015 81.7782 280.015C82.3009 280.015 82.7089 279.908 83.0022 279.695C83.3009 279.482 83.4502 279.188 83.4502 278.815C83.4502 278.596 83.3969 278.42 83.2902 278.287C83.1889 278.148 82.9729 278.018 82.6422 277.895C82.3115 277.772 81.8075 277.62 81.1302 277.439C80.3889 277.247 79.7995 277.042 79.3622 276.823C78.9302 276.599 78.6209 276.34 78.4342 276.047C78.2529 275.748 78.1622 275.388 78.1622 274.967C78.1622 274.444 78.3009 273.988 78.5782 273.599C78.8555 273.21 79.2449 272.908 79.7462 272.695C80.2529 272.482 80.8449 272.375 81.5222 272.375C82.1835 272.375 82.7729 272.479 83.2902 272.687C83.8075 272.895 84.2262 273.191 84.5462 273.575C84.8662 273.954 85.0582 274.399 85.1222 274.911L83.4102 275.223C83.3515 274.807 83.1569 274.479 82.8262 274.239C82.4955 273.999 82.0662 273.868 81.5382 273.847C81.0315 273.826 80.6209 273.911 80.3062 274.103C79.9915 274.29 79.8342 274.548 79.8342 274.879C79.8342 275.071 79.8929 275.234 80.0102 275.367C80.1329 275.5 80.3675 275.628 80.7142 275.751C81.0609 275.874 81.5729 276.02 82.2502 276.191C82.9755 276.378 83.5515 276.586 83.9782 276.815C84.4049 277.039 84.7089 277.308 84.8902 277.623C85.0769 277.932 85.1702 278.308 85.1702 278.751C85.1702 279.604 84.8582 280.274 84.2342 280.759C83.6155 281.244 82.7595 281.487 81.6662 281.487ZM90.7723 281.495C89.9136 281.495 89.159 281.308 88.5083 280.935C87.863 280.556 87.359 280.031 86.9963 279.359C86.639 278.682 86.4603 277.898 86.4603 277.007C86.4603 276.063 86.6363 275.244 86.9883 274.551C87.3456 273.858 87.8416 273.322 88.4763 272.943C89.111 272.564 89.8496 272.375 90.6923 272.375C91.5723 272.375 92.3216 272.58 92.9403 272.991C93.559 273.396 94.0203 273.975 94.3243 274.727C94.6336 275.479 94.7563 276.372 94.6923 277.407H93.0203V276.799C93.0096 275.796 92.8176 275.055 92.4443 274.575C92.0763 274.095 91.5136 273.855 90.7563 273.855C89.919 273.855 89.2896 274.119 88.8683 274.647C88.447 275.175 88.2363 275.938 88.2363 276.935C88.2363 277.884 88.447 278.62 88.8683 279.143C89.2896 279.66 89.8976 279.919 90.6923 279.919C91.215 279.919 91.6656 279.802 92.0443 279.567C92.4283 279.327 92.727 278.986 92.9403 278.543L94.5803 279.063C94.2443 279.836 93.735 280.436 93.0523 280.863C92.3696 281.284 91.6096 281.495 90.7723 281.495ZM87.6923 277.407V276.103H93.8603V277.407H87.6923ZM99.7912 281.487C98.7405 281.487 97.8845 281.255 97.2232 280.791C96.5619 280.327 96.1565 279.674 96.0072 278.831L97.7192 278.567C97.8259 279.015 98.0712 279.37 98.4552 279.631C98.8445 279.887 99.3272 280.015 99.9032 280.015C100.426 280.015 100.834 279.908 101.127 279.695C101.426 279.482 101.575 279.188 101.575 278.815C101.575 278.596 101.522 278.42 101.415 278.287C101.314 278.148 101.098 278.018 100.767 277.895C100.437 277.772 99.9325 277.62 99.2552 277.439C98.5139 277.247 97.9245 277.042 97.4872 276.823C97.0552 276.599 96.7459 276.34 96.5592 276.047C96.3779 275.748 96.2872 275.388 96.2872 274.967C96.2872 274.444 96.4259 273.988 96.7032 273.599C96.9805 273.21 97.3699 272.908 97.8712 272.695C98.3779 272.482 98.9699 272.375 99.6472 272.375C100.309 272.375 100.898 272.479 101.415 272.687C101.933 272.895 102.351 273.191 102.671 273.575C102.991 273.954 103.183 274.399 103.247 274.911L101.535 275.223C101.477 274.807 101.282 274.479 100.951 274.239C100.621 273.999 100.191 273.868 99.6632 273.847C99.1565 273.826 98.7459 273.911 98.4312 274.103C98.1165 274.29 97.9592 274.548 97.9592 274.879C97.9592 275.071 98.0179 275.234 98.1352 275.367C98.2579 275.5 98.4925 275.628 98.8392 275.751C99.1859 275.874 99.6979 276.02 100.375 276.191C101.101 276.378 101.677 276.586 102.103 276.815C102.53 277.039 102.834 277.308 103.015 277.623C103.202 277.932 103.295 278.308 103.295 278.751C103.295 279.604 102.983 280.274 102.359 280.759C101.741 281.244 100.885 281.487 99.7912 281.487ZM108.369 281.487C107.319 281.487 106.463 281.255 105.801 280.791C105.14 280.327 104.735 279.674 104.585 278.831L106.297 278.567C106.404 279.015 106.649 279.37 107.033 279.631C107.423 279.887 107.905 280.015 108.481 280.015C109.004 280.015 109.412 279.908 109.705 279.695C110.004 279.482 110.153 279.188 110.153 278.815C110.153 278.596 110.1 278.42 109.993 278.287C109.892 278.148 109.676 278.018 109.345 277.895C109.015 277.772 108.511 277.62 107.833 277.439C107.092 277.247 106.503 277.042 106.065 276.823C105.633 276.599 105.324 276.34 105.137 276.047C104.956 275.748 104.865 275.388 104.865 274.967C104.865 274.444 105.004 273.988 105.281 273.599C105.559 273.21 105.948 272.908 106.449 272.695C106.956 272.482 107.548 272.375 108.225 272.375C108.887 272.375 109.476 272.479 109.993 272.687C110.511 272.895 110.929 273.191 111.249 273.575C111.569 273.954 111.761 274.399 111.825 274.911L110.113 275.223C110.055 274.807 109.86 274.479 109.529 274.239C109.199 273.999 108.769 273.868 108.241 273.847C107.735 273.826 107.324 273.911 107.009 274.103C106.695 274.29 106.537 274.548 106.537 274.879C106.537 275.071 106.596 275.234 106.713 275.367C106.836 275.5 107.071 275.628 107.417 275.751C107.764 275.874 108.276 276.02 108.953 276.191C109.679 276.378 110.255 276.586 110.681 276.815C111.108 277.039 111.412 277.308 111.593 277.623C111.78 277.932 111.873 278.308 111.873 278.751C111.873 279.604 111.561 280.274 110.937 280.759C110.319 281.244 109.463 281.487 108.369 281.487ZM123.995 281.255L124.003 275.871C124.003 275.247 123.843 274.762 123.523 274.415C123.203 274.063 122.782 273.887 122.259 273.887C121.939 273.887 121.646 273.962 121.379 274.111C121.118 274.255 120.905 274.474 120.739 274.767C120.579 275.055 120.499 275.418 120.499 275.855L119.691 275.447C119.681 274.839 119.809 274.306 120.075 273.847C120.347 273.388 120.715 273.034 121.179 272.783C121.643 272.527 122.163 272.399 122.739 272.399C123.673 272.399 124.395 272.679 124.907 273.239C125.419 273.799 125.675 274.543 125.675 275.471L125.667 281.255H123.995ZM113.635 281.255V272.615H115.123V275.111H115.315V281.255H113.635ZM118.819 281.255L118.827 275.903C118.827 275.274 118.667 274.78 118.347 274.423C118.033 274.066 117.609 273.887 117.075 273.887C116.547 273.887 116.121 274.068 115.795 274.431C115.475 274.794 115.315 275.268 115.315 275.855L114.515 275.343C114.515 274.778 114.651 274.274 114.923 273.831C115.195 273.388 115.563 273.039 116.027 272.783C116.491 272.527 117.017 272.399 117.603 272.399C118.217 272.399 118.739 272.53 119.171 272.791C119.603 273.047 119.931 273.407 120.155 273.871C120.385 274.335 120.499 274.874 120.499 275.487L120.491 281.255H118.819ZM131.475 281.495C130.617 281.495 129.862 281.308 129.211 280.935C128.566 280.556 128.062 280.031 127.699 279.359C127.342 278.682 127.163 277.898 127.163 277.007C127.163 276.063 127.339 275.244 127.691 274.551C128.049 273.858 128.545 273.322 129.179 272.943C129.814 272.564 130.553 272.375 131.395 272.375C132.275 272.375 133.025 272.58 133.643 272.991C134.262 273.396 134.723 273.975 135.027 274.727C135.337 275.479 135.459 276.372 135.395 277.407H133.723V276.799C133.713 275.796 133.521 275.055 133.147 274.575C132.779 274.095 132.217 273.855 131.459 273.855C130.622 273.855 129.993 274.119 129.571 274.647C129.15 275.175 128.939 275.938 128.939 276.935C128.939 277.884 129.15 278.62 129.571 279.143C129.993 279.66 130.601 279.919 131.395 279.919C131.918 279.919 132.369 279.802 132.747 279.567C133.131 279.327 133.43 278.986 133.643 278.543L135.283 279.063C134.947 279.836 134.438 280.436 133.755 280.863C133.073 281.284 132.313 281.495 131.475 281.495ZM128.395 277.407V276.103H134.563V277.407H128.395ZM143.02 281.255V277.007C143.02 276.671 142.991 276.327 142.932 275.975C142.879 275.618 142.772 275.287 142.612 274.983C142.457 274.679 142.236 274.434 141.948 274.247C141.665 274.06 141.295 273.967 140.836 273.967C140.537 273.967 140.255 274.018 139.988 274.119C139.721 274.215 139.487 274.372 139.284 274.591C139.087 274.81 138.929 275.098 138.812 275.455C138.7 275.812 138.644 276.247 138.644 276.759L137.604 276.367C137.604 275.583 137.751 274.892 138.044 274.295C138.337 273.692 138.759 273.223 139.308 272.887C139.857 272.551 140.521 272.383 141.3 272.383C141.897 272.383 142.399 272.479 142.804 272.671C143.209 272.863 143.537 273.116 143.788 273.431C144.044 273.74 144.239 274.079 144.372 274.447C144.505 274.815 144.596 275.175 144.644 275.527C144.692 275.879 144.716 276.188 144.716 276.455V281.255H143.02ZM136.948 281.255V272.615H138.444V275.111H138.644V281.255H136.948ZM151.744 281.255C151.2 281.362 150.666 281.407 150.144 281.391C149.621 281.375 149.154 281.274 148.744 281.087C148.333 280.9 148.024 280.607 147.816 280.207C147.629 279.85 147.528 279.487 147.512 279.119C147.501 278.746 147.496 278.324 147.496 277.855V270.215H149.176V277.775C149.176 278.122 149.178 278.423 149.184 278.679C149.194 278.935 149.25 279.151 149.352 279.327C149.544 279.658 149.848 279.847 150.264 279.895C150.685 279.938 151.178 279.919 151.744 279.839V281.255ZM145.84 273.959V272.615H151.744V273.959H145.84Z" fill="#2A2F45"/>
<rect x="10" y="218.255" width="192" height="74" stroke="#2A2F45" stroke-width="2"/>
</g>
<g filter="url(#filter2_d_147_518)">
<rect x="9" y="373.255" width="194" height="56" fill="white"/>
<path d="M24.8577 397.495C23.7057 397.495 22.7244 397.244 21.9137 396.743C21.103 396.236 20.4817 395.532 20.0497 394.631C19.623 393.73 19.4097 392.684 19.4097 391.495C19.4097 390.306 19.623 389.26 20.0497 388.359C20.4817 387.458 21.103 386.756 21.9137 386.255C22.7244 385.748 23.7057 385.495 24.8577 385.495C26.1857 385.495 27.2844 385.831 28.1537 386.503C29.0284 387.175 29.6364 388.079 29.9777 389.215L28.2817 389.671C28.0577 388.866 27.6577 388.234 27.0817 387.775C26.511 387.316 25.7697 387.087 24.8577 387.087C24.0417 387.087 23.3617 387.271 22.8177 387.639C22.2737 388.007 21.863 388.522 21.5857 389.183C21.3137 389.844 21.1777 390.615 21.1777 391.495C21.1724 392.375 21.3057 393.146 21.5777 393.807C21.855 394.468 22.2657 394.983 22.8097 395.351C23.359 395.719 24.0417 395.903 24.8577 395.903C25.7697 395.903 26.511 395.674 27.0817 395.215C27.6577 394.751 28.0577 394.119 28.2817 393.319L29.9777 393.775C29.6364 394.911 29.0284 395.815 28.1537 396.487C27.2844 397.159 26.1857 397.495 24.8577 397.495ZM34.9932 397.487C34.3959 397.487 33.8945 397.391 33.4892 397.199C33.0839 397.007 32.7532 396.756 32.4972 396.447C32.2465 396.132 32.0545 395.791 31.9212 395.423C31.7879 395.055 31.6972 394.695 31.6492 394.343C31.6012 393.991 31.5772 393.682 31.5772 393.415V388.615H33.2732V392.863C33.2732 393.199 33.2999 393.546 33.3532 393.903C33.4119 394.255 33.5185 394.583 33.6732 394.887C33.8332 395.191 34.0545 395.436 34.3372 395.623C34.6252 395.81 34.9985 395.903 35.4572 395.903C35.7559 395.903 36.0385 395.855 36.3052 395.759C36.5719 395.658 36.8039 395.498 37.0012 395.279C37.2039 395.06 37.3612 394.772 37.4732 394.415C37.5905 394.058 37.6492 393.623 37.6492 393.111L38.6892 393.503C38.6892 394.287 38.5425 394.98 38.2492 395.583C37.9559 396.18 37.5345 396.647 36.9852 396.983C36.4359 397.319 35.7719 397.487 34.9932 397.487ZM37.8492 397.255V394.759H37.6492V388.615H39.3372V397.255H37.8492ZM41.7409 397.255V385.495H43.4129V397.255H41.7409ZM50.7593 397.255C50.2153 397.362 49.682 397.407 49.1593 397.391C48.6366 397.375 48.17 397.274 47.7593 397.087C47.3486 396.9 47.0393 396.607 46.8313 396.207C46.6446 395.85 46.5433 395.487 46.5273 395.119C46.5166 394.746 46.5113 394.324 46.5113 393.855V386.215H48.1913V393.775C48.1913 394.122 48.194 394.423 48.1993 394.679C48.21 394.935 48.266 395.151 48.3673 395.327C48.5593 395.658 48.8633 395.847 49.2793 395.895C49.7006 395.938 50.194 395.919 50.7593 395.839V397.255ZM44.8553 389.959V388.615H50.7593V389.959H44.8553ZM55.8369 397.487C55.2396 397.487 54.7383 397.391 54.3329 397.199C53.9276 397.007 53.5969 396.756 53.3409 396.447C53.0903 396.132 52.8983 395.791 52.7649 395.423C52.6316 395.055 52.5409 394.695 52.4929 394.343C52.4449 393.991 52.4209 393.682 52.4209 393.415V388.615H54.1169V392.863C54.1169 393.199 54.1436 393.546 54.1969 393.903C54.2556 394.255 54.3623 394.583 54.5169 394.887C54.6769 395.191 54.8983 395.436 55.1809 395.623C55.4689 395.81 55.8423 395.903 56.3009 395.903C56.5996 395.903 56.8823 395.855 57.1489 395.759C57.4156 395.658 57.6476 395.498 57.8449 395.279C58.0476 395.06 58.2049 394.772 58.3169 394.415C58.4343 394.058 58.4929 393.623 58.4929 393.111L59.5329 393.503C59.5329 394.287 59.3863 394.98 59.0929 395.583C58.7996 396.18 58.3783 396.647 57.8289 396.983C57.2796 397.319 56.6156 397.487 55.8369 397.487ZM58.6929 397.255V394.759H58.4929V388.615H60.1809V397.255H58.6929ZM62.4247 397.255V388.615H63.9127V390.711L63.7047 390.439C63.8114 390.162 63.95 389.908 64.1207 389.679C64.2914 389.444 64.4887 389.252 64.7127 389.103C64.9314 388.943 65.174 388.82 65.4407 388.735C65.7127 388.644 65.99 388.591 66.2727 388.575C66.5554 388.554 66.8274 388.567 67.0887 388.615V390.183C66.806 390.108 66.4914 390.087 66.1447 390.119C65.8034 390.151 65.4887 390.26 65.2007 390.447C64.9287 390.623 64.7127 390.836 64.5527 391.087C64.398 391.338 64.286 391.618 64.2167 391.927C64.1474 392.231 64.1127 392.554 64.1127 392.895V397.255H62.4247ZM72.2879 397.495C71.4293 397.495 70.6746 397.308 70.0239 396.935C69.3786 396.556 68.8746 396.031 68.5119 395.359C68.1546 394.682 67.9759 393.898 67.9759 393.007C67.9759 392.063 68.1519 391.244 68.5039 390.551C68.8613 389.858 69.3573 389.322 69.9919 388.943C70.6266 388.564 71.3653 388.375 72.2079 388.375C73.0879 388.375 73.8373 388.58 74.4559 388.991C75.0746 389.396 75.5359 389.975 75.8399 390.727C76.1493 391.479 76.2719 392.372 76.2079 393.407H74.5359V392.799C74.5253 391.796 74.3333 391.055 73.9599 390.575C73.5919 390.095 73.0293 389.855 72.2719 389.855C71.4346 389.855 70.8053 390.119 70.3839 390.647C69.9626 391.175 69.7519 391.938 69.7519 392.935C69.7519 393.884 69.9626 394.62 70.3839 395.143C70.8053 395.66 71.4133 395.919 72.2079 395.919C72.7306 395.919 73.1813 395.802 73.5599 395.567C73.9439 395.327 74.2426 394.986 74.4559 394.543L76.0959 395.063C75.7599 395.836 75.2506 396.436 74.5679 396.863C73.8853 397.284 73.1253 397.495 72.2879 397.495ZM69.2079 393.407V392.103H75.3759V393.407H69.2079ZM81.9979 397.255V388.311C81.9979 388.092 82.0059 387.86 82.0219 387.615C82.0379 387.364 82.0833 387.119 82.1579 386.879C82.2379 386.634 82.3686 386.41 82.5499 386.207C82.7686 385.967 83.0086 385.796 83.2699 385.695C83.5313 385.594 83.7899 385.535 84.0459 385.519C84.3073 385.503 84.5473 385.495 84.7659 385.495H85.8539V386.871H84.8459C84.4513 386.871 84.1553 386.97 83.9579 387.167C83.7659 387.359 83.6699 387.634 83.6699 387.991V397.255H81.9979ZM80.5659 389.959V388.615H85.8539V389.959H80.5659ZM87.5339 387.199V385.575H89.2059V387.199H87.5339ZM87.5339 397.255V388.615H89.2059V397.255H87.5339ZM96.5562 397.255C96.0122 397.362 95.4789 397.407 94.9562 397.391C94.4335 397.375 93.9669 397.274 93.5562 397.087C93.1455 396.9 92.8362 396.607 92.6282 396.207C92.4415 395.85 92.3402 395.487 92.3242 395.119C92.3135 394.746 92.3082 394.324 92.3082 393.855V386.215H93.9882V393.775C93.9882 394.122 93.9909 394.423 93.9962 394.679C94.0069 394.935 94.0629 395.151 94.1642 395.327C94.3562 395.658 94.6602 395.847 95.0762 395.895C95.4975 395.938 95.9909 395.919 96.5562 395.839V397.255ZM90.6522 389.959V388.615H96.5562V389.959H90.6522ZM105.277 397.495C104.392 397.495 103.64 397.298 103.021 396.903C102.402 396.508 101.928 395.967 101.597 395.279C101.272 394.591 101.106 393.81 101.101 392.935C101.106 392.044 101.277 391.258 101.613 390.575C101.949 389.887 102.429 389.348 103.053 388.959C103.677 388.57 104.426 388.375 105.301 388.375C106.245 388.375 107.05 388.61 107.717 389.079C108.389 389.548 108.832 390.191 109.045 391.007L107.381 391.487C107.216 391.002 106.944 390.626 106.565 390.359C106.192 390.087 105.762 389.951 105.277 389.951C104.728 389.951 104.277 390.082 103.925 390.343C103.573 390.599 103.312 390.951 103.141 391.399C102.97 391.847 102.882 392.359 102.877 392.935C102.882 393.826 103.085 394.546 103.485 395.095C103.89 395.644 104.488 395.919 105.277 395.919C105.816 395.919 106.25 395.796 106.581 395.551C106.917 395.3 107.173 394.943 107.349 394.479L109.045 394.879C108.762 395.722 108.296 396.37 107.645 396.823C106.994 397.271 106.205 397.495 105.277 397.495ZM113.005 397.495C112.365 397.495 111.829 397.378 111.397 397.143C110.965 396.903 110.637 396.588 110.413 396.199C110.195 395.804 110.085 395.372 110.085 394.903C110.085 394.466 110.163 394.082 110.317 393.751C110.472 393.42 110.701 393.14 111.005 392.911C111.309 392.676 111.683 392.487 112.125 392.343C112.509 392.231 112.944 392.132 113.429 392.047C113.915 391.962 114.424 391.882 114.957 391.807C115.496 391.732 116.029 391.658 116.557 391.583L115.949 391.919C115.96 391.242 115.816 390.74 115.517 390.415C115.224 390.084 114.717 389.919 113.997 389.919C113.544 389.919 113.128 390.026 112.749 390.239C112.371 390.447 112.107 390.794 111.957 391.279L110.397 390.799C110.611 390.058 111.016 389.468 111.613 389.031C112.216 388.594 113.016 388.375 114.013 388.375C114.787 388.375 115.459 388.508 116.029 388.775C116.605 389.036 117.027 389.452 117.293 390.023C117.432 390.306 117.517 390.604 117.549 390.919C117.581 391.234 117.597 391.572 117.597 391.935V397.255H116.117V395.279L116.405 395.535C116.048 396.196 115.592 396.69 115.037 397.015C114.488 397.335 113.811 397.495 113.005 397.495ZM113.301 396.127C113.776 396.127 114.184 396.044 114.525 395.879C114.867 395.708 115.141 395.492 115.349 395.231C115.557 394.97 115.693 394.698 115.757 394.415C115.848 394.159 115.899 393.871 115.909 393.551C115.925 393.231 115.933 392.975 115.933 392.783L116.477 392.983C115.949 393.063 115.469 393.135 115.037 393.199C114.605 393.263 114.213 393.327 113.861 393.391C113.515 393.45 113.205 393.522 112.933 393.607C112.704 393.687 112.499 393.783 112.317 393.895C112.141 394.007 112 394.143 111.893 394.303C111.792 394.463 111.741 394.658 111.741 394.887C111.741 395.111 111.797 395.319 111.909 395.511C112.021 395.698 112.192 395.847 112.421 395.959C112.651 396.071 112.944 396.127 113.301 396.127ZM119.835 397.255V385.495H121.507V397.255H119.835ZM124.069 397.255V385.495H125.741V397.255H124.069ZM133.187 397.255L130.547 388.607L132.203 388.615L134.011 394.543L135.835 388.615H137.275L139.099 394.543L140.907 388.615H142.555L139.915 397.255H138.571L136.555 390.999L134.531 397.255H133.187ZM144.147 387.199V385.575H145.819V387.199H144.147ZM144.147 397.255V388.615H145.819V397.255H144.147ZM153.166 397.255C152.622 397.362 152.088 397.407 151.566 397.391C151.043 397.375 150.576 397.274 150.166 397.087C149.755 396.9 149.446 396.607 149.238 396.207C149.051 395.85 148.95 395.487 148.934 395.119C148.923 394.746 148.918 394.324 148.918 393.855V386.215H150.598V393.775C150.598 394.122 150.6 394.423 150.606 394.679C150.616 394.935 150.672 395.151 150.774 395.327C150.966 395.658 151.27 395.847 151.686 395.895C152.107 395.938 152.6 395.919 153.166 395.839V397.255ZM147.262 389.959V388.615H153.166V389.959H147.262ZM161.051 397.255V393.007C161.051 392.671 161.022 392.327 160.963 391.975C160.91 391.618 160.803 391.287 160.643 390.983C160.489 390.679 160.267 390.434 159.979 390.247C159.697 390.06 159.326 389.967 158.867 389.967C158.569 389.967 158.286 390.018 158.019 390.119C157.753 390.215 157.518 390.372 157.315 390.591C157.118 390.81 156.961 391.098 156.843 391.455C156.731 391.812 156.675 392.247 156.675 392.759L155.635 392.367C155.635 391.583 155.782 390.892 156.075 390.295C156.369 389.692 156.79 389.223 157.339 388.887C157.889 388.551 158.553 388.383 159.331 388.383C159.929 388.383 160.43 388.479 160.835 388.671C161.241 388.863 161.569 389.116 161.819 389.431C162.075 389.74 162.27 390.079 162.403 390.447C162.537 390.815 162.627 391.175 162.675 391.527C162.723 391.879 162.747 392.188 162.747 392.455V397.255H161.051ZM154.979 397.255V385.735H156.475V391.951H156.675V397.255H154.979ZM172.978 397.255C172.434 397.362 171.901 397.407 171.378 397.391C170.855 397.375 170.389 397.274 169.978 397.087C169.567 396.9 169.258 396.607 169.05 396.207C168.863 395.85 168.762 395.487 168.746 395.119C168.735 394.746 168.73 394.324 168.73 393.855V386.215H170.41V393.775C170.41 394.122 170.413 394.423 170.418 394.679C170.429 394.935 170.485 395.151 170.586 395.327C170.778 395.658 171.082 395.847 171.498 395.895C171.919 395.938 172.413 395.919 172.978 395.839V397.255ZM167.074 389.959V388.615H172.978V389.959H167.074ZM180.864 397.255V393.007C180.864 392.671 180.834 392.327 180.776 391.975C180.722 391.618 180.616 391.287 180.456 390.983C180.301 390.679 180.08 390.434 179.792 390.247C179.509 390.06 179.138 389.967 178.68 389.967C178.381 389.967 178.098 390.018 177.832 390.119C177.565 390.215 177.33 390.372 177.128 390.591C176.93 390.81 176.773 391.098 176.656 391.455C176.544 391.812 176.488 392.247 176.488 392.759L175.448 392.367C175.448 391.583 175.594 390.892 175.888 390.295C176.181 389.692 176.602 389.223 177.152 388.887C177.701 388.551 178.365 388.383 179.144 388.383C179.741 388.383 180.242 388.479 180.648 388.671C181.053 388.863 181.381 389.116 181.632 389.431C181.888 389.74 182.082 390.079 182.216 390.447C182.349 390.815 182.44 391.175 182.488 391.527C182.536 391.879 182.56 392.188 182.56 392.455V397.255H180.864ZM174.792 397.255V385.735H176.288V391.951H176.488V397.255H174.792ZM188.475 397.495C187.617 397.495 186.862 397.308 186.211 396.935C185.566 396.556 185.062 396.031 184.699 395.359C184.342 394.682 184.163 393.898 184.163 393.007C184.163 392.063 184.339 391.244 184.691 390.551C185.049 389.858 185.545 389.322 186.179 388.943C186.814 388.564 187.553 388.375 188.395 388.375C189.275 388.375 190.025 388.58 190.643 388.991C191.262 389.396 191.723 389.975 192.027 390.727C192.337 391.479 192.459 392.372 192.395 393.407H190.723V392.799C190.713 391.796 190.521 391.055 190.147 390.575C189.779 390.095 189.217 389.855 188.459 389.855C187.622 389.855 186.993 390.119 186.571 390.647C186.15 391.175 185.939 391.938 185.939 392.935C185.939 393.884 186.15 394.62 186.571 395.143C186.993 395.66 187.601 395.919 188.395 395.919C188.918 395.919 189.369 395.802 189.747 395.567C190.131 395.327 190.43 394.986 190.643 394.543L192.283 395.063C191.947 395.836 191.438 396.436 190.755 396.863C190.073 397.284 189.313 397.495 188.475 397.495ZM185.395 393.407V392.103H191.563V393.407H185.395ZM95.7639 417.495C94.6119 417.495 93.6306 417.244 92.8199 416.743C92.0093 416.236 91.3879 415.532 90.9559 414.631C90.5293 413.73 90.3159 412.684 90.3159 411.495C90.3159 410.306 90.5293 409.26 90.9559 408.359C91.3879 407.458 92.0093 406.756 92.8199 406.255C93.6306 405.748 94.6119 405.495 95.7639 405.495C97.0919 405.495 98.1906 405.831 99.0599 406.503C99.9346 407.175 100.543 408.079 100.884 409.215L99.1879 409.671C98.9639 408.866 98.5639 408.234 97.9879 407.775C97.4173 407.316 96.6759 407.087 95.7639 407.087C94.9479 407.087 94.2679 407.271 93.7239 407.639C93.1799 408.007 92.7693 408.522 92.4919 409.183C92.2199 409.844 92.0839 410.615 92.0839 411.495C92.0786 412.375 92.2119 413.146 92.4839 413.807C92.7613 414.468 93.1719 414.983 93.7159 415.351C94.2653 415.719 94.9479 415.903 95.7639 415.903C96.6759 415.903 97.4173 415.674 97.9879 415.215C98.5639 414.751 98.9639 414.119 99.1879 413.319L100.884 413.775C100.543 414.911 99.9346 415.815 99.0599 416.487C98.1906 417.159 97.0919 417.495 95.7639 417.495ZM102.643 417.255V405.735H110.003V407.311H104.315V410.543H109.043V412.119H104.315V415.679H110.003V417.255H102.643ZM116.248 417.495C115.096 417.495 114.115 417.244 113.304 416.743C112.494 416.236 111.872 415.532 111.44 414.631C111.014 413.73 110.8 412.684 110.8 411.495C110.8 410.306 111.014 409.26 111.44 408.359C111.872 407.458 112.494 406.756 113.304 406.255C114.115 405.748 115.096 405.495 116.248 405.495C117.395 405.495 118.374 405.748 119.184 406.255C120 406.756 120.622 407.458 121.048 408.359C121.475 409.26 121.688 410.306 121.688 411.495C121.688 412.684 121.475 413.73 121.048 414.631C120.622 415.532 120 416.236 119.184 416.743C118.374 417.244 117.395 417.495 116.248 417.495ZM116.248 415.903C117.064 415.914 117.742 415.735 118.28 415.367C118.824 414.994 119.232 414.476 119.504 413.815C119.776 413.148 119.912 412.375 119.912 411.495C119.912 410.615 119.776 409.847 119.504 409.191C119.232 408.53 118.824 408.015 118.28 407.647C117.742 407.279 117.064 407.092 116.248 407.087C115.432 407.076 114.752 407.255 114.208 407.623C113.67 407.991 113.264 408.508 112.992 409.175C112.72 409.842 112.582 410.615 112.576 411.495C112.571 412.375 112.704 413.146 112.976 413.807C113.248 414.463 113.656 414.975 114.2 415.343C114.75 415.711 115.432 415.898 116.248 415.903Z" fill="#2A2F45"/>
<rect x="10" y="374.255" width="192" height="54" stroke="#2A2F45" stroke-width="2"/>
</g>
<g filter="url(#filter3_d_147_518)">
<rect x="9" y="509.255" width="194" height="56" fill="white"/>
<path d="M34.1295 536.239C33.5108 535.519 32.9775 534.706 32.5295 533.799C32.0815 532.898 31.7402 531.951 31.5055 530.959C31.2708 529.962 31.1615 528.967 31.1775 527.975C31.1615 526.983 31.2708 525.991 31.5055 524.999C31.7402 524.002 32.0815 523.052 32.5295 522.151C32.9775 521.244 33.5108 520.431 34.1295 519.711L35.3775 520.639C34.7375 521.396 34.2228 522.175 33.8335 522.975C33.4442 523.77 33.1588 524.586 32.9775 525.423C32.7962 526.255 32.7055 527.106 32.7055 527.975C32.7055 528.839 32.7962 529.69 32.9775 530.527C33.1588 531.364 33.4442 532.183 33.8335 532.983C34.2282 533.783 34.7428 534.559 35.3775 535.311L34.1295 536.239ZM41.1311 533.495C39.9791 533.495 38.9978 533.244 38.1871 532.743C37.3765 532.236 36.7551 531.532 36.3231 530.631C35.8965 529.73 35.6831 528.684 35.6831 527.495C35.6831 526.306 35.8965 525.26 36.3231 524.359C36.7551 523.458 37.3765 522.756 38.1871 522.255C38.9978 521.748 39.9791 521.495 41.1311 521.495C42.2778 521.495 43.2565 521.748 44.0671 522.255C44.8831 522.756 45.5045 523.458 45.9311 524.359C46.3578 525.26 46.5711 526.306 46.5711 527.495C46.5711 528.684 46.3578 529.73 45.9311 530.631C45.5045 531.532 44.8831 532.236 44.0671 532.743C43.2565 533.244 42.2778 533.495 41.1311 533.495ZM41.1311 531.903C41.9471 531.914 42.6245 531.735 43.1631 531.367C43.7071 530.994 44.1151 530.476 44.3871 529.815C44.6591 529.148 44.7951 528.375 44.7951 527.495C44.7951 526.615 44.6591 525.847 44.3871 525.191C44.1151 524.53 43.7071 524.015 43.1631 523.647C42.6245 523.279 41.9471 523.092 41.1311 523.087C40.3151 523.076 39.6351 523.255 39.0911 523.623C38.5525 523.991 38.1471 524.508 37.8751 525.175C37.6031 525.842 37.4645 526.615 37.4591 527.495C37.4538 528.375 37.5871 529.146 37.8591 529.807C38.1311 530.463 38.5391 530.975 39.0831 531.343C39.6325 531.711 40.3151 531.898 41.1311 531.903ZM52.2229 533.495C51.3962 533.495 50.7029 533.295 50.1429 532.895C49.5829 532.49 49.1589 531.943 48.8709 531.255C48.5829 530.567 48.4389 529.791 48.4389 528.927C48.4389 528.063 48.5802 527.287 48.8629 526.599C49.1509 525.911 49.5722 525.37 50.1269 524.975C50.6869 524.575 51.3749 524.375 52.1909 524.375C53.0015 524.375 53.7002 524.575 54.2869 524.975C54.8789 525.37 55.3349 525.911 55.6549 526.599C55.9749 527.282 56.1349 528.058 56.1349 528.927C56.1349 529.791 55.9749 530.57 55.6549 531.263C55.3402 531.951 54.8895 532.495 54.3029 532.895C53.7215 533.295 53.0282 533.495 52.2229 533.495ZM48.1589 537.095V524.615H49.6469V530.831H49.8389V537.095H48.1589ZM51.9909 531.983C52.5242 531.983 52.9642 531.847 53.3109 531.575C53.6629 531.303 53.9242 530.938 54.0949 530.479C54.2709 530.015 54.3589 529.498 54.3589 528.927C54.3589 528.362 54.2709 527.85 54.0949 527.391C53.9242 526.932 53.6602 526.567 53.3029 526.295C52.9455 526.023 52.4895 525.887 51.9349 525.887C51.4122 525.887 50.9802 526.015 50.6389 526.271C50.3029 526.527 50.0522 526.884 49.8869 527.343C49.7269 527.802 49.6469 528.33 49.6469 528.927C49.6469 529.524 49.7269 530.052 49.8869 530.511C50.0469 530.97 50.3002 531.33 50.6469 531.591C50.9935 531.852 51.4415 531.983 51.9909 531.983ZM62.8453 533.255C62.3013 533.362 61.7679 533.407 61.2453 533.391C60.7226 533.375 60.2559 533.274 59.8453 533.087C59.4346 532.9 59.1253 532.607 58.9173 532.207C58.7306 531.85 58.6293 531.487 58.6133 531.119C58.6026 530.746 58.5973 530.324 58.5973 529.855V522.215H60.2773V529.775C60.2773 530.122 60.2799 530.423 60.2853 530.679C60.2959 530.935 60.3519 531.151 60.4533 531.327C60.6453 531.658 60.9493 531.847 61.3653 531.895C61.7866 531.938 62.2799 531.919 62.8453 531.839V533.255ZM56.9413 525.959V524.615H62.8453V525.959H56.9413ZM64.8269 523.199V521.575H66.4989V523.199H64.8269ZM64.8269 533.255V524.615H66.4989V533.255H64.8269ZM72.6533 533.495C71.7893 533.495 71.0399 533.3 70.4053 532.911C69.7706 532.522 69.2799 531.986 68.9333 531.303C68.5919 530.615 68.4213 529.823 68.4213 528.927C68.4213 528.026 68.5973 527.234 68.9493 526.551C69.3013 525.863 69.7946 525.33 70.4293 524.951C71.0639 524.567 71.8053 524.375 72.6533 524.375C73.5173 524.375 74.2666 524.57 74.9013 524.959C75.5359 525.348 76.0266 525.884 76.3733 526.567C76.7199 527.25 76.8933 528.036 76.8933 528.927C76.8933 529.828 76.7173 530.623 76.3653 531.311C76.0186 531.994 75.5279 532.53 74.8933 532.919C74.2586 533.303 73.5119 533.495 72.6533 533.495ZM72.6533 531.919C73.4799 531.919 74.0959 531.642 74.5013 531.087C74.9119 530.527 75.1173 529.807 75.1173 528.927C75.1173 528.026 74.9093 527.306 74.4933 526.767C74.0826 526.223 73.4693 525.951 72.6533 525.951C72.0933 525.951 71.6319 526.079 71.2693 526.335C70.9066 526.586 70.6373 526.935 70.4613 527.383C70.2853 527.826 70.1973 528.34 70.1973 528.927C70.1973 529.834 70.4053 530.559 70.8213 531.103C71.2373 531.647 71.8479 531.919 72.6533 531.919ZM84.7153 533.255V529.007C84.7153 528.671 84.6859 528.327 84.6273 527.975C84.5739 527.618 84.4673 527.287 84.3073 526.983C84.1526 526.679 83.9313 526.434 83.6433 526.247C83.3606 526.06 82.9899 525.967 82.5312 525.967C82.2326 525.967 81.9499 526.018 81.6833 526.119C81.4166 526.215 81.1819 526.372 80.9793 526.591C80.7819 526.81 80.6246 527.098 80.5073 527.455C80.3953 527.812 80.3393 528.247 80.3393 528.759L79.2993 528.367C79.2993 527.583 79.4459 526.892 79.7393 526.295C80.0326 525.692 80.4539 525.223 81.0033 524.887C81.5526 524.551 82.2166 524.383 82.9953 524.383C83.5926 524.383 84.0939 524.479 84.4993 524.671C84.9046 524.863 85.2326 525.116 85.4833 525.431C85.7393 525.74 85.9339 526.079 86.0673 526.447C86.2006 526.815 86.2913 527.175 86.3393 527.527C86.3873 527.879 86.4113 528.188 86.4113 528.455V533.255H84.7153ZM78.6433 533.255V524.615H80.1393V527.111H80.3393V533.255H78.6433ZM90.935 533.495C90.295 533.495 89.759 533.378 89.327 533.143C88.895 532.903 88.567 532.588 88.343 532.199C88.1243 531.804 88.015 531.372 88.015 530.903C88.015 530.466 88.0923 530.082 88.247 529.751C88.4017 529.42 88.631 529.14 88.935 528.911C89.239 528.676 89.6123 528.487 90.055 528.343C90.439 528.231 90.8737 528.132 91.359 528.047C91.8443 527.962 92.3537 527.882 92.887 527.807C93.4257 527.732 93.959 527.658 94.487 527.583L93.879 527.919C93.8897 527.242 93.7457 526.74 93.447 526.415C93.1537 526.084 92.647 525.919 91.927 525.919C91.4737 525.919 91.0577 526.026 90.679 526.239C90.3003 526.447 90.0363 526.794 89.887 527.279L88.327 526.799C88.5403 526.058 88.9457 525.468 89.543 525.031C90.1457 524.594 90.9457 524.375 91.943 524.375C92.7163 524.375 93.3883 524.508 93.959 524.775C94.535 525.036 94.9563 525.452 95.223 526.023C95.3617 526.306 95.447 526.604 95.479 526.919C95.511 527.234 95.527 527.572 95.527 527.935V533.255H94.047V531.279L94.335 531.535C93.9777 532.196 93.5217 532.69 92.967 533.015C92.4177 533.335 91.7403 533.495 90.935 533.495ZM91.231 532.127C91.7057 532.127 92.1137 532.044 92.455 531.879C92.7963 531.708 93.071 531.492 93.279 531.231C93.487 530.97 93.623 530.698 93.687 530.415C93.7777 530.159 93.8283 529.871 93.839 529.551C93.855 529.231 93.863 528.975 93.863 528.783L94.407 528.983C93.879 529.063 93.399 529.135 92.967 529.199C92.535 529.263 92.143 529.327 91.791 529.391C91.4443 529.45 91.135 529.522 90.863 529.607C90.6337 529.687 90.4283 529.783 90.247 529.895C90.071 530.007 89.9297 530.143 89.823 530.303C89.7217 530.463 89.671 530.658 89.671 530.887C89.671 531.111 89.727 531.319 89.839 531.511C89.951 531.698 90.1217 531.847 90.351 531.959C90.5803 532.071 90.8737 532.127 91.231 532.127ZM97.7644 533.255V521.495H99.4364V533.255H97.7644ZM101.999 533.255V521.495H103.671V533.255H101.999ZM107.241 537.095L108.913 532.543L108.937 533.887L105.169 524.615H106.913L109.729 531.775H109.217L111.905 524.615H113.601L108.833 537.095H107.241ZM115.646 536.239L114.398 535.311C115.033 534.559 115.545 533.783 115.934 532.983C116.329 532.183 116.617 531.364 116.798 530.527C116.98 529.69 117.07 528.839 117.07 527.975C117.07 527.106 116.98 526.255 116.798 525.423C116.617 524.586 116.332 523.77 115.942 522.975C115.553 522.175 115.038 521.396 114.398 520.639L115.646 519.711C116.265 520.431 116.798 521.244 117.246 522.151C117.694 523.052 118.036 524.002 118.27 524.999C118.505 525.991 118.614 526.983 118.598 527.975C118.614 528.967 118.505 529.962 118.27 530.959C118.036 531.951 117.694 532.898 117.246 533.799C116.798 534.706 116.265 535.519 115.646 536.239ZM125.327 533.255V521.735H126.999V531.679H132.215V533.255H125.327ZM133.733 523.199V521.575H135.405V523.199H133.733ZM133.733 533.255V524.615H135.405V533.255H133.733ZM140.144 533.255L137.008 524.615H138.696L140.992 531.159L143.288 524.615H144.976L141.84 533.255H140.144ZM149.936 533.495C149.078 533.495 148.323 533.308 147.672 532.935C147.027 532.556 146.523 532.031 146.16 531.359C145.803 530.682 145.624 529.898 145.624 529.007C145.624 528.063 145.8 527.244 146.152 526.551C146.51 525.858 147.006 525.322 147.64 524.943C148.275 524.564 149.014 524.375 149.856 524.375C150.736 524.375 151.486 524.58 152.104 524.991C152.723 525.396 153.184 525.975 153.488 526.727C153.798 527.479 153.92 528.372 153.856 529.407H152.184V528.799C152.174 527.796 151.982 527.055 151.608 526.575C151.24 526.095 150.678 525.855 149.92 525.855C149.083 525.855 148.454 526.119 148.032 526.647C147.611 527.175 147.4 527.938 147.4 528.935C147.4 529.884 147.611 530.62 148.032 531.143C148.454 531.66 149.062 531.919 149.856 531.919C150.379 531.919 150.83 531.802 151.208 531.567C151.592 531.327 151.891 530.986 152.104 530.543L153.744 531.063C153.408 531.836 152.899 532.436 152.216 532.863C151.534 533.284 150.774 533.495 149.936 533.495ZM146.856 529.407V528.103H153.024V529.407H146.856ZM162.55 533.495C161.665 533.495 160.913 533.298 160.294 532.903C159.676 532.508 159.201 531.967 158.87 531.279C158.545 530.591 158.38 529.81 158.374 528.935C158.38 528.044 158.55 527.258 158.886 526.575C159.222 525.887 159.702 525.348 160.326 524.959C160.95 524.57 161.7 524.375 162.574 524.375C163.518 524.375 164.324 524.61 164.99 525.079C165.662 525.548 166.105 526.191 166.318 527.007L164.654 527.487C164.489 527.002 164.217 526.626 163.838 526.359C163.465 526.087 163.036 525.951 162.55 525.951C162.001 525.951 161.55 526.082 161.198 526.343C160.846 526.599 160.585 526.951 160.414 527.399C160.244 527.847 160.156 528.359 160.15 528.935C160.156 529.826 160.358 530.546 160.758 531.095C161.164 531.644 161.761 531.919 162.55 531.919C163.089 531.919 163.524 531.796 163.854 531.551C164.19 531.3 164.446 530.943 164.622 530.479L166.318 530.879C166.036 531.722 165.569 532.37 164.918 532.823C164.268 533.271 163.478 533.495 162.55 533.495ZM171.466 533.495C170.602 533.495 169.852 533.3 169.218 532.911C168.583 532.522 168.092 531.986 167.746 531.303C167.404 530.615 167.234 529.823 167.234 528.927C167.234 528.026 167.41 527.234 167.762 526.551C168.114 525.863 168.607 525.33 169.242 524.951C169.876 524.567 170.618 524.375 171.466 524.375C172.33 524.375 173.079 524.57 173.714 524.959C174.348 525.348 174.839 525.884 175.186 526.567C175.532 527.25 175.706 528.036 175.706 528.927C175.706 529.828 175.53 530.623 175.178 531.311C174.831 531.994 174.34 532.53 173.706 532.919C173.071 533.303 172.324 533.495 171.466 533.495ZM171.466 531.919C172.292 531.919 172.908 531.642 173.314 531.087C173.724 530.527 173.93 529.807 173.93 528.927C173.93 528.026 173.722 527.306 173.306 526.767C172.895 526.223 172.282 525.951 171.466 525.951C170.906 525.951 170.444 526.079 170.082 526.335C169.719 526.586 169.45 526.935 169.274 527.383C169.098 527.826 169.01 528.34 169.01 528.927C169.01 529.834 169.218 530.559 169.634 531.103C170.05 531.647 170.66 531.919 171.466 531.919ZM177.304 528.879V527.535H182.104V528.879H177.304ZM60.7022 553.255L58.0622 544.607L59.7182 544.615L61.5262 550.543L63.3502 544.615H64.7902L66.6142 550.543L68.4222 544.615H70.0702L67.4302 553.255H66.0862L64.0702 546.999L62.0462 553.255H60.7022ZM74.9423 553.495C74.0783 553.495 73.329 553.3 72.6943 552.911C72.0596 552.522 71.569 551.986 71.2223 551.303C70.881 550.615 70.7103 549.823 70.7103 548.927C70.7103 548.026 70.8863 547.234 71.2383 546.551C71.5903 545.863 72.0836 545.33 72.7183 544.951C73.353 544.567 74.0943 544.375 74.9423 544.375C75.8063 544.375 76.5556 544.57 77.1903 544.959C77.825 545.348 78.3156 545.884 78.6623 546.567C79.009 547.25 79.1823 548.036 79.1823 548.927C79.1823 549.828 79.0063 550.623 78.6543 551.311C78.3076 551.994 77.817 552.53 77.1823 552.919C76.5476 553.303 75.801 553.495 74.9423 553.495ZM74.9423 551.919C75.769 551.919 76.385 551.642 76.7903 551.087C77.201 550.527 77.4063 549.807 77.4063 548.927C77.4063 548.026 77.1983 547.306 76.7823 546.767C76.3716 546.223 75.7583 545.951 74.9423 545.951C74.3823 545.951 73.921 546.079 73.5583 546.335C73.1956 546.586 72.9263 546.935 72.7503 547.383C72.5743 547.826 72.4863 548.34 72.4863 548.927C72.4863 549.834 72.6943 550.559 73.1103 551.103C73.5263 551.647 74.137 551.919 74.9423 551.919ZM80.9403 553.255V544.615H82.4283V546.711L82.2203 546.439C82.327 546.162 82.4656 545.908 82.6363 545.679C82.807 545.444 83.0043 545.252 83.2283 545.103C83.447 544.943 83.6896 544.82 83.9563 544.735C84.2283 544.644 84.5056 544.591 84.7883 544.575C85.071 544.554 85.343 544.567 85.6043 544.615V546.183C85.3216 546.108 85.007 546.087 84.6603 546.119C84.319 546.151 84.0043 546.26 83.7163 546.447C83.4443 546.623 83.2283 546.836 83.0683 547.087C82.9136 547.338 82.8016 547.618 82.7323 547.927C82.663 548.231 82.6283 548.554 82.6283 548.895V553.255H80.9403ZM87.1198 553.255L87.1278 541.735H88.8238V548.775L92.2158 544.615H94.3438L90.7598 548.935L94.7118 553.255H92.4398L88.8238 549.095V553.255H87.1198ZM95.6784 543.199V541.575H97.3504V543.199H95.6784ZM95.6784 553.255V544.615H97.3504V553.255H95.6784ZM105.817 553.255V549.007C105.817 548.671 105.787 548.327 105.729 547.975C105.675 547.618 105.569 547.287 105.409 546.983C105.254 546.679 105.033 546.434 104.745 546.247C104.462 546.06 104.091 545.967 103.633 545.967C103.334 545.967 103.051 546.018 102.785 546.119C102.518 546.215 102.283 546.372 102.081 546.591C101.883 546.81 101.726 547.098 101.609 547.455C101.497 547.812 101.441 548.247 101.441 548.759L100.401 548.367C100.401 547.583 100.547 546.892 100.841 546.295C101.134 545.692 101.555 545.223 102.105 544.887C102.654 544.551 103.318 544.383 104.097 544.383C104.694 544.383 105.195 544.479 105.601 544.671C106.006 544.863 106.334 545.116 106.585 545.431C106.841 545.74 107.035 546.079 107.169 546.447C107.302 546.815 107.393 547.175 107.441 547.527C107.489 547.879 107.513 548.188 107.513 548.455V553.255H105.817ZM99.7448 553.255V544.615H101.241V547.111H101.441V553.255H99.7448ZM113.157 557.335C112.693 557.335 112.242 557.263 111.805 557.119C111.373 556.975 110.978 556.762 110.621 556.479C110.263 556.202 109.967 555.858 109.733 555.447L111.277 554.663C111.463 555.031 111.73 555.3 112.077 555.471C112.423 555.642 112.789 555.727 113.173 555.727C113.647 555.727 114.053 555.642 114.389 555.471C114.725 555.306 114.978 555.055 115.149 554.719C115.325 554.383 115.41 553.967 115.405 553.471V551.055H115.605V544.615H117.085V553.487C117.085 553.716 117.077 553.935 117.061 554.143C117.045 554.351 117.015 554.559 116.973 554.767C116.85 555.348 116.615 555.828 116.269 556.207C115.927 556.586 115.49 556.868 114.957 557.055C114.429 557.242 113.829 557.335 113.157 557.335ZM113.029 553.495C112.223 553.495 111.527 553.295 110.941 552.895C110.359 552.495 109.909 551.951 109.589 551.263C109.274 550.57 109.117 549.791 109.117 548.927C109.117 548.058 109.277 547.282 109.597 546.599C109.917 545.911 110.37 545.37 110.957 544.975C111.549 544.575 112.25 544.375 113.061 544.375C113.877 544.375 114.562 544.575 115.117 544.975C115.677 545.37 116.098 545.911 116.381 546.599C116.669 547.287 116.813 548.063 116.813 548.927C116.813 549.791 116.669 550.567 116.381 551.255C116.093 551.943 115.669 552.49 115.109 552.895C114.549 553.295 113.855 553.495 113.029 553.495ZM113.261 551.983C113.81 551.983 114.258 551.852 114.605 551.591C114.951 551.33 115.205 550.97 115.365 550.511C115.525 550.052 115.605 549.524 115.605 548.927C115.605 548.33 115.522 547.802 115.357 547.343C115.197 546.884 114.946 546.527 114.605 546.271C114.269 546.015 113.839 545.887 113.317 545.887C112.762 545.887 112.306 546.023 111.949 546.295C111.591 546.567 111.325 546.932 111.149 547.391C110.978 547.85 110.893 548.362 110.893 548.927C110.893 549.498 110.978 550.015 111.149 550.479C111.325 550.938 111.586 551.303 111.933 551.575C112.285 551.847 112.727 551.983 113.261 551.983ZM127.478 553.255C126.934 553.362 126.401 553.407 125.878 553.391C125.355 553.375 124.889 553.274 124.478 553.087C124.067 552.9 123.758 552.607 123.55 552.207C123.363 551.85 123.262 551.487 123.246 551.119C123.235 550.746 123.23 550.324 123.23 549.855V542.215H124.91V549.775C124.91 550.122 124.913 550.423 124.918 550.679C124.929 550.935 124.985 551.151 125.086 551.327C125.278 551.658 125.582 551.847 125.998 551.895C126.419 551.938 126.913 551.919 127.478 551.839V553.255ZM121.574 545.959V544.615H127.478V545.959H121.574ZM131.74 553.495C131.1 553.495 130.564 553.378 130.132 553.143C129.7 552.903 129.372 552.588 129.148 552.199C128.929 551.804 128.82 551.372 128.82 550.903C128.82 550.466 128.897 550.082 129.052 549.751C129.206 549.42 129.436 549.14 129.74 548.911C130.044 548.676 130.417 548.487 130.86 548.343C131.244 548.231 131.678 548.132 132.164 548.047C132.649 547.962 133.158 547.882 133.692 547.807C134.23 547.732 134.764 547.658 135.292 547.583L134.684 547.919C134.694 547.242 134.55 546.74 134.252 546.415C133.958 546.084 133.452 545.919 132.732 545.919C132.278 545.919 131.862 546.026 131.484 546.239C131.105 546.447 130.841 546.794 130.692 547.279L129.132 546.799C129.345 546.058 129.75 545.468 130.348 545.031C130.95 544.594 131.75 544.375 132.748 544.375C133.521 544.375 134.193 544.508 134.764 544.775C135.34 545.036 135.761 545.452 136.028 546.023C136.166 546.306 136.252 546.604 136.284 546.919C136.316 547.234 136.332 547.572 136.332 547.935V553.255H134.852V551.279L135.14 551.535C134.782 552.196 134.326 552.69 133.772 553.015C133.222 553.335 132.545 553.495 131.74 553.495ZM132.036 552.127C132.51 552.127 132.918 552.044 133.26 551.879C133.601 551.708 133.876 551.492 134.084 551.231C134.292 550.97 134.428 550.698 134.492 550.415C134.582 550.159 134.633 549.871 134.644 549.551C134.66 549.231 134.668 548.975 134.668 548.783L135.212 548.983C134.684 549.063 134.204 549.135 133.772 549.199C133.34 549.263 132.948 549.327 132.596 549.391C132.249 549.45 131.94 549.522 131.668 549.607C131.438 549.687 131.233 549.783 131.052 549.895C130.876 550.007 130.734 550.143 130.628 550.303C130.526 550.463 130.476 550.658 130.476 550.887C130.476 551.111 130.532 551.319 130.644 551.511C130.756 551.698 130.926 551.847 131.156 551.959C131.385 552.071 131.678 552.127 132.036 552.127ZM141.713 553.487C140.662 553.487 139.806 553.255 139.145 552.791C138.484 552.327 138.078 551.674 137.929 550.831L139.641 550.567C139.748 551.015 139.993 551.37 140.377 551.631C140.766 551.887 141.249 552.015 141.825 552.015C142.348 552.015 142.756 551.908 143.049 551.695C143.348 551.482 143.497 551.188 143.497 550.815C143.497 550.596 143.444 550.42 143.337 550.287C143.236 550.148 143.02 550.018 142.689 549.895C142.358 549.772 141.854 549.62 141.177 549.439C140.436 549.247 139.846 549.042 139.409 548.823C138.977 548.599 138.668 548.34 138.481 548.047C138.3 547.748 138.209 547.388 138.209 546.967C138.209 546.444 138.348 545.988 138.625 545.599C138.902 545.21 139.292 544.908 139.793 544.695C140.3 544.482 140.892 544.375 141.569 544.375C142.23 544.375 142.82 544.479 143.337 544.687C143.854 544.895 144.273 545.191 144.593 545.575C144.913 545.954 145.105 546.399 145.169 546.911L143.457 547.223C143.398 546.807 143.204 546.479 142.873 546.239C142.542 545.999 142.113 545.868 141.585 545.847C141.078 545.826 140.668 545.911 140.353 546.103C140.038 546.29 139.881 546.548 139.881 546.879C139.881 547.071 139.94 547.234 140.057 547.367C140.18 547.5 140.414 547.628 140.761 547.751C141.108 547.874 141.62 548.02 142.297 548.191C143.022 548.378 143.598 548.586 144.025 548.815C144.452 549.039 144.756 549.308 144.937 549.623C145.124 549.932 145.217 550.308 145.217 550.751C145.217 551.604 144.905 552.274 144.281 552.759C143.662 553.244 142.806 553.487 141.713 553.487ZM146.979 553.255L146.987 541.735H148.683V548.775L152.075 544.615H154.203L150.619 548.935L154.571 553.255H152.299L148.683 549.095V553.255H146.979Z" fill="#2A2F45"/>
<rect x="10" y="510.255" width="192" height="54" stroke="#2A2F45" stroke-width="2"/>
</g>
<g filter="url(#filter4_d_147_518)">
<rect x="9" y="645.255" width="194" height="36" fill="white"/>
<path d="M92.7171 669.495C91.5651 669.495 90.5837 669.244 89.7731 668.743C88.9624 668.236 88.3411 667.532 87.9091 666.631C87.4824 665.73 87.2691 664.684 87.2691 663.495C87.2691 662.306 87.4824 661.26 87.9091 660.359C88.3411 659.458 88.9624 658.756 89.7731 658.255C90.5837 657.748 91.5651 657.495 92.7171 657.495C93.8637 657.495 94.8424 657.748 95.6531 658.255C96.4691 658.756 97.0904 659.458 97.5171 660.359C97.9437 661.26 98.1571 662.306 98.1571 663.495C98.1571 664.684 97.9437 665.73 97.5171 666.631C97.0904 667.532 96.4691 668.236 95.6531 668.743C94.8424 669.244 93.8637 669.495 92.7171 669.495ZM92.7171 667.903C93.5331 667.914 94.2104 667.735 94.7491 667.367C95.2931 666.994 95.7011 666.476 95.9731 665.815C96.2451 665.148 96.3811 664.375 96.3811 663.495C96.3811 662.615 96.2451 661.847 95.9731 661.191C95.7011 660.53 95.2931 660.015 94.7491 659.647C94.2104 659.279 93.5331 659.092 92.7171 659.087C91.9011 659.076 91.2211 659.255 90.6771 659.623C90.1384 659.991 89.7331 660.508 89.4611 661.175C89.1891 661.842 89.0504 662.615 89.0451 663.495C89.0397 664.375 89.1731 665.146 89.4451 665.807C89.7171 666.463 90.1251 666.975 90.6691 667.343C91.2184 667.711 91.9011 667.898 92.7171 667.903ZM100.545 669.255V660.311C100.545 660.092 100.553 659.86 100.569 659.615C100.585 659.364 100.63 659.119 100.705 658.879C100.785 658.634 100.915 658.41 101.097 658.207C101.315 657.967 101.555 657.796 101.817 657.695C102.078 657.594 102.337 657.535 102.593 657.519C102.854 657.503 103.094 657.495 103.313 657.495H104.401V658.871H103.393C102.998 658.871 102.702 658.97 102.505 659.167C102.313 659.359 102.217 659.634 102.217 659.991V669.255H100.545ZM99.1128 661.959V660.615H104.401V661.959H99.1128ZM105.777 669.255V660.311C105.777 660.092 105.785 659.86 105.801 659.615C105.817 659.364 105.862 659.119 105.937 658.879C106.017 658.634 106.147 658.41 106.329 658.207C106.547 657.967 106.787 657.796 107.049 657.695C107.31 657.594 107.569 657.535 107.825 657.519C108.086 657.503 108.326 657.495 108.545 657.495H109.633V658.871H108.625C108.23 658.871 107.934 658.97 107.737 659.167C107.545 659.359 107.449 659.634 107.449 659.991V669.255H105.777ZM104.345 661.959V660.615H109.633V661.959H104.345ZM114.429 669.495C113.57 669.495 112.815 669.308 112.165 668.935C111.519 668.556 111.015 668.031 110.653 667.359C110.295 666.682 110.117 665.898 110.117 665.007C110.117 664.063 110.293 663.244 110.645 662.551C111.002 661.858 111.498 661.322 112.133 660.943C112.767 660.564 113.506 660.375 114.349 660.375C115.229 660.375 115.978 660.58 116.597 660.991C117.215 661.396 117.677 661.975 117.981 662.727C118.29 663.479 118.413 664.372 118.349 665.407H116.677V664.799C116.666 663.796 116.474 663.055 116.101 662.575C115.733 662.095 115.17 661.855 114.413 661.855C113.575 661.855 112.946 662.119 112.525 662.647C112.103 663.175 111.893 663.938 111.893 664.935C111.893 665.884 112.103 666.62 112.525 667.143C112.946 667.66 113.554 667.919 114.349 667.919C114.871 667.919 115.322 667.802 115.701 667.567C116.085 667.327 116.383 666.986 116.597 666.543L118.237 667.063C117.901 667.836 117.391 668.436 116.709 668.863C116.026 669.284 115.266 669.495 114.429 669.495ZM111.349 665.407V664.103H117.517V665.407H111.349ZM120.143 669.255V660.615H121.631V662.711L121.423 662.439C121.53 662.162 121.669 661.908 121.839 661.679C122.01 661.444 122.207 661.252 122.431 661.103C122.65 660.943 122.893 660.82 123.159 660.735C123.431 660.644 123.709 660.591 123.991 660.575C124.274 660.554 124.546 660.567 124.807 660.615V662.183C124.525 662.108 124.21 662.087 123.863 662.119C123.522 662.151 123.207 662.26 122.919 662.447C122.647 662.623 122.431 662.836 122.271 663.087C122.117 663.338 122.005 663.618 121.935 663.927C121.866 664.231 121.831 664.554 121.831 664.895V669.255H120.143Z" fill="#2A2F45"/>
<rect x="10" y="646.255" width="192" height="34" stroke="#2A2F45" stroke-width="2"/>
</g>
<path d="M231.5 27.9864C231.5 31.5664 228.592 34.4729 225 34.4729C221.408 34.4729 218.5 31.5664 218.5 27.9864C218.5 24.4064 221.408 21.4999 225 21.4999C228.592 21.4999 231.5 24.4064 231.5 27.9864Z" fill="#2A2F45" stroke="#2A2F45" stroke-width="3"/>
<path d="M35.5002 0.425845L71 29.377L35.5002 58.3281L35.5002 0.425845Z" fill="#387CD3"/>
<path d="M0.500187 57.2747L34.7089 29.3765L0.500189 1.47831L0.500187 57.2747Z" stroke="#2A2F45"/>
<path d="M218.5 677.31C218.5 677.31 216.5 672.643 210.5 669.31C216.5 665.976 218.5 661.31 218.5 661.31" stroke="#2A2F45" stroke-width="3" stroke-linecap="round" stroke-linejoin="round"/>
<path d="M210.5 667.81C209.672 667.81 209 668.481 209 669.31C209 670.138 209.672 670.81 210.5 670.81V667.81ZM221.5 670.81C222.328 670.81 223 670.138 223 669.31C223 668.481 222.328 667.81 221.5 667.81V670.81ZM210.5 670.81H221.5V667.81H210.5V670.81Z" fill="#2A2F45"/>
<path d="M71 748C89.4733 748 104.449 729.644 104.449 707C104.449 729.644 119.425 748 137.898 748C119.425 748 104.449 766.356 104.449 789C104.449 766.356 89.4733 748 71 748Z" fill="#387CD3"/>
<path d="M108.551 781.87C106.087 764.497 94.7754 750.745 80.3959 748C94.7754 745.255 106.087 731.503 108.551 714.13C111.015 731.503 122.327 745.255 136.706 748C122.327 750.745 111.015 764.497 108.551 781.87Z" stroke="black"/>
<path d="M236 28V28C247.598 28 257 37.402 257 49L257 642C257 656.912 244.912 669 230 669V669" stroke="#387CD3" stroke-width="3" stroke-linecap="round" stroke-dasharray="6 8"/>
<defs>
<filter id="filter0_d_147_518" x="9" y="101.255" width="197" height="39" filterUnits="userSpaceOnUse" color-interpolation-filters="sRGB">
<feFlood flood-opacity="0" result="BackgroundImageFix"/>
<feColorMatrix in="SourceAlpha" type="matrix" values="0 0 0 0 0 0 0 0 0 0 0 0 0 0 0 0 0 0 127 0" result="hardAlpha"/>
<feOffset dx="3" dy="3"/>
<feColorMatrix type="matrix" values="0 0 0 0 0 0 0 0 0 0 0 0 0 0 0 0 0 0 1 0"/>
<feBlend mode="normal" in2="BackgroundImageFix" result="effect1_dropShadow_147_518"/>
<feBlend mode="normal" in="SourceGraphic" in2="effect1_dropShadow_147_518" result="shape"/>
</filter>
<filter id="filter1_d_147_518" x="9" y="217.255" width="197" height="79" filterUnits="userSpaceOnUse" color-interpolation-filters="sRGB">
<feFlood flood-opacity="0" result="BackgroundImageFix"/>
<feColorMatrix in="SourceAlpha" type="matrix" values="0 0 0 0 0 0 0 0 0 0 0 0 0 0 0 0 0 0 127 0" result="hardAlpha"/>
<feOffset dx="3" dy="3"/>
<feColorMatrix type="matrix" values="0 0 0 0 0 0 0 0 0 0 0 0 0 0 0 0 0 0 1 0"/>
<feBlend mode="normal" in2="BackgroundImageFix" result="effect1_dropShadow_147_518"/>
<feBlend mode="normal" in="SourceGraphic" in2="effect1_dropShadow_147_518" result="shape"/>
</filter>
<filter id="filter2_d_147_518" x="9" y="373.255" width="197" height="59" filterUnits="userSpaceOnUse" color-interpolation-filters="sRGB">
<feFlood flood-opacity="0" result="BackgroundImageFix"/>
<feColorMatrix in="SourceAlpha" type="matrix" values="0 0 0 0 0 0 0 0 0 0 0 0 0 0 0 0 0 0 127 0" result="hardAlpha"/>
<feOffset dx="3" dy="3"/>
<feColorMatrix type="matrix" values="0 0 0 0 0 0 0 0 0 0 0 0 0 0 0 0 0 0 1 0"/>
<feBlend mode="normal" in2="BackgroundImageFix" result="effect1_dropShadow_147_518"/>
<feBlend mode="normal" in="SourceGraphic" in2="effect1_dropShadow_147_518" result="shape"/>
</filter>
<filter id="filter3_d_147_518" x="9" y="509.255" width="197" height="59" filterUnits="userSpaceOnUse" color-interpolation-filters="sRGB">
<feFlood flood-opacity="0" result="BackgroundImageFix"/>
<feColorMatrix in="SourceAlpha" type="matrix" values="0 0 0 0 0 0 0 0 0 0 0 0 0 0 0 0 0 0 127 0" result="hardAlpha"/>
<feOffset dx="3" dy="3"/>
<feColorMatrix type="matrix" values="0 0 0 0 0 0 0 0 0 0 0 0 0 0 0 0 0 0 1 0"/>
<feBlend mode="normal" in2="BackgroundImageFix" result="effect1_dropShadow_147_518"/>
<feBlend mode="normal" in="SourceGraphic" in2="effect1_dropShadow_147_518" result="shape"/>
</filter>
<filter id="filter4_d_147_518" x="9" y="645.255" width="197" height="39" filterUnits="userSpaceOnUse" color-interpolation-filters="sRGB">
<feFlood flood-opacity="0" result="BackgroundImageFix"/>
<feColorMatrix in="SourceAlpha" type="matrix" values="0 0 0 0 0 0 0 0 0 0 0 0 0 0 0 0 0 0 127 0" result="hardAlpha"/>
<feOffset dx="3" dy="3"/>
<feColorMatrix type="matrix" values="0 0 0 0 0 0 0 0 0 0 0 0 0 0 0 0 0 0 1 0"/>
<feBlend mode="normal" in2="BackgroundImageFix" result="effect1_dropShadow_147_518"/>
<feBlend mode="normal" in="SourceGraphic" in2="effect1_dropShadow_147_518" result="shape"/>
</filter>
</defs>
</svg>
