<svg width="345" height="345" viewBox="0 0 345 345" fill="none" xmlns="http://www.w3.org/2000/svg">
    <path d="M299.923 85.4453C306.672 97.9511 310.793 105.563 314.784 113.174C318.775 120.786 322.767 128.398 329.515 140.904C346.903 173.125 296.015 234.312 215.853 277.57C135.691 320.829 56.6122 329.778 39.225 297.558C32.4785 285.057 28.4879 277.446 24.4981 269.836H24.4978C20.7368 262.664 16.9765 255.492 10.9092 244.226C30.605 273.895 107.915 264.389 186.26 222.111C266.422 178.852 317.31 117.665 299.923 85.4453Z" fill="#1288FF" stroke="#2A2F45" stroke-width="0.666667" stroke-linejoin="round"/>
    <path fill-rule="evenodd" clip-rule="evenodd" d="M186.26 222.104C266.422 178.845 317.31 117.658 299.923 85.4382C282.535 53.2186 203.457 62.1675 123.295 105.426C43.1338 148.685 -7.75494 209.872 9.63219 242.091C27.0193 274.311 106.098 265.363 186.26 222.104ZM174.142 192.511C220.748 166.19 249.253 131.172 237.81 114.295C226.366 97.4185 179.308 105.074 132.702 131.396C86.0964 157.716 57.5916 192.734 69.035 209.612C80.4785 226.488 127.537 218.833 174.142 192.511Z" fill="#1288FF" stroke="#2A2F45" stroke-width="0.666667" stroke-linejoin="round"/>
    <path d="M239.85 127.516C239.746 128.019 239.627 128.53 239.491 129.045C219.368 124.948 183.729 134.173 148.351 154.153C112.824 174.216 87.8156 199.334 83.0017 217.618C103.125 221.714 138.764 212.49 174.142 192.51C210.671 171.88 236.079 145.909 239.85 127.516Z" fill="#1288FF" stroke="#2A2F45" stroke-width="0.666667" stroke-linejoin="round"/>
    <path d="M239.492 129.049C240.993 123.347 240.53 118.31 237.81 114.298C226.366 97.4215 179.308 105.078 132.702 131.399C86.0963 157.719 57.5915 192.737 69.0349 209.615C71.7917 213.68 76.6153 216.323 83.0016 217.622C87.8155 199.338 112.824 174.221 148.351 154.157C183.729 134.177 219.368 124.953 239.492 129.049Z" fill="#1288FF" stroke="#2A2F45" stroke-width="0.666667" stroke-linejoin="round"/>
    </svg>
    