<svg width="345" height="345" viewBox="0 0 345 345" fill="none" xmlns="http://www.w3.org/2000/svg">
    <path d="M299.924 85.4414C306.672 97.9472 310.793 105.559 314.784 113.17C318.775 120.782 322.767 128.394 329.515 140.9C346.903 173.121 296.015 234.308 215.853 277.566C135.691 320.825 56.6123 329.774 39.2251 297.554C32.4787 285.053 28.4881 277.442 24.4982 269.833H24.4979C20.7369 262.66 16.9767 255.489 10.9093 244.222C30.6051 273.891 107.916 264.385 186.26 222.108C266.422 178.848 317.31 117.661 299.924 85.4414Z" fill="#1288FF" stroke="#2A2F45" stroke-width="0.666667" stroke-linejoin="round"/>
    <path fill-rule="evenodd" clip-rule="evenodd" d="M186.26 222.106C266.422 178.847 317.31 117.66 299.923 85.4403C282.535 53.2206 203.457 62.1696 123.295 105.428C43.1338 148.687 -7.75488 209.874 9.63225 242.093C27.0193 274.313 106.098 265.365 186.26 222.106ZM174.142 192.513C220.748 166.192 249.253 131.174 237.81 114.297C226.366 97.4205 179.308 105.077 132.702 131.398C86.0964 157.718 57.5916 192.737 69.035 209.614C80.4786 226.49 127.537 218.835 174.142 192.513Z" fill="#1288FF" stroke="#2A2F45" stroke-width="0.666667" stroke-linejoin="round"/>
    <path d="M239.85 127.518C239.746 128.021 239.627 128.532 239.491 129.047C219.368 124.95 183.729 134.175 148.351 154.155C112.824 174.218 87.8155 199.336 83.0016 217.62C103.125 221.716 138.764 212.492 174.142 192.512C210.671 171.882 236.079 145.911 239.85 127.518Z" fill="#1288FF" stroke="#2A2F45" stroke-width="0.666667" stroke-linejoin="round"/>
    <path d="M239.492 129.047C240.993 123.345 240.531 118.308 237.81 114.296C226.366 97.4196 179.308 105.076 132.702 131.397C86.0963 157.717 57.5915 192.735 69.0349 209.613C71.7917 213.678 76.6154 216.321 83.0017 217.62C87.8156 199.336 112.824 174.219 148.351 154.155C183.729 134.175 219.368 124.951 239.492 129.047Z" fill="#1288FF" stroke="#2A2F45" stroke-width="0.666667" stroke-linejoin="round"/>
    </svg>
    