<svg width="99" height="25" viewBox="0 0 99 25" fill="none" xmlns="http://www.w3.org/2000/svg">
    <g clip-path="url(#clip0_2034_7258)">
    <path d="M7.66762 24.9972C10.1901 24.9972 11.7191 24.0881 12.7571 22.7926V24.2472L13.025 24.5199H19.0744L19.3423 24.2472V22.7585L19.0744 22.4858H18.6726C18.0029 22.4858 17.3444 21.804 17.3444 21.1335V3.6108L17.6792 0.428977L17.4114 0.15625H16.351L11.228 2.15625L10.9602 2.42898V3.33807L11.228 3.6108H11.6298C12.2995 3.6108 12.958 4.29261 12.958 4.96307V8.95171C11.9647 8.1108 10.536 7.32671 8.37077 7.32671C4.15183 7.32671 0.0556641 10.6108 0.0556641 16.1563C0.0556641 22.3608 4.15183 24.9972 7.66762 24.9972ZM8.7949 22.7585C5.83718 22.7585 4.64293 19.7813 4.64293 16.1563C4.64293 12.5313 5.83718 9.55398 8.7949 9.55398C11.7526 9.55398 12.9469 12.5313 12.9469 16.1563C12.9469 19.7813 11.7638 22.7585 8.7949 22.7585Z" fill="white"/>
    <path d="M29.3538 25.0028C34.4768 25.0028 38.3609 21.3097 38.3609 16.1733C38.3609 11.0256 34.4768 7.34375 29.3538 7.34375C24.2308 7.34375 20.3467 11.0369 20.3467 16.1733C20.3355 21.3097 24.2308 25.0028 29.3538 25.0028ZM29.3538 22.8324C26.2956 22.8324 24.934 19.8892 24.934 16.1619C24.934 12.4347 26.2956 9.49148 29.3538 9.49148C32.412 9.49148 33.7736 12.4347 33.7736 16.1619C33.7736 19.8892 32.412 22.8324 29.3538 22.8324Z" fill="white"/>
    <path fill-rule="evenodd" clip-rule="evenodd" d="M59.4669 6.70455C58.4512 7.26136 57.6364 7.97727 57.056 8.86364V0H52.4911V17.9773C52.4576 20.7045 50.8281 22.3295 48.7633 22.3295C46.9663 22.3295 45.6381 21.3182 45.6381 19.0795V11.0568L45.973 7.875L45.7051 7.60227H44.6448L39.4548 9.46591L39.2539 9.73864V10.6477L39.5218 10.9205H39.9236C40.5933 10.9205 41.2518 11.6023 41.2518 12.2727V19.2045C41.2518 23.0909 43.6403 24.9886 47.1002 24.9886C49.2655 24.9886 51.3303 23.9773 52.4911 22.4545V24.5455H57.056V21.9318C57.6699 22.7955 58.4735 23.5 59.4669 24.0568C60.4825 24.5909 61.6768 24.8523 63.0161 24.8523C64.5564 24.8523 65.9515 24.4545 67.1904 23.6591C68.4517 22.8636 69.4338 21.75 70.1593 20.3068C70.896 18.8523 71.2643 17.1818 71.2643 15.2955C71.2643 13.4091 70.896 11.7727 70.1593 10.3523C69.445 8.90909 68.4517 7.80682 67.1904 7.03409C65.9515 6.26136 64.5564 5.875 63.0161 5.875C61.688 5.875 60.5049 6.14773 59.4669 6.70455ZM65.9181 12.4432C66.3757 13.2386 66.5989 14.1932 66.5989 15.2955C66.5989 16.4205 66.3757 17.3977 65.9181 18.2159C65.4828 19.0341 64.9024 19.6591 64.1546 20.1023C63.4403 20.5455 62.659 20.7614 61.8107 20.7614C60.9848 20.7614 60.2035 20.5568 59.4669 20.1364C58.7526 19.6932 58.161 19.0682 57.7034 18.25C57.2681 17.4318 57.056 16.4659 57.056 15.3636C57.056 14.2614 57.2681 13.2955 57.7034 12.4773C58.161 11.6591 58.7414 11.0341 59.4669 10.6136C60.2035 10.1705 60.9848 9.95455 61.8107 9.95455C62.659 9.95455 63.4403 10.1591 64.1546 10.5795C64.8912 11 65.4828 11.625 65.9181 12.4432Z" fill="white"/>
    <path d="M78.3853 0.445312V25.0021H73.8203V0.445312H78.3853Z" fill="white"/>
    <path d="M98.9106 15.1143C98.9106 15.7734 98.866 16.3757 98.7767 16.9098H85.5841C85.6957 18.2393 86.1533 19.2734 86.9569 20.0234C87.7606 20.7734 88.7539 21.1484 89.9258 21.1484C91.6223 21.1484 92.8278 20.4098 93.5421 18.9212H98.4642C97.9396 20.6939 96.9462 22.1484 95.4618 23.2962C93.9774 24.4325 92.1692 25.0007 90.0151 25.0007C88.274 25.0007 86.7114 24.6143 85.3274 23.8416C83.9546 23.0462 82.8831 21.9325 82.1018 20.4893C81.3429 19.0462 80.9634 17.3984 80.9634 15.5121C80.9634 13.6143 81.3429 11.9439 82.1018 10.5007C82.8608 9.05753 83.9211 7.95526 85.2939 7.18253C86.6668 6.4098 88.2293 6.02344 90.0151 6.02344C91.734 6.02344 93.263 6.39844 94.6136 7.14844C95.9864 7.89844 97.0355 8.97798 97.7722 10.3643C98.5311 11.7393 98.9106 13.3189 98.9106 15.1143ZM94.1894 13.7848C94.1671 12.5916 93.743 11.6371 92.917 10.9325C92.0911 10.2053 91.0866 9.84162 89.8812 9.84162C88.7539 9.84162 87.794 10.1939 87.0128 10.8984C86.2538 11.5803 85.785 12.5462 85.6064 13.7848H94.1894Z" fill="white"/>
    </g>
    <defs>
    <clipPath id="clip0_2034_7258">
    <rect width="99" height="25" fill="white"/>
    </clipPath>
    </defs>
    </svg>
    