<svg width="40" height="40" viewBox="0 0 40 40" fill="none" xmlns="http://www.w3.org/2000/svg">
<path d="M12.9867 12.4207H32.0162C32.2046 12.4207 32.3853 12.3459 32.5185 12.2127C32.6517 12.0794 32.7266 11.8988 32.7266 11.7104C32.7266 11.522 32.6517 11.3413 32.5185 11.2081C32.3853 11.0748 32.2046 11 32.0162 11H12.9867C12.7983 11 12.6176 11.0748 12.4844 11.2081C12.3512 11.3413 12.2764 11.522 12.2764 11.7104C12.2764 11.8988 12.3512 12.0794 12.4844 12.2127C12.6176 12.3459 12.7983 12.4207 12.9867 12.4207Z" fill="black"/>
<path d="M12.9867 20.8084H32.0162C32.2046 20.8084 32.3853 20.7336 32.5185 20.6004C32.6517 20.4671 32.7266 20.2865 32.7266 20.0981C32.7266 19.9097 32.6517 19.729 32.5185 19.5958C32.3853 19.4625 32.2046 19.3877 32.0162 19.3877H12.9867C12.7983 19.3877 12.6176 19.4625 12.4844 19.5958C12.3512 19.729 12.2764 19.9097 12.2764 20.0981C12.2764 20.2865 12.3512 20.4671 12.4844 20.6004C12.6176 20.7336 12.7983 20.8084 12.9867 20.8084Z" fill="black"/>
<path d="M12.9867 29.1961H32.0162C32.2046 29.1961 32.3853 29.1213 32.5185 28.9881C32.6517 28.8548 32.7266 28.6742 32.7266 28.4858C32.7266 28.2974 32.6517 28.1167 32.5185 27.9835C32.3853 27.8502 32.2046 27.7754 32.0162 27.7754H12.9867C12.7983 27.7754 12.6176 27.8502 12.4844 27.9835C12.3512 28.1167 12.2764 28.2974 12.2764 28.4858C12.2764 28.6742 12.3512 28.8548 12.4844 28.9881C12.6176 29.1213 12.7983 29.1961 12.9867 29.1961Z" fill="black"/>
<path d="M8.05665 11.984C8.07244 12.0258 8.09317 12.0655 8.1184 12.1024C8.14439 12.1418 8.17455 12.1783 8.20835 12.2113C8.24237 12.244 8.27878 12.274 8.31727 12.3013C8.35669 12.3262 8.39779 12.3484 8.44028 12.3676C8.48366 12.3832 8.528 12.3958 8.57302 12.4056C8.61816 12.4152 8.6642 12.4199 8.71035 12.4197C8.80359 12.4197 8.8959 12.4013 8.98201 12.3655C9.06812 12.3298 9.14632 12.2774 9.21214 12.2113C9.24594 12.1783 9.27617 12.1418 9.30232 12.1024C9.32713 12.0645 9.34923 12.025 9.36845 11.984C9.38279 11.9366 9.3969 11.8941 9.40638 11.8515C9.42988 11.7365 9.42443 11.6174 9.39052 11.505C9.35662 11.3926 9.29532 11.2904 9.21214 11.2075C9.12963 11.1253 9.02821 11.0646 8.91677 11.0308C8.80534 10.9969 8.68729 10.9909 8.573 11.0133C8.48177 11.0335 8.39506 11.0704 8.31727 11.1222C8.2778 11.1464 8.24125 11.175 8.20835 11.2075C8.12536 11.2905 8.0642 11.3927 8.03031 11.5051C7.99642 11.6175 7.99085 11.7365 8.0141 11.8515C8.02467 11.8968 8.0389 11.9411 8.05665 11.984Z" fill="black"/>
<path d="M8.20834 20.5982C8.24117 20.6322 8.2777 20.6624 8.31727 20.6882C8.39512 20.7399 8.4818 20.7769 8.573 20.7973C8.61858 20.8029 8.66442 20.806 8.71033 20.8066C8.80357 20.8066 8.89588 20.7882 8.98199 20.7524C9.0681 20.7167 9.1463 20.6643 9.21212 20.5982C9.27857 20.5327 9.33124 20.4545 9.36706 20.3683C9.40288 20.2821 9.42111 20.1896 9.4207 20.0962C9.42038 20.0502 9.41558 20.0042 9.40636 19.9591C9.39662 19.9141 9.38395 19.8697 9.36843 19.8264C9.34923 19.7839 9.32714 19.7428 9.30233 19.7034C9.27494 19.6649 9.2448 19.6285 9.21215 19.5944C9.12917 19.5129 9.02771 19.4527 8.91642 19.4189C8.80513 19.385 8.68731 19.3786 8.57301 19.4002C8.48177 19.4204 8.39507 19.4573 8.31728 19.5091C8.27781 19.5333 8.24126 19.5619 8.20835 19.5944C8.17571 19.6285 8.14564 19.6649 8.1184 19.7034C8.09313 19.7418 8.07241 19.7831 8.05666 19.8264C8.03752 19.8689 8.02325 19.9134 8.01411 19.9591C8.00496 20.0043 8.00024 20.0502 8.00001 20.0962C7.99955 20.1896 8.01774 20.2821 8.05352 20.3683C8.08929 20.4545 8.14193 20.5327 8.20834 20.5982Z" fill="black"/>
<path d="M8.0141 28.6253C8.02396 28.6708 8.03821 28.7151 8.05665 28.7578C8.0724 28.8011 8.09312 28.8425 8.1184 28.8811C8.14442 28.919 8.17459 28.9539 8.20835 28.9851C8.24123 29.0191 8.27775 29.0493 8.31727 29.0753C8.3557 29.1018 8.39696 29.124 8.44028 29.1414C8.48277 29.1607 8.5273 29.175 8.57302 29.1842C8.61833 29.1922 8.66437 29.1954 8.71035 29.1937C8.8036 29.1936 8.89593 29.1752 8.98203 29.1394C9.06814 29.1036 9.14633 29.0512 9.21214 28.9851C9.2459 28.9538 9.27614 28.9189 9.30232 28.881C9.32715 28.8415 9.34924 28.8003 9.36845 28.7578C9.38333 28.7143 9.39599 28.6701 9.40638 28.6253C9.4255 28.5332 9.4255 28.4381 9.40638 28.346C9.39599 28.3011 9.38333 28.2568 9.36845 28.2132C9.34919 28.1708 9.3271 28.1297 9.30232 28.0902C9.27494 28.0518 9.2448 28.0154 9.21214 27.9813C9.12836 27.901 9.02683 27.8415 8.91578 27.8078C8.80474 27.7741 8.6873 27.7669 8.573 27.7871C8.48177 27.8073 8.39506 27.8442 8.31727 27.896C8.2778 27.9201 8.24125 27.9488 8.20835 27.9813C8.1757 28.0153 8.14563 28.0517 8.1184 28.0902C8.09317 28.1287 8.07245 28.17 8.05665 28.2132C8.00049 28.343 7.98563 28.4868 8.0141 28.6253Z" fill="black"/>
</svg>
