<svg width="69" height="69" viewBox="0 0 69 69" fill="none" xmlns="http://www.w3.org/2000/svg">
    <path d="M6.97828 36.5078L4.5636 37.671L9.34494 39.5502L10.6484 37.9503L6.97828 36.5078Z" fill="#1288FF" stroke="#2A2F45" stroke-width="0.666667" stroke-linejoin="round"/>
    <path d="M44.1152 9.63041L42.6676 4.5625L41.0728 6.74133L42.1884 10.6473L44.1152 9.63041Z" fill="#1288FF" stroke="#2A2F45" stroke-width="0.666667" stroke-linejoin="round"/>
    <path d="M55.1417 16.6697L56.2848 10.6484L50.932 12.878L50.2 16.7333L55.1417 16.6697Z" fill="#1288FF" stroke="#2A2F45" stroke-width="0.666667" stroke-linejoin="round"/>
    <path d="M60.1876 28.9029L65.4122 21.2969L58.174 21.4098L54.7637 26.3746L60.1876 28.9029Z" fill="#1288FF" stroke="#2A2F45" stroke-width="0.666667" stroke-linejoin="round"/>
    <path d="M44.7911 66.9332L47.0828 56.121L57.4187 60.2462L54.7559 49.5101L65.8641 48.7776L58.7744 40.2443L68.4546 34.7994L62.2358 31.9453L55.1758 35.9164L62.3262 44.5231L51.1228 45.2618L53.8084 56.0898L43.384 51.9294L41.0728 62.8341L44.7911 66.9332Z" fill="#1288FF" stroke="#2A2F45" stroke-width="0.666667" stroke-linejoin="round"/>
    <path d="M28.9031 61.5634L30.9558 68.4565L38.0303 59.1847L34.09 54.7656L28.9031 61.5634Z" fill="#1288FF" stroke="#2A2F45" stroke-width="0.666667" stroke-linejoin="round"/>
    <path d="M19.0892 55.7401L18.2545 62.3695L24.3394 58.5476L23.0659 53.2422L19.0892 55.7401Z" fill="#1288FF" stroke="#2A2F45" stroke-width="0.666667" stroke-linejoin="round"/>
    <path d="M10.8102 47.2227L7.60608 51.7199L14.4883 51.6165L15.2121 47.1562L10.8102 47.2227Z" fill="#1288FF" stroke="#2A2F45" stroke-width="0.666667" stroke-linejoin="round"/>
    <path d="M42.0404 11.0695L51.577 6.32562L49.9143 16.7846L49.8517 17.1783L50.2503 17.1721L60.92 17.0083L54.8506 25.7053L54.6211 26.0342L54.9856 26.2015L64.6749 30.6475L55.4008 35.863L55.0505 36.06L55.3073 36.3691L62.0996 44.5432L51.4551 45.245L51.0556 45.2714L51.152 45.66L53.7035 55.9454L43.7959 51.992L43.4265 51.8446L43.344 52.2336L41.1474 62.5955L33.9406 54.7679L33.6724 54.4767L33.4295 54.7894L26.9178 63.1739L23.8415 53.0241L23.7266 52.6448L23.3717 52.8214L13.8351 57.5654L15.4978 47.1063L15.5604 46.7126L15.1618 46.7187L4.49201 46.8825L10.5615 38.1854L10.7911 37.8565L10.4265 37.6892L0.737272 33.2434L10.0113 28.0278L10.3616 27.8308L10.1047 27.5217L3.31252 19.3476L13.9569 18.646L14.3564 18.6196L14.26 18.2311L11.7085 7.94547L21.6163 11.899L21.9857 12.0464L22.0682 11.6574L24.2647 1.29544L31.4716 9.12304L31.7398 9.41431L31.9826 9.10161L38.4943 0.717048L41.5706 10.8667L41.6856 11.246L42.0404 11.0695Z" fill="#F4F4F4" stroke="black" stroke-width="0.67"/>
    <path d="M38.6057 0.118009L38.7191 0.0838821C38.7061 0.0416006 38.6708 0.00999155 38.6272 0.00196715C38.5837 -0.00605725 38.5392 0.0108459 38.5122 0.0457709L38.6057 0.118009ZM41.858 10.8478L41.7446 10.8819C41.7548 10.9152 41.7789 10.9424 41.8111 10.9561C41.8431 10.9699 41.8796 10.9689 41.9108 10.9534L41.858 10.8478ZM51.9402 5.83292L52.0569 5.85138C52.064 5.80774 52.0458 5.76386 52.01 5.73774C51.9743 5.71161 51.9269 5.7076 51.8871 5.72733L51.9402 5.83292ZM50.1818 16.893L50.0648 16.8745C50.0593 16.9089 50.0693 16.944 50.0923 16.9703C50.1152 16.9966 50.1486 17.0115 50.1834 17.011L50.1818 16.893ZM61.4649 16.7197L61.5622 16.7871C61.5876 16.7508 61.5904 16.7033 61.5693 16.6643C61.5485 16.6252 61.5075 16.6011 61.463 16.6017L61.4649 16.7197ZM55.0443 25.9194L54.947 25.8521C54.9271 25.8807 54.9207 25.9168 54.9299 25.9505C54.9392 25.9843 54.9628 26.0121 54.9946 26.0268L55.0443 25.9194ZM65.2939 30.6221L65.3519 30.725C65.3907 30.7031 65.4139 30.6616 65.412 30.6174C65.4104 30.5731 65.3836 30.5336 65.3433 30.515L65.2939 30.6221ZM55.4824 36.1394L55.4241 36.0367C55.3936 36.054 55.3722 36.0837 55.3659 36.1181C55.3595 36.1524 55.3687 36.1878 55.3912 36.2147L55.4824 36.1394ZM62.6683 44.7866L62.6761 44.9044C62.7204 44.9016 62.7595 44.8742 62.777 44.8334C62.7945 44.7928 62.7879 44.7456 62.7595 44.7113L62.6683 44.7866ZM51.4093 45.5289L51.4015 45.4111C51.3667 45.4135 51.3345 45.4309 51.3139 45.4593C51.293 45.4874 51.2859 45.5232 51.2944 45.5572L51.4093 45.5289ZM54.1083 56.4079L54.0642 56.5174C54.1054 56.5339 54.1525 56.5259 54.1859 56.4968C54.2195 56.4678 54.234 56.4225 54.2233 56.3795L54.1083 56.4079ZM43.6321 52.2278L43.6759 52.1183C43.6435 52.1054 43.607 52.1072 43.5762 52.1238C43.5454 52.1403 43.5234 52.1693 43.5161 52.2035L43.6321 52.2278ZM41.3094 63.184L41.2222 63.2638C41.2521 63.2963 41.2978 63.3095 41.3406 63.2977C41.3835 63.2862 41.4162 63.2517 41.4252 63.2083L41.3094 63.184ZM33.6906 54.9096L33.7777 54.8299C33.7543 54.8042 33.7204 54.7902 33.6856 54.7916C33.6508 54.7931 33.6184 54.8098 33.5971 54.8374L33.6906 54.9096ZM26.8066 63.7728L26.6931 63.8071C26.7059 63.8493 26.7414 63.8809 26.785 63.889C26.8286 63.897 26.8731 63.88 26.9001 63.8451L26.8066 63.7728ZM23.5542 53.043L23.6676 53.009C23.6575 52.9758 23.6331 52.9486 23.6011 52.9347C23.5691 52.921 23.5327 52.922 23.5014 52.9375L23.5542 53.043ZM13.4721 58.058L13.3552 58.0394C13.3482 58.0831 13.3663 58.127 13.4021 58.1532C13.4379 58.1794 13.4853 58.1834 13.525 58.1635L13.4721 58.058ZM15.2305 46.9978L15.3474 47.0165C15.3529 46.982 15.3428 46.9468 15.3199 46.9206C15.297 46.8942 15.2636 46.8793 15.2286 46.8798L15.2305 46.9978ZM3.94722 47.1711L3.85004 47.1038C3.82468 47.1401 3.82184 47.1876 3.84272 47.2265C3.86358 47.2657 3.90464 47.2898 3.94904 47.2891L3.94722 47.1711ZM10.368 37.9713L10.4652 38.0388C10.4852 38.01 10.4915 37.9741 10.4822 37.9404C10.473 37.9067 10.4493 37.8788 10.4175 37.8642L10.368 37.9713ZM0.118397 33.2688L0.0602198 33.1659C0.0214924 33.1876 -0.00172751 33.2294 0.000100528 33.2735C0.00192857 33.3179 0.0284967 33.3573 0.0688888 33.3759L0.118397 33.2688ZM9.92985 27.7513L9.98803 27.8542C10.0186 27.837 10.0399 27.8072 10.0463 27.7728C10.0527 27.7386 10.0434 27.7031 10.021 27.676L9.92985 27.7513ZM2.74396 19.1041L2.73614 18.9864C2.69177 18.9893 2.65279 19.0168 2.63522 19.0575C2.61763 19.0982 2.62443 19.1453 2.65277 19.1794L2.74396 19.1041ZM14.0028 18.3621L14.0106 18.4798C14.0456 18.4775 14.0777 18.4599 14.0984 18.4317C14.1191 18.4035 14.1262 18.3676 14.1178 18.3337L14.0028 18.3621ZM11.3039 7.483L11.3479 7.37344C11.3067 7.35699 11.2597 7.36492 11.2262 7.39397C11.1927 7.42305 11.1783 7.46834 11.1889 7.51132L11.3039 7.483ZM21.7802 11.6631L21.7362 11.7726C21.7686 11.7856 21.8052 11.7836 21.836 11.7672C21.8668 11.7507 21.8888 11.7216 21.896 11.6875L21.7802 11.6631ZM24.1029 0.706915L24.19 0.627125C24.1599 0.59456 24.1142 0.581426 24.0716 0.593094C24.0288 0.604763 23.9961 0.639275 23.9868 0.682519L24.1029 0.706915ZM31.7217 8.98127L31.6343 9.06107C31.658 9.08667 31.6916 9.10062 31.7266 9.09916C31.7614 9.09772 31.7939 9.08101 31.8152 9.05351L31.7217 8.98127ZM38.4923 0.152137L41.7446 10.8819L41.9712 10.8137L38.7191 0.0838821L38.4923 0.152137ZM41.9108 10.9534L51.993 5.93851L51.8871 5.72733L41.805 10.7422L41.9108 10.9534ZM51.8232 5.81444L50.0648 16.8745L50.2987 16.9114L52.0569 5.85138L51.8232 5.81444ZM50.1834 17.011L61.4668 16.8377L61.463 16.6017L50.1799 16.775L50.1834 17.011ZM61.3678 16.6523L54.947 25.8521L55.1414 25.9869L61.5622 16.7871L61.3678 16.6523ZM54.9946 26.0268L65.2444 30.7293L65.3433 30.515L55.0938 25.8122L54.9946 26.0268ZM65.2356 30.5195L55.4241 36.0367L55.5406 36.2423L65.3519 30.725L65.2356 30.5195ZM55.3912 36.2147L62.5771 44.8619L62.7595 44.7113L55.5735 36.0643L55.3912 36.2147ZM62.6605 44.6691L51.4015 45.4111L51.4171 45.6467L62.6761 44.9044L62.6605 44.6691ZM51.2944 45.5572L53.9934 56.4362L54.2233 56.3795L51.5244 45.5006L51.2944 45.5572ZM54.1523 56.2983L43.6759 52.1183L43.588 52.3374L54.0642 56.5174L54.1523 56.2983ZM43.5161 52.2035L41.1936 63.1597L41.4252 63.2083L43.7479 52.2522L43.5161 52.2035ZM41.3965 63.1042L33.7777 54.8299L33.6035 54.9894L41.2222 63.2638L41.3965 63.1042ZM33.5971 54.8374L26.7128 63.7006L26.9001 63.8451L33.7841 54.9819L33.5971 54.8374ZM26.9198 63.7388L23.6676 53.009L23.4408 53.0773L26.6931 63.8071L26.9198 63.7388ZM23.5014 52.9375L13.4192 57.9523L13.525 58.1635L23.607 53.1488L23.5014 52.9375ZM13.5891 58.0765L15.3474 47.0165L15.1135 46.9794L13.3552 58.0394L13.5891 58.0765ZM15.2286 46.8798L3.9454 47.053L3.94904 47.2891L15.2323 47.1158L15.2286 46.8798ZM4.04442 47.2386L10.4652 38.0388L10.2708 37.904L3.85004 47.1038L4.04442 47.2386ZM10.4175 37.8642L0.167906 33.1616L0.0688888 33.3759L10.3185 38.0787L10.4175 37.8642ZM0.176575 33.3714L9.98803 27.8542L9.87167 27.6486L0.0602198 33.1659L0.176575 33.3714ZM10.021 27.676L2.83515 19.0289L2.65277 19.1794L9.83869 27.8266L10.021 27.676ZM2.75177 19.2219L14.0106 18.4798L13.995 18.2443L2.73614 18.9864L2.75177 19.2219ZM14.1178 18.3337L11.4188 7.45468L11.1889 7.51132L13.8879 18.3904L14.1178 18.3337ZM11.2599 7.59255L21.7362 11.7726L21.8242 11.5535L11.3479 7.37344L11.2599 7.59255ZM21.896 11.6875L24.2187 0.73131L23.9868 0.682519L21.6644 11.6387L21.896 11.6875ZM24.0155 0.786704L31.6343 9.06107L31.8088 8.90148L24.19 0.627125L24.0155 0.786704ZM31.8152 9.05351L38.6992 0.190246L38.5122 0.0457709L31.6279 8.90903L31.8152 9.05351Z" fill="#2A2F45"/>
    </svg>
    