<svg width="73" height="51" viewBox="0 0 73 51" fill="none" xmlns="http://www.w3.org/2000/svg">
<path d="M11.4887 7.30914C25.4493 -0.790548 48.0839 -0.790548 62.0447 7.30914C70.7618 12.3669 74.0361 19.3866 71.8666 25.9181C71.9048 25.8034 71.9412 25.6887 71.976 25.5739C73.9194 32.0068 70.609 38.8696 62.0447 43.8385C48.0839 51.938 25.4493 51.938 11.4887 43.8385C2.92436 38.8696 -0.38608 32.0068 1.55735 25.5739L1.43174 25.1297C-0.231218 18.8263 3.1211 12.1638 11.4887 7.30914Z" fill="#1288FF" stroke="#2A2F45" stroke-width="0.666667" stroke-linejoin="round"/>
<path fill-rule="evenodd" clip-rule="evenodd" d="M11.4887 36.2921C25.4494 44.3121 48.0839 44.3121 62.0447 36.2921C76.0053 28.2723 76.0053 15.2693 62.0447 7.24934C48.0839 -0.770614 25.4494 -0.770614 11.4887 7.24934C-2.47197 15.2693 -2.47197 28.2723 11.4887 36.2921ZM28.5481 26.492C23.8301 23.7818 22.088 20.0081 23.333 16.5075L17.4738 15.8198C15.8439 20.4027 18.122 25.361 24.3196 28.9212C30.517 32.4815 39.148 33.7902 47.1256 32.854L45.9284 29.488C39.8348 30.2033 33.2661 29.2025 28.5481 26.492ZM39.0657 14.134L34.9311 16.5092L30.7024 14.08L34.8369 11.7048L39.0657 14.134ZM50.1541 25.2544L54.2886 22.8792L50.0601 20.45L45.9253 22.8252L50.1541 25.2544Z" fill="#F4F4F4" stroke="#2A2F45" stroke-width="0.666667" stroke-linejoin="round"/>
</svg>
