<svg width="60" height="67" viewBox="0 0 60 67" fill="none" xmlns="http://www.w3.org/2000/svg">
<path d="M9.47429 21.926C3.43564 26.6501 0.886473 32.6351 1.11736 39.1877C1.52322 50.7056 12.9096 56.5781 23.2763 59.3503C42.2781 64.4319 47.8111 58.4681 47.5087 53.8057C53.729 51.6885 52.0442 46.0346 50.3597 43.8503C55.6727 41.8341 54.2472 35.1552 51.3965 33.391C57.2138 29.4557 53.6333 22.4638 47.5087 21.926C41.3844 21.3882 35.8353 22.9234 27.0098 20.552C30.6486 16.3735 35.7422 6.61676 27.0096 1.01561C23.8742 -0.565398 15.7452 1.01518 15.7452 7.33923C15.7452 11.4046 14.8539 17.7176 9.47429 21.926Z" fill="#F4F4F4"/>
<path d="M27.0096 20.5519C35.8353 22.9234 41.3841 21.3882 47.5087 21.926C53.6333 22.4638 57.2138 29.4557 51.3964 33.3911C54.2472 35.1552 55.6727 41.8341 50.3597 43.8503C52.0442 46.0346 53.729 51.6885 47.5087 53.8057C47.8111 58.4681 42.2781 64.4319 23.2763 59.3503C12.9096 56.5781 1.52322 50.7056 1.11736 39.1877C0.886473 32.6351 3.43564 26.6501 9.47429 21.926C14.8539 17.7176 15.7452 11.4046 15.7452 7.33923C15.7452 1.01518 23.8742 -0.565398 27.0096 1.01561C35.7424 6.61689 30.6484 16.374 27.0096 20.5523" stroke="#2A2F45" stroke-width="0.666667" stroke-linecap="round" stroke-linejoin="round"/>
<path d="M56.3127 38.4722C60.2005 35.4697 59.3208 30.6973 56.3127 28.3356L52.0156 24.7812C54.4254 27.2884 54.8636 31.5229 51.303 34.2727L56.3127 38.4722Z" fill="#1288FF" stroke="#2A2F45" stroke-width="0.666667" stroke-linecap="round" stroke-linejoin="round"/>
<path d="M11.7515 54.8947C16.1098 59.3361 22.5248 62.1369 28.5906 63.8299C47.5842 69.1306 53.1149 62.9097 52.8126 58.046L47.1248 53.6875C47.4271 58.5511 41.8964 64.772 22.9027 59.4714C19.1276 58.4178 15.2172 56.935 11.7515 54.8947Z" fill="#1288FF" stroke="#2A2F45" stroke-width="0.666667" stroke-linecap="round" stroke-linejoin="round"/>
<path d="M52.7407 58.2534C59.301 56.2027 57.5241 50.7259 55.7475 48.61L49.7462 44.5625C51.5228 46.6784 53.2997 52.1552 46.7394 54.2059L52.7407 58.2534Z" fill="#1288FF" stroke="#2A2F45" stroke-width="0.666667" stroke-linecap="round" stroke-linejoin="round"/>
<path d="M56.404 37.8222C59.2103 39.4723 60.6136 45.7191 55.3834 47.605L49.7818 43.6968C54.7178 41.9171 53.7457 36.2528 51.2616 34.2343L50.8025 33.9141C50.9602 34.0068 51.1134 34.1141 51.2616 34.2343L56.404 37.8222Z" fill="#1288FF" stroke="#2A2F45" stroke-width="0.666667" stroke-linecap="round" stroke-linejoin="round"/>
<path d="M34.8658 21.7445C37.8613 16.9339 39.9063 9.66136 32.7276 5.12189L28.372 1.96875C35.2121 7.66117 30.4344 16.5305 26.9636 20.4601C29.9121 21.2412 32.4994 21.5979 34.8658 21.7445Z" fill="#1288FF"/>
<path d="M26.9639 20.4601L26.9636 20.4601M26.9639 20.4601L26.9636 20.4605M26.9639 20.4601C30.4345 16.5305 35.2122 7.66117 28.3722 1.96875L32.7277 5.12189C39.9063 9.66136 37.8613 16.9339 34.8658 21.7445C32.4995 21.5979 29.9123 21.2412 26.9639 20.4601Z" stroke="#2A2F45" stroke-width="0.666667" stroke-linecap="round" stroke-linejoin="round"/>
</svg>
