<svg width="69" height="70" viewBox="0 0 69 70" fill="none" xmlns="http://www.w3.org/2000/svg">
<path d="M7.0329 37.1719L4.61823 38.3351L9.39956 40.2143L10.7031 38.6143L7.0329 37.1719Z" fill="#1288FF" stroke="#2A2F45" stroke-width="0.666667" stroke-linejoin="round"/>
<path d="M44.1697 10.2945L42.7222 5.22656L41.1273 7.40539L42.243 11.3114L44.1697 10.2945Z" fill="#1288FF" stroke="#2A2F45" stroke-width="0.666667" stroke-linejoin="round"/>
<path d="M55.1964 17.3338L56.3394 11.3125L50.9866 13.5421L50.2546 17.3973L55.1964 17.3338Z" fill="#1288FF" stroke="#2A2F45" stroke-width="0.666667" stroke-linejoin="round"/>
<path d="M60.2422 29.567L65.4667 21.9609L58.2286 22.0739L54.8182 27.0387L60.2422 29.567Z" fill="#1288FF" stroke="#2A2F45" stroke-width="0.666667" stroke-linejoin="round"/>
<path d="M44.8457 67.5973L47.1374 56.7851L57.4732 60.9102L54.8105 50.1741L65.9187 49.4417L58.829 40.9083L68.5091 35.4635L62.2903 32.6094L55.2303 36.5804L62.3808 45.1871L51.1774 45.9259L53.863 56.7538L43.4386 52.5934L41.1273 63.4982L44.8457 67.5973Z" fill="#1288FF" stroke="#2A2F45" stroke-width="0.666667" stroke-linejoin="round"/>
<path d="M28.9576 62.2275L31.0104 69.1206L38.0849 59.8487L34.1445 55.4297L28.9576 62.2275Z" fill="#1288FF" stroke="#2A2F45" stroke-width="0.666667" stroke-linejoin="round"/>
<path d="M19.1437 56.4042L18.3091 63.0335L24.394 59.2117L23.1205 53.9062L19.1437 56.4042Z" fill="#1288FF" stroke="#2A2F45" stroke-width="0.666667" stroke-linejoin="round"/>
<path d="M10.8648 47.8867L7.66064 52.3839L14.5429 52.2806L15.2667 47.8203L10.8648 47.8867Z" fill="#1288FF" stroke="#2A2F45" stroke-width="0.666667" stroke-linejoin="round"/>
<path d="M38.6816 0.664062L41.9458 11.4336L52.0646 6.40017L50.2998 17.5012L61.6239 17.3273L55.1799 26.5611L65.4667 31.2813L55.6196 36.819L62.8316 45.4983L51.5317 46.2434L54.2405 57.1627L43.7263 52.9672L41.3952 63.9639L33.7487 55.6589L26.8397 64.555L23.5755 53.7854L13.4568 58.819L15.2215 47.7177L3.89732 47.8916L10.3414 38.6578L0.0545959 33.9378L9.90168 28.3998L2.68969 19.7206L13.9894 18.9758L11.2807 8.05637L21.7951 12.2519L24.1262 1.25515L31.7726 9.56019L38.6816 0.664062Z" fill="#F4F4F4"/>
<path d="M38.6603 0.782072L38.7737 0.747945C38.7607 0.705663 38.7254 0.674054 38.6818 0.66603C38.6383 0.658005 38.5938 0.674908 38.5668 0.709833L38.6603 0.782072ZM41.9126 11.5119L41.7992 11.546C41.8094 11.5793 41.8335 11.6064 41.8657 11.6202C41.8977 11.634 41.9342 11.633 41.9654 11.6174L41.9126 11.5119ZM51.9948 6.49698L52.1115 6.51544C52.1186 6.4718 52.1004 6.42793 52.0646 6.4018C52.0289 6.37567 51.9815 6.37166 51.9417 6.39139L51.9948 6.49698ZM50.2364 17.557L50.1194 17.5386C50.1139 17.573 50.1239 17.608 50.1469 17.6344C50.1698 17.6607 50.2032 17.6756 50.238 17.675L50.2364 17.557ZM61.5195 17.3838L61.6168 17.4512C61.6422 17.4148 61.645 17.3674 61.6239 17.3283C61.6031 17.2893 61.5621 17.2651 61.5176 17.2658L61.5195 17.3838ZM55.0989 26.5834L55.0016 26.5162C54.9817 26.5447 54.9753 26.5808 54.9845 26.6146C54.9938 26.6483 55.0174 26.6762 55.0492 26.6908L55.0989 26.5834ZM65.3484 31.2862L65.4065 31.3891C65.4453 31.3672 65.4685 31.3256 65.4666 31.2815C65.465 31.2371 65.4382 31.1977 65.3979 31.1791L65.3484 31.2862ZM55.537 36.8034L55.4787 36.7008C55.4482 36.718 55.4268 36.7477 55.4205 36.7822C55.4141 36.8164 55.4233 36.8518 55.4458 36.8787L55.537 36.8034ZM62.7229 45.4507L62.7307 45.5685C62.775 45.5656 62.8141 45.5382 62.8316 45.4974C62.8491 45.4568 62.8425 45.4096 62.8141 45.3754L62.7229 45.4507ZM51.4639 46.1929L51.4561 46.0752C51.4213 46.0775 51.3891 46.095 51.3685 46.1233C51.3476 46.1514 51.3405 46.1873 51.349 46.2213L51.4639 46.1929ZM54.1629 57.0719L54.1188 57.1814C54.16 57.1979 54.2071 57.1899 54.2405 57.1609C54.2741 57.1319 54.2886 57.0865 54.2779 57.0436L54.1629 57.0719ZM43.6867 52.8919L43.7305 52.7824C43.698 52.7694 43.6616 52.7713 43.6308 52.7878C43.6 52.8043 43.578 52.8334 43.5707 52.8676L43.6867 52.8919ZM41.364 63.848L41.2768 63.9278C41.3067 63.9604 41.3524 63.9736 41.3952 63.9618C41.4381 63.9502 41.4708 63.9158 41.4798 63.8723L41.364 63.848ZM33.7452 55.5737L33.8323 55.4939C33.8089 55.4682 33.775 55.4543 33.7402 55.4557C33.7054 55.4571 33.673 55.4739 33.6517 55.5015L33.7452 55.5737ZM26.8612 64.4369L26.7477 64.4711C26.7605 64.5134 26.796 64.545 26.8396 64.553C26.8832 64.561 26.9277 64.544 26.9547 64.5091L26.8612 64.4369ZM23.6088 53.7071L23.7222 53.6731C23.7121 53.6398 23.6877 53.6127 23.6557 53.5988C23.6237 53.5851 23.5873 53.586 23.556 53.6016L23.6088 53.7071ZM13.5267 58.7221L13.4098 58.7035C13.4028 58.7471 13.4209 58.791 13.4567 58.8172C13.4925 58.8434 13.5399 58.8474 13.5796 58.8276L13.5267 58.7221ZM15.2851 47.6619L15.402 47.6805C15.4075 47.6461 15.3974 47.6109 15.3745 47.5847C15.3516 47.5583 15.3182 47.5434 15.2832 47.5439L15.2851 47.6619ZM4.00182 47.8351L3.90464 47.7678C3.87927 47.8042 3.87643 47.8516 3.89732 47.8906C3.91818 47.9298 3.95924 47.9538 4.00364 47.9531L4.00182 47.8351ZM10.4226 38.6354L10.5198 38.7029C10.5398 38.6741 10.546 38.6382 10.5368 38.6045C10.5276 38.5707 10.5039 38.5429 10.4721 38.5282L10.4226 38.6354ZM0.172993 33.9328L0.114816 33.8299C0.0760883 33.8516 0.0528684 33.8934 0.0546965 33.9376C0.0565245 33.9819 0.0830927 34.0213 0.123485 34.04L0.172993 33.9328ZM9.98445 28.4154L10.0426 28.5183C10.0732 28.501 10.0945 28.4713 10.1009 28.4368C10.1072 28.4026 10.098 28.3672 10.0756 28.3401L9.98445 28.4154ZM2.79855 19.7682L2.79074 19.6505C2.74637 19.6534 2.70739 19.6809 2.68982 19.7215C2.67223 19.7623 2.67902 19.8094 2.70737 19.8435L2.79855 19.7682ZM14.0574 19.0261L14.0652 19.1439C14.1002 19.1416 14.1323 19.1239 14.153 19.0957C14.1737 19.0676 14.1808 19.0317 14.1724 18.9978L14.0574 19.0261ZM11.3585 8.14706L11.4025 8.0375C11.3613 8.02105 11.3142 8.02898 11.2808 8.05803C11.2473 8.08711 11.2329 8.1324 11.2435 8.17538L11.3585 8.14706ZM21.8348 12.3271L21.7908 12.4367C21.8232 12.4496 21.8598 12.4476 21.8906 12.4312C21.9214 12.4148 21.9434 12.3856 21.9506 12.3515L21.8348 12.3271ZM24.1575 1.37098L24.2446 1.29119C24.2145 1.25862 24.1688 1.24549 24.1262 1.25716C24.0833 1.26883 24.0507 1.30334 24.0414 1.34658L24.1575 1.37098ZM31.7763 9.64533L31.6889 9.72513C31.7126 9.75074 31.7462 9.76468 31.7812 9.76322C31.816 9.76178 31.8485 9.74507 31.8698 9.71758L31.7763 9.64533ZM38.5469 0.816199L41.7992 11.546L42.0258 11.4777L38.7737 0.747945L38.5469 0.816199ZM41.9654 11.6174L52.0476 6.60257L51.9417 6.39139L41.8596 11.4063L41.9654 11.6174ZM51.8778 6.4785L50.1194 17.5386L50.3533 17.5755L52.1115 6.51544L51.8778 6.4785ZM50.238 17.675L61.5214 17.5018L61.5176 17.2658L50.2345 17.439L50.238 17.675ZM61.4224 17.3164L55.0016 26.5162L55.196 26.6509L61.6168 17.4512L61.4224 17.3164ZM55.0492 26.6908L65.299 31.3934L65.3979 31.1791L55.1484 26.4763L55.0492 26.6908ZM65.2902 31.1835L55.4787 36.7008L55.5952 36.9063L65.4065 31.3891L65.2902 31.1835ZM55.4458 36.8787L62.6317 45.526L62.8141 45.3754L55.6281 36.7284L55.4458 36.8787ZM62.7151 45.3332L51.4561 46.0752L51.4717 46.3107L62.7307 45.5685L62.7151 45.3332ZM51.349 46.2213L54.048 57.1002L54.2779 57.0436L51.579 46.1646L51.349 46.2213ZM54.2069 56.9624L43.7305 52.7824L43.6426 53.0014L54.1188 57.1814L54.2069 56.9624ZM43.5707 52.8676L41.2482 63.8237L41.4798 63.8723L43.8025 52.9162L43.5707 52.8676ZM41.4511 63.7683L33.8323 55.4939L33.658 55.6535L41.2768 63.9278L41.4511 63.7683ZM33.6517 55.5015L26.7674 64.3647L26.9547 64.5091L33.8387 55.6459L33.6517 55.5015ZM26.9743 64.4029L23.7222 53.6731L23.4954 53.7413L26.7477 64.4711L26.9743 64.4029ZM23.556 53.6016L13.4738 58.6164L13.5796 58.8276L23.6616 53.8128L23.556 53.6016ZM13.6436 58.7405L15.402 47.6805L15.1681 47.6435L13.4098 58.7035L13.6436 58.7405ZM15.2832 47.5439L3.99999 47.7171L4.00364 47.9531L15.2869 47.7799L15.2832 47.5439ZM4.09902 47.9026L10.5198 38.7029L10.3254 38.5681L3.90464 47.7678L4.09902 47.9026ZM10.4721 38.5282L0.222502 33.8257L0.123485 34.04L10.3731 38.7428L10.4721 38.5282ZM0.231171 34.0355L10.0426 28.5183L9.92627 28.3127L0.114816 33.8299L0.231171 34.0355ZM10.0756 28.3401L2.88974 19.6929L2.70737 19.8435L9.89328 28.4906L10.0756 28.3401ZM2.80637 19.886L14.0652 19.1439L14.0496 18.9084L2.79074 19.6505L2.80637 19.886ZM14.1724 18.9978L11.4734 8.11874L11.2435 8.17538L13.9425 19.0544L14.1724 18.9978ZM11.3145 8.25662L21.7908 12.4367L21.8788 12.2176L11.4025 8.0375L11.3145 8.25662ZM21.9506 12.3515L24.2733 1.39537L24.0414 1.34658L21.719 12.3027L21.9506 12.3515ZM24.0701 1.45077L31.6889 9.72513L31.8634 9.56554L24.2446 1.29119L24.0701 1.45077ZM31.8698 9.71758L38.7538 0.854308L38.5668 0.709833L31.6825 9.57309L31.8698 9.71758Z" fill="#2A2F45"/>
</svg>
