<svg width="61" height="62" viewBox="0 0 61 62" fill="none" xmlns="http://www.w3.org/2000/svg">
<path d="M7.91756 11.2047C8.48364 10.6401 9.07017 10.1084 9.67477 9.60938C1.57455 19.3746 2.10775 33.8678 11.2742 43.0105C19.6986 51.4132 32.6537 52.5426 42.296 46.3987C42.3981 46.5204 42.5067 46.6383 42.6211 46.7527L52.2958 56.4024C54.4084 58.5093 57.8331 58.5093 59.9454 56.4024L56.5888 59.7504C54.4764 61.8573 51.0517 61.8573 48.9393 59.7504L39.2645 50.1007C39.15 49.9863 39.0416 49.8682 38.9393 49.7467C29.297 55.8904 16.342 54.761 7.91756 46.3584C-1.81497 36.6509 -1.81497 20.9122 7.91756 11.2047Z" fill="#1288FF" stroke="#2A2F45" stroke-width="0.666667" stroke-linejoin="round"/>
<path d="M37.0948 16.6535C43.1715 23.0343 43.6691 33.0547 38.587 40.0314C39.1795 39.5556 39.7488 39.0334 40.2905 38.4646C46.9092 31.515 46.9092 20.2476 40.2905 13.298C33.6721 6.34856 22.9412 6.34856 16.3226 13.2981C15.7809 13.8669 15.2833 14.4647 14.8303 15.0867C21.4746 9.75067 31.0181 10.2729 37.0948 16.6535Z" fill="#2A2F45" stroke="#2A2F45" stroke-width="0.666667" stroke-linejoin="round"/>
<path fill-rule="evenodd" clip-rule="evenodd" d="M49.1091 38.9728C55.133 29.2884 54.0256 16.2768 45.787 7.81564C36.2694 -1.95938 20.8379 -1.95938 11.3202 7.81564C1.80238 17.5907 1.80238 33.4392 11.3202 43.2141C19.5586 51.6753 32.2278 52.8126 41.6574 46.6259C41.7574 46.7482 41.8634 46.8672 41.9753 46.9824L51.4365 56.6992C53.5023 58.8208 56.8516 58.8208 58.9174 56.6992C60.9831 54.5777 60.9831 51.1378 58.9174 49.0162L49.4562 39.2993C49.344 39.1841 49.2282 39.0755 49.1091 38.9728ZM40.8633 12.8726C47.6616 19.8547 47.6616 31.175 40.8633 38.1572C34.0648 45.1392 23.0423 45.1392 16.244 38.1572C9.44559 31.175 9.44559 19.8547 16.244 12.8726C23.0423 5.89041 34.0648 5.89041 40.8633 12.8726Z" fill="#F4F4F4" stroke="#2A2F45" stroke-width="0.666667" stroke-linejoin="round"/>
</svg>
