<svg width="18" height="25" viewBox="0 0 18 25" fill="none" xmlns="http://www.w3.org/2000/svg">
<path d="M16.5331 9.31908C16.5331 13.5877 8.81878 23.8905 8.81878 23.8905C8.81878 23.8905 1.10449 13.5877 1.10449 9.31908C1.10449 7.27313 1.91724 5.31097 3.36395 3.86426C4.81066 2.41755 6.77282 1.6048 8.81878 1.6048C10.8647 1.6048 12.8269 2.41755 14.2736 3.86426C15.7203 5.31097 16.5331 7.27313 16.5331 9.31908V9.31908Z" stroke="#2A2F45" stroke-width="1.71429" stroke-linecap="round" stroke-linejoin="round"/>
<path d="M8.8185 11.8905C10.2387 11.8905 11.3899 10.7392 11.3899 9.31908C11.3899 7.89892 10.2387 6.74765 8.8185 6.74765C7.39834 6.74765 6.24707 7.89892 6.24707 9.31908C6.24707 10.7392 7.39834 11.8905 8.8185 11.8905Z" stroke="#2A2F45" stroke-width="1.71429" stroke-linecap="round" stroke-linejoin="round"/>
</svg>
