<svg width="26" height="26" viewBox="0 0 26 26" fill="none" xmlns="http://www.w3.org/2000/svg">
<path d="M15.5824 12.354C14.6963 12.3383 13.9679 12.7443 13.5401 13.3241C13.1139 13.9019 12.95 14.6094 12.95 15.2857V20.3786H10.7643V10.7643H12.95V11.606C12.95 11.7363 12.991 11.8633 13.0672 11.9691C13.1433 12.0748 13.2508 12.1539 13.3744 12.1953C13.498 12.2366 13.6314 12.238 13.7558 12.1994C13.8803 12.1607 13.9894 12.0839 14.0678 11.9799L14.0683 11.9792L18.1929 20.3786M15.5824 12.354L15.5815 12.404L15.5823 12.354C15.5823 12.354 15.5824 12.354 15.5824 12.354ZM15.5824 12.354C16.4626 12.3692 17.1791 12.7664 17.606 13.3396C18.0314 13.9109 18.1929 14.6116 18.1929 15.2857V20.3786M18.1929 20.3786H20.3786M18.1929 20.3786H20.3786M20.3786 20.3786V14.8638C20.3786 13.403 19.9624 12.3955 19.3454 11.7442C18.7284 11.093 17.8832 10.7643 16.8929 10.7643C15.9202 10.7643 15.2133 11.0695 14.75 11.3738C14.5182 11.5261 14.3472 11.6782 14.2344 11.7919C14.178 11.8488 14.1362 11.896 14.1086 11.9289C14.0948 11.9453 14.0846 11.9581 14.0779 11.9666L14.0726 11.9736L14.0684 11.9791L20.3786 20.3786ZM6.71357 9.0433H6.71429C8.03549 9.0433 9.0433 8.11608 9.04331 6.98103L9.0433 6.98051C9.04319 6.96964 9.04279 6.95878 9.0421 6.94793C8.98215 5.83153 7.98806 4.9567 6.71429 4.9567C6.07867 4.9567 5.50351 5.14672 5.07607 5.50638C4.64816 5.86644 4.38527 6.40447 4.38527 6.98103C4.38527 8.07814 5.33367 8.9246 6.52664 9.01138C6.58692 9.03162 6.64998 9.04239 6.71357 9.0433ZM15.5605 13.5969L15.5605 13.5969C15.8366 13.6016 16.0442 13.6512 16.209 13.7343C16.3737 13.8174 16.499 13.9355 16.6083 14.0823C16.8258 14.3743 16.95 14.817 16.95 15.2857V21C16.95 21.1648 17.0155 21.3229 17.132 21.4394C17.2486 21.5559 17.4066 21.6214 17.5714 21.6214H21C21.1648 21.6214 21.3229 21.5559 21.4394 21.4394C21.5559 21.3229 21.6214 21.1648 21.6214 21V14.8638C21.6214 13.1618 21.1171 11.8079 20.2472 10.8897C19.3773 9.97144 18.1684 9.52143 16.8929 9.52143C15.7277 9.52143 14.8298 9.89686 14.1929 10.294V10.1429C14.1928 9.97805 14.1274 9.81999 14.0108 9.70346C13.8943 9.58692 13.7362 9.52145 13.5714 9.52143H10.1429C9.97805 9.52145 9.81999 9.58692 9.70346 9.70346C9.58692 9.81999 9.52145 9.97805 9.52143 10.1429V21C9.52145 21.1648 9.58692 21.3229 9.70346 21.4394C9.81999 21.5559 9.97805 21.6214 10.1429 21.6214H13.5714C13.7362 21.6214 13.8943 21.5559 14.0108 21.4394C14.1274 21.3229 14.1928 21.1648 14.1929 21V15.2857C14.1929 14.8191 14.3205 14.3588 14.5402 14.0609C14.6509 13.9109 14.774 13.7936 14.9335 13.7144C15.0932 13.6351 15.2932 13.5921 15.5605 13.5969ZM3.85714 0.95C2.25838 0.95 0.95 2.25838 0.95 3.85714V22.1429C0.95 23.7416 2.25838 25.05 3.85714 25.05H22.1429C23.7416 25.05 25.05 23.7416 25.05 22.1429V3.85714C25.05 2.25838 23.7416 0.95 22.1429 0.95H3.85714ZM3.85714 2.19286H22.1429C23.0687 2.19286 23.8071 2.93134 23.8071 3.85714V22.1429C23.8071 23.0687 23.0687 23.8071 22.1429 23.8071H3.85714C2.93134 23.8071 2.19286 23.0687 2.19286 22.1429V3.85714C2.19286 2.93134 2.93134 2.19286 3.85714 2.19286ZM6.71429 6.18616C7.10537 6.18616 7.36968 6.27356 7.53975 6.41523C7.70839 6.55571 7.79143 6.7555 7.80823 6.99688C7.80451 7.23027 7.73076 7.43143 7.5639 7.5753C7.39546 7.72053 7.12473 7.81384 6.71429 7.81384C6.32662 7.81384 6.052 7.7146 5.87512 7.56344C5.6989 7.41285 5.61473 7.2066 5.61473 6.98103C5.61473 6.75764 5.69488 6.59158 5.86701 6.44674C6.03951 6.30159 6.32125 6.18616 6.71429 6.18616ZM5 9.52143C4.83519 9.52145 4.67714 9.58692 4.5606 9.70346C4.44406 9.81999 4.37859 9.97805 4.37857 10.1429V21C4.37859 21.1648 4.44406 21.3229 4.5606 21.4394C4.67714 21.5559 4.83519 21.6214 5 21.6214H8.42857C8.59338 21.6214 8.75144 21.5559 8.86797 21.4394C8.98451 21.3229 9.04998 21.1648 9.05 21V17.6484V10.1429C9.04998 9.97805 8.98451 9.81999 8.86797 9.70346C8.75144 9.58692 8.59338 9.52145 8.42858 9.52143H5ZM7.80714 10.7643V17.6484V20.3786H5.62143V10.7643H7.80714Z" fill="white" stroke="white" stroke-width="0.1"/>
</svg>
