<svg width="36" height="36" viewBox="0 0 36 36" fill="none" xmlns="http://www.w3.org/2000/svg">
<path d="M17.95 24.6357V20.0572C17.95 19.4478 18.0977 18.8098 18.4821 18.2887C18.868 17.7656 19.5251 17.3994 20.3242 17.4136M17.95 24.6357L20.3233 17.4636M17.95 24.6357H15.9929V15.9929H17.95V16.7454V16.7455C17.95 16.8638 17.9873 16.9791 18.0564 17.0751C18.1256 17.1711 18.2232 17.243 18.3354 17.2805C18.4476 17.318 18.5688 17.3193 18.6817 17.2842C18.7947 17.2491 18.8938 17.1794 18.9651 17.0849L18.9656 17.0842L17.95 24.6357ZM20.3242 17.4136L20.3233 17.4636M20.3242 17.4136C20.3242 17.4136 20.3242 17.4136 20.3242 17.4136L20.3233 17.4636M20.3242 17.4136C21.118 17.4273 21.7643 17.7855 22.1494 18.3026C22.5331 18.8179 22.6786 19.4497 22.6786 20.0572V24.6357M20.3233 17.4636C21.1021 17.477 21.7337 17.8282 22.1093 18.3325C22.4848 18.8368 22.6286 19.4572 22.6286 20.0572V24.6357H22.6786M22.6786 24.6357V24.6857H24.6357V24.6357M22.6786 24.6357H24.6357M24.6357 24.6357H24.6857L18.9656 17.0842L18.9693 17.0793L18.9741 17.0731C18.98 17.0654 18.9892 17.0539 19.0016 17.0392C19.0263 17.0098 19.0638 16.9673 19.1145 16.9163C19.2158 16.8141 19.3694 16.6774 19.5777 16.5406C19.994 16.2672 20.6293 15.9929 21.5036 15.9929C22.3937 15.9929 23.1531 16.2883 23.7072 16.8732C24.2615 17.4583 24.6357 18.3636 24.6357 19.6775V24.6357ZM12.3422 14.444V14.444L14.4429 12.5531C14.4429 12.553 14.4429 12.5529 14.4429 12.5528C14.3888 11.545 13.4915 10.756 12.3429 10.756C11.7698 10.756 11.251 10.9274 10.8653 11.2519C10.479 11.5769 10.2418 12.0625 10.2418 12.5829C10.2418 13.5734 11.0977 14.3367 12.173 14.4152C12.2276 14.4334 12.2846 14.4432 12.3422 14.444ZM20.3044 18.5422H20.3044C20.5523 18.5465 20.7383 18.591 20.8859 18.6654C21.0332 18.7397 21.1454 18.8454 21.2435 18.9771C21.4384 19.2388 21.55 19.636 21.55 20.0572V25.2C21.55 25.3497 21.6095 25.4932 21.7153 25.599C21.8211 25.7048 21.9646 25.7643 22.1143 25.7643H25.2C25.3497 25.7643 25.4932 25.7048 25.599 25.599C25.7048 25.4932 25.7643 25.3497 25.7643 25.2V19.6775C25.7643 18.1446 25.3101 16.9248 24.5262 16.0973C23.7421 15.2697 22.6527 14.8643 21.5036 14.8643C20.4585 14.8643 19.652 15.1996 19.0786 15.5556V15.4286C19.0786 15.2789 19.0191 15.1354 18.9133 15.0296C18.8075 14.9238 18.664 14.8643 18.5143 14.8643H15.4286C15.2789 14.8643 15.1354 14.9238 15.0296 15.0296C14.9238 15.1354 14.8643 15.2789 14.8643 15.4286V25.2C14.8643 25.3497 14.9238 25.4932 15.0296 25.599C15.1354 25.7048 15.2789 25.7643 15.4286 25.7643H18.5143C18.664 25.7643 18.8075 25.7048 18.9133 25.599C19.0191 25.4932 19.0786 25.3497 19.0786 25.2V20.0572C19.0786 19.6379 19.1933 19.2248 19.3902 18.9578C19.4895 18.8233 19.5997 18.7183 19.7424 18.6475C19.8852 18.5765 20.0644 18.5379 20.3044 18.5422ZM9.77144 7.15001C8.32979 7.15001 7.15001 8.32979 7.15001 9.77144V26.2286C7.15001 27.6702 8.32979 28.85 9.77144 28.85H26.2286C27.6702 28.85 28.85 27.6702 28.85 26.2286V9.77144C28.85 8.32979 27.6702 7.15001 26.2286 7.15001H9.77144ZM9.77144 8.27858H26.2286C27.059 8.27858 27.7214 8.94098 27.7214 9.77144V26.2286C27.7214 27.059 27.059 27.7214 26.2286 27.7214H9.77144C8.94098 27.7214 8.27858 27.059 8.27858 26.2286V9.77144C8.27858 8.94098 8.94098 8.27858 9.77144 8.27858ZM12.3429 11.8726C12.6942 11.8726 12.9307 11.9511 13.0826 12.0776C13.233 12.2029 13.3073 12.3812 13.3224 12.5973C13.319 12.8063 13.253 12.9857 13.1043 13.114C12.9539 13.2436 12.7116 13.3275 12.3429 13.3275C11.9948 13.3275 11.7489 13.2384 11.5909 13.1033C11.4335 12.9688 11.3583 12.7846 11.3583 12.5829C11.3583 12.3834 11.4297 12.2353 11.5835 12.1059C11.7377 11.9762 11.9901 11.8726 12.3429 11.8726ZM10.8 14.8643C10.6504 14.8643 10.5068 14.9238 10.401 15.0296C10.2952 15.1354 10.2357 15.2789 10.2357 15.4286V25.2C10.2357 25.3497 10.2952 25.4932 10.401 25.599C10.5068 25.7048 10.6504 25.7643 10.8 25.7643H13.8857C14.0354 25.7643 14.1789 25.7048 14.2847 25.599C14.3905 25.4932 14.45 25.3497 14.45 25.2V22.1836V15.4286C14.45 15.2789 14.3905 15.1354 14.2847 15.0296C14.1789 14.9238 14.0354 14.8643 13.8857 14.8643H10.8ZM13.3214 15.9929V22.1836V24.6357H11.3643V15.9929H13.3214Z" fill="white" stroke="white" stroke-width="0.1"/>
</svg>
