<svg width="71" height="17" viewBox="0 0 71 17" fill="none" xmlns="http://www.w3.org/2000/svg">
<g clip-path="url(#clip0_537_686)">
<path d="M5.49911 17.0001C7.30813 17.0001 8.40475 16.3819 9.14917 15.501V16.4901L9.34128 16.6755H13.6797L13.8718 16.4901V15.4778L13.6797 15.2924H13.3916C12.9113 15.2924 12.439 14.8287 12.439 14.3728V2.45737L12.6792 0.293731L12.4871 0.108276H11.7266L8.05255 1.46828L7.86044 1.65373V2.27191L8.05255 2.45737H8.34072C8.82099 2.45737 9.29325 2.921 9.29325 3.37691V6.08919C8.58085 5.51737 7.55627 4.98418 6.0034 4.98418C2.97769 4.98418 0.0400391 7.21737 0.0400391 10.9883C0.0400391 15.2074 2.97769 17.0001 5.49911 17.0001ZM6.30757 15.4778C4.18638 15.4778 3.32989 13.4533 3.32989 10.9883C3.32989 8.52328 4.18638 6.49873 6.30757 6.49873C8.42877 6.49873 9.28525 8.52328 9.28525 10.9883C9.28525 13.4533 8.43677 15.4778 6.30757 15.4778Z" fill="#2A2F45"/>
<path d="M21.0519 17C24.726 17 27.5116 14.4886 27.5116 10.9959C27.5116 7.49546 24.726 4.99182 21.0519 4.99182C17.3779 4.99182 14.5923 7.50319 14.5923 10.9959C14.5843 14.4886 17.3779 17 21.0519 17ZM21.0519 15.5241C18.8587 15.5241 17.8822 13.5227 17.8822 10.9882C17.8822 8.45364 18.8587 6.45228 21.0519 6.45228C23.2452 6.45228 24.2217 8.45364 24.2217 10.9882C24.2217 13.5227 23.2452 15.5241 21.0519 15.5241Z" fill="#2A2F45"/>
<path fill-rule="evenodd" clip-rule="evenodd" d="M42.648 4.55909C41.9196 4.93773 41.3353 5.42454 40.919 6.02727V0H37.6452V12.2245C37.6212 14.0791 36.4525 15.1841 34.9717 15.1841C33.683 15.1841 32.7304 14.4964 32.7304 12.9741V7.51864L32.9706 5.355L32.7785 5.16955H32.018L28.2959 6.43682L28.1519 6.62227V7.24045L28.344 7.42591H28.6321C29.1124 7.42591 29.5847 7.88954 29.5847 8.34545V13.0591C29.5847 15.7018 31.2976 16.9923 33.779 16.9923C35.3319 16.9923 36.8127 16.3045 37.6452 15.2691V16.6909H40.919V14.9136C41.3593 15.5009 41.9356 15.98 42.648 16.3586C43.3764 16.7218 44.2329 16.8995 45.1934 16.8995C46.2981 16.8995 47.2986 16.6291 48.1871 16.0882C49.0916 15.5473 49.796 14.79 50.3163 13.8086C50.8446 12.8195 51.1088 11.6836 51.1088 10.4009C51.1088 9.11818 50.8446 8.00545 50.3163 7.03954C49.804 6.05818 49.0916 5.30864 48.1871 4.78318C47.2986 4.25773 46.2981 3.995 45.1934 3.995C44.2409 3.995 43.3924 4.18045 42.648 4.55909ZM47.2746 8.46136C47.6028 9.00227 47.7629 9.65136 47.7629 10.4009C47.7629 11.1659 47.6028 11.8305 47.2746 12.3868C46.9624 12.9432 46.5462 13.3682 46.0099 13.6695C45.4976 13.9709 44.9373 14.1177 44.329 14.1177C43.7366 14.1177 43.1763 13.9786 42.648 13.6927C42.1357 13.3914 41.7115 12.9664 41.3833 12.41C41.0711 11.8536 40.919 11.1968 40.919 10.4473C40.919 9.69773 41.0711 9.04091 41.3833 8.48454C41.7115 7.92818 42.1277 7.50318 42.648 7.21727C43.1763 6.91591 43.7366 6.76909 44.329 6.76909C44.9373 6.76909 45.4976 6.90818 46.0099 7.19409C46.5382 7.48 46.9624 7.905 47.2746 8.46136Z" fill="#2A2F45"/>
<path d="M56.2157 0.301392V17H52.9419V0.301392H56.2157Z" fill="#2A2F45"/>
<path d="M70.9362 10.2773C70.9362 10.7255 70.9042 11.135 70.8401 11.4982H61.3788C61.4589 12.4023 61.787 13.1055 62.3634 13.6155C62.9397 14.1255 63.6521 14.3805 64.4926 14.3805C65.7092 14.3805 66.5737 13.8782 67.086 12.8659H70.616C70.2398 14.0714 69.5274 15.0605 68.4628 15.8409C67.3982 16.6136 66.1015 17 64.5566 17C63.3079 17 62.1873 16.7373 61.1947 16.2118C60.2101 15.6709 59.4417 14.9136 58.8814 13.9323C58.3371 12.9509 58.0649 11.8305 58.0649 10.5477C58.0649 9.25728 58.3371 8.12137 58.8814 7.14C59.4257 6.15864 60.1861 5.4091 61.1707 4.88364C62.1552 4.35819 63.2759 4.09546 64.5566 4.09546C65.7893 4.09546 66.8859 4.35046 67.8545 4.86046C68.839 5.37046 69.5914 6.10455 70.1197 7.04728C70.664 7.98228 70.9362 9.05637 70.9362 10.2773ZM67.5503 9.37319C67.5343 8.56182 67.2301 7.91273 66.6378 7.43364C66.0454 6.93909 65.325 6.69182 64.4605 6.69182C63.6521 6.69182 62.9637 6.93137 62.4034 7.41046C61.8591 7.8741 61.5229 8.53091 61.3948 9.37319H67.5503Z" fill="#2A2F45"/>
</g>
<defs>
<clipPath id="clip0_537_686">
<rect width="71" height="17" fill="white"/>
</clipPath>
</defs>
</svg>
