<svg width="17" height="22" viewBox="0 0 17 22" fill="none" xmlns="http://www.w3.org/2000/svg">
<path d="M8.35561 21.1745C9.11769 21.1745 9.84348 20.8116 10.2427 20.1947L15.178 13.1182C17.8271 9.34416 16.8836 4.15479 13.1095 1.50567C9.33543 -1.14345 4.14605 -0.199929 1.49693 3.57416C-0.498978 6.44102 -0.498978 10.2514 1.49693 13.1182L6.43228 20.1947C6.90404 20.8116 7.59354 21.1745 8.35561 21.1745ZM3.23882 3.21127C6.06939 0.3807 10.6781 0.3807 13.5087 3.21127C16.0127 5.71523 16.3393 9.59818 14.3434 12.5013L9.37171 19.5777C8.97253 20.1221 8.21046 20.2672 7.66612 19.8681C7.55725 19.7955 7.44838 19.6866 7.3758 19.5777L2.40417 12.5013C0.408255 9.59818 0.734859 5.71523 3.23882 3.21127Z" fill="white"/>
<path d="M8.35561 21.1745C9.11769 21.1745 9.84348 20.8116 10.2427 20.1947L15.178 13.1182C17.8271 9.34416 16.8836 4.15479 13.1095 1.50567C9.33543 -1.14345 4.14605 -0.199929 1.49693 3.57416C-0.498978 6.44102 -0.498978 10.2514 1.49693 13.1182L6.43228 20.1947C6.90404 20.8116 7.59354 21.1745 8.35561 21.1745ZM3.23882 3.21127C6.06939 0.3807 10.6781 0.3807 13.5087 3.21127C16.0127 5.71523 16.3393 9.59818 14.3434 12.5013L9.37171 19.5777C8.97253 20.1221 8.21046 20.2672 7.66612 19.8681C7.55725 19.7955 7.44838 19.6866 7.3758 19.5777L2.40417 12.5013C0.408255 9.59818 0.734859 5.71523 3.23882 3.21127Z" fill="white"/>
<path d="M11.6574 8.43709C11.6574 6.6952 10.2421 5.27992 8.50022 5.27992C6.75833 5.27992 5.34305 6.6952 5.34305 8.43709C5.34305 10.179 6.75833 11.5943 8.50022 11.5943C10.2421 11.5943 11.6574 10.179 11.6574 8.43709ZM6.43173 8.43709C6.43173 7.27583 7.37525 6.3686 8.50022 6.3686C9.62519 6.3686 10.5687 7.31212 10.5687 8.43709C10.5687 9.56206 9.62519 10.5056 8.50022 10.5056C7.33896 10.5056 6.43173 9.59835 6.43173 8.43709Z" fill="white"/>
<path d="M11.6574 8.43709C11.6574 6.6952 10.2421 5.27992 8.50022 5.27992C6.75833 5.27992 5.34305 6.6952 5.34305 8.43709C5.34305 10.179 6.75833 11.5943 8.50022 11.5943C10.2421 11.5943 11.6574 10.179 11.6574 8.43709ZM6.43173 8.43709C6.43173 7.27583 7.37525 6.3686 8.50022 6.3686C9.62519 6.3686 10.5687 7.31212 10.5687 8.43709C10.5687 9.56206 9.62519 10.5056 8.50022 10.5056C7.33896 10.5056 6.43173 9.59835 6.43173 8.43709Z" fill="white"/>
</svg>
