<svg width="320" height="302" viewBox="0 0 320 302" fill="none" xmlns="http://www.w3.org/2000/svg">
<path d="M0 150.588C78.7122 150.588 142.521 83.1676 142.521 0C142.521 83.1676 206.33 150.588 285.042 150.588C206.33 150.588 142.521 218.009 142.521 301.176C142.521 218.009 78.7122 150.588 0 150.588Z" fill="#387CD3"/>
<path d="M34.958 149.588V150.588V151.588C113.067 151.588 176.479 218.509 176.479 301.176H177.479H178.479C178.479 218.509 241.891 151.588 320 151.588V150.588V149.588C241.891 149.588 178.479 82.6679 178.479 0H177.479H176.479C176.479 82.6679 113.067 149.588 34.958 149.588Z" stroke="black" stroke-width="2"/>
</svg>
