<svg width="250" height="119" viewBox="0 0 250 119" fill="none" xmlns="http://www.w3.org/2000/svg">
<path d="M185.345 118.484V61.9847H198.927V118.484H185.345Z" fill="#387CD3"/>
<path d="M45.8154 56.9355V0.436035H59.3974V56.9355H45.8154Z" fill="#387CD3"/>
<path d="M163.059 118.484V61.9847H176.641V118.484H163.059Z" fill="#387CD3"/>
<path d="M23.5298 56.9355V0.436035H37.1113V56.9355H23.5298Z" fill="#387CD3"/>
<path d="M207.634 118.484V61.9847H221.215V118.484H207.634Z" fill="#387CD3"/>
<path d="M68.105 56.9355V0.436035H81.6865V56.9355H68.105Z" fill="#387CD3"/>
<path d="M229.924 118.484V61.9847H243.505V118.484H229.924Z" fill="#387CD3"/>
<path d="M90.3906 56.9355V0.436035H103.972V56.9355H90.3906Z" fill="#387CD3"/>
<path d="M0 11.5358V0.436035H14.0068V11.5358H0Z" fill="#387CD3"/>
<path d="M0 34.2356V23.1359H14.0068V34.2356H0Z" fill="#387CD3"/>
<path d="M0 56.936V45.8363H14.0068V56.936H0Z" fill="#387CD3"/>
<path d="M0 73.0844V61.9847H153.537V73.0844H0Z" fill="#387CD3"/>
<path d="M0 95.7847V84.6851H153.537V95.7847H0Z" fill="#387CD3"/>
<path d="M0 118.485H153.537V107.385H0V118.485Z" fill="#387CD3"/>
<path d="M250 0.436035V11.5357L113.495 11.5358V0.436035H250Z" fill="#387CD3"/>
<path d="M250 23.1359V34.2356H113.495V23.1359L250 23.1359Z" fill="#387CD3"/>
<path d="M250 45.8363V56.936H113.495V45.8363H250Z" fill="#387CD3"/>
</svg>
