<svg width="855" height="425" viewBox="0 0 855 425" fill="none" xmlns="http://www.w3.org/2000/svg">
<path fill-rule="evenodd" clip-rule="evenodd" d="M427.5 132.566C589.957 132.566 721.655 263.493 721.655 425H646.523C646.523 304.744 548.463 207.258 427.5 207.258C306.537 207.258 208.477 304.744 208.477 425H133.345C133.345 263.493 265.043 132.566 427.5 132.566Z" fill="#2A2F45"/>
<path fill-rule="evenodd" clip-rule="evenodd" d="M427.5 0C663.602 2.052e-05 855 190.279 855 425H779.868C779.868 231.53 622.108 74.6925 427.5 74.6924C232.892 74.6924 75.1318 231.53 75.1318 425H0C2.06407e-05 190.279 191.398 -2.052e-05 427.5 0Z" fill="#2A2F45"/>
<path fill-rule="evenodd" clip-rule="evenodd" d="M427.5 259.105C519.66 259.105 594.371 333.379 594.371 425H519.239C519.239 374.63 478.166 333.798 427.5 333.798C376.834 333.798 335.761 374.63 335.761 425H260.63C260.63 333.379 335.34 259.105 427.5 259.105Z" fill="#2A2F45"/>
</svg>
