<svg width="320" height="302" viewBox="0 0 320 302" fill="none" xmlns="http://www.w3.org/2000/svg">
<path d="M155.147 74.9624C173.511 72.5083 187.678 56.737 187.678 37.6471C187.678 16.8552 170.872 0 150.142 0C129.412 0 112.607 16.8552 112.607 37.6471C112.607 56.737 126.773 72.5083 145.137 74.9624V138.47L100.364 93.5633C111.619 78.804 110.518 57.6049 97.0589 44.1062C82.4004 29.4041 58.6342 29.4041 43.9756 44.1062C29.3171 58.8083 29.3171 82.6451 43.9756 97.3472C57.4343 110.846 78.5705 111.951 93.2861 100.662L138.06 145.569H74.7403C72.2936 127.15 56.5689 112.941 37.5355 112.941C16.8052 112.941 0 129.796 0 150.588C-2.54688e-06 171.38 16.8052 188.235 37.5355 188.235C56.569 188.235 72.2936 174.027 74.7403 155.608H138.059L93.2861 200.514C78.5705 189.226 57.4344 190.331 43.9758 203.829C29.3173 218.531 29.3173 242.368 43.9758 257.07C58.6344 271.772 82.4006 271.772 97.0591 257.07C110.518 243.571 111.619 222.372 100.364 207.613L145.137 162.706V226.214C126.773 228.668 112.607 244.439 112.607 263.529C112.607 284.321 129.412 301.176 150.142 301.176C170.872 301.176 187.678 284.321 187.678 263.529C187.678 244.439 173.511 228.668 155.147 226.214V162.707L199.92 207.613C188.665 222.373 189.767 243.572 203.226 257.07C217.884 271.772 241.65 271.772 256.309 257.07C270.967 242.368 270.967 218.531 256.309 203.829C242.85 190.331 221.714 189.226 206.998 200.514L162.225 155.608H225.544C227.991 174.027 243.715 188.235 262.749 188.235C283.479 188.235 300.284 171.38 300.284 150.588C300.284 129.796 283.479 112.941 262.749 112.941C243.715 112.941 227.991 127.15 225.544 145.569H162.224L206.998 100.662C221.714 111.951 242.85 110.846 256.309 97.3473C270.967 82.6452 270.967 58.8084 256.309 44.1063C241.65 29.4042 217.884 29.4042 203.225 44.1063C189.767 57.6049 188.665 78.804 199.92 93.5633L155.147 138.47V74.9624Z" fill="#387CD3"/>
<path d="M174.73 73.9712L173.863 74.0871V74.9624V138.47V140.889L175.571 139.176L220.344 94.2693L220.96 93.6511L220.431 92.9569C209.475 78.5898 210.548 57.9519 223.649 44.8123C237.917 30.5022 261.048 30.5022 275.316 44.8123C289.585 59.1241 289.585 82.3294 275.316 96.6412C262.217 109.78 241.644 110.856 227.322 99.8686L226.626 99.3341L226.005 99.956L181.232 144.863L179.531 146.569H181.94H245.26H246.136L246.251 145.7C248.633 127.77 263.941 113.941 282.464 113.941C302.64 113.941 319 130.346 319 150.588C319 170.831 302.64 187.235 282.464 187.235C263.941 187.235 248.633 173.407 246.251 155.476L246.136 154.608H245.26H181.94H179.531L181.232 156.314L226.006 201.221L226.626 201.842L227.323 201.308C241.645 190.321 262.217 191.397 275.316 204.535C289.586 218.847 289.586 242.052 275.316 256.364C261.049 270.674 237.917 270.674 223.649 256.364C210.549 243.225 209.475 222.587 220.431 208.22L220.961 207.525L220.344 206.907L175.571 162.001L173.863 160.287V162.707V226.214V227.089L174.73 227.205C192.602 229.594 206.393 244.945 206.393 263.529C206.393 283.772 190.033 300.176 169.858 300.176C149.683 300.176 133.322 283.772 133.322 263.529C133.322 244.945 147.114 229.594 164.986 227.205L165.853 227.089V226.214V162.706V160.287L164.145 162L119.371 206.907L118.755 207.525L119.284 208.219C130.241 222.586 129.167 243.224 116.067 256.364C101.799 270.674 78.6674 270.674 64.3996 256.364C50.1302 242.052 50.1302 218.847 64.3996 204.535C77.499 191.397 98.071 190.321 112.393 201.308L113.09 201.842L113.71 201.22L158.483 156.314L160.184 154.608H157.775H94.456H93.58L93.4647 155.476C91.0828 173.407 75.7743 187.235 57.2512 187.235C37.0759 187.235 20.7156 170.831 20.7156 150.588C20.7156 130.346 37.076 113.941 57.2512 113.941C75.7743 113.941 91.0828 127.77 93.4647 145.7L93.58 146.569H94.456H157.775H160.184L158.483 144.863L113.71 99.956L113.09 99.3342L112.393 99.8687C98.071 110.855 77.4989 109.779 64.3994 96.6411C50.13 82.3293 50.13 59.1241 64.3994 44.8123C78.6672 30.5021 101.799 30.5021 116.066 44.8123C129.167 57.9519 130.241 78.5898 119.284 92.9569L118.755 93.6511L119.371 94.2694L164.145 139.176L165.853 140.889V138.47V74.9624V74.0871L164.986 73.9712C147.114 71.5829 133.322 56.2315 133.322 37.6471C133.322 17.4046 149.683 1 169.858 1C190.033 1 206.393 17.4046 206.393 37.6471C206.393 56.2315 192.602 71.5829 174.73 73.9712Z" stroke="black" stroke-width="2"/>
</svg>
