<svg width="250" height="125" viewBox="0 0 250 125" fill="none" xmlns="http://www.w3.org/2000/svg">
<path d="M20.5806 21.6638C20.5806 9.69922 30.2798 0 42.2444 0L228.336 1.73546e-05C240.301 1.73546e-05 250 9.69922 250 21.6638C250 33.6284 240.301 43.3276 228.336 43.3276H187.825C185.432 43.3276 183.492 45.2673 183.492 47.6603V49.3934C183.492 51.7864 185.432 53.7262 187.825 53.7262H196.924C206.495 53.7262 214.255 61.4857 214.255 71.0572C214.255 80.6291 206.495 88.3882 196.924 88.3882H147.855C145.522 88.3882 143.631 90.2795 143.631 92.6126C143.631 94.9458 145.522 96.8371 147.855 96.8371H219.887C227.664 96.8371 233.969 103.142 233.969 110.919C233.969 118.695 227.664 125 219.887 125H14.0815C6.30446 125 0 118.695 0 110.919C0 103.142 6.30446 96.8371 14.0815 96.8371H124.675C127.008 96.8371 128.899 94.9458 128.899 92.6126C128.899 90.2795 127.008 88.3882 124.675 88.3882H105.503C95.9311 88.3882 88.1716 80.6291 88.1716 71.0572C88.1716 61.4857 95.9311 53.7262 105.503 53.7262H163.995C166.388 53.7262 168.328 51.7864 168.328 49.3934V47.6603C168.328 45.2673 166.388 43.3276 163.995 43.3276H42.2444C30.2798 43.3276 20.5806 33.6283 20.5806 21.6638Z" fill="#387CD3"/>
</svg>
