<svg width="445" height="484" viewBox="0 0 445 484" fill="none" xmlns="http://www.w3.org/2000/svg">
<path d="M150.235 174.59L222.184 241.78L199.976 337.687L128.027 270.496L150.235 174.59Z" fill="#F4F4F4" stroke="#2A2F45" stroke-width="0.666667" stroke-linejoin="round"/>
<path d="M222.188 241.78L316.349 213.06L294.134 308.965L199.973 337.685L222.188 241.78Z" fill="#F4F4F4" stroke="#2A2F45" stroke-width="0.666667" stroke-linejoin="round"/>
<path d="M150.232 174.599L244.396 145.884L316.349 213.07L222.186 241.784L150.232 174.599Z" fill="#F4F4F4" stroke="#2A2F45" stroke-width="0.666667" stroke-linejoin="round"/>
<path d="M150.235 174.59L222.184 241.78L199.976 337.687L128.027 270.496L150.235 174.59Z" fill="#F4F4F4" stroke="#2A2F45" stroke-width="0.666667" stroke-linejoin="round"/>
<path d="M222.188 241.78L316.349 213.06L294.134 308.965L199.973 337.685L222.188 241.78Z" fill="#F4F4F4" stroke="#2A2F45" stroke-width="0.666667" stroke-linejoin="round"/>
<path d="M150.232 174.599L244.396 145.884L316.349 213.07L222.186 241.784L150.232 174.599Z" fill="#F4F4F4" stroke="#2A2F45" stroke-width="0.666667" stroke-linejoin="round"/>
<path d="M174.602 69.375L246.551 136.566L224.343 232.472L152.394 165.281L174.602 69.375Z" fill="#F4F4F4" stroke="#2A2F45" stroke-width="0.666667" stroke-linejoin="round"/>
<path d="M246.555 136.565L340.716 107.845L318.502 203.75L224.34 232.47L246.555 136.565Z" fill="#F4F4F4" stroke="#2A2F45" stroke-width="0.666667" stroke-linejoin="round"/>
<path d="M174.6 69.3837L268.763 40.6694L340.716 107.855L246.553 136.57L174.6 69.3837Z" fill="#F4F4F4" stroke="#2A2F45" stroke-width="0.666667" stroke-linejoin="round"/>
<path d="M174.602 69.375L246.551 136.566L224.343 232.472L152.394 165.281L174.602 69.375Z" fill="#F4F4F4" stroke="#2A2F45" stroke-width="0.666667" stroke-linejoin="round"/>
<path d="M246.555 136.565L340.716 107.845L318.502 203.75L224.34 232.47L246.555 136.565Z" fill="#F4F4F4" stroke="#2A2F45" stroke-width="0.666667" stroke-linejoin="round"/>
<path d="M174.6 69.3837L268.763 40.6694L340.716 107.855L246.553 136.57L174.6 69.3837Z" fill="#F4F4F4" stroke="#2A2F45" stroke-width="0.666667" stroke-linejoin="round"/>
<path d="M45.5008 205.766L117.449 272.956L95.2415 368.863L23.2926 301.672L45.5008 205.766Z" fill="#F4F4F4" stroke="#2A2F45" stroke-width="0.666667" stroke-linejoin="round"/>
<path d="M117.454 272.956L211.615 244.236L189.4 340.141L95.2391 368.861L117.454 272.956Z" fill="#F4F4F4" stroke="#2A2F45" stroke-width="0.666667" stroke-linejoin="round"/>
<path d="M45.4984 205.774L139.662 177.06L211.615 244.246L117.452 272.96L45.4984 205.774Z" fill="#F4F4F4" stroke="#2A2F45" stroke-width="0.666667" stroke-linejoin="round"/>
<path d="M45.5008 205.766L117.449 272.956L95.2415 368.863L23.2926 301.672L45.5008 205.766Z" fill="#F4F4F4" stroke="#2A2F45" stroke-width="0.666667" stroke-linejoin="round"/>
<path d="M117.454 272.956L211.615 244.236L189.4 340.141L95.2391 368.861L117.454 272.956Z" fill="#F4F4F4" stroke="#2A2F45" stroke-width="0.666667" stroke-linejoin="round"/>
<path d="M45.4984 205.774L139.662 177.06L211.615 244.246L117.452 272.96L45.4984 205.774Z" fill="#F4F4F4" stroke="#2A2F45" stroke-width="0.666667" stroke-linejoin="round"/>
<path d="M69.8681 100.551L141.817 167.741L119.609 263.648L47.6599 196.457L69.8681 100.551Z" fill="#F4F4F4" stroke="#2A2F45" stroke-width="0.666667" stroke-linejoin="round"/>
<path d="M141.821 167.741L235.982 139.021L213.768 234.926L119.606 263.646L141.821 167.741Z" fill="#F4F4F4" stroke="#2A2F45" stroke-width="0.666667" stroke-linejoin="round"/>
<path d="M69.8657 100.559L164.029 71.8452L235.982 139.031L141.819 167.745L69.8657 100.559Z" fill="#F4F4F4" stroke="#2A2F45" stroke-width="0.666667" stroke-linejoin="round"/>
<path d="M69.8681 100.551L141.817 167.741L119.609 263.648L47.6599 196.457L69.8681 100.551Z" fill="#F4F4F4" stroke="#2A2F45" stroke-width="0.666667" stroke-linejoin="round"/>
<path d="M141.821 167.741L235.982 139.021L213.768 234.926L119.606 263.646L141.821 167.741Z" fill="#F4F4F4" stroke="#2A2F45" stroke-width="0.666667" stroke-linejoin="round"/>
<path d="M69.8657 100.559L164.029 71.8452L235.982 139.031L141.819 167.745L69.8657 100.559Z" fill="#F4F4F4" stroke="#2A2F45" stroke-width="0.666667" stroke-linejoin="round"/>
<path d="M230.602 248.633L302.55 315.823L280.342 411.73L208.393 344.539L230.602 248.633Z" fill="#F4F4F4" stroke="#2A2F45" stroke-width="0.666667" stroke-linejoin="round"/>
<path d="M302.554 315.823L396.716 287.103L374.501 383.008L280.34 411.728L302.554 315.823Z" fill="#F4F4F4" stroke="#2A2F45" stroke-width="0.666667" stroke-linejoin="round"/>
<path d="M230.599 248.641L324.762 219.927L396.716 287.113L302.552 315.827L230.599 248.641Z" fill="#F4F4F4" stroke="#2A2F45" stroke-width="0.666667" stroke-linejoin="round"/>
<path d="M230.602 248.633L302.55 315.823L280.342 411.73L208.393 344.539L230.602 248.633Z" fill="#F4F4F4" stroke="#2A2F45" stroke-width="0.666667" stroke-linejoin="round"/>
<path d="M302.554 315.823L396.716 287.103L374.501 383.008L280.34 411.728L302.554 315.823Z" fill="#F4F4F4" stroke="#2A2F45" stroke-width="0.666667" stroke-linejoin="round"/>
<path d="M230.599 248.641L324.762 219.927L396.716 287.113L302.552 315.827L230.599 248.641Z" fill="#F4F4F4" stroke="#2A2F45" stroke-width="0.666667" stroke-linejoin="round"/>
<path d="M254.969 143.418L326.918 210.609L304.71 306.515L232.761 239.324L254.969 143.418Z" fill="#F4F4F4" stroke="#2A2F45" stroke-width="0.666667" stroke-linejoin="round"/>
<path d="M326.922 210.608L421.083 181.888L398.868 277.793L304.707 306.513L326.922 210.608Z" fill="#F4F4F4" stroke="#2A2F45" stroke-width="0.666667" stroke-linejoin="round"/>
<path d="M254.966 143.427L349.13 114.712L421.083 181.898L326.92 210.613L254.966 143.427Z" fill="#F4F4F4" stroke="#2A2F45" stroke-width="0.666667" stroke-linejoin="round"/>
<path d="M254.969 143.418L326.918 210.609L304.71 306.515L232.761 239.324L254.969 143.418Z" fill="#F4F4F4" stroke="#2A2F45" stroke-width="0.666667" stroke-linejoin="round"/>
<path d="M326.922 210.608L421.083 181.888L398.868 277.793L304.707 306.513L326.922 210.608Z" fill="#F4F4F4" stroke="#2A2F45" stroke-width="0.666667" stroke-linejoin="round"/>
<path d="M254.966 143.427L349.13 114.712L421.083 181.898L326.92 210.613L254.966 143.427Z" fill="#F4F4F4" stroke="#2A2F45" stroke-width="0.666667" stroke-linejoin="round"/>
<path d="M125.868 279.805L197.816 346.995L175.608 442.902L103.659 375.711L125.868 279.805Z" fill="#F4F4F4" stroke="#2A2F45" stroke-width="0.666667" stroke-linejoin="round"/>
<path d="M197.82 346.995L291.982 318.275L269.767 414.18L175.606 442.9L197.82 346.995Z" fill="#F4F4F4" stroke="#2A2F45" stroke-width="0.666667" stroke-linejoin="round"/>
<path d="M125.865 279.813L220.028 251.099L291.982 318.285L197.818 346.999L125.865 279.813Z" fill="#F4F4F4" stroke="#2A2F45" stroke-width="0.666667" stroke-linejoin="round"/>
<path d="M125.868 279.805L197.816 346.995L175.608 442.902L103.659 375.711L125.868 279.805Z" fill="#F4F4F4" stroke="#2A2F45" stroke-width="0.666667" stroke-linejoin="round"/>
<path d="M197.82 346.995L291.982 318.275L269.767 414.18L175.606 442.9L197.82 346.995Z" fill="#F4F4F4" stroke="#2A2F45" stroke-width="0.666667" stroke-linejoin="round"/>
<path d="M125.865 279.813L220.028 251.099L291.982 318.285L197.818 346.999L125.865 279.813Z" fill="#F4F4F4" stroke="#2A2F45" stroke-width="0.666667" stroke-linejoin="round"/>
<path d="M150.235 174.59L222.184 241.78L199.976 337.687L128.027 270.496L150.235 174.59Z" fill="#F4F4F4" stroke="#2A2F45" stroke-width="0.666667" stroke-linejoin="round"/>
<path d="M222.188 241.78L316.349 213.06L294.134 308.965L199.973 337.685L222.188 241.78Z" fill="#F4F4F4" stroke="#2A2F45" stroke-width="0.666667" stroke-linejoin="round"/>
<path d="M150.232 174.599L244.396 145.884L316.349 213.07L222.186 241.784L150.232 174.599Z" fill="#F4F4F4" stroke="#2A2F45" stroke-width="0.666667" stroke-linejoin="round"/>
<path d="M150.235 174.59L222.184 241.78L199.976 337.687L128.027 270.496L150.235 174.59Z" fill="#F4F4F4" stroke="#2A2F45" stroke-width="0.666667" stroke-linejoin="round"/>
<path d="M222.188 241.78L316.349 213.06L294.134 308.965L199.973 337.685L222.188 241.78Z" fill="#F4F4F4" stroke="#2A2F45" stroke-width="0.666667" stroke-linejoin="round"/>
<path d="M150.232 174.599L244.396 145.884L316.349 213.07L222.186 241.784L150.232 174.599Z" fill="#F4F4F4" stroke="#2A2F45" stroke-width="0.666667" stroke-linejoin="round"/>
</svg>
