<svg width="331" height="359" viewBox="0 0 331 359" fill="none" xmlns="http://www.w3.org/2000/svg">
<path d="M48.6528 173.427L127.304 285.191L118.186 310.519L39.5347 198.755L48.6528 173.427Z" fill="#387CD3" stroke="#2A2F45" stroke-width="0.666667" stroke-linecap="round" stroke-linejoin="round"/>
<path d="M127.304 285.191L259.146 249.206L250.028 274.534L118.186 310.52L127.304 285.191Z" fill="#2A2F45" stroke="#2A2F45" stroke-width="0.666667" stroke-linecap="round" stroke-linejoin="round"/>
<path d="M180.494 137.441L259.145 249.205L127.304 285.191L48.6528 173.427L180.494 137.441Z" fill="#F4F4F4" stroke="#2A2F45" stroke-width="0.666667" stroke-linecap="round" stroke-linejoin="round"/>
<path d="M48.6528 173.427L127.304 285.191L118.186 310.519L39.5347 198.755L48.6528 173.427Z" fill="#387CD3" stroke="#2A2F45" stroke-width="0.666667" stroke-linecap="round" stroke-linejoin="round"/>
<path d="M127.304 285.191L259.146 249.206L250.028 274.534L118.186 310.52L127.304 285.191Z" fill="#2A2F45" stroke="#2A2F45" stroke-width="0.666667" stroke-linecap="round" stroke-linejoin="round"/>
<path d="M180.494 137.441L259.145 249.205L127.304 285.191L48.6528 173.427L180.494 137.441Z" fill="#F4F4F4" stroke="#2A2F45" stroke-width="0.666667" stroke-linecap="round" stroke-linejoin="round"/>
<path d="M63.7151 131.588L142.366 243.352L133.248 268.68L54.5969 156.916L63.7151 131.588Z" fill="#387CD3" stroke="#2A2F45" stroke-width="0.666667" stroke-linecap="round" stroke-linejoin="round"/>
<path d="M142.366 243.352L274.208 207.366L265.09 232.694L133.248 268.68L142.366 243.352Z" fill="#2A2F45" stroke="#2A2F45" stroke-width="0.666667" stroke-linecap="round" stroke-linejoin="round"/>
<path d="M195.557 95.6024L274.207 207.366L142.366 243.352L63.7151 131.588L195.557 95.6024Z" fill="#F4F4F4" stroke="#2A2F45" stroke-width="0.666667" stroke-linecap="round" stroke-linejoin="round"/>
<path d="M63.7151 131.588L142.366 243.352L133.248 268.68L54.5969 156.916L63.7151 131.588Z" fill="#387CD3" stroke="#2A2F45" stroke-width="0.666667" stroke-linecap="round" stroke-linejoin="round"/>
<path d="M142.366 243.352L274.208 207.366L265.09 232.694L133.248 268.68L142.366 243.352Z" fill="#2A2F45" stroke="#2A2F45" stroke-width="0.666667" stroke-linecap="round" stroke-linejoin="round"/>
<path d="M195.557 95.6024L274.207 207.366L142.366 243.352L63.7151 131.588L195.557 95.6024Z" fill="#F4F4F4" stroke="#2A2F45" stroke-width="0.666667" stroke-linecap="round" stroke-linejoin="round"/>
<path d="M80.7019 84.2609L159.353 196.024L150.235 221.353L71.5837 109.589L80.7019 84.2609Z" fill="#387CD3" stroke="#2A2F45" stroke-width="0.666667" stroke-linecap="round" stroke-linejoin="round"/>
<path d="M159.353 196.024L291.195 160.039L282.077 185.367L150.235 221.353L159.353 196.024Z" fill="#2A2F45" stroke="#2A2F45" stroke-width="0.666667" stroke-linecap="round" stroke-linejoin="round"/>
<path d="M212.543 48.2748L291.194 160.039L159.353 196.024L80.7019 84.2609L212.543 48.2748Z" fill="#F4F4F4" stroke="#2A2F45" stroke-width="0.666667" stroke-linecap="round" stroke-linejoin="round"/>
<path d="M80.7019 84.2609L159.353 196.024L150.235 221.353L71.5837 109.589L80.7019 84.2609Z" fill="#387CD3" stroke="#2A2F45" stroke-width="0.666667" stroke-linecap="round" stroke-linejoin="round"/>
<path d="M159.353 196.024L291.195 160.039L282.077 185.367L150.235 221.353L159.353 196.024Z" fill="#2A2F45" stroke="#2A2F45" stroke-width="0.666667" stroke-linecap="round" stroke-linejoin="round"/>
<path d="M212.543 48.2748L291.194 160.039L159.353 196.024L80.7019 84.2609L212.543 48.2748Z" fill="#F4F4F4" stroke="#2A2F45" stroke-width="0.666667" stroke-linecap="round" stroke-linejoin="round"/>
</svg>
