<svg width="612" height="613" viewBox="0 0 612 613" fill="none" xmlns="http://www.w3.org/2000/svg">
    <g clip-path="url(#clip0_2257_6676)">
    <path d="M505.077 221.776C495.249 238.799 483.223 252.073 470.202 262.41L397.81 281.807C410.831 271.47 422.857 258.197 432.685 241.173C461.092 191.972 444.234 129.06 395.033 100.654C382.324 93.317 368.701 88.9992 354.993 87.4794C386.897 64.0194 430.934 60.1876 467.425 81.2566C516.627 109.663 533.484 172.575 505.077 221.776Z" fill="#F4F4F4" stroke="#2A2F45" stroke-width="0.666667" stroke-linejoin="round"/>
    <path d="M558.374 420.678C537.306 457.171 497.253 475.871 457.893 471.506C469.005 463.336 478.644 452.786 485.982 440.076C514.388 390.876 497.531 327.963 448.33 299.557C431.306 289.728 414.255 284.246 397.81 281.805L470.202 262.407C486.647 264.849 503.698 270.331 520.722 280.159C569.923 308.566 586.781 371.479 558.374 420.678Z" fill="#F4F4F4" stroke="#2A2F45" stroke-width="0.666667" stroke-linejoin="round"/>
    <path d="M154.661 141.16C168.369 142.68 181.993 146.997 194.701 154.335C212.472 164.595 226.142 177.381 236.645 191.244C238.806 173.987 244.254 156.079 254.513 138.308C256.002 135.73 257.584 133.242 259.255 130.843C224.44 114.508 184.312 119.357 154.661 141.16Z" fill="#F4F4F4" stroke="#2A2F45" stroke-width="0.666667" stroke-linejoin="round"/>
    <path d="M257.561 525.186C294.141 529.244 331.318 513.379 353.301 481.824C350.654 480.583 348.04 479.219 345.461 477.73C327.691 467.471 314.02 454.685 303.519 440.82C301.356 458.078 295.91 475.986 285.649 493.756C278.313 506.466 268.673 517.017 257.561 525.186Z" fill="#F4F4F4" stroke="#2A2F45" stroke-width="0.666667" stroke-linejoin="round"/>
    <path fill-rule="evenodd" clip-rule="evenodd" d="M54.1816 191.984C82.5877 142.783 145.5 125.926 194.701 154.332C212.472 164.592 226.142 177.378 236.645 191.242C238.808 173.984 244.254 156.076 254.513 138.306C282.919 89.1048 345.832 72.2473 395.033 100.653C444.234 129.059 461.092 191.971 432.685 241.173C422.857 258.196 410.831 271.47 397.81 281.806C414.255 284.248 431.306 289.73 448.33 299.558C497.531 327.965 514.388 390.878 485.982 440.079C457.575 489.279 394.662 506.136 345.461 477.731C327.691 467.471 314.021 454.684 303.519 440.82C301.356 458.078 295.91 475.986 285.65 493.758C257.244 542.957 194.331 559.815 145.13 531.41C95.9294 503.004 79.0719 440.091 107.478 390.889C117.306 373.866 129.333 360.592 142.353 350.256C125.909 347.814 108.857 342.332 91.8336 332.504C42.6326 304.097 25.7754 241.185 54.1816 191.984ZM253.918 255.708C253.918 255.708 266.358 281.143 280.736 290.5C297.28 301.267 330.405 299.867 330.405 299.867C330.405 299.867 299.944 309.518 290.062 325.307C279.456 342.252 286.245 376.354 286.245 376.354C286.245 376.354 275.074 343.427 257.416 334.054C240.964 325.322 209.758 332.195 209.758 332.195C209.758 332.195 239.145 316.844 248.089 299.247C255.863 283.955 253.918 255.708 253.918 255.708Z" fill="#F4F4F4" stroke="#2A2F45" stroke-width="0.666667" stroke-linejoin="round"/>
    </g>
    <defs>
    <clipPath id="clip0_2257_6676">
    <rect width="499.328" height="499.328" fill="white" transform="translate(0.30835 129.844) rotate(-15)"/>
    </clipPath>
    </defs>
    </svg>
    