<svg width="320" height="302" viewBox="0 0 320 302" fill="none" xmlns="http://www.w3.org/2000/svg">
<path d="M144.2 257.222C144.2 257.222 191.967 200.55 206.031 155.076C223.742 97.8084 206.031 9.06814e-05 206.031 9.06814e-05L7.87172 6.87463e-05C7.87172 6.87463e-05 -9.83962 97.8084 7.87171 155.076C21.9355 200.55 69.7035 257.222 69.7035 257.222L69.7035 301.176L144.2 301.177L144.2 257.222Z" fill="#387CD3"/>
<path d="M249.532 256.578L249.297 256.857L249.297 257.222L249.297 300.177L176.801 300.176L176.801 257.222L176.801 256.857L176.565 256.578L175.801 257.222C176.565 256.578 176.565 256.578 176.565 256.577L176.563 256.576L176.557 256.568L176.532 256.538L176.43 256.417C176.34 256.309 176.206 256.149 176.031 255.937C175.679 255.513 175.161 254.884 174.496 254.067C173.167 252.434 171.25 250.048 168.906 247.042C164.217 241.03 157.818 232.541 150.982 222.634C137.293 202.798 121.909 177.365 114.924 154.781C106.127 126.336 106.112 87.7263 108.325 56.1326C109.43 40.3546 111.087 26.3617 112.469 16.3136C113.16 11.29 113.781 7.2534 114.23 4.47395C114.454 3.08427 114.635 2.00892 114.76 1.28172C114.777 1.18116 114.793 1.08723 114.808 1.00007L311.289 1.00009C311.304 1.08725 311.32 1.18118 311.337 1.28174C311.462 2.00894 311.643 3.08429 311.868 4.47397C312.316 7.25342 312.938 11.29 313.628 16.3137C315.01 26.3618 316.667 40.3546 317.773 56.1326C319.985 87.7263 319.97 126.336 311.173 154.781C304.188 177.365 288.804 202.798 275.116 222.634C268.279 232.54 261.881 241.03 257.192 247.042C254.847 250.047 252.931 252.433 251.601 254.067C250.936 254.884 250.418 255.513 250.067 255.937C249.891 256.149 249.757 256.309 249.667 256.417L249.566 256.538L249.54 256.568L249.534 256.576L249.532 256.577C249.532 256.578 249.532 256.578 250.297 257.222L249.532 256.578Z" stroke="white" stroke-width="2"/>
</svg>
