<svg width="285" height="99" viewBox="0 0 285 99" fill="none" xmlns="http://www.w3.org/2000/svg">
<path d="M256.441 92.9628C254.541 81.8659 247.415 73.0845 238.315 70.9452C247.415 68.8059 254.541 60.0245 256.441 48.9275C258.341 60.0245 265.467 68.8059 274.567 70.9452C265.467 73.0845 258.341 81.8659 256.441 92.9628Z" stroke="#F4F4F4"/>
<path d="M239.505 70.9452C251.899 70.9452 261.946 58.4337 261.946 43C261.946 58.4337 271.993 70.9452 284.387 70.9452C271.993 70.9452 261.946 83.4567 261.946 98.8904C261.946 83.4567 251.899 70.9452 239.505 70.9452Z" fill="#387CD3"/>
<path d="M0 53L57.2502 53L57.2502 1.00006L89.5088 1.00006L162.453 1.00006L262 1V26.5504M262 26.5504L270 20.0623M262 26.5504L255 20.0623" stroke="white" stroke-width="2"/>
</svg>
